<?xml version="1.0" encoding="utf-8" standalone="no"?>
<!DOCTYPE svg PUBLIC "-//W3C//DTD SVG 1.1//EN"
  "http://www.w3.org/Graphics/SVG/1.1/DTD/svg11.dtd">
<svg xmlns:xlink="http://www.w3.org/1999/xlink" width="460.8pt" height="345.6pt" viewBox="0 0 460.8 345.6" xmlns="http://www.w3.org/2000/svg" version="1.1">
 <metadata>
  <rdf:RDF xmlns:dc="http://purl.org/dc/elements/1.1/" xmlns:cc="http://creativecommons.org/ns#" xmlns:rdf="http://www.w3.org/1999/02/22-rdf-syntax-ns#">
   <cc:Work>
    <dc:type rdf:resource="http://purl.org/dc/dcmitype/StillImage"/>
    <dc:date>2025-11-13T10:21:04.824269</dc:date>
    <dc:format>image/svg+xml</dc:format>
    <dc:creator>
     <cc:Agent>
      <dc:title>Matplotlib v3.9.1.post1, https://matplotlib.org/</dc:title>
     </cc:Agent>
    </dc:creator>
   </cc:Work>
  </rdf:RDF>
 </metadata>
 <defs>
  <style type="text/css">*{stroke-linejoin: round; stroke-linecap: butt}</style>
 </defs>
 <g id="figure_1">
  <g id="patch_1">
   <path d="M 0 345.6 
L 460.8 345.6 
L 460.8 0 
L 0 0 
z
" style="fill: #ffffff"/>
  </g>
  <g id="axes_1">
   <g id="line2d_1">
    <path d="M 156.8 144.768 
L 169.2 132.368 
L 156.8 119.968 
L 144.4 132.368 
L 132 119.968 
L 119.6 132.368 
L 132 144.768 
L 119.6 157.168 
L 107.2 144.768 
L 94.8 157.168 
L 107.2 169.568 
L 119.6 157.168 
L 132 169.568 
L 119.6 181.968 
L 132 194.368 
L 119.6 206.768 
L 107.2 194.368 
L 94.8 206.768 
L 107.2 219.168 
L 119.6 206.768 
L 132 219.168 
L 144.4 206.768 
L 132 194.368 
L 144.4 181.968 
L 156.8 194.368 
L 144.4 206.768 
L 156.8 219.168 
L 169.2 206.768 
L 181.6 219.168 
L 169.2 231.568 
L 181.6 243.968 
L 169.2 256.368 
L 156.8 243.968 
L 144.4 256.368 
L 156.8 268.768 
L 169.2 256.368 
L 181.6 268.768 
L 194 256.368 
L 181.6 243.968 
L 194 231.568 
L 206.4 243.968 
L 218.8 231.568 
L 206.4 219.168 
L 194 231.568 
L 181.6 219.168 
L 194 206.768 
L 181.6 194.368 
L 194 181.968 
L 206.4 194.368 
L 194 206.768 
L 206.4 219.168 
L 218.8 206.768 
L 231.2 219.168 
L 243.6 206.768 
L 231.2 194.368 
L 243.6 181.968 
L 256 194.368 
L 243.6 206.768 
L 256 219.168 
L 268.4 206.768 
L 280.8 219.168 
L 268.4 231.568 
L 280.8 243.968 
L 268.4 256.368 
L 256 243.968 
L 243.6 256.368 
L 256 268.768 
L 268.4 256.368 
L 280.8 268.768 
L 293.2 256.368 
L 280.8 243.968 
L 293.2 231.568 
L 305.6 243.968 
L 318 231.568 
L 305.6 219.168 
L 293.2 231.568 
L 280.8 219.168 
L 293.2 206.768 
L 280.8 194.368 
L 293.2 181.968 
L 305.6 194.368 
L 318 181.968 
L 305.6 169.568 
L 293.2 181.968 
L 280.8 169.568 
L 268.4 181.968 
L 280.8 194.368 
L 268.4 206.768 
L 256 194.368 
L 268.4 181.968 
L 256 169.568 
L 243.6 181.968 
L 231.2 169.568 
L 243.6 157.168 
L 231.2 144.768 
L 243.6 132.368 
L 256 144.768 
L 243.6 157.168 
L 256 169.568 
L 268.4 157.168 
L 280.8 169.568 
L 293.2 157.168 
L 280.8 144.768 
L 293.2 132.368 
L 305.6 144.768 
L 318 132.368 
L 305.6 119.968 
L 293.2 132.368 
L 280.8 119.968 
L 293.2 107.568 
L 280.8 95.168 
L 293.2 82.768 
L 305.6 95.168 
L 293.2 107.568 
L 305.6 119.968 
L 318 107.568 
L 330.4 119.968 
L 342.8 107.568 
L 330.4 95.168 
L 342.8 82.768 
L 355.2 95.168 
L 342.8 107.568 
L 355.2 119.968 
L 367.6 107.568 
L 380 119.968 
L 367.6 132.368 
L 380 144.768 
L 367.6 157.168 
L 355.2 144.768 
L 355.2 144.768 
" clip-path="url(#p0a8ca1e112)" style="fill: none; stroke: #bbbbbb; stroke-width: 3; stroke-linecap: square"/>
   </g>
   <g id="line2d_2">
    <path d="M 163 138.568 
L 169.2 144.768 
" clip-path="url(#p0a8ca1e112)" style="fill: none; stroke: #fc8080; stroke-width: 3; stroke-linecap: square"/>
   </g>
   <g id="line2d_3">
    <path d="M 150.6 126.168 
L 144.4 119.968 
" clip-path="url(#p0a8ca1e112)" style="fill: none; stroke: #fc8080; stroke-width: 3; stroke-linecap: square"/>
   </g>
   <g id="line2d_4">
    <path d="M 125.8 126.168 
L 119.6 119.968 
" clip-path="url(#p0a8ca1e112)" style="fill: none; stroke: #fc8080; stroke-width: 3; stroke-linecap: square"/>
   </g>
   <g id="line2d_5">
    <path d="M 125.8 150.968 
L 119.6 144.768 
" clip-path="url(#p0a8ca1e112)" style="fill: none; stroke: #fc8080; stroke-width: 3; stroke-linecap: square"/>
   </g>
   <g id="line2d_6">
    <path d="M 101 150.968 
L 94.8 144.768 
" clip-path="url(#p0a8ca1e112)" style="fill: none; stroke: #fc8080; stroke-width: 3; stroke-linecap: square"/>
   </g>
   <g id="line2d_7">
    <path d="M 113.4 163.368 
L 119.6 169.568 
" clip-path="url(#p0a8ca1e112)" style="fill: none; stroke: #fc8080; stroke-width: 3; stroke-linecap: square"/>
   </g>
   <g id="line2d_8">
    <path d="M 125.8 175.768 
L 119.6 169.568 
" clip-path="url(#p0a8ca1e112)" style="fill: none; stroke: #fc8080; stroke-width: 3; stroke-linecap: square"/>
   </g>
   <g id="line2d_9">
    <path d="M 125.8 200.568 
L 119.6 194.368 
" clip-path="url(#p0a8ca1e112)" style="fill: none; stroke: #fc8080; stroke-width: 3; stroke-linecap: square"/>
   </g>
   <g id="line2d_10">
    <path d="M 101 200.568 
L 94.8 194.368 
" clip-path="url(#p0a8ca1e112)" style="fill: none; stroke: #fc8080; stroke-width: 3; stroke-linecap: square"/>
   </g>
   <g id="line2d_11">
    <path d="M 113.4 212.968 
L 119.6 219.168 
" clip-path="url(#p0a8ca1e112)" style="fill: none; stroke: #fc8080; stroke-width: 3; stroke-linecap: square"/>
   </g>
   <g id="line2d_12">
    <path d="M 138.2 212.968 
L 144.4 219.168 
" clip-path="url(#p0a8ca1e112)" style="fill: none; stroke: #fc8080; stroke-width: 3; stroke-linecap: square"/>
   </g>
   <g id="line2d_13">
    <path d="M 138.2 188.168 
L 144.4 194.368 
" clip-path="url(#p0a8ca1e112)" style="fill: none; stroke: #fc8080; stroke-width: 3; stroke-linecap: square"/>
   </g>
   <g id="line2d_14">
    <path d="M 150.6 200.568 
L 144.4 194.368 
" clip-path="url(#p0a8ca1e112)" style="fill: none; stroke: #fc8080; stroke-width: 3; stroke-linecap: square"/>
   </g>
   <g id="line2d_15">
    <path d="M 163 212.968 
L 169.2 219.168 
" clip-path="url(#p0a8ca1e112)" style="fill: none; stroke: #fc8080; stroke-width: 3; stroke-linecap: square"/>
   </g>
   <g id="line2d_16">
    <path d="M 175.4 225.368 
L 169.2 219.168 
" clip-path="url(#p0a8ca1e112)" style="fill: none; stroke: #fc8080; stroke-width: 3; stroke-linecap: square"/>
   </g>
   <g id="line2d_17">
    <path d="M 175.4 250.168 
L 169.2 243.968 
" clip-path="url(#p0a8ca1e112)" style="fill: none; stroke: #fc8080; stroke-width: 3; stroke-linecap: square"/>
   </g>
   <g id="line2d_18">
    <path d="M 150.6 250.168 
L 144.4 243.968 
" clip-path="url(#p0a8ca1e112)" style="fill: none; stroke: #fc8080; stroke-width: 3; stroke-linecap: square"/>
   </g>
   <g id="line2d_19">
    <path d="M 163 262.568 
L 169.2 268.768 
" clip-path="url(#p0a8ca1e112)" style="fill: none; stroke: #fc8080; stroke-width: 3; stroke-linecap: square"/>
   </g>
   <g id="line2d_20">
    <path d="M 187.8 262.568 
L 194 268.768 
" clip-path="url(#p0a8ca1e112)" style="fill: none; stroke: #fc8080; stroke-width: 3; stroke-linecap: square"/>
   </g>
   <g id="line2d_21">
    <path d="M 187.8 237.768 
L 194 243.968 
" clip-path="url(#p0a8ca1e112)" style="fill: none; stroke: #fc8080; stroke-width: 3; stroke-linecap: square"/>
   </g>
   <g id="line2d_22">
    <path d="M 212.6 237.768 
L 218.8 243.968 
" clip-path="url(#p0a8ca1e112)" style="fill: none; stroke: #fc8080; stroke-width: 3; stroke-linecap: square"/>
   </g>
   <g id="line2d_23">
    <path d="M 200.2 225.368 
L 194 219.168 
" clip-path="url(#p0a8ca1e112)" style="fill: none; stroke: #fc8080; stroke-width: 3; stroke-linecap: square"/>
   </g>
   <g id="line2d_24">
    <path d="M 187.8 212.968 
L 194 219.168 
" clip-path="url(#p0a8ca1e112)" style="fill: none; stroke: #fc8080; stroke-width: 3; stroke-linecap: square"/>
   </g>
   <g id="line2d_25">
    <path d="M 187.8 188.168 
L 194 194.368 
" clip-path="url(#p0a8ca1e112)" style="fill: none; stroke: #fc8080; stroke-width: 3; stroke-linecap: square"/>
   </g>
   <g id="line2d_26">
    <path d="M 200.2 200.568 
L 194 194.368 
" clip-path="url(#p0a8ca1e112)" style="fill: none; stroke: #fc8080; stroke-width: 3; stroke-linecap: square"/>
   </g>
   <g id="line2d_27">
    <path d="M 212.6 212.968 
L 218.8 219.168 
" clip-path="url(#p0a8ca1e112)" style="fill: none; stroke: #fc8080; stroke-width: 3; stroke-linecap: square"/>
   </g>
   <g id="line2d_28">
    <path d="M 237.4 212.968 
L 243.6 219.168 
" clip-path="url(#p0a8ca1e112)" style="fill: none; stroke: #fc8080; stroke-width: 3; stroke-linecap: square"/>
   </g>
   <g id="line2d_29">
    <path d="M 237.4 188.168 
L 243.6 194.368 
" clip-path="url(#p0a8ca1e112)" style="fill: none; stroke: #fc8080; stroke-width: 3; stroke-linecap: square"/>
   </g>
   <g id="line2d_30">
    <path d="M 249.8 200.568 
L 243.6 194.368 
" clip-path="url(#p0a8ca1e112)" style="fill: none; stroke: #fc8080; stroke-width: 3; stroke-linecap: square"/>
   </g>
   <g id="line2d_31">
    <path d="M 262.2 212.968 
L 268.4 219.168 
" clip-path="url(#p0a8ca1e112)" style="fill: none; stroke: #fc8080; stroke-width: 3; stroke-linecap: square"/>
   </g>
   <g id="line2d_32">
    <path d="M 274.6 225.368 
L 268.4 219.168 
" clip-path="url(#p0a8ca1e112)" style="fill: none; stroke: #fc8080; stroke-width: 3; stroke-linecap: square"/>
   </g>
   <g id="line2d_33">
    <path d="M 274.6 250.168 
L 268.4 243.968 
" clip-path="url(#p0a8ca1e112)" style="fill: none; stroke: #fc8080; stroke-width: 3; stroke-linecap: square"/>
   </g>
   <g id="line2d_34">
    <path d="M 249.8 250.168 
L 243.6 243.968 
" clip-path="url(#p0a8ca1e112)" style="fill: none; stroke: #fc8080; stroke-width: 3; stroke-linecap: square"/>
   </g>
   <g id="line2d_35">
    <path d="M 262.2 262.568 
L 268.4 268.768 
" clip-path="url(#p0a8ca1e112)" style="fill: none; stroke: #fc8080; stroke-width: 3; stroke-linecap: square"/>
   </g>
   <g id="line2d_36">
    <path d="M 287 262.568 
L 293.2 268.768 
" clip-path="url(#p0a8ca1e112)" style="fill: none; stroke: #fc8080; stroke-width: 3; stroke-linecap: square"/>
   </g>
   <g id="line2d_37">
    <path d="M 287 237.768 
L 293.2 243.968 
" clip-path="url(#p0a8ca1e112)" style="fill: none; stroke: #fc8080; stroke-width: 3; stroke-linecap: square"/>
   </g>
   <g id="line2d_38">
    <path d="M 311.8 237.768 
L 318 243.968 
" clip-path="url(#p0a8ca1e112)" style="fill: none; stroke: #fc8080; stroke-width: 3; stroke-linecap: square"/>
   </g>
   <g id="line2d_39">
    <path d="M 299.4 225.368 
L 293.2 219.168 
" clip-path="url(#p0a8ca1e112)" style="fill: none; stroke: #fc8080; stroke-width: 3; stroke-linecap: square"/>
   </g>
   <g id="line2d_40">
    <path d="M 287 212.968 
L 293.2 219.168 
" clip-path="url(#p0a8ca1e112)" style="fill: none; stroke: #fc8080; stroke-width: 3; stroke-linecap: square"/>
   </g>
   <g id="line2d_41">
    <path d="M 287 188.168 
L 293.2 194.368 
" clip-path="url(#p0a8ca1e112)" style="fill: none; stroke: #fc8080; stroke-width: 3; stroke-linecap: square"/>
   </g>
   <g id="line2d_42">
    <path d="M 311.8 188.168 
L 318 194.368 
" clip-path="url(#p0a8ca1e112)" style="fill: none; stroke: #fc8080; stroke-width: 3; stroke-linecap: square"/>
   </g>
   <g id="line2d_43">
    <path d="M 299.4 175.768 
L 293.2 169.568 
" clip-path="url(#p0a8ca1e112)" style="fill: none; stroke: #fc8080; stroke-width: 3; stroke-linecap: square"/>
   </g>
   <g id="line2d_44">
    <path d="M 274.6 175.768 
L 268.4 169.568 
" clip-path="url(#p0a8ca1e112)" style="fill: none; stroke: #fc8080; stroke-width: 3; stroke-linecap: square"/>
   </g>
   <g id="line2d_45">
    <path d="M 274.6 200.568 
L 268.4 194.368 
" clip-path="url(#p0a8ca1e112)" style="fill: none; stroke: #fc8080; stroke-width: 3; stroke-linecap: square"/>
   </g>
   <g id="line2d_46">
    <path d="M 262.2 188.168 
L 268.4 194.368 
" clip-path="url(#p0a8ca1e112)" style="fill: none; stroke: #fc8080; stroke-width: 3; stroke-linecap: square"/>
   </g>
   <g id="line2d_47">
    <path d="M 249.8 175.768 
L 243.6 169.568 
" clip-path="url(#p0a8ca1e112)" style="fill: none; stroke: #fc8080; stroke-width: 3; stroke-linecap: square"/>
   </g>
   <g id="line2d_48">
    <path d="M 237.4 163.368 
L 243.6 169.568 
" clip-path="url(#p0a8ca1e112)" style="fill: none; stroke: #fc8080; stroke-width: 3; stroke-linecap: square"/>
   </g>
   <g id="line2d_49">
    <path d="M 237.4 138.568 
L 243.6 144.768 
" clip-path="url(#p0a8ca1e112)" style="fill: none; stroke: #fc8080; stroke-width: 3; stroke-linecap: square"/>
   </g>
   <g id="line2d_50">
    <path d="M 249.8 150.968 
L 243.6 144.768 
" clip-path="url(#p0a8ca1e112)" style="fill: none; stroke: #fc8080; stroke-width: 3; stroke-linecap: square"/>
   </g>
   <g id="line2d_51">
    <path d="M 262.2 163.368 
L 268.4 169.568 
" clip-path="url(#p0a8ca1e112)" style="fill: none; stroke: #fc8080; stroke-width: 3; stroke-linecap: square"/>
   </g>
   <g id="line2d_52">
    <path d="M 287 163.368 
L 293.2 169.568 
" clip-path="url(#p0a8ca1e112)" style="fill: none; stroke: #fc8080; stroke-width: 3; stroke-linecap: square"/>
   </g>
   <g id="line2d_53">
    <path d="M 287 138.568 
L 293.2 144.768 
" clip-path="url(#p0a8ca1e112)" style="fill: none; stroke: #fc8080; stroke-width: 3; stroke-linecap: square"/>
   </g>
   <g id="line2d_54">
    <path d="M 311.8 138.568 
L 318 144.768 
" clip-path="url(#p0a8ca1e112)" style="fill: none; stroke: #fc8080; stroke-width: 3; stroke-linecap: square"/>
   </g>
   <g id="line2d_55">
    <path d="M 299.4 126.168 
L 293.2 119.968 
" clip-path="url(#p0a8ca1e112)" style="fill: none; stroke: #fc8080; stroke-width: 3; stroke-linecap: square"/>
   </g>
   <g id="line2d_56">
    <path d="M 287 113.768 
L 293.2 119.968 
" clip-path="url(#p0a8ca1e112)" style="fill: none; stroke: #fc8080; stroke-width: 3; stroke-linecap: square"/>
   </g>
   <g id="line2d_57">
    <path d="M 287 88.968 
L 293.2 95.168 
" clip-path="url(#p0a8ca1e112)" style="fill: none; stroke: #fc8080; stroke-width: 3; stroke-linecap: square"/>
   </g>
   <g id="line2d_58">
    <path d="M 299.4 101.368 
L 293.2 95.168 
" clip-path="url(#p0a8ca1e112)" style="fill: none; stroke: #fc8080; stroke-width: 3; stroke-linecap: square"/>
   </g>
   <g id="line2d_59">
    <path d="M 311.8 113.768 
L 318 119.968 
" clip-path="url(#p0a8ca1e112)" style="fill: none; stroke: #fc8080; stroke-width: 3; stroke-linecap: square"/>
   </g>
   <g id="line2d_60">
    <path d="M 336.6 113.768 
L 342.8 119.968 
" clip-path="url(#p0a8ca1e112)" style="fill: none; stroke: #fc8080; stroke-width: 3; stroke-linecap: square"/>
   </g>
   <g id="line2d_61">
    <path d="M 336.6 88.968 
L 342.8 95.168 
" clip-path="url(#p0a8ca1e112)" style="fill: none; stroke: #fc8080; stroke-width: 3; stroke-linecap: square"/>
   </g>
   <g id="line2d_62">
    <path d="M 349 101.368 
L 342.8 95.168 
" clip-path="url(#p0a8ca1e112)" style="fill: none; stroke: #fc8080; stroke-width: 3; stroke-linecap: square"/>
   </g>
   <g id="line2d_63">
    <path d="M 361.4 113.768 
L 367.6 119.968 
" clip-path="url(#p0a8ca1e112)" style="fill: none; stroke: #fc8080; stroke-width: 3; stroke-linecap: square"/>
   </g>
   <g id="line2d_64">
    <path d="M 373.8 126.168 
L 367.6 119.968 
" clip-path="url(#p0a8ca1e112)" style="fill: none; stroke: #fc8080; stroke-width: 3; stroke-linecap: square"/>
   </g>
   <g id="line2d_65">
    <path d="M 373.8 150.968 
L 367.6 144.768 
" clip-path="url(#p0a8ca1e112)" style="fill: none; stroke: #fc8080; stroke-width: 3; stroke-linecap: square"/>
   </g>
   <g id="line2d_66">
    <path d="M 163 126.168 
L 156.8 132.368 
" clip-path="url(#p0a8ca1e112)" style="fill: none; stroke: #9efa52; stroke-width: 3; stroke-linecap: square"/>
   </g>
   <g id="line2d_67">
    <path d="M 138.2 126.168 
L 132 132.368 
" clip-path="url(#p0a8ca1e112)" style="fill: none; stroke: #9efa52; stroke-width: 3; stroke-linecap: square"/>
   </g>
   <g id="line2d_68">
    <path d="M 125.8 138.568 
L 132 132.368 
" clip-path="url(#p0a8ca1e112)" style="fill: none; stroke: #9efa52; stroke-width: 3; stroke-linecap: square"/>
   </g>
   <g id="line2d_69">
    <path d="M 113.4 150.968 
L 107.2 157.168 
" clip-path="url(#p0a8ca1e112)" style="fill: none; stroke: #9efa52; stroke-width: 3; stroke-linecap: square"/>
   </g>
   <g id="line2d_70">
    <path d="M 101 163.368 
L 107.2 157.168 
" clip-path="url(#p0a8ca1e112)" style="fill: none; stroke: #9efa52; stroke-width: 3; stroke-linecap: square"/>
   </g>
   <g id="line2d_71">
    <path d="M 125.8 163.368 
L 132 157.168 
" clip-path="url(#p0a8ca1e112)" style="fill: none; stroke: #9efa52; stroke-width: 3; stroke-linecap: square"/>
   </g>
   <g id="line2d_72">
    <path d="M 125.8 188.168 
L 132 181.968 
" clip-path="url(#p0a8ca1e112)" style="fill: none; stroke: #9efa52; stroke-width: 3; stroke-linecap: square"/>
   </g>
   <g id="line2d_73">
    <path d="M 113.4 200.568 
L 107.2 206.768 
" clip-path="url(#p0a8ca1e112)" style="fill: none; stroke: #9efa52; stroke-width: 3; stroke-linecap: square"/>
   </g>
   <g id="line2d_74">
    <path d="M 101 212.968 
L 107.2 206.768 
" clip-path="url(#p0a8ca1e112)" style="fill: none; stroke: #9efa52; stroke-width: 3; stroke-linecap: square"/>
   </g>
   <g id="line2d_75">
    <path d="M 125.8 212.968 
L 132 206.768 
" clip-path="url(#p0a8ca1e112)" style="fill: none; stroke: #9efa52; stroke-width: 3; stroke-linecap: square"/>
   </g>
   <g id="line2d_76">
    <path d="M 138.2 200.568 
L 132 206.768 
" clip-path="url(#p0a8ca1e112)" style="fill: none; stroke: #9efa52; stroke-width: 3; stroke-linecap: square"/>
   </g>
   <g id="line2d_77">
    <path d="M 150.6 188.168 
L 156.8 181.968 
" clip-path="url(#p0a8ca1e112)" style="fill: none; stroke: #9efa52; stroke-width: 3; stroke-linecap: square"/>
   </g>
   <g id="line2d_78">
    <path d="M 150.6 212.968 
L 156.8 206.768 
" clip-path="url(#p0a8ca1e112)" style="fill: none; stroke: #9efa52; stroke-width: 3; stroke-linecap: square"/>
   </g>
   <g id="line2d_79">
    <path d="M 175.4 212.968 
L 181.6 206.768 
" clip-path="url(#p0a8ca1e112)" style="fill: none; stroke: #9efa52; stroke-width: 3; stroke-linecap: square"/>
   </g>
   <g id="line2d_80">
    <path d="M 175.4 237.768 
L 181.6 231.568 
" clip-path="url(#p0a8ca1e112)" style="fill: none; stroke: #9efa52; stroke-width: 3; stroke-linecap: square"/>
   </g>
   <g id="line2d_81">
    <path d="M 163 250.168 
L 156.8 256.368 
" clip-path="url(#p0a8ca1e112)" style="fill: none; stroke: #9efa52; stroke-width: 3; stroke-linecap: square"/>
   </g>
   <g id="line2d_82">
    <path d="M 150.6 262.568 
L 156.8 256.368 
" clip-path="url(#p0a8ca1e112)" style="fill: none; stroke: #9efa52; stroke-width: 3; stroke-linecap: square"/>
   </g>
   <g id="line2d_83">
    <path d="M 175.4 262.568 
L 181.6 256.368 
" clip-path="url(#p0a8ca1e112)" style="fill: none; stroke: #9efa52; stroke-width: 3; stroke-linecap: square"/>
   </g>
   <g id="line2d_84">
    <path d="M 187.8 250.168 
L 181.6 256.368 
" clip-path="url(#p0a8ca1e112)" style="fill: none; stroke: #9efa52; stroke-width: 3; stroke-linecap: square"/>
   </g>
   <g id="line2d_85">
    <path d="M 200.2 237.768 
L 206.4 231.568 
" clip-path="url(#p0a8ca1e112)" style="fill: none; stroke: #9efa52; stroke-width: 3; stroke-linecap: square"/>
   </g>
   <g id="line2d_86">
    <path d="M 212.6 225.368 
L 206.4 231.568 
" clip-path="url(#p0a8ca1e112)" style="fill: none; stroke: #9efa52; stroke-width: 3; stroke-linecap: square"/>
   </g>
   <g id="line2d_87">
    <path d="M 187.8 225.368 
L 181.6 231.568 
" clip-path="url(#p0a8ca1e112)" style="fill: none; stroke: #9efa52; stroke-width: 3; stroke-linecap: square"/>
   </g>
   <g id="line2d_88">
    <path d="M 187.8 200.568 
L 181.6 206.768 
" clip-path="url(#p0a8ca1e112)" style="fill: none; stroke: #9efa52; stroke-width: 3; stroke-linecap: square"/>
   </g>
   <g id="line2d_89">
    <path d="M 200.2 188.168 
L 206.4 181.968 
" clip-path="url(#p0a8ca1e112)" style="fill: none; stroke: #9efa52; stroke-width: 3; stroke-linecap: square"/>
   </g>
   <g id="line2d_90">
    <path d="M 200.2 212.968 
L 206.4 206.768 
" clip-path="url(#p0a8ca1e112)" style="fill: none; stroke: #9efa52; stroke-width: 3; stroke-linecap: square"/>
   </g>
   <g id="line2d_91">
    <path d="M 225 212.968 
L 231.2 206.768 
" clip-path="url(#p0a8ca1e112)" style="fill: none; stroke: #9efa52; stroke-width: 3; stroke-linecap: square"/>
   </g>
   <g id="line2d_92">
    <path d="M 237.4 200.568 
L 231.2 206.768 
" clip-path="url(#p0a8ca1e112)" style="fill: none; stroke: #9efa52; stroke-width: 3; stroke-linecap: square"/>
   </g>
   <g id="line2d_93">
    <path d="M 249.8 188.168 
L 256 181.968 
" clip-path="url(#p0a8ca1e112)" style="fill: none; stroke: #9efa52; stroke-width: 3; stroke-linecap: square"/>
   </g>
   <g id="line2d_94">
    <path d="M 249.8 212.968 
L 256 206.768 
" clip-path="url(#p0a8ca1e112)" style="fill: none; stroke: #9efa52; stroke-width: 3; stroke-linecap: square"/>
   </g>
   <g id="line2d_95">
    <path d="M 274.6 212.968 
L 280.8 206.768 
" clip-path="url(#p0a8ca1e112)" style="fill: none; stroke: #9efa52; stroke-width: 3; stroke-linecap: square"/>
   </g>
   <g id="line2d_96">
    <path d="M 274.6 237.768 
L 280.8 231.568 
" clip-path="url(#p0a8ca1e112)" style="fill: none; stroke: #9efa52; stroke-width: 3; stroke-linecap: square"/>
   </g>
   <g id="line2d_97">
    <path d="M 262.2 250.168 
L 256 256.368 
" clip-path="url(#p0a8ca1e112)" style="fill: none; stroke: #9efa52; stroke-width: 3; stroke-linecap: square"/>
   </g>
   <g id="line2d_98">
    <path d="M 249.8 262.568 
L 256 256.368 
" clip-path="url(#p0a8ca1e112)" style="fill: none; stroke: #9efa52; stroke-width: 3; stroke-linecap: square"/>
   </g>
   <g id="line2d_99">
    <path d="M 274.6 262.568 
L 280.8 256.368 
" clip-path="url(#p0a8ca1e112)" style="fill: none; stroke: #9efa52; stroke-width: 3; stroke-linecap: square"/>
   </g>
   <g id="line2d_100">
    <path d="M 287 250.168 
L 280.8 256.368 
" clip-path="url(#p0a8ca1e112)" style="fill: none; stroke: #9efa52; stroke-width: 3; stroke-linecap: square"/>
   </g>
   <g id="line2d_101">
    <path d="M 299.4 237.768 
L 305.6 231.568 
" clip-path="url(#p0a8ca1e112)" style="fill: none; stroke: #9efa52; stroke-width: 3; stroke-linecap: square"/>
   </g>
   <g id="line2d_102">
    <path d="M 311.8 225.368 
L 305.6 231.568 
" clip-path="url(#p0a8ca1e112)" style="fill: none; stroke: #9efa52; stroke-width: 3; stroke-linecap: square"/>
   </g>
   <g id="line2d_103">
    <path d="M 287 225.368 
L 280.8 231.568 
" clip-path="url(#p0a8ca1e112)" style="fill: none; stroke: #9efa52; stroke-width: 3; stroke-linecap: square"/>
   </g>
   <g id="line2d_104">
    <path d="M 287 200.568 
L 280.8 206.768 
" clip-path="url(#p0a8ca1e112)" style="fill: none; stroke: #9efa52; stroke-width: 3; stroke-linecap: square"/>
   </g>
   <g id="line2d_105">
    <path d="M 299.4 188.168 
L 305.6 181.968 
" clip-path="url(#p0a8ca1e112)" style="fill: none; stroke: #9efa52; stroke-width: 3; stroke-linecap: square"/>
   </g>
   <g id="line2d_106">
    <path d="M 311.8 175.768 
L 305.6 181.968 
" clip-path="url(#p0a8ca1e112)" style="fill: none; stroke: #9efa52; stroke-width: 3; stroke-linecap: square"/>
   </g>
   <g id="line2d_107">
    <path d="M 287 175.768 
L 280.8 181.968 
" clip-path="url(#p0a8ca1e112)" style="fill: none; stroke: #9efa52; stroke-width: 3; stroke-linecap: square"/>
   </g>
   <g id="line2d_108">
    <path d="M 274.6 188.168 
L 280.8 181.968 
" clip-path="url(#p0a8ca1e112)" style="fill: none; stroke: #9efa52; stroke-width: 3; stroke-linecap: square"/>
   </g>
   <g id="line2d_109">
    <path d="M 262.2 200.568 
L 256 206.768 
" clip-path="url(#p0a8ca1e112)" style="fill: none; stroke: #9efa52; stroke-width: 3; stroke-linecap: square"/>
   </g>
   <g id="line2d_110">
    <path d="M 262.2 175.768 
L 256 181.968 
" clip-path="url(#p0a8ca1e112)" style="fill: none; stroke: #9efa52; stroke-width: 3; stroke-linecap: square"/>
   </g>
   <g id="line2d_111">
    <path d="M 237.4 175.768 
L 231.2 181.968 
" clip-path="url(#p0a8ca1e112)" style="fill: none; stroke: #9efa52; stroke-width: 3; stroke-linecap: square"/>
   </g>
   <g id="line2d_112">
    <path d="M 237.4 150.968 
L 231.2 157.168 
" clip-path="url(#p0a8ca1e112)" style="fill: none; stroke: #9efa52; stroke-width: 3; stroke-linecap: square"/>
   </g>
   <g id="line2d_113">
    <path d="M 249.8 138.568 
L 256 132.368 
" clip-path="url(#p0a8ca1e112)" style="fill: none; stroke: #9efa52; stroke-width: 3; stroke-linecap: square"/>
   </g>
   <g id="line2d_114">
    <path d="M 249.8 163.368 
L 256 157.168 
" clip-path="url(#p0a8ca1e112)" style="fill: none; stroke: #9efa52; stroke-width: 3; stroke-linecap: square"/>
   </g>
   <g id="line2d_115">
    <path d="M 274.6 163.368 
L 280.8 157.168 
" clip-path="url(#p0a8ca1e112)" style="fill: none; stroke: #9efa52; stroke-width: 3; stroke-linecap: square"/>
   </g>
   <g id="line2d_116">
    <path d="M 287 150.968 
L 280.8 157.168 
" clip-path="url(#p0a8ca1e112)" style="fill: none; stroke: #9efa52; stroke-width: 3; stroke-linecap: square"/>
   </g>
   <g id="line2d_117">
    <path d="M 299.4 138.568 
L 305.6 132.368 
" clip-path="url(#p0a8ca1e112)" style="fill: none; stroke: #9efa52; stroke-width: 3; stroke-linecap: square"/>
   </g>
   <g id="line2d_118">
    <path d="M 311.8 126.168 
L 305.6 132.368 
" clip-path="url(#p0a8ca1e112)" style="fill: none; stroke: #9efa52; stroke-width: 3; stroke-linecap: square"/>
   </g>
   <g id="line2d_119">
    <path d="M 287 126.168 
L 280.8 132.368 
" clip-path="url(#p0a8ca1e112)" style="fill: none; stroke: #9efa52; stroke-width: 3; stroke-linecap: square"/>
   </g>
   <g id="line2d_120">
    <path d="M 287 101.368 
L 280.8 107.568 
" clip-path="url(#p0a8ca1e112)" style="fill: none; stroke: #9efa52; stroke-width: 3; stroke-linecap: square"/>
   </g>
   <g id="line2d_121">
    <path d="M 299.4 88.968 
L 305.6 82.768 
" clip-path="url(#p0a8ca1e112)" style="fill: none; stroke: #9efa52; stroke-width: 3; stroke-linecap: square"/>
   </g>
   <g id="line2d_122">
    <path d="M 299.4 113.768 
L 305.6 107.568 
" clip-path="url(#p0a8ca1e112)" style="fill: none; stroke: #9efa52; stroke-width: 3; stroke-linecap: square"/>
   </g>
   <g id="line2d_123">
    <path d="M 324.2 113.768 
L 330.4 107.568 
" clip-path="url(#p0a8ca1e112)" style="fill: none; stroke: #9efa52; stroke-width: 3; stroke-linecap: square"/>
   </g>
   <g id="line2d_124">
    <path d="M 336.6 101.368 
L 330.4 107.568 
" clip-path="url(#p0a8ca1e112)" style="fill: none; stroke: #9efa52; stroke-width: 3; stroke-linecap: square"/>
   </g>
   <g id="line2d_125">
    <path d="M 349 88.968 
L 355.2 82.768 
" clip-path="url(#p0a8ca1e112)" style="fill: none; stroke: #9efa52; stroke-width: 3; stroke-linecap: square"/>
   </g>
   <g id="line2d_126">
    <path d="M 349 113.768 
L 355.2 107.568 
" clip-path="url(#p0a8ca1e112)" style="fill: none; stroke: #9efa52; stroke-width: 3; stroke-linecap: square"/>
   </g>
   <g id="line2d_127">
    <path d="M 373.8 113.768 
L 380 107.568 
" clip-path="url(#p0a8ca1e112)" style="fill: none; stroke: #9efa52; stroke-width: 3; stroke-linecap: square"/>
   </g>
   <g id="line2d_128">
    <path d="M 373.8 138.568 
L 380 132.368 
" clip-path="url(#p0a8ca1e112)" style="fill: none; stroke: #9efa52; stroke-width: 3; stroke-linecap: square"/>
   </g>
   <g id="line2d_129">
    <path d="M 361.4 150.968 
L 355.2 157.168 
" clip-path="url(#p0a8ca1e112)" style="fill: none; stroke: #9efa52; stroke-width: 3; stroke-linecap: square"/>
   </g>
   <g id="line2d_130">
    <path d="M 156.8 144.768 
L 169.2 144.768 
L 169.2 132.368 
L 156.8 132.368 
L 156.8 119.968 
L 144.4 119.968 
L 144.4 132.368 
L 132 132.368 
L 132 119.968 
L 119.6 119.968 
L 119.6 132.368 
L 132 132.368 
L 132 144.768 
L 119.6 144.768 
L 119.6 157.168 
L 107.2 157.168 
L 107.2 144.768 
L 94.8 144.768 
L 94.8 157.168 
L 107.2 157.168 
L 107.2 169.568 
L 119.6 169.568 
L 119.6 157.168 
L 132 157.168 
L 132 169.568 
L 119.6 169.568 
L 119.6 181.968 
L 132 181.968 
L 132 194.368 
L 119.6 194.368 
L 119.6 206.768 
L 107.2 206.768 
L 107.2 194.368 
L 94.8 194.368 
L 94.8 206.768 
L 107.2 206.768 
L 107.2 219.168 
L 119.6 219.168 
L 119.6 206.768 
L 132 206.768 
L 132 219.168 
L 144.4 219.168 
L 144.4 206.768 
L 132 206.768 
L 132 194.368 
L 144.4 194.368 
L 144.4 181.968 
L 156.8 181.968 
L 156.8 194.368 
L 144.4 194.368 
L 144.4 206.768 
L 156.8 206.768 
L 156.8 219.168 
L 169.2 219.168 
L 169.2 206.768 
L 181.6 206.768 
L 181.6 219.168 
L 169.2 219.168 
L 169.2 231.568 
L 181.6 231.568 
L 181.6 243.968 
L 169.2 243.968 
L 169.2 256.368 
L 156.8 256.368 
L 156.8 243.968 
L 144.4 243.968 
L 144.4 256.368 
L 156.8 256.368 
L 156.8 268.768 
L 169.2 268.768 
L 169.2 256.368 
L 181.6 256.368 
L 181.6 268.768 
L 194 268.768 
L 194 256.368 
L 181.6 256.368 
L 181.6 243.968 
L 194 243.968 
L 194 231.568 
L 206.4 231.568 
L 206.4 243.968 
L 218.8 243.968 
L 218.8 231.568 
L 206.4 231.568 
L 206.4 219.168 
L 194 219.168 
L 194 231.568 
L 181.6 231.568 
L 181.6 219.168 
L 194 219.168 
L 194 206.768 
L 181.6 206.768 
L 181.6 194.368 
L 194 194.368 
L 194 181.968 
L 206.4 181.968 
L 206.4 194.368 
L 194 194.368 
L 194 206.768 
L 206.4 206.768 
L 206.4 219.168 
L 218.8 219.168 
L 218.8 206.768 
L 231.2 206.768 
L 231.2 219.168 
L 243.6 219.168 
L 243.6 206.768 
L 231.2 206.768 
L 231.2 194.368 
L 243.6 194.368 
L 243.6 181.968 
L 256 181.968 
L 256 194.368 
L 243.6 194.368 
L 243.6 206.768 
L 256 206.768 
L 256 219.168 
L 268.4 219.168 
L 268.4 206.768 
L 280.8 206.768 
L 280.8 219.168 
L 268.4 219.168 
L 268.4 231.568 
L 280.8 231.568 
L 280.8 243.968 
L 268.4 243.968 
L 268.4 256.368 
L 256 256.368 
L 256 243.968 
L 243.6 243.968 
L 243.6 256.368 
L 256 256.368 
L 256 268.768 
L 268.4 268.768 
L 268.4 256.368 
L 280.8 256.368 
L 280.8 268.768 
L 293.2 268.768 
L 293.2 256.368 
L 280.8 256.368 
L 280.8 243.968 
L 293.2 243.968 
L 293.2 231.568 
L 305.6 231.568 
L 305.6 243.968 
L 318 243.968 
L 318 231.568 
L 305.6 231.568 
L 305.6 219.168 
L 293.2 219.168 
L 293.2 231.568 
L 280.8 231.568 
L 280.8 219.168 
L 293.2 219.168 
L 293.2 206.768 
L 280.8 206.768 
L 280.8 194.368 
L 293.2 194.368 
L 293.2 181.968 
L 305.6 181.968 
L 305.6 194.368 
L 318 194.368 
L 318 181.968 
L 305.6 181.968 
L 305.6 169.568 
L 293.2 169.568 
L 293.2 181.968 
L 280.8 181.968 
L 280.8 169.568 
L 268.4 169.568 
L 268.4 181.968 
L 280.8 181.968 
L 280.8 194.368 
L 268.4 194.368 
L 268.4 206.768 
L 256 206.768 
L 256 194.368 
L 268.4 194.368 
L 268.4 181.968 
L 256 181.968 
L 256 169.568 
L 243.6 169.568 
L 243.6 181.968 
L 231.2 181.968 
L 231.2 169.568 
L 243.6 169.568 
L 243.6 157.168 
L 231.2 157.168 
L 231.2 144.768 
L 243.6 144.768 
L 243.6 132.368 
L 256 132.368 
L 256 144.768 
L 243.6 144.768 
L 243.6 157.168 
L 256 157.168 
L 256 169.568 
L 268.4 169.568 
L 268.4 157.168 
L 280.8 157.168 
L 280.8 169.568 
L 293.2 169.568 
L 293.2 157.168 
L 280.8 157.168 
L 280.8 144.768 
L 293.2 144.768 
L 293.2 132.368 
L 305.6 132.368 
L 305.6 144.768 
L 318 144.768 
L 318 132.368 
L 305.6 132.368 
L 305.6 119.968 
L 293.2 119.968 
L 293.2 132.368 
L 280.8 132.368 
L 280.8 119.968 
L 293.2 119.968 
L 293.2 107.568 
L 280.8 107.568 
L 280.8 95.168 
L 293.2 95.168 
L 293.2 82.768 
L 305.6 82.768 
L 305.6 95.168 
L 293.2 95.168 
L 293.2 107.568 
L 305.6 107.568 
L 305.6 119.968 
L 318 119.968 
L 318 107.568 
L 330.4 107.568 
L 330.4 119.968 
L 342.8 119.968 
L 342.8 107.568 
L 330.4 107.568 
L 330.4 95.168 
L 342.8 95.168 
L 342.8 82.768 
L 355.2 82.768 
L 355.2 95.168 
L 342.8 95.168 
L 342.8 107.568 
L 355.2 107.568 
L 355.2 119.968 
L 367.6 119.968 
L 367.6 107.568 
L 380 107.568 
L 380 119.968 
L 367.6 119.968 
L 367.6 132.368 
L 380 132.368 
L 380 144.768 
L 367.6 144.768 
L 367.6 157.168 
L 355.2 157.168 
L 355.2 144.768 
L 355.2 144.768 
" clip-path="url(#p0a8ca1e112)" style="fill: none; stroke: #000000; stroke-width: 3; stroke-linecap: square"/>
   </g>
  </g>
 </g>
 <defs>
  <clipPath id="p0a8ca1e112">
   <rect x="57.6" y="65.408" width="357.12" height="218.24"/>
  </clipPath>
 </defs>
</svg>
