<?xml version="1.0" encoding="utf-8" standalone="no"?>
<!DOCTYPE svg PUBLIC "-//W3C//DTD SVG 1.1//EN"
  "http://www.w3.org/Graphics/SVG/1.1/DTD/svg11.dtd">
<svg xmlns:xlink="http://www.w3.org/1999/xlink" width="460.8pt" height="345.6pt" viewBox="0 0 460.8 345.6" xmlns="http://www.w3.org/2000/svg" version="1.1">
 <metadata>
  <rdf:RDF xmlns:dc="http://purl.org/dc/elements/1.1/" xmlns:cc="http://creativecommons.org/ns#" xmlns:rdf="http://www.w3.org/1999/02/22-rdf-syntax-ns#">
   <cc:Work>
    <dc:type rdf:resource="http://purl.org/dc/dcmitype/StillImage"/>
    <dc:date>2025-11-13T10:21:04.808183</dc:date>
    <dc:format>image/svg+xml</dc:format>
    <dc:creator>
     <cc:Agent>
      <dc:title>Matplotlib v3.9.1.post1, https://matplotlib.org/</dc:title>
     </cc:Agent>
    </dc:creator>
   </cc:Work>
  </rdf:RDF>
 </metadata>
 <defs>
  <style type="text/css">*{stroke-linejoin: round; stroke-linecap: butt}</style>
 </defs>
 <g id="figure_1">
  <g id="patch_1">
   <path d="M 0 345.6 
L 460.8 345.6 
L 460.8 0 
L 0 0 
z
" style="fill: #ffffff"/>
  </g>
  <g id="axes_1">
   <g id="line2d_1">
    <path d="M 156.8 144.768 
L 169.2 132.368 
L 156.8 119.968 
L 144.4 132.368 
L 132 119.968 
L 119.6 132.368 
L 132 144.768 
L 119.6 157.168 
L 107.2 144.768 
L 94.8 157.168 
L 107.2 169.568 
L 119.6 157.168 
L 132 169.568 
L 119.6 181.968 
L 132 194.368 
L 119.6 206.768 
L 107.2 194.368 
L 94.8 206.768 
L 107.2 219.168 
L 119.6 206.768 
L 132 219.168 
L 144.4 206.768 
L 132 194.368 
L 144.4 181.968 
L 156.8 194.368 
L 144.4 206.768 
L 156.8 219.168 
L 169.2 206.768 
L 181.6 219.168 
L 169.2 231.568 
L 181.6 243.968 
L 169.2 256.368 
L 156.8 243.968 
L 144.4 256.368 
L 156.8 268.768 
L 169.2 256.368 
L 181.6 268.768 
L 194 256.368 
L 181.6 243.968 
L 194 231.568 
L 206.4 243.968 
L 218.8 231.568 
L 206.4 219.168 
L 194 231.568 
L 181.6 219.168 
L 194 206.768 
L 181.6 194.368 
L 194 181.968 
L 206.4 194.368 
L 194 206.768 
L 206.4 219.168 
L 218.8 206.768 
L 231.2 219.168 
L 243.6 206.768 
L 231.2 194.368 
L 243.6 181.968 
L 256 194.368 
L 243.6 206.768 
L 256 219.168 
L 268.4 206.768 
L 280.8 219.168 
L 268.4 231.568 
L 280.8 243.968 
L 268.4 256.368 
L 256 243.968 
L 243.6 256.368 
L 256 268.768 
L 268.4 256.368 
L 280.8 268.768 
L 293.2 256.368 
L 280.8 243.968 
L 293.2 231.568 
L 305.6 243.968 
L 318 231.568 
L 305.6 219.168 
L 293.2 231.568 
L 280.8 219.168 
L 293.2 206.768 
L 280.8 194.368 
L 293.2 181.968 
L 305.6 194.368 
L 318 181.968 
L 305.6 169.568 
L 293.2 181.968 
L 280.8 169.568 
L 268.4 181.968 
L 280.8 194.368 
L 268.4 206.768 
L 256 194.368 
L 268.4 181.968 
L 256 169.568 
L 243.6 181.968 
L 231.2 169.568 
L 243.6 157.168 
L 231.2 144.768 
L 243.6 132.368 
L 256 144.768 
L 243.6 157.168 
L 256 169.568 
L 268.4 157.168 
L 280.8 169.568 
L 293.2 157.168 
L 280.8 144.768 
L 293.2 132.368 
L 305.6 144.768 
L 318 132.368 
L 305.6 119.968 
L 293.2 132.368 
L 280.8 119.968 
L 293.2 107.568 
L 280.8 95.168 
L 293.2 82.768 
L 305.6 95.168 
L 293.2 107.568 
L 305.6 119.968 
L 318 107.568 
L 330.4 119.968 
L 342.8 107.568 
L 330.4 95.168 
L 342.8 82.768 
L 355.2 95.168 
L 342.8 107.568 
L 355.2 119.968 
L 367.6 107.568 
L 380 119.968 
L 367.6 132.368 
L 380 144.768 
L 367.6 157.168 
L 355.2 144.768 
L 355.2 144.768 
" clip-path="url(#p1382131cf4)" style="fill: none; stroke: #000000; stroke-width: 3; stroke-linecap: square"/>
   </g>
  </g>
 </g>
 <defs>
  <clipPath id="p1382131cf4">
   <rect x="57.6" y="65.408" width="357.12" height="218.24"/>
  </clipPath>
 </defs>
</svg>
