<?xml version="1.0" encoding="utf-8" standalone="no"?>
<!DOCTYPE svg PUBLIC "-//W3C//DTD SVG 1.1//EN"
  "http://www.w3.org/Graphics/SVG/1.1/DTD/svg11.dtd">
<svg xmlns:xlink="http://www.w3.org/1999/xlink" width="460.8pt" height="345.6pt" viewBox="0 0 460.8 345.6" xmlns="http://www.w3.org/2000/svg" version="1.1">
 <metadata>
  <rdf:RDF xmlns:dc="http://purl.org/dc/elements/1.1/" xmlns:cc="http://creativecommons.org/ns#" xmlns:rdf="http://www.w3.org/1999/02/22-rdf-syntax-ns#">
   <cc:Work>
    <dc:type rdf:resource="http://purl.org/dc/dcmitype/StillImage"/>
    <dc:date>2025-11-13T10:21:04.888425</dc:date>
    <dc:format>image/svg+xml</dc:format>
    <dc:creator>
     <cc:Agent>
      <dc:title>Matplotlib v3.9.1.post1, https://matplotlib.org/</dc:title>
     </cc:Agent>
    </dc:creator>
   </cc:Work>
  </rdf:RDF>
 </metadata>
 <defs>
  <style type="text/css">*{stroke-linejoin: round; stroke-linecap: butt}</style>
 </defs>
 <g id="figure_1">
  <g id="patch_1">
   <path d="M 0 345.6 
L 460.8 345.6 
L 460.8 0 
L 0 0 
z
" style="fill: #ffffff"/>
  </g>
  <g id="axes_1">
   <g id="line2d_1">
    <path d="M 156.8 144.768 
L 163 150.968 
L 169.2 144.768 
L 163 138.568 
L 169.2 132.368 
L 163 126.168 
L 156.8 132.368 
L 150.6 126.168 
L 156.8 119.968 
L 150.6 113.768 
L 144.4 119.968 
L 150.6 126.168 
L 144.4 132.368 
L 138.2 126.168 
L 132 132.368 
L 125.8 126.168 
L 132 119.968 
L 125.8 113.768 
L 119.6 119.968 
L 125.8 126.168 
L 119.6 132.368 
L 125.8 138.568 
L 132 132.368 
L 138.2 138.568 
L 132 144.768 
L 125.8 138.568 
L 119.6 144.768 
L 125.8 150.968 
L 119.6 157.168 
L 113.4 150.968 
L 107.2 157.168 
L 101 150.968 
L 107.2 144.768 
L 101 138.568 
L 94.8 144.768 
L 101 150.968 
L 94.8 157.168 
L 101 163.368 
L 107.2 157.168 
L 113.4 163.368 
L 107.2 169.568 
L 113.4 175.768 
L 119.6 169.568 
L 113.4 163.368 
L 119.6 157.168 
L 125.8 163.368 
L 132 157.168 
L 138.2 163.368 
L 132 169.568 
L 125.8 163.368 
L 119.6 169.568 
L 125.8 175.768 
L 119.6 181.968 
L 125.8 188.168 
L 132 181.968 
L 138.2 188.168 
L 132 194.368 
L 125.8 188.168 
L 119.6 194.368 
L 125.8 200.568 
L 119.6 206.768 
L 113.4 200.568 
L 107.2 206.768 
L 101 200.568 
L 107.2 194.368 
L 101 188.168 
L 94.8 194.368 
L 101 200.568 
L 94.8 206.768 
L 101 212.968 
L 107.2 206.768 
L 113.4 212.968 
L 107.2 219.168 
L 113.4 225.368 
L 119.6 219.168 
L 113.4 212.968 
L 119.6 206.768 
L 125.8 212.968 
L 132 206.768 
L 138.2 212.968 
L 132 219.168 
L 138.2 225.368 
L 144.4 219.168 
L 138.2 212.968 
L 144.4 206.768 
L 138.2 200.568 
L 132 206.768 
L 125.8 200.568 
L 132 194.368 
L 138.2 200.568 
L 144.4 194.368 
L 138.2 188.168 
L 144.4 181.968 
L 150.6 188.168 
L 156.8 181.968 
L 163 188.168 
L 156.8 194.368 
L 150.6 188.168 
L 144.4 194.368 
L 150.6 200.568 
L 144.4 206.768 
L 150.6 212.968 
L 156.8 206.768 
L 163 212.968 
L 156.8 219.168 
L 163 225.368 
L 169.2 219.168 
L 163 212.968 
L 169.2 206.768 
L 175.4 212.968 
L 181.6 206.768 
L 187.8 212.968 
L 181.6 219.168 
L 175.4 212.968 
L 169.2 219.168 
L 175.4 225.368 
L 169.2 231.568 
L 175.4 237.768 
L 181.6 231.568 
L 187.8 237.768 
L 181.6 243.968 
L 175.4 237.768 
L 169.2 243.968 
L 175.4 250.168 
L 169.2 256.368 
L 163 250.168 
L 156.8 256.368 
L 150.6 250.168 
L 156.8 243.968 
L 150.6 237.768 
L 144.4 243.968 
L 150.6 250.168 
L 144.4 256.368 
L 150.6 262.568 
L 156.8 256.368 
L 163 262.568 
L 156.8 268.768 
L 163 274.968 
L 169.2 268.768 
L 163 262.568 
L 169.2 256.368 
L 175.4 262.568 
L 181.6 256.368 
L 187.8 262.568 
L 181.6 268.768 
L 187.8 274.968 
L 194 268.768 
L 187.8 262.568 
L 194 256.368 
L 187.8 250.168 
L 181.6 256.368 
L 175.4 250.168 
L 181.6 243.968 
L 187.8 250.168 
L 194 243.968 
L 187.8 237.768 
L 194 231.568 
L 200.2 237.768 
L 206.4 231.568 
L 212.6 237.768 
L 206.4 243.968 
L 212.6 250.168 
L 218.8 243.968 
L 212.6 237.768 
L 218.8 231.568 
L 212.6 225.368 
L 206.4 231.568 
L 200.2 225.368 
L 206.4 219.168 
L 200.2 212.968 
L 194 219.168 
L 200.2 225.368 
L 194 231.568 
L 187.8 225.368 
L 181.6 231.568 
L 175.4 225.368 
L 181.6 219.168 
L 187.8 225.368 
L 194 219.168 
L 187.8 212.968 
L 194 206.768 
L 187.8 200.568 
L 181.6 206.768 
L 175.4 200.568 
L 181.6 194.368 
L 187.8 200.568 
L 194 194.368 
L 187.8 188.168 
L 194 181.968 
L 200.2 188.168 
L 206.4 181.968 
L 212.6 188.168 
L 206.4 194.368 
L 200.2 188.168 
L 194 194.368 
L 200.2 200.568 
L 194 206.768 
L 200.2 212.968 
L 206.4 206.768 
L 212.6 212.968 
L 206.4 219.168 
L 212.6 225.368 
L 218.8 219.168 
L 212.6 212.968 
L 218.8 206.768 
L 225 212.968 
L 231.2 206.768 
L 237.4 212.968 
L 231.2 219.168 
L 237.4 225.368 
L 243.6 219.168 
L 237.4 212.968 
L 243.6 206.768 
L 237.4 200.568 
L 231.2 206.768 
L 225 200.568 
L 231.2 194.368 
L 237.4 200.568 
L 243.6 194.368 
L 237.4 188.168 
L 243.6 181.968 
L 249.8 188.168 
L 256 181.968 
L 262.2 188.168 
L 256 194.368 
L 249.8 188.168 
L 243.6 194.368 
L 249.8 200.568 
L 243.6 206.768 
L 249.8 212.968 
L 256 206.768 
L 262.2 212.968 
L 256 219.168 
L 262.2 225.368 
L 268.4 219.168 
L 262.2 212.968 
L 268.4 206.768 
L 274.6 212.968 
L 280.8 206.768 
L 287 212.968 
L 280.8 219.168 
L 274.6 212.968 
L 268.4 219.168 
L 274.6 225.368 
L 268.4 231.568 
L 274.6 237.768 
L 280.8 231.568 
L 287 237.768 
L 280.8 243.968 
L 274.6 237.768 
L 268.4 243.968 
L 274.6 250.168 
L 268.4 256.368 
L 262.2 250.168 
L 256 256.368 
L 249.8 250.168 
L 256 243.968 
L 249.8 237.768 
L 243.6 243.968 
L 249.8 250.168 
L 243.6 256.368 
L 249.8 262.568 
L 256 256.368 
L 262.2 262.568 
L 256 268.768 
L 262.2 274.968 
L 268.4 268.768 
L 262.2 262.568 
L 268.4 256.368 
L 274.6 262.568 
L 280.8 256.368 
L 287 262.568 
L 280.8 268.768 
L 287 274.968 
L 293.2 268.768 
L 287 262.568 
L 293.2 256.368 
L 287 250.168 
L 280.8 256.368 
L 274.6 250.168 
L 280.8 243.968 
L 287 250.168 
L 293.2 243.968 
L 287 237.768 
L 293.2 231.568 
L 299.4 237.768 
L 305.6 231.568 
L 311.8 237.768 
L 305.6 243.968 
L 311.8 250.168 
L 318 243.968 
L 311.8 237.768 
L 318 231.568 
L 311.8 225.368 
L 305.6 231.568 
L 299.4 225.368 
L 305.6 219.168 
L 299.4 212.968 
L 293.2 219.168 
L 299.4 225.368 
L 293.2 231.568 
L 287 225.368 
L 280.8 231.568 
L 274.6 225.368 
L 280.8 219.168 
L 287 225.368 
L 293.2 219.168 
L 287 212.968 
L 293.2 206.768 
L 287 200.568 
L 280.8 206.768 
L 274.6 200.568 
L 280.8 194.368 
L 287 200.568 
L 293.2 194.368 
L 287 188.168 
L 293.2 181.968 
L 299.4 188.168 
L 305.6 181.968 
L 311.8 188.168 
L 305.6 194.368 
L 311.8 200.568 
L 318 194.368 
L 311.8 188.168 
L 318 181.968 
L 311.8 175.768 
L 305.6 181.968 
L 299.4 175.768 
L 305.6 169.568 
L 299.4 163.368 
L 293.2 169.568 
L 299.4 175.768 
L 293.2 181.968 
L 287 175.768 
L 280.8 181.968 
L 274.6 175.768 
L 280.8 169.568 
L 274.6 163.368 
L 268.4 169.568 
L 274.6 175.768 
L 268.4 181.968 
L 274.6 188.168 
L 280.8 181.968 
L 287 188.168 
L 280.8 194.368 
L 274.6 188.168 
L 268.4 194.368 
L 274.6 200.568 
L 268.4 206.768 
L 262.2 200.568 
L 256 206.768 
L 249.8 200.568 
L 256 194.368 
L 262.2 200.568 
L 268.4 194.368 
L 262.2 188.168 
L 268.4 181.968 
L 262.2 175.768 
L 256 181.968 
L 249.8 175.768 
L 256 169.568 
L 249.8 163.368 
L 243.6 169.568 
L 249.8 175.768 
L 243.6 181.968 
L 237.4 175.768 
L 231.2 181.968 
L 225 175.768 
L 231.2 169.568 
L 237.4 175.768 
L 243.6 169.568 
L 237.4 163.368 
L 243.6 157.168 
L 237.4 150.968 
L 231.2 157.168 
L 225 150.968 
L 231.2 144.768 
L 237.4 150.968 
L 243.6 144.768 
L 237.4 138.568 
L 243.6 132.368 
L 249.8 138.568 
L 256 132.368 
L 262.2 138.568 
L 256 144.768 
L 249.8 138.568 
L 243.6 144.768 
L 249.8 150.968 
L 243.6 157.168 
L 249.8 163.368 
L 256 157.168 
L 262.2 163.368 
L 256 169.568 
L 262.2 175.768 
L 268.4 169.568 
L 262.2 163.368 
L 268.4 157.168 
L 274.6 163.368 
L 280.8 157.168 
L 287 163.368 
L 280.8 169.568 
L 287 175.768 
L 293.2 169.568 
L 287 163.368 
L 293.2 157.168 
L 287 150.968 
L 280.8 157.168 
L 274.6 150.968 
L 280.8 144.768 
L 287 150.968 
L 293.2 144.768 
L 287 138.568 
L 293.2 132.368 
L 299.4 138.568 
L 305.6 132.368 
L 311.8 138.568 
L 305.6 144.768 
L 311.8 150.968 
L 318 144.768 
L 311.8 138.568 
L 318 132.368 
L 311.8 126.168 
L 305.6 132.368 
L 299.4 126.168 
L 305.6 119.968 
L 299.4 113.768 
L 293.2 119.968 
L 299.4 126.168 
L 293.2 132.368 
L 287 126.168 
L 280.8 132.368 
L 274.6 126.168 
L 280.8 119.968 
L 287 126.168 
L 293.2 119.968 
L 287 113.768 
L 293.2 107.568 
L 287 101.368 
L 280.8 107.568 
L 274.6 101.368 
L 280.8 95.168 
L 287 101.368 
L 293.2 95.168 
L 287 88.968 
L 293.2 82.768 
L 299.4 88.968 
L 305.6 82.768 
L 311.8 88.968 
L 305.6 95.168 
L 299.4 88.968 
L 293.2 95.168 
L 299.4 101.368 
L 293.2 107.568 
L 299.4 113.768 
L 305.6 107.568 
L 311.8 113.768 
L 305.6 119.968 
L 311.8 126.168 
L 318 119.968 
L 311.8 113.768 
L 318 107.568 
L 324.2 113.768 
L 330.4 107.568 
L 336.6 113.768 
L 330.4 119.968 
L 336.6 126.168 
L 342.8 119.968 
L 336.6 113.768 
L 342.8 107.568 
L 336.6 101.368 
L 330.4 107.568 
L 324.2 101.368 
L 330.4 95.168 
L 336.6 101.368 
L 342.8 95.168 
L 336.6 88.968 
L 342.8 82.768 
L 349 88.968 
L 355.2 82.768 
L 361.4 88.968 
L 355.2 95.168 
L 349 88.968 
L 342.8 95.168 
L 349 101.368 
L 342.8 107.568 
L 349 113.768 
L 355.2 107.568 
L 361.4 113.768 
L 355.2 119.968 
L 361.4 126.168 
L 367.6 119.968 
L 361.4 113.768 
L 367.6 107.568 
L 373.8 113.768 
L 380 107.568 
L 386.2 113.768 
L 380 119.968 
L 373.8 113.768 
L 367.6 119.968 
L 373.8 126.168 
L 367.6 132.368 
L 373.8 138.568 
L 380 132.368 
L 386.2 138.568 
L 380 144.768 
L 373.8 138.568 
L 367.6 144.768 
L 373.8 150.968 
L 367.6 157.168 
L 361.4 150.968 
L 355.2 157.168 
L 349 150.968 
L 355.2 144.768 
L 355.2 144.768 
" clip-path="url(#p34eac75135)" style="fill: none; stroke: #000000; stroke-width: 3; stroke-linecap: square"/>
   </g>
  </g>
 </g>
 <defs>
  <clipPath id="p34eac75135">
   <rect x="57.6" y="65.408" width="357.12" height="218.24"/>
  </clipPath>
 </defs>
</svg>
