<?xml version="1.0" encoding="utf-8" standalone="no"?>
<!DOCTYPE svg PUBLIC "-//W3C//DTD SVG 1.1//EN"
  "http://www.w3.org/Graphics/SVG/1.1/DTD/svg11.dtd">
<svg xmlns:xlink="http://www.w3.org/1999/xlink" width="460.8pt" height="345.6pt" viewBox="0 0 460.8 345.6" xmlns="http://www.w3.org/2000/svg" version="1.1">
 <metadata>
  <rdf:RDF xmlns:dc="http://purl.org/dc/elements/1.1/" xmlns:cc="http://creativecommons.org/ns#" xmlns:rdf="http://www.w3.org/1999/02/22-rdf-syntax-ns#">
   <cc:Work>
    <dc:type rdf:resource="http://purl.org/dc/dcmitype/StillImage"/>
    <dc:date>2025-11-13T10:21:05.257178</dc:date>
    <dc:format>image/svg+xml</dc:format>
    <dc:creator>
     <cc:Agent>
      <dc:title>Matplotlib v3.9.1.post1, https://matplotlib.org/</dc:title>
     </cc:Agent>
    </dc:creator>
   </cc:Work>
  </rdf:RDF>
 </metadata>
 <defs>
  <style type="text/css">*{stroke-linejoin: round; stroke-linecap: butt}</style>
 </defs>
 <g id="figure_1">
  <g id="patch_1">
   <path d="M 0 345.6 
L 460.8 345.6 
L 460.8 0 
L 0 0 
z
" style="fill: #ffffff"/>
  </g>
  <g id="axes_1">
   <g id="line2d_1">
    <path d="M 156.8 144.768 
L 153.7 147.868 
L 156.8 150.968 
L 159.9 147.868 
L 163 150.968 
L 166.1 147.868 
L 163 144.768 
L 166.1 141.668 
L 169.2 144.768 
L 172.3 141.668 
L 169.2 138.568 
L 166.1 141.668 
L 163 138.568 
L 166.1 135.468 
L 163 132.368 
L 166.1 129.268 
L 169.2 132.368 
L 172.3 129.268 
L 169.2 126.168 
L 166.1 129.268 
L 163 126.168 
L 159.9 129.268 
L 163 132.368 
L 159.9 135.468 
L 156.8 132.368 
L 159.9 129.268 
L 156.8 126.168 
L 153.7 129.268 
L 150.6 126.168 
L 153.7 123.068 
L 150.6 119.968 
L 153.7 116.868 
L 156.8 119.968 
L 159.9 116.868 
L 156.8 113.768 
L 153.7 116.868 
L 150.6 113.768 
L 147.5 116.868 
L 150.6 119.968 
L 147.5 123.068 
L 144.4 119.968 
L 141.3 123.068 
L 144.4 126.168 
L 147.5 123.068 
L 150.6 126.168 
L 147.5 129.268 
L 150.6 132.368 
L 147.5 135.468 
L 144.4 132.368 
L 147.5 129.268 
L 144.4 126.168 
L 141.3 129.268 
L 138.2 126.168 
L 135.1 129.268 
L 138.2 132.368 
L 135.1 135.468 
L 132 132.368 
L 135.1 129.268 
L 132 126.168 
L 128.9 129.268 
L 125.8 126.168 
L 128.9 123.068 
L 125.8 119.968 
L 128.9 116.868 
L 132 119.968 
L 135.1 116.868 
L 132 113.768 
L 128.9 116.868 
L 125.8 113.768 
L 122.7 116.868 
L 125.8 119.968 
L 122.7 123.068 
L 119.6 119.968 
L 116.5 123.068 
L 119.6 126.168 
L 122.7 123.068 
L 125.8 126.168 
L 122.7 129.268 
L 125.8 132.368 
L 122.7 135.468 
L 119.6 132.368 
L 116.5 135.468 
L 119.6 138.568 
L 122.7 135.468 
L 125.8 138.568 
L 128.9 135.468 
L 125.8 132.368 
L 128.9 129.268 
L 132 132.368 
L 128.9 135.468 
L 132 138.568 
L 135.1 135.468 
L 138.2 138.568 
L 135.1 141.668 
L 138.2 144.768 
L 135.1 147.868 
L 132 144.768 
L 135.1 141.668 
L 132 138.568 
L 128.9 141.668 
L 125.8 138.568 
L 122.7 141.668 
L 125.8 144.768 
L 122.7 147.868 
L 119.6 144.768 
L 116.5 147.868 
L 119.6 150.968 
L 122.7 147.868 
L 125.8 150.968 
L 122.7 154.068 
L 125.8 157.168 
L 122.7 160.268 
L 119.6 157.168 
L 122.7 154.068 
L 119.6 150.968 
L 116.5 154.068 
L 113.4 150.968 
L 110.3 154.068 
L 113.4 157.168 
L 110.3 160.268 
L 107.2 157.168 
L 110.3 154.068 
L 107.2 150.968 
L 104.1 154.068 
L 101 150.968 
L 104.1 147.868 
L 101 144.768 
L 104.1 141.668 
L 107.2 144.768 
L 110.3 141.668 
L 107.2 138.568 
L 104.1 141.668 
L 101 138.568 
L 97.9 141.668 
L 101 144.768 
L 97.9 147.868 
L 94.8 144.768 
L 91.7 147.868 
L 94.8 150.968 
L 97.9 147.868 
L 101 150.968 
L 97.9 154.068 
L 101 157.168 
L 97.9 160.268 
L 94.8 157.168 
L 91.7 160.268 
L 94.8 163.368 
L 97.9 160.268 
L 101 163.368 
L 104.1 160.268 
L 101 157.168 
L 104.1 154.068 
L 107.2 157.168 
L 104.1 160.268 
L 107.2 163.368 
L 110.3 160.268 
L 113.4 163.368 
L 110.3 166.468 
L 113.4 169.568 
L 110.3 172.668 
L 107.2 169.568 
L 104.1 172.668 
L 107.2 175.768 
L 110.3 172.668 
L 113.4 175.768 
L 116.5 172.668 
L 113.4 169.568 
L 116.5 166.468 
L 119.6 169.568 
L 122.7 166.468 
L 119.6 163.368 
L 116.5 166.468 
L 113.4 163.368 
L 116.5 160.268 
L 113.4 157.168 
L 116.5 154.068 
L 119.6 157.168 
L 116.5 160.268 
L 119.6 163.368 
L 122.7 160.268 
L 125.8 163.368 
L 128.9 160.268 
L 125.8 157.168 
L 128.9 154.068 
L 132 157.168 
L 128.9 160.268 
L 132 163.368 
L 135.1 160.268 
L 138.2 163.368 
L 135.1 166.468 
L 138.2 169.568 
L 135.1 172.668 
L 132 169.568 
L 135.1 166.468 
L 132 163.368 
L 128.9 166.468 
L 125.8 163.368 
L 122.7 166.468 
L 125.8 169.568 
L 122.7 172.668 
L 119.6 169.568 
L 116.5 172.668 
L 119.6 175.768 
L 122.7 172.668 
L 125.8 175.768 
L 122.7 178.868 
L 125.8 181.968 
L 122.7 185.068 
L 119.6 181.968 
L 116.5 185.068 
L 119.6 188.168 
L 122.7 185.068 
L 125.8 188.168 
L 128.9 185.068 
L 125.8 181.968 
L 128.9 178.868 
L 132 181.968 
L 128.9 185.068 
L 132 188.168 
L 135.1 185.068 
L 138.2 188.168 
L 135.1 191.268 
L 138.2 194.368 
L 135.1 197.468 
L 132 194.368 
L 135.1 191.268 
L 132 188.168 
L 128.9 191.268 
L 125.8 188.168 
L 122.7 191.268 
L 125.8 194.368 
L 122.7 197.468 
L 119.6 194.368 
L 116.5 197.468 
L 119.6 200.568 
L 122.7 197.468 
L 125.8 200.568 
L 122.7 203.668 
L 125.8 206.768 
L 122.7 209.868 
L 119.6 206.768 
L 122.7 203.668 
L 119.6 200.568 
L 116.5 203.668 
L 113.4 200.568 
L 110.3 203.668 
L 113.4 206.768 
L 110.3 209.868 
L 107.2 206.768 
L 110.3 203.668 
L 107.2 200.568 
L 104.1 203.668 
L 101 200.568 
L 104.1 197.468 
L 101 194.368 
L 104.1 191.268 
L 107.2 194.368 
L 110.3 191.268 
L 107.2 188.168 
L 104.1 191.268 
L 101 188.168 
L 97.9 191.268 
L 101 194.368 
L 97.9 197.468 
L 94.8 194.368 
L 91.7 197.468 
L 94.8 200.568 
L 97.9 197.468 
L 101 200.568 
L 97.9 203.668 
L 101 206.768 
L 97.9 209.868 
L 94.8 206.768 
L 91.7 209.868 
L 94.8 212.968 
L 97.9 209.868 
L 101 212.968 
L 104.1 209.868 
L 101 206.768 
L 104.1 203.668 
L 107.2 206.768 
L 104.1 209.868 
L 107.2 212.968 
L 110.3 209.868 
L 113.4 212.968 
L 110.3 216.068 
L 113.4 219.168 
L 110.3 222.268 
L 107.2 219.168 
L 104.1 222.268 
L 107.2 225.368 
L 110.3 222.268 
L 113.4 225.368 
L 116.5 222.268 
L 113.4 219.168 
L 116.5 216.068 
L 119.6 219.168 
L 122.7 216.068 
L 119.6 212.968 
L 116.5 216.068 
L 113.4 212.968 
L 116.5 209.868 
L 113.4 206.768 
L 116.5 203.668 
L 119.6 206.768 
L 116.5 209.868 
L 119.6 212.968 
L 122.7 209.868 
L 125.8 212.968 
L 128.9 209.868 
L 125.8 206.768 
L 128.9 203.668 
L 132 206.768 
L 128.9 209.868 
L 132 212.968 
L 135.1 209.868 
L 138.2 212.968 
L 135.1 216.068 
L 138.2 219.168 
L 135.1 222.268 
L 132 219.168 
L 128.9 222.268 
L 132 225.368 
L 135.1 222.268 
L 138.2 225.368 
L 141.3 222.268 
L 138.2 219.168 
L 141.3 216.068 
L 144.4 219.168 
L 147.5 216.068 
L 144.4 212.968 
L 141.3 216.068 
L 138.2 212.968 
L 141.3 209.868 
L 138.2 206.768 
L 141.3 203.668 
L 144.4 206.768 
L 147.5 203.668 
L 144.4 200.568 
L 141.3 203.668 
L 138.2 200.568 
L 135.1 203.668 
L 138.2 206.768 
L 135.1 209.868 
L 132 206.768 
L 135.1 203.668 
L 132 200.568 
L 128.9 203.668 
L 125.8 200.568 
L 128.9 197.468 
L 125.8 194.368 
L 128.9 191.268 
L 132 194.368 
L 128.9 197.468 
L 132 200.568 
L 135.1 197.468 
L 138.2 200.568 
L 141.3 197.468 
L 138.2 194.368 
L 141.3 191.268 
L 144.4 194.368 
L 147.5 191.268 
L 144.4 188.168 
L 141.3 191.268 
L 138.2 188.168 
L 141.3 185.068 
L 138.2 181.968 
L 141.3 178.868 
L 144.4 181.968 
L 141.3 185.068 
L 144.4 188.168 
L 147.5 185.068 
L 150.6 188.168 
L 153.7 185.068 
L 150.6 181.968 
L 153.7 178.868 
L 156.8 181.968 
L 153.7 185.068 
L 156.8 188.168 
L 159.9 185.068 
L 163 188.168 
L 159.9 191.268 
L 163 194.368 
L 159.9 197.468 
L 156.8 194.368 
L 159.9 191.268 
L 156.8 188.168 
L 153.7 191.268 
L 150.6 188.168 
L 147.5 191.268 
L 150.6 194.368 
L 147.5 197.468 
L 144.4 194.368 
L 141.3 197.468 
L 144.4 200.568 
L 147.5 197.468 
L 150.6 200.568 
L 147.5 203.668 
L 150.6 206.768 
L 147.5 209.868 
L 144.4 206.768 
L 141.3 209.868 
L 144.4 212.968 
L 147.5 209.868 
L 150.6 212.968 
L 153.7 209.868 
L 150.6 206.768 
L 153.7 203.668 
L 156.8 206.768 
L 153.7 209.868 
L 156.8 212.968 
L 159.9 209.868 
L 163 212.968 
L 159.9 216.068 
L 163 219.168 
L 159.9 222.268 
L 156.8 219.168 
L 153.7 222.268 
L 156.8 225.368 
L 159.9 222.268 
L 163 225.368 
L 166.1 222.268 
L 163 219.168 
L 166.1 216.068 
L 169.2 219.168 
L 172.3 216.068 
L 169.2 212.968 
L 166.1 216.068 
L 163 212.968 
L 166.1 209.868 
L 163 206.768 
L 166.1 203.668 
L 169.2 206.768 
L 166.1 209.868 
L 169.2 212.968 
L 172.3 209.868 
L 175.4 212.968 
L 178.5 209.868 
L 175.4 206.768 
L 178.5 203.668 
L 181.6 206.768 
L 178.5 209.868 
L 181.6 212.968 
L 184.7 209.868 
L 187.8 212.968 
L 184.7 216.068 
L 187.8 219.168 
L 184.7 222.268 
L 181.6 219.168 
L 184.7 216.068 
L 181.6 212.968 
L 178.5 216.068 
L 175.4 212.968 
L 172.3 216.068 
L 175.4 219.168 
L 172.3 222.268 
L 169.2 219.168 
L 166.1 222.268 
L 169.2 225.368 
L 172.3 222.268 
L 175.4 225.368 
L 172.3 228.468 
L 175.4 231.568 
L 172.3 234.668 
L 169.2 231.568 
L 166.1 234.668 
L 169.2 237.768 
L 172.3 234.668 
L 175.4 237.768 
L 178.5 234.668 
L 175.4 231.568 
L 178.5 228.468 
L 181.6 231.568 
L 178.5 234.668 
L 181.6 237.768 
L 184.7 234.668 
L 187.8 237.768 
L 184.7 240.868 
L 187.8 243.968 
L 184.7 247.068 
L 181.6 243.968 
L 184.7 240.868 
L 181.6 237.768 
L 178.5 240.868 
L 175.4 237.768 
L 172.3 240.868 
L 175.4 243.968 
L 172.3 247.068 
L 169.2 243.968 
L 166.1 247.068 
L 169.2 250.168 
L 172.3 247.068 
L 175.4 250.168 
L 172.3 253.268 
L 175.4 256.368 
L 172.3 259.468 
L 169.2 256.368 
L 172.3 253.268 
L 169.2 250.168 
L 166.1 253.268 
L 163 250.168 
L 159.9 253.268 
L 163 256.368 
L 159.9 259.468 
L 156.8 256.368 
L 159.9 253.268 
L 156.8 250.168 
L 153.7 253.268 
L 150.6 250.168 
L 153.7 247.068 
L 150.6 243.968 
L 153.7 240.868 
L 156.8 243.968 
L 159.9 240.868 
L 156.8 237.768 
L 153.7 240.868 
L 150.6 237.768 
L 147.5 240.868 
L 150.6 243.968 
L 147.5 247.068 
L 144.4 243.968 
L 141.3 247.068 
L 144.4 250.168 
L 147.5 247.068 
L 150.6 250.168 
L 147.5 253.268 
L 150.6 256.368 
L 147.5 259.468 
L 144.4 256.368 
L 141.3 259.468 
L 144.4 262.568 
L 147.5 259.468 
L 150.6 262.568 
L 153.7 259.468 
L 150.6 256.368 
L 153.7 253.268 
L 156.8 256.368 
L 153.7 259.468 
L 156.8 262.568 
L 159.9 259.468 
L 163 262.568 
L 159.9 265.668 
L 163 268.768 
L 159.9 271.868 
L 156.8 268.768 
L 153.7 271.868 
L 156.8 274.968 
L 159.9 271.868 
L 163 274.968 
L 166.1 271.868 
L 163 268.768 
L 166.1 265.668 
L 169.2 268.768 
L 172.3 265.668 
L 169.2 262.568 
L 166.1 265.668 
L 163 262.568 
L 166.1 259.468 
L 163 256.368 
L 166.1 253.268 
L 169.2 256.368 
L 166.1 259.468 
L 169.2 262.568 
L 172.3 259.468 
L 175.4 262.568 
L 178.5 259.468 
L 175.4 256.368 
L 178.5 253.268 
L 181.6 256.368 
L 178.5 259.468 
L 181.6 262.568 
L 184.7 259.468 
L 187.8 262.568 
L 184.7 265.668 
L 187.8 268.768 
L 184.7 271.868 
L 181.6 268.768 
L 178.5 271.868 
L 181.6 274.968 
L 184.7 271.868 
L 187.8 274.968 
L 190.9 271.868 
L 187.8 268.768 
L 190.9 265.668 
L 194 268.768 
L 197.1 265.668 
L 194 262.568 
L 190.9 265.668 
L 187.8 262.568 
L 190.9 259.468 
L 187.8 256.368 
L 190.9 253.268 
L 194 256.368 
L 197.1 253.268 
L 194 250.168 
L 190.9 253.268 
L 187.8 250.168 
L 184.7 253.268 
L 187.8 256.368 
L 184.7 259.468 
L 181.6 256.368 
L 184.7 253.268 
L 181.6 250.168 
L 178.5 253.268 
L 175.4 250.168 
L 178.5 247.068 
L 175.4 243.968 
L 178.5 240.868 
L 181.6 243.968 
L 178.5 247.068 
L 181.6 250.168 
L 184.7 247.068 
L 187.8 250.168 
L 190.9 247.068 
L 187.8 243.968 
L 190.9 240.868 
L 194 243.968 
L 197.1 240.868 
L 194 237.768 
L 190.9 240.868 
L 187.8 237.768 
L 190.9 234.668 
L 187.8 231.568 
L 190.9 228.468 
L 194 231.568 
L 190.9 234.668 
L 194 237.768 
L 197.1 234.668 
L 200.2 237.768 
L 203.3 234.668 
L 200.2 231.568 
L 203.3 228.468 
L 206.4 231.568 
L 203.3 234.668 
L 206.4 237.768 
L 209.5 234.668 
L 212.6 237.768 
L 209.5 240.868 
L 212.6 243.968 
L 209.5 247.068 
L 206.4 243.968 
L 203.3 247.068 
L 206.4 250.168 
L 209.5 247.068 
L 212.6 250.168 
L 215.7 247.068 
L 212.6 243.968 
L 215.7 240.868 
L 218.8 243.968 
L 221.9 240.868 
L 218.8 237.768 
L 215.7 240.868 
L 212.6 237.768 
L 215.7 234.668 
L 212.6 231.568 
L 215.7 228.468 
L 218.8 231.568 
L 221.9 228.468 
L 218.8 225.368 
L 215.7 228.468 
L 212.6 225.368 
L 209.5 228.468 
L 212.6 231.568 
L 209.5 234.668 
L 206.4 231.568 
L 209.5 228.468 
L 206.4 225.368 
L 203.3 228.468 
L 200.2 225.368 
L 203.3 222.268 
L 200.2 219.168 
L 203.3 216.068 
L 206.4 219.168 
L 209.5 216.068 
L 206.4 212.968 
L 203.3 216.068 
L 200.2 212.968 
L 197.1 216.068 
L 200.2 219.168 
L 197.1 222.268 
L 194 219.168 
L 190.9 222.268 
L 194 225.368 
L 197.1 222.268 
L 200.2 225.368 
L 197.1 228.468 
L 200.2 231.568 
L 197.1 234.668 
L 194 231.568 
L 197.1 228.468 
L 194 225.368 
L 190.9 228.468 
L 187.8 225.368 
L 184.7 228.468 
L 187.8 231.568 
L 184.7 234.668 
L 181.6 231.568 
L 184.7 228.468 
L 181.6 225.368 
L 178.5 228.468 
L 175.4 225.368 
L 178.5 222.268 
L 175.4 219.168 
L 178.5 216.068 
L 181.6 219.168 
L 178.5 222.268 
L 181.6 225.368 
L 184.7 222.268 
L 187.8 225.368 
L 190.9 222.268 
L 187.8 219.168 
L 190.9 216.068 
L 194 219.168 
L 197.1 216.068 
L 194 212.968 
L 190.9 216.068 
L 187.8 212.968 
L 190.9 209.868 
L 187.8 206.768 
L 190.9 203.668 
L 194 206.768 
L 197.1 203.668 
L 194 200.568 
L 190.9 203.668 
L 187.8 200.568 
L 184.7 203.668 
L 187.8 206.768 
L 184.7 209.868 
L 181.6 206.768 
L 184.7 203.668 
L 181.6 200.568 
L 178.5 203.668 
L 175.4 200.568 
L 178.5 197.468 
L 175.4 194.368 
L 178.5 191.268 
L 181.6 194.368 
L 178.5 197.468 
L 181.6 200.568 
L 184.7 197.468 
L 187.8 200.568 
L 190.9 197.468 
L 187.8 194.368 
L 190.9 191.268 
L 194 194.368 
L 197.1 191.268 
L 194 188.168 
L 190.9 191.268 
L 187.8 188.168 
L 190.9 185.068 
L 187.8 181.968 
L 190.9 178.868 
L 194 181.968 
L 190.9 185.068 
L 194 188.168 
L 197.1 185.068 
L 200.2 188.168 
L 203.3 185.068 
L 200.2 181.968 
L 203.3 178.868 
L 206.4 181.968 
L 203.3 185.068 
L 206.4 188.168 
L 209.5 185.068 
L 212.6 188.168 
L 209.5 191.268 
L 212.6 194.368 
L 209.5 197.468 
L 206.4 194.368 
L 209.5 191.268 
L 206.4 188.168 
L 203.3 191.268 
L 200.2 188.168 
L 197.1 191.268 
L 200.2 194.368 
L 197.1 197.468 
L 194 194.368 
L 190.9 197.468 
L 194 200.568 
L 197.1 197.468 
L 200.2 200.568 
L 197.1 203.668 
L 200.2 206.768 
L 197.1 209.868 
L 194 206.768 
L 190.9 209.868 
L 194 212.968 
L 197.1 209.868 
L 200.2 212.968 
L 203.3 209.868 
L 200.2 206.768 
L 203.3 203.668 
L 206.4 206.768 
L 203.3 209.868 
L 206.4 212.968 
L 209.5 209.868 
L 212.6 212.968 
L 209.5 216.068 
L 212.6 219.168 
L 209.5 222.268 
L 206.4 219.168 
L 203.3 222.268 
L 206.4 225.368 
L 209.5 222.268 
L 212.6 225.368 
L 215.7 222.268 
L 212.6 219.168 
L 215.7 216.068 
L 218.8 219.168 
L 221.9 216.068 
L 218.8 212.968 
L 215.7 216.068 
L 212.6 212.968 
L 215.7 209.868 
L 212.6 206.768 
L 215.7 203.668 
L 218.8 206.768 
L 215.7 209.868 
L 218.8 212.968 
L 221.9 209.868 
L 225 212.968 
L 228.1 209.868 
L 225 206.768 
L 228.1 203.668 
L 231.2 206.768 
L 228.1 209.868 
L 231.2 212.968 
L 234.3 209.868 
L 237.4 212.968 
L 234.3 216.068 
L 237.4 219.168 
L 234.3 222.268 
L 231.2 219.168 
L 228.1 222.268 
L 231.2 225.368 
L 234.3 222.268 
L 237.4 225.368 
L 240.5 222.268 
L 237.4 219.168 
L 240.5 216.068 
L 243.6 219.168 
L 246.7 216.068 
L 243.6 212.968 
L 240.5 216.068 
L 237.4 212.968 
L 240.5 209.868 
L 237.4 206.768 
L 240.5 203.668 
L 243.6 206.768 
L 246.7 203.668 
L 243.6 200.568 
L 240.5 203.668 
L 237.4 200.568 
L 234.3 203.668 
L 237.4 206.768 
L 234.3 209.868 
L 231.2 206.768 
L 234.3 203.668 
L 231.2 200.568 
L 228.1 203.668 
L 225 200.568 
L 228.1 197.468 
L 225 194.368 
L 228.1 191.268 
L 231.2 194.368 
L 228.1 197.468 
L 231.2 200.568 
L 234.3 197.468 
L 237.4 200.568 
L 240.5 197.468 
L 237.4 194.368 
L 240.5 191.268 
L 243.6 194.368 
L 246.7 191.268 
L 243.6 188.168 
L 240.5 191.268 
L 237.4 188.168 
L 240.5 185.068 
L 237.4 181.968 
L 240.5 178.868 
L 243.6 181.968 
L 240.5 185.068 
L 243.6 188.168 
L 246.7 185.068 
L 249.8 188.168 
L 252.9 185.068 
L 249.8 181.968 
L 252.9 178.868 
L 256 181.968 
L 252.9 185.068 
L 256 188.168 
L 259.1 185.068 
L 262.2 188.168 
L 259.1 191.268 
L 262.2 194.368 
L 259.1 197.468 
L 256 194.368 
L 259.1 191.268 
L 256 188.168 
L 252.9 191.268 
L 249.8 188.168 
L 246.7 191.268 
L 249.8 194.368 
L 246.7 197.468 
L 243.6 194.368 
L 240.5 197.468 
L 243.6 200.568 
L 246.7 197.468 
L 249.8 200.568 
L 246.7 203.668 
L 249.8 206.768 
L 246.7 209.868 
L 243.6 206.768 
L 240.5 209.868 
L 243.6 212.968 
L 246.7 209.868 
L 249.8 212.968 
L 252.9 209.868 
L 249.8 206.768 
L 252.9 203.668 
L 256 206.768 
L 252.9 209.868 
L 256 212.968 
L 259.1 209.868 
L 262.2 212.968 
L 259.1 216.068 
L 262.2 219.168 
L 259.1 222.268 
L 256 219.168 
L 252.9 222.268 
L 256 225.368 
L 259.1 222.268 
L 262.2 225.368 
L 265.3 222.268 
L 262.2 219.168 
L 265.3 216.068 
L 268.4 219.168 
L 271.5 216.068 
L 268.4 212.968 
L 265.3 216.068 
L 262.2 212.968 
L 265.3 209.868 
L 262.2 206.768 
L 265.3 203.668 
L 268.4 206.768 
L 265.3 209.868 
L 268.4 212.968 
L 271.5 209.868 
L 274.6 212.968 
L 277.7 209.868 
L 274.6 206.768 
L 277.7 203.668 
L 280.8 206.768 
L 277.7 209.868 
L 280.8 212.968 
L 283.9 209.868 
L 287 212.968 
L 283.9 216.068 
L 287 219.168 
L 283.9 222.268 
L 280.8 219.168 
L 283.9 216.068 
L 280.8 212.968 
L 277.7 216.068 
L 274.6 212.968 
L 271.5 216.068 
L 274.6 219.168 
L 271.5 222.268 
L 268.4 219.168 
L 265.3 222.268 
L 268.4 225.368 
L 271.5 222.268 
L 274.6 225.368 
L 271.5 228.468 
L 274.6 231.568 
L 271.5 234.668 
L 268.4 231.568 
L 265.3 234.668 
L 268.4 237.768 
L 271.5 234.668 
L 274.6 237.768 
L 277.7 234.668 
L 274.6 231.568 
L 277.7 228.468 
L 280.8 231.568 
L 277.7 234.668 
L 280.8 237.768 
L 283.9 234.668 
L 287 237.768 
L 283.9 240.868 
L 287 243.968 
L 283.9 247.068 
L 280.8 243.968 
L 283.9 240.868 
L 280.8 237.768 
L 277.7 240.868 
L 274.6 237.768 
L 271.5 240.868 
L 274.6 243.968 
L 271.5 247.068 
L 268.4 243.968 
L 265.3 247.068 
L 268.4 250.168 
L 271.5 247.068 
L 274.6 250.168 
L 271.5 253.268 
L 274.6 256.368 
L 271.5 259.468 
L 268.4 256.368 
L 271.5 253.268 
L 268.4 250.168 
L 265.3 253.268 
L 262.2 250.168 
L 259.1 253.268 
L 262.2 256.368 
L 259.1 259.468 
L 256 256.368 
L 259.1 253.268 
L 256 250.168 
L 252.9 253.268 
L 249.8 250.168 
L 252.9 247.068 
L 249.8 243.968 
L 252.9 240.868 
L 256 243.968 
L 259.1 240.868 
L 256 237.768 
L 252.9 240.868 
L 249.8 237.768 
L 246.7 240.868 
L 249.8 243.968 
L 246.7 247.068 
L 243.6 243.968 
L 240.5 247.068 
L 243.6 250.168 
L 246.7 247.068 
L 249.8 250.168 
L 246.7 253.268 
L 249.8 256.368 
L 246.7 259.468 
L 243.6 256.368 
L 240.5 259.468 
L 243.6 262.568 
L 246.7 259.468 
L 249.8 262.568 
L 252.9 259.468 
L 249.8 256.368 
L 252.9 253.268 
L 256 256.368 
L 252.9 259.468 
L 256 262.568 
L 259.1 259.468 
L 262.2 262.568 
L 259.1 265.668 
L 262.2 268.768 
L 259.1 271.868 
L 256 268.768 
L 252.9 271.868 
L 256 274.968 
L 259.1 271.868 
L 262.2 274.968 
L 265.3 271.868 
L 262.2 268.768 
L 265.3 265.668 
L 268.4 268.768 
L 271.5 265.668 
L 268.4 262.568 
L 265.3 265.668 
L 262.2 262.568 
L 265.3 259.468 
L 262.2 256.368 
L 265.3 253.268 
L 268.4 256.368 
L 265.3 259.468 
L 268.4 262.568 
L 271.5 259.468 
L 274.6 262.568 
L 277.7 259.468 
L 274.6 256.368 
L 277.7 253.268 
L 280.8 256.368 
L 277.7 259.468 
L 280.8 262.568 
L 283.9 259.468 
L 287 262.568 
L 283.9 265.668 
L 287 268.768 
L 283.9 271.868 
L 280.8 268.768 
L 277.7 271.868 
L 280.8 274.968 
L 283.9 271.868 
L 287 274.968 
L 290.1 271.868 
L 287 268.768 
L 290.1 265.668 
L 293.2 268.768 
L 296.3 265.668 
L 293.2 262.568 
L 290.1 265.668 
L 287 262.568 
L 290.1 259.468 
L 287 256.368 
L 290.1 253.268 
L 293.2 256.368 
L 296.3 253.268 
L 293.2 250.168 
L 290.1 253.268 
L 287 250.168 
L 283.9 253.268 
L 287 256.368 
L 283.9 259.468 
L 280.8 256.368 
L 283.9 253.268 
L 280.8 250.168 
L 277.7 253.268 
L 274.6 250.168 
L 277.7 247.068 
L 274.6 243.968 
L 277.7 240.868 
L 280.8 243.968 
L 277.7 247.068 
L 280.8 250.168 
L 283.9 247.068 
L 287 250.168 
L 290.1 247.068 
L 287 243.968 
L 290.1 240.868 
L 293.2 243.968 
L 296.3 240.868 
L 293.2 237.768 
L 290.1 240.868 
L 287 237.768 
L 290.1 234.668 
L 287 231.568 
L 290.1 228.468 
L 293.2 231.568 
L 290.1 234.668 
L 293.2 237.768 
L 296.3 234.668 
L 299.4 237.768 
L 302.5 234.668 
L 299.4 231.568 
L 302.5 228.468 
L 305.6 231.568 
L 302.5 234.668 
L 305.6 237.768 
L 308.7 234.668 
L 311.8 237.768 
L 308.7 240.868 
L 311.8 243.968 
L 308.7 247.068 
L 305.6 243.968 
L 302.5 247.068 
L 305.6 250.168 
L 308.7 247.068 
L 311.8 250.168 
L 314.9 247.068 
L 311.8 243.968 
L 314.9 240.868 
L 318 243.968 
L 321.1 240.868 
L 318 237.768 
L 314.9 240.868 
L 311.8 237.768 
L 314.9 234.668 
L 311.8 231.568 
L 314.9 228.468 
L 318 231.568 
L 321.1 228.468 
L 318 225.368 
L 314.9 228.468 
L 311.8 225.368 
L 308.7 228.468 
L 311.8 231.568 
L 308.7 234.668 
L 305.6 231.568 
L 308.7 228.468 
L 305.6 225.368 
L 302.5 228.468 
L 299.4 225.368 
L 302.5 222.268 
L 299.4 219.168 
L 302.5 216.068 
L 305.6 219.168 
L 308.7 216.068 
L 305.6 212.968 
L 302.5 216.068 
L 299.4 212.968 
L 296.3 216.068 
L 299.4 219.168 
L 296.3 222.268 
L 293.2 219.168 
L 290.1 222.268 
L 293.2 225.368 
L 296.3 222.268 
L 299.4 225.368 
L 296.3 228.468 
L 299.4 231.568 
L 296.3 234.668 
L 293.2 231.568 
L 296.3 228.468 
L 293.2 225.368 
L 290.1 228.468 
L 287 225.368 
L 283.9 228.468 
L 287 231.568 
L 283.9 234.668 
L 280.8 231.568 
L 283.9 228.468 
L 280.8 225.368 
L 277.7 228.468 
L 274.6 225.368 
L 277.7 222.268 
L 274.6 219.168 
L 277.7 216.068 
L 280.8 219.168 
L 277.7 222.268 
L 280.8 225.368 
L 283.9 222.268 
L 287 225.368 
L 290.1 222.268 
L 287 219.168 
L 290.1 216.068 
L 293.2 219.168 
L 296.3 216.068 
L 293.2 212.968 
L 290.1 216.068 
L 287 212.968 
L 290.1 209.868 
L 287 206.768 
L 290.1 203.668 
L 293.2 206.768 
L 296.3 203.668 
L 293.2 200.568 
L 290.1 203.668 
L 287 200.568 
L 283.9 203.668 
L 287 206.768 
L 283.9 209.868 
L 280.8 206.768 
L 283.9 203.668 
L 280.8 200.568 
L 277.7 203.668 
L 274.6 200.568 
L 277.7 197.468 
L 274.6 194.368 
L 277.7 191.268 
L 280.8 194.368 
L 277.7 197.468 
L 280.8 200.568 
L 283.9 197.468 
L 287 200.568 
L 290.1 197.468 
L 287 194.368 
L 290.1 191.268 
L 293.2 194.368 
L 296.3 191.268 
L 293.2 188.168 
L 290.1 191.268 
L 287 188.168 
L 290.1 185.068 
L 287 181.968 
L 290.1 178.868 
L 293.2 181.968 
L 290.1 185.068 
L 293.2 188.168 
L 296.3 185.068 
L 299.4 188.168 
L 302.5 185.068 
L 299.4 181.968 
L 302.5 178.868 
L 305.6 181.968 
L 302.5 185.068 
L 305.6 188.168 
L 308.7 185.068 
L 311.8 188.168 
L 308.7 191.268 
L 311.8 194.368 
L 308.7 197.468 
L 305.6 194.368 
L 302.5 197.468 
L 305.6 200.568 
L 308.7 197.468 
L 311.8 200.568 
L 314.9 197.468 
L 311.8 194.368 
L 314.9 191.268 
L 318 194.368 
L 321.1 191.268 
L 318 188.168 
L 314.9 191.268 
L 311.8 188.168 
L 314.9 185.068 
L 311.8 181.968 
L 314.9 178.868 
L 318 181.968 
L 321.1 178.868 
L 318 175.768 
L 314.9 178.868 
L 311.8 175.768 
L 308.7 178.868 
L 311.8 181.968 
L 308.7 185.068 
L 305.6 181.968 
L 308.7 178.868 
L 305.6 175.768 
L 302.5 178.868 
L 299.4 175.768 
L 302.5 172.668 
L 299.4 169.568 
L 302.5 166.468 
L 305.6 169.568 
L 308.7 166.468 
L 305.6 163.368 
L 302.5 166.468 
L 299.4 163.368 
L 296.3 166.468 
L 299.4 169.568 
L 296.3 172.668 
L 293.2 169.568 
L 290.1 172.668 
L 293.2 175.768 
L 296.3 172.668 
L 299.4 175.768 
L 296.3 178.868 
L 299.4 181.968 
L 296.3 185.068 
L 293.2 181.968 
L 296.3 178.868 
L 293.2 175.768 
L 290.1 178.868 
L 287 175.768 
L 283.9 178.868 
L 287 181.968 
L 283.9 185.068 
L 280.8 181.968 
L 283.9 178.868 
L 280.8 175.768 
L 277.7 178.868 
L 274.6 175.768 
L 277.7 172.668 
L 274.6 169.568 
L 277.7 166.468 
L 280.8 169.568 
L 283.9 166.468 
L 280.8 163.368 
L 277.7 166.468 
L 274.6 163.368 
L 271.5 166.468 
L 274.6 169.568 
L 271.5 172.668 
L 268.4 169.568 
L 265.3 172.668 
L 268.4 175.768 
L 271.5 172.668 
L 274.6 175.768 
L 271.5 178.868 
L 274.6 181.968 
L 271.5 185.068 
L 268.4 181.968 
L 265.3 185.068 
L 268.4 188.168 
L 271.5 185.068 
L 274.6 188.168 
L 277.7 185.068 
L 274.6 181.968 
L 277.7 178.868 
L 280.8 181.968 
L 277.7 185.068 
L 280.8 188.168 
L 283.9 185.068 
L 287 188.168 
L 283.9 191.268 
L 287 194.368 
L 283.9 197.468 
L 280.8 194.368 
L 283.9 191.268 
L 280.8 188.168 
L 277.7 191.268 
L 274.6 188.168 
L 271.5 191.268 
L 274.6 194.368 
L 271.5 197.468 
L 268.4 194.368 
L 265.3 197.468 
L 268.4 200.568 
L 271.5 197.468 
L 274.6 200.568 
L 271.5 203.668 
L 274.6 206.768 
L 271.5 209.868 
L 268.4 206.768 
L 271.5 203.668 
L 268.4 200.568 
L 265.3 203.668 
L 262.2 200.568 
L 259.1 203.668 
L 262.2 206.768 
L 259.1 209.868 
L 256 206.768 
L 259.1 203.668 
L 256 200.568 
L 252.9 203.668 
L 249.8 200.568 
L 252.9 197.468 
L 249.8 194.368 
L 252.9 191.268 
L 256 194.368 
L 252.9 197.468 
L 256 200.568 
L 259.1 197.468 
L 262.2 200.568 
L 265.3 197.468 
L 262.2 194.368 
L 265.3 191.268 
L 268.4 194.368 
L 271.5 191.268 
L 268.4 188.168 
L 265.3 191.268 
L 262.2 188.168 
L 265.3 185.068 
L 262.2 181.968 
L 265.3 178.868 
L 268.4 181.968 
L 271.5 178.868 
L 268.4 175.768 
L 265.3 178.868 
L 262.2 175.768 
L 259.1 178.868 
L 262.2 181.968 
L 259.1 185.068 
L 256 181.968 
L 259.1 178.868 
L 256 175.768 
L 252.9 178.868 
L 249.8 175.768 
L 252.9 172.668 
L 249.8 169.568 
L 252.9 166.468 
L 256 169.568 
L 259.1 166.468 
L 256 163.368 
L 252.9 166.468 
L 249.8 163.368 
L 246.7 166.468 
L 249.8 169.568 
L 246.7 172.668 
L 243.6 169.568 
L 240.5 172.668 
L 243.6 175.768 
L 246.7 172.668 
L 249.8 175.768 
L 246.7 178.868 
L 249.8 181.968 
L 246.7 185.068 
L 243.6 181.968 
L 246.7 178.868 
L 243.6 175.768 
L 240.5 178.868 
L 237.4 175.768 
L 234.3 178.868 
L 237.4 181.968 
L 234.3 185.068 
L 231.2 181.968 
L 234.3 178.868 
L 231.2 175.768 
L 228.1 178.868 
L 225 175.768 
L 228.1 172.668 
L 225 169.568 
L 228.1 166.468 
L 231.2 169.568 
L 228.1 172.668 
L 231.2 175.768 
L 234.3 172.668 
L 237.4 175.768 
L 240.5 172.668 
L 237.4 169.568 
L 240.5 166.468 
L 243.6 169.568 
L 246.7 166.468 
L 243.6 163.368 
L 240.5 166.468 
L 237.4 163.368 
L 240.5 160.268 
L 237.4 157.168 
L 240.5 154.068 
L 243.6 157.168 
L 246.7 154.068 
L 243.6 150.968 
L 240.5 154.068 
L 237.4 150.968 
L 234.3 154.068 
L 237.4 157.168 
L 234.3 160.268 
L 231.2 157.168 
L 234.3 154.068 
L 231.2 150.968 
L 228.1 154.068 
L 225 150.968 
L 228.1 147.868 
L 225 144.768 
L 228.1 141.668 
L 231.2 144.768 
L 228.1 147.868 
L 231.2 150.968 
L 234.3 147.868 
L 237.4 150.968 
L 240.5 147.868 
L 237.4 144.768 
L 240.5 141.668 
L 243.6 144.768 
L 246.7 141.668 
L 243.6 138.568 
L 240.5 141.668 
L 237.4 138.568 
L 240.5 135.468 
L 237.4 132.368 
L 240.5 129.268 
L 243.6 132.368 
L 240.5 135.468 
L 243.6 138.568 
L 246.7 135.468 
L 249.8 138.568 
L 252.9 135.468 
L 249.8 132.368 
L 252.9 129.268 
L 256 132.368 
L 252.9 135.468 
L 256 138.568 
L 259.1 135.468 
L 262.2 138.568 
L 259.1 141.668 
L 262.2 144.768 
L 259.1 147.868 
L 256 144.768 
L 259.1 141.668 
L 256 138.568 
L 252.9 141.668 
L 249.8 138.568 
L 246.7 141.668 
L 249.8 144.768 
L 246.7 147.868 
L 243.6 144.768 
L 240.5 147.868 
L 243.6 150.968 
L 246.7 147.868 
L 249.8 150.968 
L 246.7 154.068 
L 249.8 157.168 
L 246.7 160.268 
L 243.6 157.168 
L 240.5 160.268 
L 243.6 163.368 
L 246.7 160.268 
L 249.8 163.368 
L 252.9 160.268 
L 249.8 157.168 
L 252.9 154.068 
L 256 157.168 
L 252.9 160.268 
L 256 163.368 
L 259.1 160.268 
L 262.2 163.368 
L 259.1 166.468 
L 262.2 169.568 
L 259.1 172.668 
L 256 169.568 
L 252.9 172.668 
L 256 175.768 
L 259.1 172.668 
L 262.2 175.768 
L 265.3 172.668 
L 262.2 169.568 
L 265.3 166.468 
L 268.4 169.568 
L 271.5 166.468 
L 268.4 163.368 
L 265.3 166.468 
L 262.2 163.368 
L 265.3 160.268 
L 262.2 157.168 
L 265.3 154.068 
L 268.4 157.168 
L 265.3 160.268 
L 268.4 163.368 
L 271.5 160.268 
L 274.6 163.368 
L 277.7 160.268 
L 274.6 157.168 
L 277.7 154.068 
L 280.8 157.168 
L 277.7 160.268 
L 280.8 163.368 
L 283.9 160.268 
L 287 163.368 
L 283.9 166.468 
L 287 169.568 
L 283.9 172.668 
L 280.8 169.568 
L 277.7 172.668 
L 280.8 175.768 
L 283.9 172.668 
L 287 175.768 
L 290.1 172.668 
L 287 169.568 
L 290.1 166.468 
L 293.2 169.568 
L 296.3 166.468 
L 293.2 163.368 
L 290.1 166.468 
L 287 163.368 
L 290.1 160.268 
L 287 157.168 
L 290.1 154.068 
L 293.2 157.168 
L 296.3 154.068 
L 293.2 150.968 
L 290.1 154.068 
L 287 150.968 
L 283.9 154.068 
L 287 157.168 
L 283.9 160.268 
L 280.8 157.168 
L 283.9 154.068 
L 280.8 150.968 
L 277.7 154.068 
L 274.6 150.968 
L 277.7 147.868 
L 274.6 144.768 
L 277.7 141.668 
L 280.8 144.768 
L 277.7 147.868 
L 280.8 150.968 
L 283.9 147.868 
L 287 150.968 
L 290.1 147.868 
L 287 144.768 
L 290.1 141.668 
L 293.2 144.768 
L 296.3 141.668 
L 293.2 138.568 
L 290.1 141.668 
L 287 138.568 
L 290.1 135.468 
L 287 132.368 
L 290.1 129.268 
L 293.2 132.368 
L 290.1 135.468 
L 293.2 138.568 
L 296.3 135.468 
L 299.4 138.568 
L 302.5 135.468 
L 299.4 132.368 
L 302.5 129.268 
L 305.6 132.368 
L 302.5 135.468 
L 305.6 138.568 
L 308.7 135.468 
L 311.8 138.568 
L 308.7 141.668 
L 311.8 144.768 
L 308.7 147.868 
L 305.6 144.768 
L 302.5 147.868 
L 305.6 150.968 
L 308.7 147.868 
L 311.8 150.968 
L 314.9 147.868 
L 311.8 144.768 
L 314.9 141.668 
L 318 144.768 
L 321.1 141.668 
L 318 138.568 
L 314.9 141.668 
L 311.8 138.568 
L 314.9 135.468 
L 311.8 132.368 
L 314.9 129.268 
L 318 132.368 
L 321.1 129.268 
L 318 126.168 
L 314.9 129.268 
L 311.8 126.168 
L 308.7 129.268 
L 311.8 132.368 
L 308.7 135.468 
L 305.6 132.368 
L 308.7 129.268 
L 305.6 126.168 
L 302.5 129.268 
L 299.4 126.168 
L 302.5 123.068 
L 299.4 119.968 
L 302.5 116.868 
L 305.6 119.968 
L 308.7 116.868 
L 305.6 113.768 
L 302.5 116.868 
L 299.4 113.768 
L 296.3 116.868 
L 299.4 119.968 
L 296.3 123.068 
L 293.2 119.968 
L 290.1 123.068 
L 293.2 126.168 
L 296.3 123.068 
L 299.4 126.168 
L 296.3 129.268 
L 299.4 132.368 
L 296.3 135.468 
L 293.2 132.368 
L 296.3 129.268 
L 293.2 126.168 
L 290.1 129.268 
L 287 126.168 
L 283.9 129.268 
L 287 132.368 
L 283.9 135.468 
L 280.8 132.368 
L 283.9 129.268 
L 280.8 126.168 
L 277.7 129.268 
L 274.6 126.168 
L 277.7 123.068 
L 274.6 119.968 
L 277.7 116.868 
L 280.8 119.968 
L 277.7 123.068 
L 280.8 126.168 
L 283.9 123.068 
L 287 126.168 
L 290.1 123.068 
L 287 119.968 
L 290.1 116.868 
L 293.2 119.968 
L 296.3 116.868 
L 293.2 113.768 
L 290.1 116.868 
L 287 113.768 
L 290.1 110.668 
L 287 107.568 
L 290.1 104.468 
L 293.2 107.568 
L 296.3 104.468 
L 293.2 101.368 
L 290.1 104.468 
L 287 101.368 
L 283.9 104.468 
L 287 107.568 
L 283.9 110.668 
L 280.8 107.568 
L 283.9 104.468 
L 280.8 101.368 
L 277.7 104.468 
L 274.6 101.368 
L 277.7 98.268 
L 274.6 95.168 
L 277.7 92.068 
L 280.8 95.168 
L 277.7 98.268 
L 280.8 101.368 
L 283.9 98.268 
L 287 101.368 
L 290.1 98.268 
L 287 95.168 
L 290.1 92.068 
L 293.2 95.168 
L 296.3 92.068 
L 293.2 88.968 
L 290.1 92.068 
L 287 88.968 
L 290.1 85.868 
L 287 82.768 
L 290.1 79.668 
L 293.2 82.768 
L 290.1 85.868 
L 293.2 88.968 
L 296.3 85.868 
L 299.4 88.968 
L 302.5 85.868 
L 299.4 82.768 
L 302.5 79.668 
L 305.6 82.768 
L 302.5 85.868 
L 305.6 88.968 
L 308.7 85.868 
L 311.8 88.968 
L 308.7 92.068 
L 311.8 95.168 
L 308.7 98.268 
L 305.6 95.168 
L 308.7 92.068 
L 305.6 88.968 
L 302.5 92.068 
L 299.4 88.968 
L 296.3 92.068 
L 299.4 95.168 
L 296.3 98.268 
L 293.2 95.168 
L 290.1 98.268 
L 293.2 101.368 
L 296.3 98.268 
L 299.4 101.368 
L 296.3 104.468 
L 299.4 107.568 
L 296.3 110.668 
L 293.2 107.568 
L 290.1 110.668 
L 293.2 113.768 
L 296.3 110.668 
L 299.4 113.768 
L 302.5 110.668 
L 299.4 107.568 
L 302.5 104.468 
L 305.6 107.568 
L 302.5 110.668 
L 305.6 113.768 
L 308.7 110.668 
L 311.8 113.768 
L 308.7 116.868 
L 311.8 119.968 
L 308.7 123.068 
L 305.6 119.968 
L 302.5 123.068 
L 305.6 126.168 
L 308.7 123.068 
L 311.8 126.168 
L 314.9 123.068 
L 311.8 119.968 
L 314.9 116.868 
L 318 119.968 
L 321.1 116.868 
L 318 113.768 
L 314.9 116.868 
L 311.8 113.768 
L 314.9 110.668 
L 311.8 107.568 
L 314.9 104.468 
L 318 107.568 
L 314.9 110.668 
L 318 113.768 
L 321.1 110.668 
L 324.2 113.768 
L 327.3 110.668 
L 324.2 107.568 
L 327.3 104.468 
L 330.4 107.568 
L 327.3 110.668 
L 330.4 113.768 
L 333.5 110.668 
L 336.6 113.768 
L 333.5 116.868 
L 336.6 119.968 
L 333.5 123.068 
L 330.4 119.968 
L 327.3 123.068 
L 330.4 126.168 
L 333.5 123.068 
L 336.6 126.168 
L 339.7 123.068 
L 336.6 119.968 
L 339.7 116.868 
L 342.8 119.968 
L 345.9 116.868 
L 342.8 113.768 
L 339.7 116.868 
L 336.6 113.768 
L 339.7 110.668 
L 336.6 107.568 
L 339.7 104.468 
L 342.8 107.568 
L 345.9 104.468 
L 342.8 101.368 
L 339.7 104.468 
L 336.6 101.368 
L 333.5 104.468 
L 336.6 107.568 
L 333.5 110.668 
L 330.4 107.568 
L 333.5 104.468 
L 330.4 101.368 
L 327.3 104.468 
L 324.2 101.368 
L 327.3 98.268 
L 324.2 95.168 
L 327.3 92.068 
L 330.4 95.168 
L 327.3 98.268 
L 330.4 101.368 
L 333.5 98.268 
L 336.6 101.368 
L 339.7 98.268 
L 336.6 95.168 
L 339.7 92.068 
L 342.8 95.168 
L 345.9 92.068 
L 342.8 88.968 
L 339.7 92.068 
L 336.6 88.968 
L 339.7 85.868 
L 336.6 82.768 
L 339.7 79.668 
L 342.8 82.768 
L 339.7 85.868 
L 342.8 88.968 
L 345.9 85.868 
L 349 88.968 
L 352.1 85.868 
L 349 82.768 
L 352.1 79.668 
L 355.2 82.768 
L 352.1 85.868 
L 355.2 88.968 
L 358.3 85.868 
L 361.4 88.968 
L 358.3 92.068 
L 361.4 95.168 
L 358.3 98.268 
L 355.2 95.168 
L 358.3 92.068 
L 355.2 88.968 
L 352.1 92.068 
L 349 88.968 
L 345.9 92.068 
L 349 95.168 
L 345.9 98.268 
L 342.8 95.168 
L 339.7 98.268 
L 342.8 101.368 
L 345.9 98.268 
L 349 101.368 
L 345.9 104.468 
L 349 107.568 
L 345.9 110.668 
L 342.8 107.568 
L 339.7 110.668 
L 342.8 113.768 
L 345.9 110.668 
L 349 113.768 
L 352.1 110.668 
L 349 107.568 
L 352.1 104.468 
L 355.2 107.568 
L 352.1 110.668 
L 355.2 113.768 
L 358.3 110.668 
L 361.4 113.768 
L 358.3 116.868 
L 361.4 119.968 
L 358.3 123.068 
L 355.2 119.968 
L 352.1 123.068 
L 355.2 126.168 
L 358.3 123.068 
L 361.4 126.168 
L 364.5 123.068 
L 361.4 119.968 
L 364.5 116.868 
L 367.6 119.968 
L 370.7 116.868 
L 367.6 113.768 
L 364.5 116.868 
L 361.4 113.768 
L 364.5 110.668 
L 361.4 107.568 
L 364.5 104.468 
L 367.6 107.568 
L 364.5 110.668 
L 367.6 113.768 
L 370.7 110.668 
L 373.8 113.768 
L 376.9 110.668 
L 373.8 107.568 
L 376.9 104.468 
L 380 107.568 
L 376.9 110.668 
L 380 113.768 
L 383.1 110.668 
L 386.2 113.768 
L 383.1 116.868 
L 386.2 119.968 
L 383.1 123.068 
L 380 119.968 
L 383.1 116.868 
L 380 113.768 
L 376.9 116.868 
L 373.8 113.768 
L 370.7 116.868 
L 373.8 119.968 
L 370.7 123.068 
L 367.6 119.968 
L 364.5 123.068 
L 367.6 126.168 
L 370.7 123.068 
L 373.8 126.168 
L 370.7 129.268 
L 373.8 132.368 
L 370.7 135.468 
L 367.6 132.368 
L 364.5 135.468 
L 367.6 138.568 
L 370.7 135.468 
L 373.8 138.568 
L 376.9 135.468 
L 373.8 132.368 
L 376.9 129.268 
L 380 132.368 
L 376.9 135.468 
L 380 138.568 
L 383.1 135.468 
L 386.2 138.568 
L 383.1 141.668 
L 386.2 144.768 
L 383.1 147.868 
L 380 144.768 
L 383.1 141.668 
L 380 138.568 
L 376.9 141.668 
L 373.8 138.568 
L 370.7 141.668 
L 373.8 144.768 
L 370.7 147.868 
L 367.6 144.768 
L 364.5 147.868 
L 367.6 150.968 
L 370.7 147.868 
L 373.8 150.968 
L 370.7 154.068 
L 373.8 157.168 
L 370.7 160.268 
L 367.6 157.168 
L 370.7 154.068 
L 367.6 150.968 
L 364.5 154.068 
L 361.4 150.968 
L 358.3 154.068 
L 361.4 157.168 
L 358.3 160.268 
L 355.2 157.168 
L 358.3 154.068 
L 355.2 150.968 
L 352.1 154.068 
L 349 150.968 
L 352.1 147.868 
L 349 144.768 
L 352.1 141.668 
L 355.2 144.768 
L 355.2 144.768 
" clip-path="url(#pdef51d8aca)" style="fill: none; stroke: #000000; stroke-width: 3; stroke-linecap: square"/>
   </g>
  </g>
 </g>
 <defs>
  <clipPath id="pdef51d8aca">
   <rect x="57.6" y="65.408" width="357.12" height="218.24"/>
  </clipPath>
 </defs>
</svg>
