<?xml version="1.0" encoding="utf-8" standalone="no"?>
<!DOCTYPE svg PUBLIC "-//W3C//DTD SVG 1.1//EN"
  "http://www.w3.org/Graphics/SVG/1.1/DTD/svg11.dtd">
<svg xmlns:xlink="http://www.w3.org/1999/xlink" width="460.8pt" height="345.6pt" viewBox="0 0 460.8 345.6" xmlns="http://www.w3.org/2000/svg" version="1.1">
 <metadata>
  <rdf:RDF xmlns:dc="http://purl.org/dc/elements/1.1/" xmlns:cc="http://creativecommons.org/ns#" xmlns:rdf="http://www.w3.org/1999/02/22-rdf-syntax-ns#">
   <cc:Work>
    <dc:type rdf:resource="http://purl.org/dc/dcmitype/StillImage"/>
    <dc:date>2025-11-13T10:21:04.761188</dc:date>
    <dc:format>image/svg+xml</dc:format>
    <dc:creator>
     <cc:Agent>
      <dc:title>Matplotlib v3.9.1.post1, https://matplotlib.org/</dc:title>
     </cc:Agent>
    </dc:creator>
   </cc:Work>
  </rdf:RDF>
 </metadata>
 <defs>
  <style type="text/css">*{stroke-linejoin: round; stroke-linecap: butt}</style>
 </defs>
 <g id="figure_1">
  <g id="patch_1">
   <path d="M 0 345.6 
L 460.8 345.6 
L 460.8 0 
L 0 0 
z
" style="fill: #ffffff"/>
  </g>
  <g id="axes_1">
   <g id="line2d_1">
    <path d="M 156.8 144.768 
L 107.2 144.768 
L 107.2 194.368 
L 156.8 194.368 
L 156.8 243.968 
L 206.4 243.968 
L 206.4 194.368 
L 256 194.368 
L 256 243.968 
L 305.6 243.968 
L 305.6 194.368 
L 256 194.368 
L 256 144.768 
L 305.6 144.768 
L 305.6 95.168 
L 355.2 95.168 
L 355.2 144.768 
" clip-path="url(#p11ba68d7bd)" style="fill: none; stroke: #bbbbbb; stroke-width: 3; stroke-linecap: square"/>
   </g>
   <g id="line2d_2">
    <path d="M 132 144.768 
L 132 119.968 
" clip-path="url(#p11ba68d7bd)" style="fill: none; stroke: #fc8080; stroke-width: 3; stroke-linecap: square"/>
   </g>
   <g id="line2d_3">
    <path d="M 132 194.368 
L 132 219.168 
" clip-path="url(#p11ba68d7bd)" style="fill: none; stroke: #fc8080; stroke-width: 3; stroke-linecap: square"/>
   </g>
   <g id="line2d_4">
    <path d="M 181.6 243.968 
L 181.6 268.768 
" clip-path="url(#p11ba68d7bd)" style="fill: none; stroke: #fc8080; stroke-width: 3; stroke-linecap: square"/>
   </g>
   <g id="line2d_5">
    <path d="M 231.2 194.368 
L 231.2 219.168 
" clip-path="url(#p11ba68d7bd)" style="fill: none; stroke: #fc8080; stroke-width: 3; stroke-linecap: square"/>
   </g>
   <g id="line2d_6">
    <path d="M 280.8 243.968 
L 280.8 268.768 
" clip-path="url(#p11ba68d7bd)" style="fill: none; stroke: #fc8080; stroke-width: 3; stroke-linecap: square"/>
   </g>
   <g id="line2d_7">
    <path d="M 280.8 194.368 
L 280.8 169.568 
" clip-path="url(#p11ba68d7bd)" style="fill: none; stroke: #fc8080; stroke-width: 3; stroke-linecap: square"/>
   </g>
   <g id="line2d_8">
    <path d="M 280.8 144.768 
L 280.8 169.568 
" clip-path="url(#p11ba68d7bd)" style="fill: none; stroke: #fc8080; stroke-width: 3; stroke-linecap: square"/>
   </g>
   <g id="line2d_9">
    <path d="M 330.4 95.168 
L 330.4 119.968 
" clip-path="url(#p11ba68d7bd)" style="fill: none; stroke: #fc8080; stroke-width: 3; stroke-linecap: square"/>
   </g>
   <g id="line2d_10">
    <path d="M 107.2 169.568 
L 132 169.568 
" clip-path="url(#p11ba68d7bd)" style="fill: none; stroke: #9efa52; stroke-width: 3; stroke-linecap: square"/>
   </g>
   <g id="line2d_11">
    <path d="M 156.8 219.168 
L 181.6 219.168 
" clip-path="url(#p11ba68d7bd)" style="fill: none; stroke: #9efa52; stroke-width: 3; stroke-linecap: square"/>
   </g>
   <g id="line2d_12">
    <path d="M 206.4 219.168 
L 181.6 219.168 
" clip-path="url(#p11ba68d7bd)" style="fill: none; stroke: #9efa52; stroke-width: 3; stroke-linecap: square"/>
   </g>
   <g id="line2d_13">
    <path d="M 256 219.168 
L 280.8 219.168 
" clip-path="url(#p11ba68d7bd)" style="fill: none; stroke: #9efa52; stroke-width: 3; stroke-linecap: square"/>
   </g>
   <g id="line2d_14">
    <path d="M 305.6 219.168 
L 280.8 219.168 
" clip-path="url(#p11ba68d7bd)" style="fill: none; stroke: #9efa52; stroke-width: 3; stroke-linecap: square"/>
   </g>
   <g id="line2d_15">
    <path d="M 256 169.568 
L 231.2 169.568 
" clip-path="url(#p11ba68d7bd)" style="fill: none; stroke: #9efa52; stroke-width: 3; stroke-linecap: square"/>
   </g>
   <g id="line2d_16">
    <path d="M 305.6 119.968 
L 280.8 119.968 
" clip-path="url(#p11ba68d7bd)" style="fill: none; stroke: #9efa52; stroke-width: 3; stroke-linecap: square"/>
   </g>
   <g id="line2d_17">
    <path d="M 355.2 119.968 
L 380 119.968 
" clip-path="url(#p11ba68d7bd)" style="fill: none; stroke: #9efa52; stroke-width: 3; stroke-linecap: square"/>
   </g>
   <g id="line2d_18">
    <path d="M 156.8 144.768 
L 132 119.968 
L 107.2 144.768 
L 132 169.568 
L 107.2 194.368 
L 132 219.168 
L 156.8 194.368 
L 181.6 219.168 
L 156.8 243.968 
L 181.6 268.768 
L 206.4 243.968 
L 181.6 219.168 
L 206.4 194.368 
L 231.2 219.168 
L 256 194.368 
L 280.8 219.168 
L 256 243.968 
L 280.8 268.768 
L 305.6 243.968 
L 280.8 219.168 
L 305.6 194.368 
L 280.8 169.568 
L 256 194.368 
L 231.2 169.568 
L 256 144.768 
L 280.8 169.568 
L 305.6 144.768 
L 280.8 119.968 
L 305.6 95.168 
L 330.4 119.968 
L 355.2 95.168 
L 380 119.968 
L 355.2 144.768 
" clip-path="url(#p11ba68d7bd)" style="fill: none; stroke: #000000; stroke-width: 3; stroke-linecap: square"/>
   </g>
  </g>
 </g>
 <defs>
  <clipPath id="p11ba68d7bd">
   <rect x="57.6" y="65.408" width="357.12" height="218.24"/>
  </clipPath>
 </defs>
</svg>
