<?xml version="1.0" encoding="utf-8" standalone="no"?>
<!DOCTYPE svg PUBLIC "-//W3C//DTD SVG 1.1//EN"
  "http://www.w3.org/Graphics/SVG/1.1/DTD/svg11.dtd">
<svg xmlns:xlink="http://www.w3.org/1999/xlink" width="460.8pt" height="345.6pt" viewBox="0 0 460.8 345.6" xmlns="http://www.w3.org/2000/svg" version="1.1">
 <metadata>
  <rdf:RDF xmlns:dc="http://purl.org/dc/elements/1.1/" xmlns:cc="http://creativecommons.org/ns#" xmlns:rdf="http://www.w3.org/1999/02/22-rdf-syntax-ns#">
   <cc:Work>
    <dc:type rdf:resource="http://purl.org/dc/dcmitype/StillImage"/>
    <dc:date>2025-11-13T10:21:05.641319</dc:date>
    <dc:format>image/svg+xml</dc:format>
    <dc:creator>
     <cc:Agent>
      <dc:title>Matplotlib v3.9.1.post1, https://matplotlib.org/</dc:title>
     </cc:Agent>
    </dc:creator>
   </cc:Work>
  </rdf:RDF>
 </metadata>
 <defs>
  <style type="text/css">*{stroke-linejoin: round; stroke-linecap: butt}</style>
 </defs>
 <g id="figure_1">
  <g id="patch_1">
   <path d="M 0 345.6 
L 460.8 345.6 
L 460.8 0 
L 0 0 
z
" style="fill: #ffffff"/>
  </g>
  <g id="axes_1">
   <g id="line2d_1">
    <path d="M 156.8 144.768 
L 153.7 144.768 
L 153.7 147.868 
L 156.8 147.868 
L 156.8 150.968 
L 159.9 150.968 
L 159.9 147.868 
L 163 147.868 
L 163 150.968 
L 166.1 150.968 
L 166.1 147.868 
L 163 147.868 
L 163 144.768 
L 166.1 144.768 
L 166.1 141.668 
L 169.2 141.668 
L 169.2 144.768 
L 172.3 144.768 
L 172.3 141.668 
L 169.2 141.668 
L 169.2 138.568 
L 166.1 138.568 
L 166.1 141.668 
L 163 141.668 
L 163 138.568 
L 166.1 138.568 
L 166.1 135.468 
L 163 135.468 
L 163 132.368 
L 166.1 132.368 
L 166.1 129.268 
L 169.2 129.268 
L 169.2 132.368 
L 172.3 132.368 
L 172.3 129.268 
L 169.2 129.268 
L 169.2 126.168 
L 166.1 126.168 
L 166.1 129.268 
L 163 129.268 
L 163 126.168 
L 159.9 126.168 
L 159.9 129.268 
L 163 129.268 
L 163 132.368 
L 159.9 132.368 
L 159.9 135.468 
L 156.8 135.468 
L 156.8 132.368 
L 159.9 132.368 
L 159.9 129.268 
L 156.8 129.268 
L 156.8 126.168 
L 153.7 126.168 
L 153.7 129.268 
L 150.6 129.268 
L 150.6 126.168 
L 153.7 126.168 
L 153.7 123.068 
L 150.6 123.068 
L 150.6 119.968 
L 153.7 119.968 
L 153.7 116.868 
L 156.8 116.868 
L 156.8 119.968 
L 159.9 119.968 
L 159.9 116.868 
L 156.8 116.868 
L 156.8 113.768 
L 153.7 113.768 
L 153.7 116.868 
L 150.6 116.868 
L 150.6 113.768 
L 147.5 113.768 
L 147.5 116.868 
L 150.6 116.868 
L 150.6 119.968 
L 147.5 119.968 
L 147.5 123.068 
L 144.4 123.068 
L 144.4 119.968 
L 141.3 119.968 
L 141.3 123.068 
L 144.4 123.068 
L 144.4 126.168 
L 147.5 126.168 
L 147.5 123.068 
L 150.6 123.068 
L 150.6 126.168 
L 147.5 126.168 
L 147.5 129.268 
L 150.6 129.268 
L 150.6 132.368 
L 147.5 132.368 
L 147.5 135.468 
L 144.4 135.468 
L 144.4 132.368 
L 147.5 132.368 
L 147.5 129.268 
L 144.4 129.268 
L 144.4 126.168 
L 141.3 126.168 
L 141.3 129.268 
L 138.2 129.268 
L 138.2 126.168 
L 135.1 126.168 
L 135.1 129.268 
L 138.2 129.268 
L 138.2 132.368 
L 135.1 132.368 
L 135.1 135.468 
L 132 135.468 
L 132 132.368 
L 135.1 132.368 
L 135.1 129.268 
L 132 129.268 
L 132 126.168 
L 128.9 126.168 
L 128.9 129.268 
L 125.8 129.268 
L 125.8 126.168 
L 128.9 126.168 
L 128.9 123.068 
L 125.8 123.068 
L 125.8 119.968 
L 128.9 119.968 
L 128.9 116.868 
L 132 116.868 
L 132 119.968 
L 135.1 119.968 
L 135.1 116.868 
L 132 116.868 
L 132 113.768 
L 128.9 113.768 
L 128.9 116.868 
L 125.8 116.868 
L 125.8 113.768 
L 122.7 113.768 
L 122.7 116.868 
L 125.8 116.868 
L 125.8 119.968 
L 122.7 119.968 
L 122.7 123.068 
L 119.6 123.068 
L 119.6 119.968 
L 116.5 119.968 
L 116.5 123.068 
L 119.6 123.068 
L 119.6 126.168 
L 122.7 126.168 
L 122.7 123.068 
L 125.8 123.068 
L 125.8 126.168 
L 122.7 126.168 
L 122.7 129.268 
L 125.8 129.268 
L 125.8 132.368 
L 122.7 132.368 
L 122.7 135.468 
L 119.6 135.468 
L 119.6 132.368 
L 116.5 132.368 
L 116.5 135.468 
L 119.6 135.468 
L 119.6 138.568 
L 122.7 138.568 
L 122.7 135.468 
L 125.8 135.468 
L 125.8 138.568 
L 128.9 138.568 
L 128.9 135.468 
L 125.8 135.468 
L 125.8 132.368 
L 128.9 132.368 
L 128.9 129.268 
L 132 129.268 
L 132 132.368 
L 128.9 132.368 
L 128.9 135.468 
L 132 135.468 
L 132 138.568 
L 135.1 138.568 
L 135.1 135.468 
L 138.2 135.468 
L 138.2 138.568 
L 135.1 138.568 
L 135.1 141.668 
L 138.2 141.668 
L 138.2 144.768 
L 135.1 144.768 
L 135.1 147.868 
L 132 147.868 
L 132 144.768 
L 135.1 144.768 
L 135.1 141.668 
L 132 141.668 
L 132 138.568 
L 128.9 138.568 
L 128.9 141.668 
L 125.8 141.668 
L 125.8 138.568 
L 122.7 138.568 
L 122.7 141.668 
L 125.8 141.668 
L 125.8 144.768 
L 122.7 144.768 
L 122.7 147.868 
L 119.6 147.868 
L 119.6 144.768 
L 116.5 144.768 
L 116.5 147.868 
L 119.6 147.868 
L 119.6 150.968 
L 122.7 150.968 
L 122.7 147.868 
L 125.8 147.868 
L 125.8 150.968 
L 122.7 150.968 
L 122.7 154.068 
L 125.8 154.068 
L 125.8 157.168 
L 122.7 157.168 
L 122.7 160.268 
L 119.6 160.268 
L 119.6 157.168 
L 122.7 157.168 
L 122.7 154.068 
L 119.6 154.068 
L 119.6 150.968 
L 116.5 150.968 
L 116.5 154.068 
L 113.4 154.068 
L 113.4 150.968 
L 110.3 150.968 
L 110.3 154.068 
L 113.4 154.068 
L 113.4 157.168 
L 110.3 157.168 
L 110.3 160.268 
L 107.2 160.268 
L 107.2 157.168 
L 110.3 157.168 
L 110.3 154.068 
L 107.2 154.068 
L 107.2 150.968 
L 104.1 150.968 
L 104.1 154.068 
L 101 154.068 
L 101 150.968 
L 104.1 150.968 
L 104.1 147.868 
L 101 147.868 
L 101 144.768 
L 104.1 144.768 
L 104.1 141.668 
L 107.2 141.668 
L 107.2 144.768 
L 110.3 144.768 
L 110.3 141.668 
L 107.2 141.668 
L 107.2 138.568 
L 104.1 138.568 
L 104.1 141.668 
L 101 141.668 
L 101 138.568 
L 97.9 138.568 
L 97.9 141.668 
L 101 141.668 
L 101 144.768 
L 97.9 144.768 
L 97.9 147.868 
L 94.8 147.868 
L 94.8 144.768 
L 91.7 144.768 
L 91.7 147.868 
L 94.8 147.868 
L 94.8 150.968 
L 97.9 150.968 
L 97.9 147.868 
L 101 147.868 
L 101 150.968 
L 97.9 150.968 
L 97.9 154.068 
L 101 154.068 
L 101 157.168 
L 97.9 157.168 
L 97.9 160.268 
L 94.8 160.268 
L 94.8 157.168 
L 91.7 157.168 
L 91.7 160.268 
L 94.8 160.268 
L 94.8 163.368 
L 97.9 163.368 
L 97.9 160.268 
L 101 160.268 
L 101 163.368 
L 104.1 163.368 
L 104.1 160.268 
L 101 160.268 
L 101 157.168 
L 104.1 157.168 
L 104.1 154.068 
L 107.2 154.068 
L 107.2 157.168 
L 104.1 157.168 
L 104.1 160.268 
L 107.2 160.268 
L 107.2 163.368 
L 110.3 163.368 
L 110.3 160.268 
L 113.4 160.268 
L 113.4 163.368 
L 110.3 163.368 
L 110.3 166.468 
L 113.4 166.468 
L 113.4 169.568 
L 110.3 169.568 
L 110.3 172.668 
L 107.2 172.668 
L 107.2 169.568 
L 104.1 169.568 
L 104.1 172.668 
L 107.2 172.668 
L 107.2 175.768 
L 110.3 175.768 
L 110.3 172.668 
L 113.4 172.668 
L 113.4 175.768 
L 116.5 175.768 
L 116.5 172.668 
L 113.4 172.668 
L 113.4 169.568 
L 116.5 169.568 
L 116.5 166.468 
L 119.6 166.468 
L 119.6 169.568 
L 122.7 169.568 
L 122.7 166.468 
L 119.6 166.468 
L 119.6 163.368 
L 116.5 163.368 
L 116.5 166.468 
L 113.4 166.468 
L 113.4 163.368 
L 116.5 163.368 
L 116.5 160.268 
L 113.4 160.268 
L 113.4 157.168 
L 116.5 157.168 
L 116.5 154.068 
L 119.6 154.068 
L 119.6 157.168 
L 116.5 157.168 
L 116.5 160.268 
L 119.6 160.268 
L 119.6 163.368 
L 122.7 163.368 
L 122.7 160.268 
L 125.8 160.268 
L 125.8 163.368 
L 128.9 163.368 
L 128.9 160.268 
L 125.8 160.268 
L 125.8 157.168 
L 128.9 157.168 
L 128.9 154.068 
L 132 154.068 
L 132 157.168 
L 128.9 157.168 
L 128.9 160.268 
L 132 160.268 
L 132 163.368 
L 135.1 163.368 
L 135.1 160.268 
L 138.2 160.268 
L 138.2 163.368 
L 135.1 163.368 
L 135.1 166.468 
L 138.2 166.468 
L 138.2 169.568 
L 135.1 169.568 
L 135.1 172.668 
L 132 172.668 
L 132 169.568 
L 135.1 169.568 
L 135.1 166.468 
L 132 166.468 
L 132 163.368 
L 128.9 163.368 
L 128.9 166.468 
L 125.8 166.468 
L 125.8 163.368 
L 122.7 163.368 
L 122.7 166.468 
L 125.8 166.468 
L 125.8 169.568 
L 122.7 169.568 
L 122.7 172.668 
L 119.6 172.668 
L 119.6 169.568 
L 116.5 169.568 
L 116.5 172.668 
L 119.6 172.668 
L 119.6 175.768 
L 122.7 175.768 
L 122.7 172.668 
L 125.8 172.668 
L 125.8 175.768 
L 122.7 175.768 
L 122.7 178.868 
L 125.8 178.868 
L 125.8 181.968 
L 122.7 181.968 
L 122.7 185.068 
L 119.6 185.068 
L 119.6 181.968 
L 116.5 181.968 
L 116.5 185.068 
L 119.6 185.068 
L 119.6 188.168 
L 122.7 188.168 
L 122.7 185.068 
L 125.8 185.068 
L 125.8 188.168 
L 128.9 188.168 
L 128.9 185.068 
L 125.8 185.068 
L 125.8 181.968 
L 128.9 181.968 
L 128.9 178.868 
L 132 178.868 
L 132 181.968 
L 128.9 181.968 
L 128.9 185.068 
L 132 185.068 
L 132 188.168 
L 135.1 188.168 
L 135.1 185.068 
L 138.2 185.068 
L 138.2 188.168 
L 135.1 188.168 
L 135.1 191.268 
L 138.2 191.268 
L 138.2 194.368 
L 135.1 194.368 
L 135.1 197.468 
L 132 197.468 
L 132 194.368 
L 135.1 194.368 
L 135.1 191.268 
L 132 191.268 
L 132 188.168 
L 128.9 188.168 
L 128.9 191.268 
L 125.8 191.268 
L 125.8 188.168 
L 122.7 188.168 
L 122.7 191.268 
L 125.8 191.268 
L 125.8 194.368 
L 122.7 194.368 
L 122.7 197.468 
L 119.6 197.468 
L 119.6 194.368 
L 116.5 194.368 
L 116.5 197.468 
L 119.6 197.468 
L 119.6 200.568 
L 122.7 200.568 
L 122.7 197.468 
L 125.8 197.468 
L 125.8 200.568 
L 122.7 200.568 
L 122.7 203.668 
L 125.8 203.668 
L 125.8 206.768 
L 122.7 206.768 
L 122.7 209.868 
L 119.6 209.868 
L 119.6 206.768 
L 122.7 206.768 
L 122.7 203.668 
L 119.6 203.668 
L 119.6 200.568 
L 116.5 200.568 
L 116.5 203.668 
L 113.4 203.668 
L 113.4 200.568 
L 110.3 200.568 
L 110.3 203.668 
L 113.4 203.668 
L 113.4 206.768 
L 110.3 206.768 
L 110.3 209.868 
L 107.2 209.868 
L 107.2 206.768 
L 110.3 206.768 
L 110.3 203.668 
L 107.2 203.668 
L 107.2 200.568 
L 104.1 200.568 
L 104.1 203.668 
L 101 203.668 
L 101 200.568 
L 104.1 200.568 
L 104.1 197.468 
L 101 197.468 
L 101 194.368 
L 104.1 194.368 
L 104.1 191.268 
L 107.2 191.268 
L 107.2 194.368 
L 110.3 194.368 
L 110.3 191.268 
L 107.2 191.268 
L 107.2 188.168 
L 104.1 188.168 
L 104.1 191.268 
L 101 191.268 
L 101 188.168 
L 97.9 188.168 
L 97.9 191.268 
L 101 191.268 
L 101 194.368 
L 97.9 194.368 
L 97.9 197.468 
L 94.8 197.468 
L 94.8 194.368 
L 91.7 194.368 
L 91.7 197.468 
L 94.8 197.468 
L 94.8 200.568 
L 97.9 200.568 
L 97.9 197.468 
L 101 197.468 
L 101 200.568 
L 97.9 200.568 
L 97.9 203.668 
L 101 203.668 
L 101 206.768 
L 97.9 206.768 
L 97.9 209.868 
L 94.8 209.868 
L 94.8 206.768 
L 91.7 206.768 
L 91.7 209.868 
L 94.8 209.868 
L 94.8 212.968 
L 97.9 212.968 
L 97.9 209.868 
L 101 209.868 
L 101 212.968 
L 104.1 212.968 
L 104.1 209.868 
L 101 209.868 
L 101 206.768 
L 104.1 206.768 
L 104.1 203.668 
L 107.2 203.668 
L 107.2 206.768 
L 104.1 206.768 
L 104.1 209.868 
L 107.2 209.868 
L 107.2 212.968 
L 110.3 212.968 
L 110.3 209.868 
L 113.4 209.868 
L 113.4 212.968 
L 110.3 212.968 
L 110.3 216.068 
L 113.4 216.068 
L 113.4 219.168 
L 110.3 219.168 
L 110.3 222.268 
L 107.2 222.268 
L 107.2 219.168 
L 104.1 219.168 
L 104.1 222.268 
L 107.2 222.268 
L 107.2 225.368 
L 110.3 225.368 
L 110.3 222.268 
L 113.4 222.268 
L 113.4 225.368 
L 116.5 225.368 
L 116.5 222.268 
L 113.4 222.268 
L 113.4 219.168 
L 116.5 219.168 
L 116.5 216.068 
L 119.6 216.068 
L 119.6 219.168 
L 122.7 219.168 
L 122.7 216.068 
L 119.6 216.068 
L 119.6 212.968 
L 116.5 212.968 
L 116.5 216.068 
L 113.4 216.068 
L 113.4 212.968 
L 116.5 212.968 
L 116.5 209.868 
L 113.4 209.868 
L 113.4 206.768 
L 116.5 206.768 
L 116.5 203.668 
L 119.6 203.668 
L 119.6 206.768 
L 116.5 206.768 
L 116.5 209.868 
L 119.6 209.868 
L 119.6 212.968 
L 122.7 212.968 
L 122.7 209.868 
L 125.8 209.868 
L 125.8 212.968 
L 128.9 212.968 
L 128.9 209.868 
L 125.8 209.868 
L 125.8 206.768 
L 128.9 206.768 
L 128.9 203.668 
L 132 203.668 
L 132 206.768 
L 128.9 206.768 
L 128.9 209.868 
L 132 209.868 
L 132 212.968 
L 135.1 212.968 
L 135.1 209.868 
L 138.2 209.868 
L 138.2 212.968 
L 135.1 212.968 
L 135.1 216.068 
L 138.2 216.068 
L 138.2 219.168 
L 135.1 219.168 
L 135.1 222.268 
L 132 222.268 
L 132 219.168 
L 128.9 219.168 
L 128.9 222.268 
L 132 222.268 
L 132 225.368 
L 135.1 225.368 
L 135.1 222.268 
L 138.2 222.268 
L 138.2 225.368 
L 141.3 225.368 
L 141.3 222.268 
L 138.2 222.268 
L 138.2 219.168 
L 141.3 219.168 
L 141.3 216.068 
L 144.4 216.068 
L 144.4 219.168 
L 147.5 219.168 
L 147.5 216.068 
L 144.4 216.068 
L 144.4 212.968 
L 141.3 212.968 
L 141.3 216.068 
L 138.2 216.068 
L 138.2 212.968 
L 141.3 212.968 
L 141.3 209.868 
L 138.2 209.868 
L 138.2 206.768 
L 141.3 206.768 
L 141.3 203.668 
L 144.4 203.668 
L 144.4 206.768 
L 147.5 206.768 
L 147.5 203.668 
L 144.4 203.668 
L 144.4 200.568 
L 141.3 200.568 
L 141.3 203.668 
L 138.2 203.668 
L 138.2 200.568 
L 135.1 200.568 
L 135.1 203.668 
L 138.2 203.668 
L 138.2 206.768 
L 135.1 206.768 
L 135.1 209.868 
L 132 209.868 
L 132 206.768 
L 135.1 206.768 
L 135.1 203.668 
L 132 203.668 
L 132 200.568 
L 128.9 200.568 
L 128.9 203.668 
L 125.8 203.668 
L 125.8 200.568 
L 128.9 200.568 
L 128.9 197.468 
L 125.8 197.468 
L 125.8 194.368 
L 128.9 194.368 
L 128.9 191.268 
L 132 191.268 
L 132 194.368 
L 128.9 194.368 
L 128.9 197.468 
L 132 197.468 
L 132 200.568 
L 135.1 200.568 
L 135.1 197.468 
L 138.2 197.468 
L 138.2 200.568 
L 141.3 200.568 
L 141.3 197.468 
L 138.2 197.468 
L 138.2 194.368 
L 141.3 194.368 
L 141.3 191.268 
L 144.4 191.268 
L 144.4 194.368 
L 147.5 194.368 
L 147.5 191.268 
L 144.4 191.268 
L 144.4 188.168 
L 141.3 188.168 
L 141.3 191.268 
L 138.2 191.268 
L 138.2 188.168 
L 141.3 188.168 
L 141.3 185.068 
L 138.2 185.068 
L 138.2 181.968 
L 141.3 181.968 
L 141.3 178.868 
L 144.4 178.868 
L 144.4 181.968 
L 141.3 181.968 
L 141.3 185.068 
L 144.4 185.068 
L 144.4 188.168 
L 147.5 188.168 
L 147.5 185.068 
L 150.6 185.068 
L 150.6 188.168 
L 153.7 188.168 
L 153.7 185.068 
L 150.6 185.068 
L 150.6 181.968 
L 153.7 181.968 
L 153.7 178.868 
L 156.8 178.868 
L 156.8 181.968 
L 153.7 181.968 
L 153.7 185.068 
L 156.8 185.068 
L 156.8 188.168 
L 159.9 188.168 
L 159.9 185.068 
L 163 185.068 
L 163 188.168 
L 159.9 188.168 
L 159.9 191.268 
L 163 191.268 
L 163 194.368 
L 159.9 194.368 
L 159.9 197.468 
L 156.8 197.468 
L 156.8 194.368 
L 159.9 194.368 
L 159.9 191.268 
L 156.8 191.268 
L 156.8 188.168 
L 153.7 188.168 
L 153.7 191.268 
L 150.6 191.268 
L 150.6 188.168 
L 147.5 188.168 
L 147.5 191.268 
L 150.6 191.268 
L 150.6 194.368 
L 147.5 194.368 
L 147.5 197.468 
L 144.4 197.468 
L 144.4 194.368 
L 141.3 194.368 
L 141.3 197.468 
L 144.4 197.468 
L 144.4 200.568 
L 147.5 200.568 
L 147.5 197.468 
L 150.6 197.468 
L 150.6 200.568 
L 147.5 200.568 
L 147.5 203.668 
L 150.6 203.668 
L 150.6 206.768 
L 147.5 206.768 
L 147.5 209.868 
L 144.4 209.868 
L 144.4 206.768 
L 141.3 206.768 
L 141.3 209.868 
L 144.4 209.868 
L 144.4 212.968 
L 147.5 212.968 
L 147.5 209.868 
L 150.6 209.868 
L 150.6 212.968 
L 153.7 212.968 
L 153.7 209.868 
L 150.6 209.868 
L 150.6 206.768 
L 153.7 206.768 
L 153.7 203.668 
L 156.8 203.668 
L 156.8 206.768 
L 153.7 206.768 
L 153.7 209.868 
L 156.8 209.868 
L 156.8 212.968 
L 159.9 212.968 
L 159.9 209.868 
L 163 209.868 
L 163 212.968 
L 159.9 212.968 
L 159.9 216.068 
L 163 216.068 
L 163 219.168 
L 159.9 219.168 
L 159.9 222.268 
L 156.8 222.268 
L 156.8 219.168 
L 153.7 219.168 
L 153.7 222.268 
L 156.8 222.268 
L 156.8 225.368 
L 159.9 225.368 
L 159.9 222.268 
L 163 222.268 
L 163 225.368 
L 166.1 225.368 
L 166.1 222.268 
L 163 222.268 
L 163 219.168 
L 166.1 219.168 
L 166.1 216.068 
L 169.2 216.068 
L 169.2 219.168 
L 172.3 219.168 
L 172.3 216.068 
L 169.2 216.068 
L 169.2 212.968 
L 166.1 212.968 
L 166.1 216.068 
L 163 216.068 
L 163 212.968 
L 166.1 212.968 
L 166.1 209.868 
L 163 209.868 
L 163 206.768 
L 166.1 206.768 
L 166.1 203.668 
L 169.2 203.668 
L 169.2 206.768 
L 166.1 206.768 
L 166.1 209.868 
L 169.2 209.868 
L 169.2 212.968 
L 172.3 212.968 
L 172.3 209.868 
L 175.4 209.868 
L 175.4 212.968 
L 178.5 212.968 
L 178.5 209.868 
L 175.4 209.868 
L 175.4 206.768 
L 178.5 206.768 
L 178.5 203.668 
L 181.6 203.668 
L 181.6 206.768 
L 178.5 206.768 
L 178.5 209.868 
L 181.6 209.868 
L 181.6 212.968 
L 184.7 212.968 
L 184.7 209.868 
L 187.8 209.868 
L 187.8 212.968 
L 184.7 212.968 
L 184.7 216.068 
L 187.8 216.068 
L 187.8 219.168 
L 184.7 219.168 
L 184.7 222.268 
L 181.6 222.268 
L 181.6 219.168 
L 184.7 219.168 
L 184.7 216.068 
L 181.6 216.068 
L 181.6 212.968 
L 178.5 212.968 
L 178.5 216.068 
L 175.4 216.068 
L 175.4 212.968 
L 172.3 212.968 
L 172.3 216.068 
L 175.4 216.068 
L 175.4 219.168 
L 172.3 219.168 
L 172.3 222.268 
L 169.2 222.268 
L 169.2 219.168 
L 166.1 219.168 
L 166.1 222.268 
L 169.2 222.268 
L 169.2 225.368 
L 172.3 225.368 
L 172.3 222.268 
L 175.4 222.268 
L 175.4 225.368 
L 172.3 225.368 
L 172.3 228.468 
L 175.4 228.468 
L 175.4 231.568 
L 172.3 231.568 
L 172.3 234.668 
L 169.2 234.668 
L 169.2 231.568 
L 166.1 231.568 
L 166.1 234.668 
L 169.2 234.668 
L 169.2 237.768 
L 172.3 237.768 
L 172.3 234.668 
L 175.4 234.668 
L 175.4 237.768 
L 178.5 237.768 
L 178.5 234.668 
L 175.4 234.668 
L 175.4 231.568 
L 178.5 231.568 
L 178.5 228.468 
L 181.6 228.468 
L 181.6 231.568 
L 178.5 231.568 
L 178.5 234.668 
L 181.6 234.668 
L 181.6 237.768 
L 184.7 237.768 
L 184.7 234.668 
L 187.8 234.668 
L 187.8 237.768 
L 184.7 237.768 
L 184.7 240.868 
L 187.8 240.868 
L 187.8 243.968 
L 184.7 243.968 
L 184.7 247.068 
L 181.6 247.068 
L 181.6 243.968 
L 184.7 243.968 
L 184.7 240.868 
L 181.6 240.868 
L 181.6 237.768 
L 178.5 237.768 
L 178.5 240.868 
L 175.4 240.868 
L 175.4 237.768 
L 172.3 237.768 
L 172.3 240.868 
L 175.4 240.868 
L 175.4 243.968 
L 172.3 243.968 
L 172.3 247.068 
L 169.2 247.068 
L 169.2 243.968 
L 166.1 243.968 
L 166.1 247.068 
L 169.2 247.068 
L 169.2 250.168 
L 172.3 250.168 
L 172.3 247.068 
L 175.4 247.068 
L 175.4 250.168 
L 172.3 250.168 
L 172.3 253.268 
L 175.4 253.268 
L 175.4 256.368 
L 172.3 256.368 
L 172.3 259.468 
L 169.2 259.468 
L 169.2 256.368 
L 172.3 256.368 
L 172.3 253.268 
L 169.2 253.268 
L 169.2 250.168 
L 166.1 250.168 
L 166.1 253.268 
L 163 253.268 
L 163 250.168 
L 159.9 250.168 
L 159.9 253.268 
L 163 253.268 
L 163 256.368 
L 159.9 256.368 
L 159.9 259.468 
L 156.8 259.468 
L 156.8 256.368 
L 159.9 256.368 
L 159.9 253.268 
L 156.8 253.268 
L 156.8 250.168 
L 153.7 250.168 
L 153.7 253.268 
L 150.6 253.268 
L 150.6 250.168 
L 153.7 250.168 
L 153.7 247.068 
L 150.6 247.068 
L 150.6 243.968 
L 153.7 243.968 
L 153.7 240.868 
L 156.8 240.868 
L 156.8 243.968 
L 159.9 243.968 
L 159.9 240.868 
L 156.8 240.868 
L 156.8 237.768 
L 153.7 237.768 
L 153.7 240.868 
L 150.6 240.868 
L 150.6 237.768 
L 147.5 237.768 
L 147.5 240.868 
L 150.6 240.868 
L 150.6 243.968 
L 147.5 243.968 
L 147.5 247.068 
L 144.4 247.068 
L 144.4 243.968 
L 141.3 243.968 
L 141.3 247.068 
L 144.4 247.068 
L 144.4 250.168 
L 147.5 250.168 
L 147.5 247.068 
L 150.6 247.068 
L 150.6 250.168 
L 147.5 250.168 
L 147.5 253.268 
L 150.6 253.268 
L 150.6 256.368 
L 147.5 256.368 
L 147.5 259.468 
L 144.4 259.468 
L 144.4 256.368 
L 141.3 256.368 
L 141.3 259.468 
L 144.4 259.468 
L 144.4 262.568 
L 147.5 262.568 
L 147.5 259.468 
L 150.6 259.468 
L 150.6 262.568 
L 153.7 262.568 
L 153.7 259.468 
L 150.6 259.468 
L 150.6 256.368 
L 153.7 256.368 
L 153.7 253.268 
L 156.8 253.268 
L 156.8 256.368 
L 153.7 256.368 
L 153.7 259.468 
L 156.8 259.468 
L 156.8 262.568 
L 159.9 262.568 
L 159.9 259.468 
L 163 259.468 
L 163 262.568 
L 159.9 262.568 
L 159.9 265.668 
L 163 265.668 
L 163 268.768 
L 159.9 268.768 
L 159.9 271.868 
L 156.8 271.868 
L 156.8 268.768 
L 153.7 268.768 
L 153.7 271.868 
L 156.8 271.868 
L 156.8 274.968 
L 159.9 274.968 
L 159.9 271.868 
L 163 271.868 
L 163 274.968 
L 166.1 274.968 
L 166.1 271.868 
L 163 271.868 
L 163 268.768 
L 166.1 268.768 
L 166.1 265.668 
L 169.2 265.668 
L 169.2 268.768 
L 172.3 268.768 
L 172.3 265.668 
L 169.2 265.668 
L 169.2 262.568 
L 166.1 262.568 
L 166.1 265.668 
L 163 265.668 
L 163 262.568 
L 166.1 262.568 
L 166.1 259.468 
L 163 259.468 
L 163 256.368 
L 166.1 256.368 
L 166.1 253.268 
L 169.2 253.268 
L 169.2 256.368 
L 166.1 256.368 
L 166.1 259.468 
L 169.2 259.468 
L 169.2 262.568 
L 172.3 262.568 
L 172.3 259.468 
L 175.4 259.468 
L 175.4 262.568 
L 178.5 262.568 
L 178.5 259.468 
L 175.4 259.468 
L 175.4 256.368 
L 178.5 256.368 
L 178.5 253.268 
L 181.6 253.268 
L 181.6 256.368 
L 178.5 256.368 
L 178.5 259.468 
L 181.6 259.468 
L 181.6 262.568 
L 184.7 262.568 
L 184.7 259.468 
L 187.8 259.468 
L 187.8 262.568 
L 184.7 262.568 
L 184.7 265.668 
L 187.8 265.668 
L 187.8 268.768 
L 184.7 268.768 
L 184.7 271.868 
L 181.6 271.868 
L 181.6 268.768 
L 178.5 268.768 
L 178.5 271.868 
L 181.6 271.868 
L 181.6 274.968 
L 184.7 274.968 
L 184.7 271.868 
L 187.8 271.868 
L 187.8 274.968 
L 190.9 274.968 
L 190.9 271.868 
L 187.8 271.868 
L 187.8 268.768 
L 190.9 268.768 
L 190.9 265.668 
L 194 265.668 
L 194 268.768 
L 197.1 268.768 
L 197.1 265.668 
L 194 265.668 
L 194 262.568 
L 190.9 262.568 
L 190.9 265.668 
L 187.8 265.668 
L 187.8 262.568 
L 190.9 262.568 
L 190.9 259.468 
L 187.8 259.468 
L 187.8 256.368 
L 190.9 256.368 
L 190.9 253.268 
L 194 253.268 
L 194 256.368 
L 197.1 256.368 
L 197.1 253.268 
L 194 253.268 
L 194 250.168 
L 190.9 250.168 
L 190.9 253.268 
L 187.8 253.268 
L 187.8 250.168 
L 184.7 250.168 
L 184.7 253.268 
L 187.8 253.268 
L 187.8 256.368 
L 184.7 256.368 
L 184.7 259.468 
L 181.6 259.468 
L 181.6 256.368 
L 184.7 256.368 
L 184.7 253.268 
L 181.6 253.268 
L 181.6 250.168 
L 178.5 250.168 
L 178.5 253.268 
L 175.4 253.268 
L 175.4 250.168 
L 178.5 250.168 
L 178.5 247.068 
L 175.4 247.068 
L 175.4 243.968 
L 178.5 243.968 
L 178.5 240.868 
L 181.6 240.868 
L 181.6 243.968 
L 178.5 243.968 
L 178.5 247.068 
L 181.6 247.068 
L 181.6 250.168 
L 184.7 250.168 
L 184.7 247.068 
L 187.8 247.068 
L 187.8 250.168 
L 190.9 250.168 
L 190.9 247.068 
L 187.8 247.068 
L 187.8 243.968 
L 190.9 243.968 
L 190.9 240.868 
L 194 240.868 
L 194 243.968 
L 197.1 243.968 
L 197.1 240.868 
L 194 240.868 
L 194 237.768 
L 190.9 237.768 
L 190.9 240.868 
L 187.8 240.868 
L 187.8 237.768 
L 190.9 237.768 
L 190.9 234.668 
L 187.8 234.668 
L 187.8 231.568 
L 190.9 231.568 
L 190.9 228.468 
L 194 228.468 
L 194 231.568 
L 190.9 231.568 
L 190.9 234.668 
L 194 234.668 
L 194 237.768 
L 197.1 237.768 
L 197.1 234.668 
L 200.2 234.668 
L 200.2 237.768 
L 203.3 237.768 
L 203.3 234.668 
L 200.2 234.668 
L 200.2 231.568 
L 203.3 231.568 
L 203.3 228.468 
L 206.4 228.468 
L 206.4 231.568 
L 203.3 231.568 
L 203.3 234.668 
L 206.4 234.668 
L 206.4 237.768 
L 209.5 237.768 
L 209.5 234.668 
L 212.6 234.668 
L 212.6 237.768 
L 209.5 237.768 
L 209.5 240.868 
L 212.6 240.868 
L 212.6 243.968 
L 209.5 243.968 
L 209.5 247.068 
L 206.4 247.068 
L 206.4 243.968 
L 203.3 243.968 
L 203.3 247.068 
L 206.4 247.068 
L 206.4 250.168 
L 209.5 250.168 
L 209.5 247.068 
L 212.6 247.068 
L 212.6 250.168 
L 215.7 250.168 
L 215.7 247.068 
L 212.6 247.068 
L 212.6 243.968 
L 215.7 243.968 
L 215.7 240.868 
L 218.8 240.868 
L 218.8 243.968 
L 221.9 243.968 
L 221.9 240.868 
L 218.8 240.868 
L 218.8 237.768 
L 215.7 237.768 
L 215.7 240.868 
L 212.6 240.868 
L 212.6 237.768 
L 215.7 237.768 
L 215.7 234.668 
L 212.6 234.668 
L 212.6 231.568 
L 215.7 231.568 
L 215.7 228.468 
L 218.8 228.468 
L 218.8 231.568 
L 221.9 231.568 
L 221.9 228.468 
L 218.8 228.468 
L 218.8 225.368 
L 215.7 225.368 
L 215.7 228.468 
L 212.6 228.468 
L 212.6 225.368 
L 209.5 225.368 
L 209.5 228.468 
L 212.6 228.468 
L 212.6 231.568 
L 209.5 231.568 
L 209.5 234.668 
L 206.4 234.668 
L 206.4 231.568 
L 209.5 231.568 
L 209.5 228.468 
L 206.4 228.468 
L 206.4 225.368 
L 203.3 225.368 
L 203.3 228.468 
L 200.2 228.468 
L 200.2 225.368 
L 203.3 225.368 
L 203.3 222.268 
L 200.2 222.268 
L 200.2 219.168 
L 203.3 219.168 
L 203.3 216.068 
L 206.4 216.068 
L 206.4 219.168 
L 209.5 219.168 
L 209.5 216.068 
L 206.4 216.068 
L 206.4 212.968 
L 203.3 212.968 
L 203.3 216.068 
L 200.2 216.068 
L 200.2 212.968 
L 197.1 212.968 
L 197.1 216.068 
L 200.2 216.068 
L 200.2 219.168 
L 197.1 219.168 
L 197.1 222.268 
L 194 222.268 
L 194 219.168 
L 190.9 219.168 
L 190.9 222.268 
L 194 222.268 
L 194 225.368 
L 197.1 225.368 
L 197.1 222.268 
L 200.2 222.268 
L 200.2 225.368 
L 197.1 225.368 
L 197.1 228.468 
L 200.2 228.468 
L 200.2 231.568 
L 197.1 231.568 
L 197.1 234.668 
L 194 234.668 
L 194 231.568 
L 197.1 231.568 
L 197.1 228.468 
L 194 228.468 
L 194 225.368 
L 190.9 225.368 
L 190.9 228.468 
L 187.8 228.468 
L 187.8 225.368 
L 184.7 225.368 
L 184.7 228.468 
L 187.8 228.468 
L 187.8 231.568 
L 184.7 231.568 
L 184.7 234.668 
L 181.6 234.668 
L 181.6 231.568 
L 184.7 231.568 
L 184.7 228.468 
L 181.6 228.468 
L 181.6 225.368 
L 178.5 225.368 
L 178.5 228.468 
L 175.4 228.468 
L 175.4 225.368 
L 178.5 225.368 
L 178.5 222.268 
L 175.4 222.268 
L 175.4 219.168 
L 178.5 219.168 
L 178.5 216.068 
L 181.6 216.068 
L 181.6 219.168 
L 178.5 219.168 
L 178.5 222.268 
L 181.6 222.268 
L 181.6 225.368 
L 184.7 225.368 
L 184.7 222.268 
L 187.8 222.268 
L 187.8 225.368 
L 190.9 225.368 
L 190.9 222.268 
L 187.8 222.268 
L 187.8 219.168 
L 190.9 219.168 
L 190.9 216.068 
L 194 216.068 
L 194 219.168 
L 197.1 219.168 
L 197.1 216.068 
L 194 216.068 
L 194 212.968 
L 190.9 212.968 
L 190.9 216.068 
L 187.8 216.068 
L 187.8 212.968 
L 190.9 212.968 
L 190.9 209.868 
L 187.8 209.868 
L 187.8 206.768 
L 190.9 206.768 
L 190.9 203.668 
L 194 203.668 
L 194 206.768 
L 197.1 206.768 
L 197.1 203.668 
L 194 203.668 
L 194 200.568 
L 190.9 200.568 
L 190.9 203.668 
L 187.8 203.668 
L 187.8 200.568 
L 184.7 200.568 
L 184.7 203.668 
L 187.8 203.668 
L 187.8 206.768 
L 184.7 206.768 
L 184.7 209.868 
L 181.6 209.868 
L 181.6 206.768 
L 184.7 206.768 
L 184.7 203.668 
L 181.6 203.668 
L 181.6 200.568 
L 178.5 200.568 
L 178.5 203.668 
L 175.4 203.668 
L 175.4 200.568 
L 178.5 200.568 
L 178.5 197.468 
L 175.4 197.468 
L 175.4 194.368 
L 178.5 194.368 
L 178.5 191.268 
L 181.6 191.268 
L 181.6 194.368 
L 178.5 194.368 
L 178.5 197.468 
L 181.6 197.468 
L 181.6 200.568 
L 184.7 200.568 
L 184.7 197.468 
L 187.8 197.468 
L 187.8 200.568 
L 190.9 200.568 
L 190.9 197.468 
L 187.8 197.468 
L 187.8 194.368 
L 190.9 194.368 
L 190.9 191.268 
L 194 191.268 
L 194 194.368 
L 197.1 194.368 
L 197.1 191.268 
L 194 191.268 
L 194 188.168 
L 190.9 188.168 
L 190.9 191.268 
L 187.8 191.268 
L 187.8 188.168 
L 190.9 188.168 
L 190.9 185.068 
L 187.8 185.068 
L 187.8 181.968 
L 190.9 181.968 
L 190.9 178.868 
L 194 178.868 
L 194 181.968 
L 190.9 181.968 
L 190.9 185.068 
L 194 185.068 
L 194 188.168 
L 197.1 188.168 
L 197.1 185.068 
L 200.2 185.068 
L 200.2 188.168 
L 203.3 188.168 
L 203.3 185.068 
L 200.2 185.068 
L 200.2 181.968 
L 203.3 181.968 
L 203.3 178.868 
L 206.4 178.868 
L 206.4 181.968 
L 203.3 181.968 
L 203.3 185.068 
L 206.4 185.068 
L 206.4 188.168 
L 209.5 188.168 
L 209.5 185.068 
L 212.6 185.068 
L 212.6 188.168 
L 209.5 188.168 
L 209.5 191.268 
L 212.6 191.268 
L 212.6 194.368 
L 209.5 194.368 
L 209.5 197.468 
L 206.4 197.468 
L 206.4 194.368 
L 209.5 194.368 
L 209.5 191.268 
L 206.4 191.268 
L 206.4 188.168 
L 203.3 188.168 
L 203.3 191.268 
L 200.2 191.268 
L 200.2 188.168 
L 197.1 188.168 
L 197.1 191.268 
L 200.2 191.268 
L 200.2 194.368 
L 197.1 194.368 
L 197.1 197.468 
L 194 197.468 
L 194 194.368 
L 190.9 194.368 
L 190.9 197.468 
L 194 197.468 
L 194 200.568 
L 197.1 200.568 
L 197.1 197.468 
L 200.2 197.468 
L 200.2 200.568 
L 197.1 200.568 
L 197.1 203.668 
L 200.2 203.668 
L 200.2 206.768 
L 197.1 206.768 
L 197.1 209.868 
L 194 209.868 
L 194 206.768 
L 190.9 206.768 
L 190.9 209.868 
L 194 209.868 
L 194 212.968 
L 197.1 212.968 
L 197.1 209.868 
L 200.2 209.868 
L 200.2 212.968 
L 203.3 212.968 
L 203.3 209.868 
L 200.2 209.868 
L 200.2 206.768 
L 203.3 206.768 
L 203.3 203.668 
L 206.4 203.668 
L 206.4 206.768 
L 203.3 206.768 
L 203.3 209.868 
L 206.4 209.868 
L 206.4 212.968 
L 209.5 212.968 
L 209.5 209.868 
L 212.6 209.868 
L 212.6 212.968 
L 209.5 212.968 
L 209.5 216.068 
L 212.6 216.068 
L 212.6 219.168 
L 209.5 219.168 
L 209.5 222.268 
L 206.4 222.268 
L 206.4 219.168 
L 203.3 219.168 
L 203.3 222.268 
L 206.4 222.268 
L 206.4 225.368 
L 209.5 225.368 
L 209.5 222.268 
L 212.6 222.268 
L 212.6 225.368 
L 215.7 225.368 
L 215.7 222.268 
L 212.6 222.268 
L 212.6 219.168 
L 215.7 219.168 
L 215.7 216.068 
L 218.8 216.068 
L 218.8 219.168 
L 221.9 219.168 
L 221.9 216.068 
L 218.8 216.068 
L 218.8 212.968 
L 215.7 212.968 
L 215.7 216.068 
L 212.6 216.068 
L 212.6 212.968 
L 215.7 212.968 
L 215.7 209.868 
L 212.6 209.868 
L 212.6 206.768 
L 215.7 206.768 
L 215.7 203.668 
L 218.8 203.668 
L 218.8 206.768 
L 215.7 206.768 
L 215.7 209.868 
L 218.8 209.868 
L 218.8 212.968 
L 221.9 212.968 
L 221.9 209.868 
L 225 209.868 
L 225 212.968 
L 228.1 212.968 
L 228.1 209.868 
L 225 209.868 
L 225 206.768 
L 228.1 206.768 
L 228.1 203.668 
L 231.2 203.668 
L 231.2 206.768 
L 228.1 206.768 
L 228.1 209.868 
L 231.2 209.868 
L 231.2 212.968 
L 234.3 212.968 
L 234.3 209.868 
L 237.4 209.868 
L 237.4 212.968 
L 234.3 212.968 
L 234.3 216.068 
L 237.4 216.068 
L 237.4 219.168 
L 234.3 219.168 
L 234.3 222.268 
L 231.2 222.268 
L 231.2 219.168 
L 228.1 219.168 
L 228.1 222.268 
L 231.2 222.268 
L 231.2 225.368 
L 234.3 225.368 
L 234.3 222.268 
L 237.4 222.268 
L 237.4 225.368 
L 240.5 225.368 
L 240.5 222.268 
L 237.4 222.268 
L 237.4 219.168 
L 240.5 219.168 
L 240.5 216.068 
L 243.6 216.068 
L 243.6 219.168 
L 246.7 219.168 
L 246.7 216.068 
L 243.6 216.068 
L 243.6 212.968 
L 240.5 212.968 
L 240.5 216.068 
L 237.4 216.068 
L 237.4 212.968 
L 240.5 212.968 
L 240.5 209.868 
L 237.4 209.868 
L 237.4 206.768 
L 240.5 206.768 
L 240.5 203.668 
L 243.6 203.668 
L 243.6 206.768 
L 246.7 206.768 
L 246.7 203.668 
L 243.6 203.668 
L 243.6 200.568 
L 240.5 200.568 
L 240.5 203.668 
L 237.4 203.668 
L 237.4 200.568 
L 234.3 200.568 
L 234.3 203.668 
L 237.4 203.668 
L 237.4 206.768 
L 234.3 206.768 
L 234.3 209.868 
L 231.2 209.868 
L 231.2 206.768 
L 234.3 206.768 
L 234.3 203.668 
L 231.2 203.668 
L 231.2 200.568 
L 228.1 200.568 
L 228.1 203.668 
L 225 203.668 
L 225 200.568 
L 228.1 200.568 
L 228.1 197.468 
L 225 197.468 
L 225 194.368 
L 228.1 194.368 
L 228.1 191.268 
L 231.2 191.268 
L 231.2 194.368 
L 228.1 194.368 
L 228.1 197.468 
L 231.2 197.468 
L 231.2 200.568 
L 234.3 200.568 
L 234.3 197.468 
L 237.4 197.468 
L 237.4 200.568 
L 240.5 200.568 
L 240.5 197.468 
L 237.4 197.468 
L 237.4 194.368 
L 240.5 194.368 
L 240.5 191.268 
L 243.6 191.268 
L 243.6 194.368 
L 246.7 194.368 
L 246.7 191.268 
L 243.6 191.268 
L 243.6 188.168 
L 240.5 188.168 
L 240.5 191.268 
L 237.4 191.268 
L 237.4 188.168 
L 240.5 188.168 
L 240.5 185.068 
L 237.4 185.068 
L 237.4 181.968 
L 240.5 181.968 
L 240.5 178.868 
L 243.6 178.868 
L 243.6 181.968 
L 240.5 181.968 
L 240.5 185.068 
L 243.6 185.068 
L 243.6 188.168 
L 246.7 188.168 
L 246.7 185.068 
L 249.8 185.068 
L 249.8 188.168 
L 252.9 188.168 
L 252.9 185.068 
L 249.8 185.068 
L 249.8 181.968 
L 252.9 181.968 
L 252.9 178.868 
L 256 178.868 
L 256 181.968 
L 252.9 181.968 
L 252.9 185.068 
L 256 185.068 
L 256 188.168 
L 259.1 188.168 
L 259.1 185.068 
L 262.2 185.068 
L 262.2 188.168 
L 259.1 188.168 
L 259.1 191.268 
L 262.2 191.268 
L 262.2 194.368 
L 259.1 194.368 
L 259.1 197.468 
L 256 197.468 
L 256 194.368 
L 259.1 194.368 
L 259.1 191.268 
L 256 191.268 
L 256 188.168 
L 252.9 188.168 
L 252.9 191.268 
L 249.8 191.268 
L 249.8 188.168 
L 246.7 188.168 
L 246.7 191.268 
L 249.8 191.268 
L 249.8 194.368 
L 246.7 194.368 
L 246.7 197.468 
L 243.6 197.468 
L 243.6 194.368 
L 240.5 194.368 
L 240.5 197.468 
L 243.6 197.468 
L 243.6 200.568 
L 246.7 200.568 
L 246.7 197.468 
L 249.8 197.468 
L 249.8 200.568 
L 246.7 200.568 
L 246.7 203.668 
L 249.8 203.668 
L 249.8 206.768 
L 246.7 206.768 
L 246.7 209.868 
L 243.6 209.868 
L 243.6 206.768 
L 240.5 206.768 
L 240.5 209.868 
L 243.6 209.868 
L 243.6 212.968 
L 246.7 212.968 
L 246.7 209.868 
L 249.8 209.868 
L 249.8 212.968 
L 252.9 212.968 
L 252.9 209.868 
L 249.8 209.868 
L 249.8 206.768 
L 252.9 206.768 
L 252.9 203.668 
L 256 203.668 
L 256 206.768 
L 252.9 206.768 
L 252.9 209.868 
L 256 209.868 
L 256 212.968 
L 259.1 212.968 
L 259.1 209.868 
L 262.2 209.868 
L 262.2 212.968 
L 259.1 212.968 
L 259.1 216.068 
L 262.2 216.068 
L 262.2 219.168 
L 259.1 219.168 
L 259.1 222.268 
L 256 222.268 
L 256 219.168 
L 252.9 219.168 
L 252.9 222.268 
L 256 222.268 
L 256 225.368 
L 259.1 225.368 
L 259.1 222.268 
L 262.2 222.268 
L 262.2 225.368 
L 265.3 225.368 
L 265.3 222.268 
L 262.2 222.268 
L 262.2 219.168 
L 265.3 219.168 
L 265.3 216.068 
L 268.4 216.068 
L 268.4 219.168 
L 271.5 219.168 
L 271.5 216.068 
L 268.4 216.068 
L 268.4 212.968 
L 265.3 212.968 
L 265.3 216.068 
L 262.2 216.068 
L 262.2 212.968 
L 265.3 212.968 
L 265.3 209.868 
L 262.2 209.868 
L 262.2 206.768 
L 265.3 206.768 
L 265.3 203.668 
L 268.4 203.668 
L 268.4 206.768 
L 265.3 206.768 
L 265.3 209.868 
L 268.4 209.868 
L 268.4 212.968 
L 271.5 212.968 
L 271.5 209.868 
L 274.6 209.868 
L 274.6 212.968 
L 277.7 212.968 
L 277.7 209.868 
L 274.6 209.868 
L 274.6 206.768 
L 277.7 206.768 
L 277.7 203.668 
L 280.8 203.668 
L 280.8 206.768 
L 277.7 206.768 
L 277.7 209.868 
L 280.8 209.868 
L 280.8 212.968 
L 283.9 212.968 
L 283.9 209.868 
L 287 209.868 
L 287 212.968 
L 283.9 212.968 
L 283.9 216.068 
L 287 216.068 
L 287 219.168 
L 283.9 219.168 
L 283.9 222.268 
L 280.8 222.268 
L 280.8 219.168 
L 283.9 219.168 
L 283.9 216.068 
L 280.8 216.068 
L 280.8 212.968 
L 277.7 212.968 
L 277.7 216.068 
L 274.6 216.068 
L 274.6 212.968 
L 271.5 212.968 
L 271.5 216.068 
L 274.6 216.068 
L 274.6 219.168 
L 271.5 219.168 
L 271.5 222.268 
L 268.4 222.268 
L 268.4 219.168 
L 265.3 219.168 
L 265.3 222.268 
L 268.4 222.268 
L 268.4 225.368 
L 271.5 225.368 
L 271.5 222.268 
L 274.6 222.268 
L 274.6 225.368 
L 271.5 225.368 
L 271.5 228.468 
L 274.6 228.468 
L 274.6 231.568 
L 271.5 231.568 
L 271.5 234.668 
L 268.4 234.668 
L 268.4 231.568 
L 265.3 231.568 
L 265.3 234.668 
L 268.4 234.668 
L 268.4 237.768 
L 271.5 237.768 
L 271.5 234.668 
L 274.6 234.668 
L 274.6 237.768 
L 277.7 237.768 
L 277.7 234.668 
L 274.6 234.668 
L 274.6 231.568 
L 277.7 231.568 
L 277.7 228.468 
L 280.8 228.468 
L 280.8 231.568 
L 277.7 231.568 
L 277.7 234.668 
L 280.8 234.668 
L 280.8 237.768 
L 283.9 237.768 
L 283.9 234.668 
L 287 234.668 
L 287 237.768 
L 283.9 237.768 
L 283.9 240.868 
L 287 240.868 
L 287 243.968 
L 283.9 243.968 
L 283.9 247.068 
L 280.8 247.068 
L 280.8 243.968 
L 283.9 243.968 
L 283.9 240.868 
L 280.8 240.868 
L 280.8 237.768 
L 277.7 237.768 
L 277.7 240.868 
L 274.6 240.868 
L 274.6 237.768 
L 271.5 237.768 
L 271.5 240.868 
L 274.6 240.868 
L 274.6 243.968 
L 271.5 243.968 
L 271.5 247.068 
L 268.4 247.068 
L 268.4 243.968 
L 265.3 243.968 
L 265.3 247.068 
L 268.4 247.068 
L 268.4 250.168 
L 271.5 250.168 
L 271.5 247.068 
L 274.6 247.068 
L 274.6 250.168 
L 271.5 250.168 
L 271.5 253.268 
L 274.6 253.268 
L 274.6 256.368 
L 271.5 256.368 
L 271.5 259.468 
L 268.4 259.468 
L 268.4 256.368 
L 271.5 256.368 
L 271.5 253.268 
L 268.4 253.268 
L 268.4 250.168 
L 265.3 250.168 
L 265.3 253.268 
L 262.2 253.268 
L 262.2 250.168 
L 259.1 250.168 
L 259.1 253.268 
L 262.2 253.268 
L 262.2 256.368 
L 259.1 256.368 
L 259.1 259.468 
L 256 259.468 
L 256 256.368 
L 259.1 256.368 
L 259.1 253.268 
L 256 253.268 
L 256 250.168 
L 252.9 250.168 
L 252.9 253.268 
L 249.8 253.268 
L 249.8 250.168 
L 252.9 250.168 
L 252.9 247.068 
L 249.8 247.068 
L 249.8 243.968 
L 252.9 243.968 
L 252.9 240.868 
L 256 240.868 
L 256 243.968 
L 259.1 243.968 
L 259.1 240.868 
L 256 240.868 
L 256 237.768 
L 252.9 237.768 
L 252.9 240.868 
L 249.8 240.868 
L 249.8 237.768 
L 246.7 237.768 
L 246.7 240.868 
L 249.8 240.868 
L 249.8 243.968 
L 246.7 243.968 
L 246.7 247.068 
L 243.6 247.068 
L 243.6 243.968 
L 240.5 243.968 
L 240.5 247.068 
L 243.6 247.068 
L 243.6 250.168 
L 246.7 250.168 
L 246.7 247.068 
L 249.8 247.068 
L 249.8 250.168 
L 246.7 250.168 
L 246.7 253.268 
L 249.8 253.268 
L 249.8 256.368 
L 246.7 256.368 
L 246.7 259.468 
L 243.6 259.468 
L 243.6 256.368 
L 240.5 256.368 
L 240.5 259.468 
L 243.6 259.468 
L 243.6 262.568 
L 246.7 262.568 
L 246.7 259.468 
L 249.8 259.468 
L 249.8 262.568 
L 252.9 262.568 
L 252.9 259.468 
L 249.8 259.468 
L 249.8 256.368 
L 252.9 256.368 
L 252.9 253.268 
L 256 253.268 
L 256 256.368 
L 252.9 256.368 
L 252.9 259.468 
L 256 259.468 
L 256 262.568 
L 259.1 262.568 
L 259.1 259.468 
L 262.2 259.468 
L 262.2 262.568 
L 259.1 262.568 
L 259.1 265.668 
L 262.2 265.668 
L 262.2 268.768 
L 259.1 268.768 
L 259.1 271.868 
L 256 271.868 
L 256 268.768 
L 252.9 268.768 
L 252.9 271.868 
L 256 271.868 
L 256 274.968 
L 259.1 274.968 
L 259.1 271.868 
L 262.2 271.868 
L 262.2 274.968 
L 265.3 274.968 
L 265.3 271.868 
L 262.2 271.868 
L 262.2 268.768 
L 265.3 268.768 
L 265.3 265.668 
L 268.4 265.668 
L 268.4 268.768 
L 271.5 268.768 
L 271.5 265.668 
L 268.4 265.668 
L 268.4 262.568 
L 265.3 262.568 
L 265.3 265.668 
L 262.2 265.668 
L 262.2 262.568 
L 265.3 262.568 
L 265.3 259.468 
L 262.2 259.468 
L 262.2 256.368 
L 265.3 256.368 
L 265.3 253.268 
L 268.4 253.268 
L 268.4 256.368 
L 265.3 256.368 
L 265.3 259.468 
L 268.4 259.468 
L 268.4 262.568 
L 271.5 262.568 
L 271.5 259.468 
L 274.6 259.468 
L 274.6 262.568 
L 277.7 262.568 
L 277.7 259.468 
L 274.6 259.468 
L 274.6 256.368 
L 277.7 256.368 
L 277.7 253.268 
L 280.8 253.268 
L 280.8 256.368 
L 277.7 256.368 
L 277.7 259.468 
L 280.8 259.468 
L 280.8 262.568 
L 283.9 262.568 
L 283.9 259.468 
L 287 259.468 
L 287 262.568 
L 283.9 262.568 
L 283.9 265.668 
L 287 265.668 
L 287 268.768 
L 283.9 268.768 
L 283.9 271.868 
L 280.8 271.868 
L 280.8 268.768 
L 277.7 268.768 
L 277.7 271.868 
L 280.8 271.868 
L 280.8 274.968 
L 283.9 274.968 
L 283.9 271.868 
L 287 271.868 
L 287 274.968 
L 290.1 274.968 
L 290.1 271.868 
L 287 271.868 
L 287 268.768 
L 290.1 268.768 
L 290.1 265.668 
L 293.2 265.668 
L 293.2 268.768 
L 296.3 268.768 
L 296.3 265.668 
L 293.2 265.668 
L 293.2 262.568 
L 290.1 262.568 
L 290.1 265.668 
L 287 265.668 
L 287 262.568 
L 290.1 262.568 
L 290.1 259.468 
L 287 259.468 
L 287 256.368 
L 290.1 256.368 
L 290.1 253.268 
L 293.2 253.268 
L 293.2 256.368 
L 296.3 256.368 
L 296.3 253.268 
L 293.2 253.268 
L 293.2 250.168 
L 290.1 250.168 
L 290.1 253.268 
L 287 253.268 
L 287 250.168 
L 283.9 250.168 
L 283.9 253.268 
L 287 253.268 
L 287 256.368 
L 283.9 256.368 
L 283.9 259.468 
L 280.8 259.468 
L 280.8 256.368 
L 283.9 256.368 
L 283.9 253.268 
L 280.8 253.268 
L 280.8 250.168 
L 277.7 250.168 
L 277.7 253.268 
L 274.6 253.268 
L 274.6 250.168 
L 277.7 250.168 
L 277.7 247.068 
L 274.6 247.068 
L 274.6 243.968 
L 277.7 243.968 
L 277.7 240.868 
L 280.8 240.868 
L 280.8 243.968 
L 277.7 243.968 
L 277.7 247.068 
L 280.8 247.068 
L 280.8 250.168 
L 283.9 250.168 
L 283.9 247.068 
L 287 247.068 
L 287 250.168 
L 290.1 250.168 
L 290.1 247.068 
L 287 247.068 
L 287 243.968 
L 290.1 243.968 
L 290.1 240.868 
L 293.2 240.868 
L 293.2 243.968 
L 296.3 243.968 
L 296.3 240.868 
L 293.2 240.868 
L 293.2 237.768 
L 290.1 237.768 
L 290.1 240.868 
L 287 240.868 
L 287 237.768 
L 290.1 237.768 
L 290.1 234.668 
L 287 234.668 
L 287 231.568 
L 290.1 231.568 
L 290.1 228.468 
L 293.2 228.468 
L 293.2 231.568 
L 290.1 231.568 
L 290.1 234.668 
L 293.2 234.668 
L 293.2 237.768 
L 296.3 237.768 
L 296.3 234.668 
L 299.4 234.668 
L 299.4 237.768 
L 302.5 237.768 
L 302.5 234.668 
L 299.4 234.668 
L 299.4 231.568 
L 302.5 231.568 
L 302.5 228.468 
L 305.6 228.468 
L 305.6 231.568 
L 302.5 231.568 
L 302.5 234.668 
L 305.6 234.668 
L 305.6 237.768 
L 308.7 237.768 
L 308.7 234.668 
L 311.8 234.668 
L 311.8 237.768 
L 308.7 237.768 
L 308.7 240.868 
L 311.8 240.868 
L 311.8 243.968 
L 308.7 243.968 
L 308.7 247.068 
L 305.6 247.068 
L 305.6 243.968 
L 302.5 243.968 
L 302.5 247.068 
L 305.6 247.068 
L 305.6 250.168 
L 308.7 250.168 
L 308.7 247.068 
L 311.8 247.068 
L 311.8 250.168 
L 314.9 250.168 
L 314.9 247.068 
L 311.8 247.068 
L 311.8 243.968 
L 314.9 243.968 
L 314.9 240.868 
L 318 240.868 
L 318 243.968 
L 321.1 243.968 
L 321.1 240.868 
L 318 240.868 
L 318 237.768 
L 314.9 237.768 
L 314.9 240.868 
L 311.8 240.868 
L 311.8 237.768 
L 314.9 237.768 
L 314.9 234.668 
L 311.8 234.668 
L 311.8 231.568 
L 314.9 231.568 
L 314.9 228.468 
L 318 228.468 
L 318 231.568 
L 321.1 231.568 
L 321.1 228.468 
L 318 228.468 
L 318 225.368 
L 314.9 225.368 
L 314.9 228.468 
L 311.8 228.468 
L 311.8 225.368 
L 308.7 225.368 
L 308.7 228.468 
L 311.8 228.468 
L 311.8 231.568 
L 308.7 231.568 
L 308.7 234.668 
L 305.6 234.668 
L 305.6 231.568 
L 308.7 231.568 
L 308.7 228.468 
L 305.6 228.468 
L 305.6 225.368 
L 302.5 225.368 
L 302.5 228.468 
L 299.4 228.468 
L 299.4 225.368 
L 302.5 225.368 
L 302.5 222.268 
L 299.4 222.268 
L 299.4 219.168 
L 302.5 219.168 
L 302.5 216.068 
L 305.6 216.068 
L 305.6 219.168 
L 308.7 219.168 
L 308.7 216.068 
L 305.6 216.068 
L 305.6 212.968 
L 302.5 212.968 
L 302.5 216.068 
L 299.4 216.068 
L 299.4 212.968 
L 296.3 212.968 
L 296.3 216.068 
L 299.4 216.068 
L 299.4 219.168 
L 296.3 219.168 
L 296.3 222.268 
L 293.2 222.268 
L 293.2 219.168 
L 290.1 219.168 
L 290.1 222.268 
L 293.2 222.268 
L 293.2 225.368 
L 296.3 225.368 
L 296.3 222.268 
L 299.4 222.268 
L 299.4 225.368 
L 296.3 225.368 
L 296.3 228.468 
L 299.4 228.468 
L 299.4 231.568 
L 296.3 231.568 
L 296.3 234.668 
L 293.2 234.668 
L 293.2 231.568 
L 296.3 231.568 
L 296.3 228.468 
L 293.2 228.468 
L 293.2 225.368 
L 290.1 225.368 
L 290.1 228.468 
L 287 228.468 
L 287 225.368 
L 283.9 225.368 
L 283.9 228.468 
L 287 228.468 
L 287 231.568 
L 283.9 231.568 
L 283.9 234.668 
L 280.8 234.668 
L 280.8 231.568 
L 283.9 231.568 
L 283.9 228.468 
L 280.8 228.468 
L 280.8 225.368 
L 277.7 225.368 
L 277.7 228.468 
L 274.6 228.468 
L 274.6 225.368 
L 277.7 225.368 
L 277.7 222.268 
L 274.6 222.268 
L 274.6 219.168 
L 277.7 219.168 
L 277.7 216.068 
L 280.8 216.068 
L 280.8 219.168 
L 277.7 219.168 
L 277.7 222.268 
L 280.8 222.268 
L 280.8 225.368 
L 283.9 225.368 
L 283.9 222.268 
L 287 222.268 
L 287 225.368 
L 290.1 225.368 
L 290.1 222.268 
L 287 222.268 
L 287 219.168 
L 290.1 219.168 
L 290.1 216.068 
L 293.2 216.068 
L 293.2 219.168 
L 296.3 219.168 
L 296.3 216.068 
L 293.2 216.068 
L 293.2 212.968 
L 290.1 212.968 
L 290.1 216.068 
L 287 216.068 
L 287 212.968 
L 290.1 212.968 
L 290.1 209.868 
L 287 209.868 
L 287 206.768 
L 290.1 206.768 
L 290.1 203.668 
L 293.2 203.668 
L 293.2 206.768 
L 296.3 206.768 
L 296.3 203.668 
L 293.2 203.668 
L 293.2 200.568 
L 290.1 200.568 
L 290.1 203.668 
L 287 203.668 
L 287 200.568 
L 283.9 200.568 
L 283.9 203.668 
L 287 203.668 
L 287 206.768 
L 283.9 206.768 
L 283.9 209.868 
L 280.8 209.868 
L 280.8 206.768 
L 283.9 206.768 
L 283.9 203.668 
L 280.8 203.668 
L 280.8 200.568 
L 277.7 200.568 
L 277.7 203.668 
L 274.6 203.668 
L 274.6 200.568 
L 277.7 200.568 
L 277.7 197.468 
L 274.6 197.468 
L 274.6 194.368 
L 277.7 194.368 
L 277.7 191.268 
L 280.8 191.268 
L 280.8 194.368 
L 277.7 194.368 
L 277.7 197.468 
L 280.8 197.468 
L 280.8 200.568 
L 283.9 200.568 
L 283.9 197.468 
L 287 197.468 
L 287 200.568 
L 290.1 200.568 
L 290.1 197.468 
L 287 197.468 
L 287 194.368 
L 290.1 194.368 
L 290.1 191.268 
L 293.2 191.268 
L 293.2 194.368 
L 296.3 194.368 
L 296.3 191.268 
L 293.2 191.268 
L 293.2 188.168 
L 290.1 188.168 
L 290.1 191.268 
L 287 191.268 
L 287 188.168 
L 290.1 188.168 
L 290.1 185.068 
L 287 185.068 
L 287 181.968 
L 290.1 181.968 
L 290.1 178.868 
L 293.2 178.868 
L 293.2 181.968 
L 290.1 181.968 
L 290.1 185.068 
L 293.2 185.068 
L 293.2 188.168 
L 296.3 188.168 
L 296.3 185.068 
L 299.4 185.068 
L 299.4 188.168 
L 302.5 188.168 
L 302.5 185.068 
L 299.4 185.068 
L 299.4 181.968 
L 302.5 181.968 
L 302.5 178.868 
L 305.6 178.868 
L 305.6 181.968 
L 302.5 181.968 
L 302.5 185.068 
L 305.6 185.068 
L 305.6 188.168 
L 308.7 188.168 
L 308.7 185.068 
L 311.8 185.068 
L 311.8 188.168 
L 308.7 188.168 
L 308.7 191.268 
L 311.8 191.268 
L 311.8 194.368 
L 308.7 194.368 
L 308.7 197.468 
L 305.6 197.468 
L 305.6 194.368 
L 302.5 194.368 
L 302.5 197.468 
L 305.6 197.468 
L 305.6 200.568 
L 308.7 200.568 
L 308.7 197.468 
L 311.8 197.468 
L 311.8 200.568 
L 314.9 200.568 
L 314.9 197.468 
L 311.8 197.468 
L 311.8 194.368 
L 314.9 194.368 
L 314.9 191.268 
L 318 191.268 
L 318 194.368 
L 321.1 194.368 
L 321.1 191.268 
L 318 191.268 
L 318 188.168 
L 314.9 188.168 
L 314.9 191.268 
L 311.8 191.268 
L 311.8 188.168 
L 314.9 188.168 
L 314.9 185.068 
L 311.8 185.068 
L 311.8 181.968 
L 314.9 181.968 
L 314.9 178.868 
L 318 178.868 
L 318 181.968 
L 321.1 181.968 
L 321.1 178.868 
L 318 178.868 
L 318 175.768 
L 314.9 175.768 
L 314.9 178.868 
L 311.8 178.868 
L 311.8 175.768 
L 308.7 175.768 
L 308.7 178.868 
L 311.8 178.868 
L 311.8 181.968 
L 308.7 181.968 
L 308.7 185.068 
L 305.6 185.068 
L 305.6 181.968 
L 308.7 181.968 
L 308.7 178.868 
L 305.6 178.868 
L 305.6 175.768 
L 302.5 175.768 
L 302.5 178.868 
L 299.4 178.868 
L 299.4 175.768 
L 302.5 175.768 
L 302.5 172.668 
L 299.4 172.668 
L 299.4 169.568 
L 302.5 169.568 
L 302.5 166.468 
L 305.6 166.468 
L 305.6 169.568 
L 308.7 169.568 
L 308.7 166.468 
L 305.6 166.468 
L 305.6 163.368 
L 302.5 163.368 
L 302.5 166.468 
L 299.4 166.468 
L 299.4 163.368 
L 296.3 163.368 
L 296.3 166.468 
L 299.4 166.468 
L 299.4 169.568 
L 296.3 169.568 
L 296.3 172.668 
L 293.2 172.668 
L 293.2 169.568 
L 290.1 169.568 
L 290.1 172.668 
L 293.2 172.668 
L 293.2 175.768 
L 296.3 175.768 
L 296.3 172.668 
L 299.4 172.668 
L 299.4 175.768 
L 296.3 175.768 
L 296.3 178.868 
L 299.4 178.868 
L 299.4 181.968 
L 296.3 181.968 
L 296.3 185.068 
L 293.2 185.068 
L 293.2 181.968 
L 296.3 181.968 
L 296.3 178.868 
L 293.2 178.868 
L 293.2 175.768 
L 290.1 175.768 
L 290.1 178.868 
L 287 178.868 
L 287 175.768 
L 283.9 175.768 
L 283.9 178.868 
L 287 178.868 
L 287 181.968 
L 283.9 181.968 
L 283.9 185.068 
L 280.8 185.068 
L 280.8 181.968 
L 283.9 181.968 
L 283.9 178.868 
L 280.8 178.868 
L 280.8 175.768 
L 277.7 175.768 
L 277.7 178.868 
L 274.6 178.868 
L 274.6 175.768 
L 277.7 175.768 
L 277.7 172.668 
L 274.6 172.668 
L 274.6 169.568 
L 277.7 169.568 
L 277.7 166.468 
L 280.8 166.468 
L 280.8 169.568 
L 283.9 169.568 
L 283.9 166.468 
L 280.8 166.468 
L 280.8 163.368 
L 277.7 163.368 
L 277.7 166.468 
L 274.6 166.468 
L 274.6 163.368 
L 271.5 163.368 
L 271.5 166.468 
L 274.6 166.468 
L 274.6 169.568 
L 271.5 169.568 
L 271.5 172.668 
L 268.4 172.668 
L 268.4 169.568 
L 265.3 169.568 
L 265.3 172.668 
L 268.4 172.668 
L 268.4 175.768 
L 271.5 175.768 
L 271.5 172.668 
L 274.6 172.668 
L 274.6 175.768 
L 271.5 175.768 
L 271.5 178.868 
L 274.6 178.868 
L 274.6 181.968 
L 271.5 181.968 
L 271.5 185.068 
L 268.4 185.068 
L 268.4 181.968 
L 265.3 181.968 
L 265.3 185.068 
L 268.4 185.068 
L 268.4 188.168 
L 271.5 188.168 
L 271.5 185.068 
L 274.6 185.068 
L 274.6 188.168 
L 277.7 188.168 
L 277.7 185.068 
L 274.6 185.068 
L 274.6 181.968 
L 277.7 181.968 
L 277.7 178.868 
L 280.8 178.868 
L 280.8 181.968 
L 277.7 181.968 
L 277.7 185.068 
L 280.8 185.068 
L 280.8 188.168 
L 283.9 188.168 
L 283.9 185.068 
L 287 185.068 
L 287 188.168 
L 283.9 188.168 
L 283.9 191.268 
L 287 191.268 
L 287 194.368 
L 283.9 194.368 
L 283.9 197.468 
L 280.8 197.468 
L 280.8 194.368 
L 283.9 194.368 
L 283.9 191.268 
L 280.8 191.268 
L 280.8 188.168 
L 277.7 188.168 
L 277.7 191.268 
L 274.6 191.268 
L 274.6 188.168 
L 271.5 188.168 
L 271.5 191.268 
L 274.6 191.268 
L 274.6 194.368 
L 271.5 194.368 
L 271.5 197.468 
L 268.4 197.468 
L 268.4 194.368 
L 265.3 194.368 
L 265.3 197.468 
L 268.4 197.468 
L 268.4 200.568 
L 271.5 200.568 
L 271.5 197.468 
L 274.6 197.468 
L 274.6 200.568 
L 271.5 200.568 
L 271.5 203.668 
L 274.6 203.668 
L 274.6 206.768 
L 271.5 206.768 
L 271.5 209.868 
L 268.4 209.868 
L 268.4 206.768 
L 271.5 206.768 
L 271.5 203.668 
L 268.4 203.668 
L 268.4 200.568 
L 265.3 200.568 
L 265.3 203.668 
L 262.2 203.668 
L 262.2 200.568 
L 259.1 200.568 
L 259.1 203.668 
L 262.2 203.668 
L 262.2 206.768 
L 259.1 206.768 
L 259.1 209.868 
L 256 209.868 
L 256 206.768 
L 259.1 206.768 
L 259.1 203.668 
L 256 203.668 
L 256 200.568 
L 252.9 200.568 
L 252.9 203.668 
L 249.8 203.668 
L 249.8 200.568 
L 252.9 200.568 
L 252.9 197.468 
L 249.8 197.468 
L 249.8 194.368 
L 252.9 194.368 
L 252.9 191.268 
L 256 191.268 
L 256 194.368 
L 252.9 194.368 
L 252.9 197.468 
L 256 197.468 
L 256 200.568 
L 259.1 200.568 
L 259.1 197.468 
L 262.2 197.468 
L 262.2 200.568 
L 265.3 200.568 
L 265.3 197.468 
L 262.2 197.468 
L 262.2 194.368 
L 265.3 194.368 
L 265.3 191.268 
L 268.4 191.268 
L 268.4 194.368 
L 271.5 194.368 
L 271.5 191.268 
L 268.4 191.268 
L 268.4 188.168 
L 265.3 188.168 
L 265.3 191.268 
L 262.2 191.268 
L 262.2 188.168 
L 265.3 188.168 
L 265.3 185.068 
L 262.2 185.068 
L 262.2 181.968 
L 265.3 181.968 
L 265.3 178.868 
L 268.4 178.868 
L 268.4 181.968 
L 271.5 181.968 
L 271.5 178.868 
L 268.4 178.868 
L 268.4 175.768 
L 265.3 175.768 
L 265.3 178.868 
L 262.2 178.868 
L 262.2 175.768 
L 259.1 175.768 
L 259.1 178.868 
L 262.2 178.868 
L 262.2 181.968 
L 259.1 181.968 
L 259.1 185.068 
L 256 185.068 
L 256 181.968 
L 259.1 181.968 
L 259.1 178.868 
L 256 178.868 
L 256 175.768 
L 252.9 175.768 
L 252.9 178.868 
L 249.8 178.868 
L 249.8 175.768 
L 252.9 175.768 
L 252.9 172.668 
L 249.8 172.668 
L 249.8 169.568 
L 252.9 169.568 
L 252.9 166.468 
L 256 166.468 
L 256 169.568 
L 259.1 169.568 
L 259.1 166.468 
L 256 166.468 
L 256 163.368 
L 252.9 163.368 
L 252.9 166.468 
L 249.8 166.468 
L 249.8 163.368 
L 246.7 163.368 
L 246.7 166.468 
L 249.8 166.468 
L 249.8 169.568 
L 246.7 169.568 
L 246.7 172.668 
L 243.6 172.668 
L 243.6 169.568 
L 240.5 169.568 
L 240.5 172.668 
L 243.6 172.668 
L 243.6 175.768 
L 246.7 175.768 
L 246.7 172.668 
L 249.8 172.668 
L 249.8 175.768 
L 246.7 175.768 
L 246.7 178.868 
L 249.8 178.868 
L 249.8 181.968 
L 246.7 181.968 
L 246.7 185.068 
L 243.6 185.068 
L 243.6 181.968 
L 246.7 181.968 
L 246.7 178.868 
L 243.6 178.868 
L 243.6 175.768 
L 240.5 175.768 
L 240.5 178.868 
L 237.4 178.868 
L 237.4 175.768 
L 234.3 175.768 
L 234.3 178.868 
L 237.4 178.868 
L 237.4 181.968 
L 234.3 181.968 
L 234.3 185.068 
L 231.2 185.068 
L 231.2 181.968 
L 234.3 181.968 
L 234.3 178.868 
L 231.2 178.868 
L 231.2 175.768 
L 228.1 175.768 
L 228.1 178.868 
L 225 178.868 
L 225 175.768 
L 228.1 175.768 
L 228.1 172.668 
L 225 172.668 
L 225 169.568 
L 228.1 169.568 
L 228.1 166.468 
L 231.2 166.468 
L 231.2 169.568 
L 228.1 169.568 
L 228.1 172.668 
L 231.2 172.668 
L 231.2 175.768 
L 234.3 175.768 
L 234.3 172.668 
L 237.4 172.668 
L 237.4 175.768 
L 240.5 175.768 
L 240.5 172.668 
L 237.4 172.668 
L 237.4 169.568 
L 240.5 169.568 
L 240.5 166.468 
L 243.6 166.468 
L 243.6 169.568 
L 246.7 169.568 
L 246.7 166.468 
L 243.6 166.468 
L 243.6 163.368 
L 240.5 163.368 
L 240.5 166.468 
L 237.4 166.468 
L 237.4 163.368 
L 240.5 163.368 
L 240.5 160.268 
L 237.4 160.268 
L 237.4 157.168 
L 240.5 157.168 
L 240.5 154.068 
L 243.6 154.068 
L 243.6 157.168 
L 246.7 157.168 
L 246.7 154.068 
L 243.6 154.068 
L 243.6 150.968 
L 240.5 150.968 
L 240.5 154.068 
L 237.4 154.068 
L 237.4 150.968 
L 234.3 150.968 
L 234.3 154.068 
L 237.4 154.068 
L 237.4 157.168 
L 234.3 157.168 
L 234.3 160.268 
L 231.2 160.268 
L 231.2 157.168 
L 234.3 157.168 
L 234.3 154.068 
L 231.2 154.068 
L 231.2 150.968 
L 228.1 150.968 
L 228.1 154.068 
L 225 154.068 
L 225 150.968 
L 228.1 150.968 
L 228.1 147.868 
L 225 147.868 
L 225 144.768 
L 228.1 144.768 
L 228.1 141.668 
L 231.2 141.668 
L 231.2 144.768 
L 228.1 144.768 
L 228.1 147.868 
L 231.2 147.868 
L 231.2 150.968 
L 234.3 150.968 
L 234.3 147.868 
L 237.4 147.868 
L 237.4 150.968 
L 240.5 150.968 
L 240.5 147.868 
L 237.4 147.868 
L 237.4 144.768 
L 240.5 144.768 
L 240.5 141.668 
L 243.6 141.668 
L 243.6 144.768 
L 246.7 144.768 
L 246.7 141.668 
L 243.6 141.668 
L 243.6 138.568 
L 240.5 138.568 
L 240.5 141.668 
L 237.4 141.668 
L 237.4 138.568 
L 240.5 138.568 
L 240.5 135.468 
L 237.4 135.468 
L 237.4 132.368 
L 240.5 132.368 
L 240.5 129.268 
L 243.6 129.268 
L 243.6 132.368 
L 240.5 132.368 
L 240.5 135.468 
L 243.6 135.468 
L 243.6 138.568 
L 246.7 138.568 
L 246.7 135.468 
L 249.8 135.468 
L 249.8 138.568 
L 252.9 138.568 
L 252.9 135.468 
L 249.8 135.468 
L 249.8 132.368 
L 252.9 132.368 
L 252.9 129.268 
L 256 129.268 
L 256 132.368 
L 252.9 132.368 
L 252.9 135.468 
L 256 135.468 
L 256 138.568 
L 259.1 138.568 
L 259.1 135.468 
L 262.2 135.468 
L 262.2 138.568 
L 259.1 138.568 
L 259.1 141.668 
L 262.2 141.668 
L 262.2 144.768 
L 259.1 144.768 
L 259.1 147.868 
L 256 147.868 
L 256 144.768 
L 259.1 144.768 
L 259.1 141.668 
L 256 141.668 
L 256 138.568 
L 252.9 138.568 
L 252.9 141.668 
L 249.8 141.668 
L 249.8 138.568 
L 246.7 138.568 
L 246.7 141.668 
L 249.8 141.668 
L 249.8 144.768 
L 246.7 144.768 
L 246.7 147.868 
L 243.6 147.868 
L 243.6 144.768 
L 240.5 144.768 
L 240.5 147.868 
L 243.6 147.868 
L 243.6 150.968 
L 246.7 150.968 
L 246.7 147.868 
L 249.8 147.868 
L 249.8 150.968 
L 246.7 150.968 
L 246.7 154.068 
L 249.8 154.068 
L 249.8 157.168 
L 246.7 157.168 
L 246.7 160.268 
L 243.6 160.268 
L 243.6 157.168 
L 240.5 157.168 
L 240.5 160.268 
L 243.6 160.268 
L 243.6 163.368 
L 246.7 163.368 
L 246.7 160.268 
L 249.8 160.268 
L 249.8 163.368 
L 252.9 163.368 
L 252.9 160.268 
L 249.8 160.268 
L 249.8 157.168 
L 252.9 157.168 
L 252.9 154.068 
L 256 154.068 
L 256 157.168 
L 252.9 157.168 
L 252.9 160.268 
L 256 160.268 
L 256 163.368 
L 259.1 163.368 
L 259.1 160.268 
L 262.2 160.268 
L 262.2 163.368 
L 259.1 163.368 
L 259.1 166.468 
L 262.2 166.468 
L 262.2 169.568 
L 259.1 169.568 
L 259.1 172.668 
L 256 172.668 
L 256 169.568 
L 252.9 169.568 
L 252.9 172.668 
L 256 172.668 
L 256 175.768 
L 259.1 175.768 
L 259.1 172.668 
L 262.2 172.668 
L 262.2 175.768 
L 265.3 175.768 
L 265.3 172.668 
L 262.2 172.668 
L 262.2 169.568 
L 265.3 169.568 
L 265.3 166.468 
L 268.4 166.468 
L 268.4 169.568 
L 271.5 169.568 
L 271.5 166.468 
L 268.4 166.468 
L 268.4 163.368 
L 265.3 163.368 
L 265.3 166.468 
L 262.2 166.468 
L 262.2 163.368 
L 265.3 163.368 
L 265.3 160.268 
L 262.2 160.268 
L 262.2 157.168 
L 265.3 157.168 
L 265.3 154.068 
L 268.4 154.068 
L 268.4 157.168 
L 265.3 157.168 
L 265.3 160.268 
L 268.4 160.268 
L 268.4 163.368 
L 271.5 163.368 
L 271.5 160.268 
L 274.6 160.268 
L 274.6 163.368 
L 277.7 163.368 
L 277.7 160.268 
L 274.6 160.268 
L 274.6 157.168 
L 277.7 157.168 
L 277.7 154.068 
L 280.8 154.068 
L 280.8 157.168 
L 277.7 157.168 
L 277.7 160.268 
L 280.8 160.268 
L 280.8 163.368 
L 283.9 163.368 
L 283.9 160.268 
L 287 160.268 
L 287 163.368 
L 283.9 163.368 
L 283.9 166.468 
L 287 166.468 
L 287 169.568 
L 283.9 169.568 
L 283.9 172.668 
L 280.8 172.668 
L 280.8 169.568 
L 277.7 169.568 
L 277.7 172.668 
L 280.8 172.668 
L 280.8 175.768 
L 283.9 175.768 
L 283.9 172.668 
L 287 172.668 
L 287 175.768 
L 290.1 175.768 
L 290.1 172.668 
L 287 172.668 
L 287 169.568 
L 290.1 169.568 
L 290.1 166.468 
L 293.2 166.468 
L 293.2 169.568 
L 296.3 169.568 
L 296.3 166.468 
L 293.2 166.468 
L 293.2 163.368 
L 290.1 163.368 
L 290.1 166.468 
L 287 166.468 
L 287 163.368 
L 290.1 163.368 
L 290.1 160.268 
L 287 160.268 
L 287 157.168 
L 290.1 157.168 
L 290.1 154.068 
L 293.2 154.068 
L 293.2 157.168 
L 296.3 157.168 
L 296.3 154.068 
L 293.2 154.068 
L 293.2 150.968 
L 290.1 150.968 
L 290.1 154.068 
L 287 154.068 
L 287 150.968 
L 283.9 150.968 
L 283.9 154.068 
L 287 154.068 
L 287 157.168 
L 283.9 157.168 
L 283.9 160.268 
L 280.8 160.268 
L 280.8 157.168 
L 283.9 157.168 
L 283.9 154.068 
L 280.8 154.068 
L 280.8 150.968 
L 277.7 150.968 
L 277.7 154.068 
L 274.6 154.068 
L 274.6 150.968 
L 277.7 150.968 
L 277.7 147.868 
L 274.6 147.868 
L 274.6 144.768 
L 277.7 144.768 
L 277.7 141.668 
L 280.8 141.668 
L 280.8 144.768 
L 277.7 144.768 
L 277.7 147.868 
L 280.8 147.868 
L 280.8 150.968 
L 283.9 150.968 
L 283.9 147.868 
L 287 147.868 
L 287 150.968 
L 290.1 150.968 
L 290.1 147.868 
L 287 147.868 
L 287 144.768 
L 290.1 144.768 
L 290.1 141.668 
L 293.2 141.668 
L 293.2 144.768 
L 296.3 144.768 
L 296.3 141.668 
L 293.2 141.668 
L 293.2 138.568 
L 290.1 138.568 
L 290.1 141.668 
L 287 141.668 
L 287 138.568 
L 290.1 138.568 
L 290.1 135.468 
L 287 135.468 
L 287 132.368 
L 290.1 132.368 
L 290.1 129.268 
L 293.2 129.268 
L 293.2 132.368 
L 290.1 132.368 
L 290.1 135.468 
L 293.2 135.468 
L 293.2 138.568 
L 296.3 138.568 
L 296.3 135.468 
L 299.4 135.468 
L 299.4 138.568 
L 302.5 138.568 
L 302.5 135.468 
L 299.4 135.468 
L 299.4 132.368 
L 302.5 132.368 
L 302.5 129.268 
L 305.6 129.268 
L 305.6 132.368 
L 302.5 132.368 
L 302.5 135.468 
L 305.6 135.468 
L 305.6 138.568 
L 308.7 138.568 
L 308.7 135.468 
L 311.8 135.468 
L 311.8 138.568 
L 308.7 138.568 
L 308.7 141.668 
L 311.8 141.668 
L 311.8 144.768 
L 308.7 144.768 
L 308.7 147.868 
L 305.6 147.868 
L 305.6 144.768 
L 302.5 144.768 
L 302.5 147.868 
L 305.6 147.868 
L 305.6 150.968 
L 308.7 150.968 
L 308.7 147.868 
L 311.8 147.868 
L 311.8 150.968 
L 314.9 150.968 
L 314.9 147.868 
L 311.8 147.868 
L 311.8 144.768 
L 314.9 144.768 
L 314.9 141.668 
L 318 141.668 
L 318 144.768 
L 321.1 144.768 
L 321.1 141.668 
L 318 141.668 
L 318 138.568 
L 314.9 138.568 
L 314.9 141.668 
L 311.8 141.668 
L 311.8 138.568 
L 314.9 138.568 
L 314.9 135.468 
L 311.8 135.468 
L 311.8 132.368 
L 314.9 132.368 
L 314.9 129.268 
L 318 129.268 
L 318 132.368 
L 321.1 132.368 
L 321.1 129.268 
L 318 129.268 
L 318 126.168 
L 314.9 126.168 
L 314.9 129.268 
L 311.8 129.268 
L 311.8 126.168 
L 308.7 126.168 
L 308.7 129.268 
L 311.8 129.268 
L 311.8 132.368 
L 308.7 132.368 
L 308.7 135.468 
L 305.6 135.468 
L 305.6 132.368 
L 308.7 132.368 
L 308.7 129.268 
L 305.6 129.268 
L 305.6 126.168 
L 302.5 126.168 
L 302.5 129.268 
L 299.4 129.268 
L 299.4 126.168 
L 302.5 126.168 
L 302.5 123.068 
L 299.4 123.068 
L 299.4 119.968 
L 302.5 119.968 
L 302.5 116.868 
L 305.6 116.868 
L 305.6 119.968 
L 308.7 119.968 
L 308.7 116.868 
L 305.6 116.868 
L 305.6 113.768 
L 302.5 113.768 
L 302.5 116.868 
L 299.4 116.868 
L 299.4 113.768 
L 296.3 113.768 
L 296.3 116.868 
L 299.4 116.868 
L 299.4 119.968 
L 296.3 119.968 
L 296.3 123.068 
L 293.2 123.068 
L 293.2 119.968 
L 290.1 119.968 
L 290.1 123.068 
L 293.2 123.068 
L 293.2 126.168 
L 296.3 126.168 
L 296.3 123.068 
L 299.4 123.068 
L 299.4 126.168 
L 296.3 126.168 
L 296.3 129.268 
L 299.4 129.268 
L 299.4 132.368 
L 296.3 132.368 
L 296.3 135.468 
L 293.2 135.468 
L 293.2 132.368 
L 296.3 132.368 
L 296.3 129.268 
L 293.2 129.268 
L 293.2 126.168 
L 290.1 126.168 
L 290.1 129.268 
L 287 129.268 
L 287 126.168 
L 283.9 126.168 
L 283.9 129.268 
L 287 129.268 
L 287 132.368 
L 283.9 132.368 
L 283.9 135.468 
L 280.8 135.468 
L 280.8 132.368 
L 283.9 132.368 
L 283.9 129.268 
L 280.8 129.268 
L 280.8 126.168 
L 277.7 126.168 
L 277.7 129.268 
L 274.6 129.268 
L 274.6 126.168 
L 277.7 126.168 
L 277.7 123.068 
L 274.6 123.068 
L 274.6 119.968 
L 277.7 119.968 
L 277.7 116.868 
L 280.8 116.868 
L 280.8 119.968 
L 277.7 119.968 
L 277.7 123.068 
L 280.8 123.068 
L 280.8 126.168 
L 283.9 126.168 
L 283.9 123.068 
L 287 123.068 
L 287 126.168 
L 290.1 126.168 
L 290.1 123.068 
L 287 123.068 
L 287 119.968 
L 290.1 119.968 
L 290.1 116.868 
L 293.2 116.868 
L 293.2 119.968 
L 296.3 119.968 
L 296.3 116.868 
L 293.2 116.868 
L 293.2 113.768 
L 290.1 113.768 
L 290.1 116.868 
L 287 116.868 
L 287 113.768 
L 290.1 113.768 
L 290.1 110.668 
L 287 110.668 
L 287 107.568 
L 290.1 107.568 
L 290.1 104.468 
L 293.2 104.468 
L 293.2 107.568 
L 296.3 107.568 
L 296.3 104.468 
L 293.2 104.468 
L 293.2 101.368 
L 290.1 101.368 
L 290.1 104.468 
L 287 104.468 
L 287 101.368 
L 283.9 101.368 
L 283.9 104.468 
L 287 104.468 
L 287 107.568 
L 283.9 107.568 
L 283.9 110.668 
L 280.8 110.668 
L 280.8 107.568 
L 283.9 107.568 
L 283.9 104.468 
L 280.8 104.468 
L 280.8 101.368 
L 277.7 101.368 
L 277.7 104.468 
L 274.6 104.468 
L 274.6 101.368 
L 277.7 101.368 
L 277.7 98.268 
L 274.6 98.268 
L 274.6 95.168 
L 277.7 95.168 
L 277.7 92.068 
L 280.8 92.068 
L 280.8 95.168 
L 277.7 95.168 
L 277.7 98.268 
L 280.8 98.268 
L 280.8 101.368 
L 283.9 101.368 
L 283.9 98.268 
L 287 98.268 
L 287 101.368 
L 290.1 101.368 
L 290.1 98.268 
L 287 98.268 
L 287 95.168 
L 290.1 95.168 
L 290.1 92.068 
L 293.2 92.068 
L 293.2 95.168 
L 296.3 95.168 
L 296.3 92.068 
L 293.2 92.068 
L 293.2 88.968 
L 290.1 88.968 
L 290.1 92.068 
L 287 92.068 
L 287 88.968 
L 290.1 88.968 
L 290.1 85.868 
L 287 85.868 
L 287 82.768 
L 290.1 82.768 
L 290.1 79.668 
L 293.2 79.668 
L 293.2 82.768 
L 290.1 82.768 
L 290.1 85.868 
L 293.2 85.868 
L 293.2 88.968 
L 296.3 88.968 
L 296.3 85.868 
L 299.4 85.868 
L 299.4 88.968 
L 302.5 88.968 
L 302.5 85.868 
L 299.4 85.868 
L 299.4 82.768 
L 302.5 82.768 
L 302.5 79.668 
L 305.6 79.668 
L 305.6 82.768 
L 302.5 82.768 
L 302.5 85.868 
L 305.6 85.868 
L 305.6 88.968 
L 308.7 88.968 
L 308.7 85.868 
L 311.8 85.868 
L 311.8 88.968 
L 308.7 88.968 
L 308.7 92.068 
L 311.8 92.068 
L 311.8 95.168 
L 308.7 95.168 
L 308.7 98.268 
L 305.6 98.268 
L 305.6 95.168 
L 308.7 95.168 
L 308.7 92.068 
L 305.6 92.068 
L 305.6 88.968 
L 302.5 88.968 
L 302.5 92.068 
L 299.4 92.068 
L 299.4 88.968 
L 296.3 88.968 
L 296.3 92.068 
L 299.4 92.068 
L 299.4 95.168 
L 296.3 95.168 
L 296.3 98.268 
L 293.2 98.268 
L 293.2 95.168 
L 290.1 95.168 
L 290.1 98.268 
L 293.2 98.268 
L 293.2 101.368 
L 296.3 101.368 
L 296.3 98.268 
L 299.4 98.268 
L 299.4 101.368 
L 296.3 101.368 
L 296.3 104.468 
L 299.4 104.468 
L 299.4 107.568 
L 296.3 107.568 
L 296.3 110.668 
L 293.2 110.668 
L 293.2 107.568 
L 290.1 107.568 
L 290.1 110.668 
L 293.2 110.668 
L 293.2 113.768 
L 296.3 113.768 
L 296.3 110.668 
L 299.4 110.668 
L 299.4 113.768 
L 302.5 113.768 
L 302.5 110.668 
L 299.4 110.668 
L 299.4 107.568 
L 302.5 107.568 
L 302.5 104.468 
L 305.6 104.468 
L 305.6 107.568 
L 302.5 107.568 
L 302.5 110.668 
L 305.6 110.668 
L 305.6 113.768 
L 308.7 113.768 
L 308.7 110.668 
L 311.8 110.668 
L 311.8 113.768 
L 308.7 113.768 
L 308.7 116.868 
L 311.8 116.868 
L 311.8 119.968 
L 308.7 119.968 
L 308.7 123.068 
L 305.6 123.068 
L 305.6 119.968 
L 302.5 119.968 
L 302.5 123.068 
L 305.6 123.068 
L 305.6 126.168 
L 308.7 126.168 
L 308.7 123.068 
L 311.8 123.068 
L 311.8 126.168 
L 314.9 126.168 
L 314.9 123.068 
L 311.8 123.068 
L 311.8 119.968 
L 314.9 119.968 
L 314.9 116.868 
L 318 116.868 
L 318 119.968 
L 321.1 119.968 
L 321.1 116.868 
L 318 116.868 
L 318 113.768 
L 314.9 113.768 
L 314.9 116.868 
L 311.8 116.868 
L 311.8 113.768 
L 314.9 113.768 
L 314.9 110.668 
L 311.8 110.668 
L 311.8 107.568 
L 314.9 107.568 
L 314.9 104.468 
L 318 104.468 
L 318 107.568 
L 314.9 107.568 
L 314.9 110.668 
L 318 110.668 
L 318 113.768 
L 321.1 113.768 
L 321.1 110.668 
L 324.2 110.668 
L 324.2 113.768 
L 327.3 113.768 
L 327.3 110.668 
L 324.2 110.668 
L 324.2 107.568 
L 327.3 107.568 
L 327.3 104.468 
L 330.4 104.468 
L 330.4 107.568 
L 327.3 107.568 
L 327.3 110.668 
L 330.4 110.668 
L 330.4 113.768 
L 333.5 113.768 
L 333.5 110.668 
L 336.6 110.668 
L 336.6 113.768 
L 333.5 113.768 
L 333.5 116.868 
L 336.6 116.868 
L 336.6 119.968 
L 333.5 119.968 
L 333.5 123.068 
L 330.4 123.068 
L 330.4 119.968 
L 327.3 119.968 
L 327.3 123.068 
L 330.4 123.068 
L 330.4 126.168 
L 333.5 126.168 
L 333.5 123.068 
L 336.6 123.068 
L 336.6 126.168 
L 339.7 126.168 
L 339.7 123.068 
L 336.6 123.068 
L 336.6 119.968 
L 339.7 119.968 
L 339.7 116.868 
L 342.8 116.868 
L 342.8 119.968 
L 345.9 119.968 
L 345.9 116.868 
L 342.8 116.868 
L 342.8 113.768 
L 339.7 113.768 
L 339.7 116.868 
L 336.6 116.868 
L 336.6 113.768 
L 339.7 113.768 
L 339.7 110.668 
L 336.6 110.668 
L 336.6 107.568 
L 339.7 107.568 
L 339.7 104.468 
L 342.8 104.468 
L 342.8 107.568 
L 345.9 107.568 
L 345.9 104.468 
L 342.8 104.468 
L 342.8 101.368 
L 339.7 101.368 
L 339.7 104.468 
L 336.6 104.468 
L 336.6 101.368 
L 333.5 101.368 
L 333.5 104.468 
L 336.6 104.468 
L 336.6 107.568 
L 333.5 107.568 
L 333.5 110.668 
L 330.4 110.668 
L 330.4 107.568 
L 333.5 107.568 
L 333.5 104.468 
L 330.4 104.468 
L 330.4 101.368 
L 327.3 101.368 
L 327.3 104.468 
L 324.2 104.468 
L 324.2 101.368 
L 327.3 101.368 
L 327.3 98.268 
L 324.2 98.268 
L 324.2 95.168 
L 327.3 95.168 
L 327.3 92.068 
L 330.4 92.068 
L 330.4 95.168 
L 327.3 95.168 
L 327.3 98.268 
L 330.4 98.268 
L 330.4 101.368 
L 333.5 101.368 
L 333.5 98.268 
L 336.6 98.268 
L 336.6 101.368 
L 339.7 101.368 
L 339.7 98.268 
L 336.6 98.268 
L 336.6 95.168 
L 339.7 95.168 
L 339.7 92.068 
L 342.8 92.068 
L 342.8 95.168 
L 345.9 95.168 
L 345.9 92.068 
L 342.8 92.068 
L 342.8 88.968 
L 339.7 88.968 
L 339.7 92.068 
L 336.6 92.068 
L 336.6 88.968 
L 339.7 88.968 
L 339.7 85.868 
L 336.6 85.868 
L 336.6 82.768 
L 339.7 82.768 
L 339.7 79.668 
L 342.8 79.668 
L 342.8 82.768 
L 339.7 82.768 
L 339.7 85.868 
L 342.8 85.868 
L 342.8 88.968 
L 345.9 88.968 
L 345.9 85.868 
L 349 85.868 
L 349 88.968 
L 352.1 88.968 
L 352.1 85.868 
L 349 85.868 
L 349 82.768 
L 352.1 82.768 
L 352.1 79.668 
L 355.2 79.668 
L 355.2 82.768 
L 352.1 82.768 
L 352.1 85.868 
L 355.2 85.868 
L 355.2 88.968 
L 358.3 88.968 
L 358.3 85.868 
L 361.4 85.868 
L 361.4 88.968 
L 358.3 88.968 
L 358.3 92.068 
L 361.4 92.068 
L 361.4 95.168 
L 358.3 95.168 
L 358.3 98.268 
L 355.2 98.268 
L 355.2 95.168 
L 358.3 95.168 
L 358.3 92.068 
L 355.2 92.068 
L 355.2 88.968 
L 352.1 88.968 
L 352.1 92.068 
L 349 92.068 
L 349 88.968 
L 345.9 88.968 
L 345.9 92.068 
L 349 92.068 
L 349 95.168 
L 345.9 95.168 
L 345.9 98.268 
L 342.8 98.268 
L 342.8 95.168 
L 339.7 95.168 
L 339.7 98.268 
L 342.8 98.268 
L 342.8 101.368 
L 345.9 101.368 
L 345.9 98.268 
L 349 98.268 
L 349 101.368 
L 345.9 101.368 
L 345.9 104.468 
L 349 104.468 
L 349 107.568 
L 345.9 107.568 
L 345.9 110.668 
L 342.8 110.668 
L 342.8 107.568 
L 339.7 107.568 
L 339.7 110.668 
L 342.8 110.668 
L 342.8 113.768 
L 345.9 113.768 
L 345.9 110.668 
L 349 110.668 
L 349 113.768 
L 352.1 113.768 
L 352.1 110.668 
L 349 110.668 
L 349 107.568 
L 352.1 107.568 
L 352.1 104.468 
L 355.2 104.468 
L 355.2 107.568 
L 352.1 107.568 
L 352.1 110.668 
L 355.2 110.668 
L 355.2 113.768 
L 358.3 113.768 
L 358.3 110.668 
L 361.4 110.668 
L 361.4 113.768 
L 358.3 113.768 
L 358.3 116.868 
L 361.4 116.868 
L 361.4 119.968 
L 358.3 119.968 
L 358.3 123.068 
L 355.2 123.068 
L 355.2 119.968 
L 352.1 119.968 
L 352.1 123.068 
L 355.2 123.068 
L 355.2 126.168 
L 358.3 126.168 
L 358.3 123.068 
L 361.4 123.068 
L 361.4 126.168 
L 364.5 126.168 
L 364.5 123.068 
L 361.4 123.068 
L 361.4 119.968 
L 364.5 119.968 
L 364.5 116.868 
L 367.6 116.868 
L 367.6 119.968 
L 370.7 119.968 
L 370.7 116.868 
L 367.6 116.868 
L 367.6 113.768 
L 364.5 113.768 
L 364.5 116.868 
L 361.4 116.868 
L 361.4 113.768 
L 364.5 113.768 
L 364.5 110.668 
L 361.4 110.668 
L 361.4 107.568 
L 364.5 107.568 
L 364.5 104.468 
L 367.6 104.468 
L 367.6 107.568 
L 364.5 107.568 
L 364.5 110.668 
L 367.6 110.668 
L 367.6 113.768 
L 370.7 113.768 
L 370.7 110.668 
L 373.8 110.668 
L 373.8 113.768 
L 376.9 113.768 
L 376.9 110.668 
L 373.8 110.668 
L 373.8 107.568 
L 376.9 107.568 
L 376.9 104.468 
L 380 104.468 
L 380 107.568 
L 376.9 107.568 
L 376.9 110.668 
L 380 110.668 
L 380 113.768 
L 383.1 113.768 
L 383.1 110.668 
L 386.2 110.668 
L 386.2 113.768 
L 383.1 113.768 
L 383.1 116.868 
L 386.2 116.868 
L 386.2 119.968 
L 383.1 119.968 
L 383.1 123.068 
L 380 123.068 
L 380 119.968 
L 383.1 119.968 
L 383.1 116.868 
L 380 116.868 
L 380 113.768 
L 376.9 113.768 
L 376.9 116.868 
L 373.8 116.868 
L 373.8 113.768 
L 370.7 113.768 
L 370.7 116.868 
L 373.8 116.868 
L 373.8 119.968 
L 370.7 119.968 
L 370.7 123.068 
L 367.6 123.068 
L 367.6 119.968 
L 364.5 119.968 
L 364.5 123.068 
L 367.6 123.068 
L 367.6 126.168 
L 370.7 126.168 
L 370.7 123.068 
L 373.8 123.068 
L 373.8 126.168 
L 370.7 126.168 
L 370.7 129.268 
L 373.8 129.268 
L 373.8 132.368 
L 370.7 132.368 
L 370.7 135.468 
L 367.6 135.468 
L 367.6 132.368 
L 364.5 132.368 
L 364.5 135.468 
L 367.6 135.468 
L 367.6 138.568 
L 370.7 138.568 
L 370.7 135.468 
L 373.8 135.468 
L 373.8 138.568 
L 376.9 138.568 
L 376.9 135.468 
L 373.8 135.468 
L 373.8 132.368 
L 376.9 132.368 
L 376.9 129.268 
L 380 129.268 
L 380 132.368 
L 376.9 132.368 
L 376.9 135.468 
L 380 135.468 
L 380 138.568 
L 383.1 138.568 
L 383.1 135.468 
L 386.2 135.468 
L 386.2 138.568 
L 383.1 138.568 
L 383.1 141.668 
L 386.2 141.668 
L 386.2 144.768 
L 383.1 144.768 
L 383.1 147.868 
L 380 147.868 
L 380 144.768 
L 383.1 144.768 
L 383.1 141.668 
L 380 141.668 
L 380 138.568 
L 376.9 138.568 
L 376.9 141.668 
L 373.8 141.668 
L 373.8 138.568 
L 370.7 138.568 
L 370.7 141.668 
L 373.8 141.668 
L 373.8 144.768 
L 370.7 144.768 
L 370.7 147.868 
L 367.6 147.868 
L 367.6 144.768 
L 364.5 144.768 
L 364.5 147.868 
L 367.6 147.868 
L 367.6 150.968 
L 370.7 150.968 
L 370.7 147.868 
L 373.8 147.868 
L 373.8 150.968 
L 370.7 150.968 
L 370.7 154.068 
L 373.8 154.068 
L 373.8 157.168 
L 370.7 157.168 
L 370.7 160.268 
L 367.6 160.268 
L 367.6 157.168 
L 370.7 157.168 
L 370.7 154.068 
L 367.6 154.068 
L 367.6 150.968 
L 364.5 150.968 
L 364.5 154.068 
L 361.4 154.068 
L 361.4 150.968 
L 358.3 150.968 
L 358.3 154.068 
L 361.4 154.068 
L 361.4 157.168 
L 358.3 157.168 
L 358.3 160.268 
L 355.2 160.268 
L 355.2 157.168 
L 358.3 157.168 
L 358.3 154.068 
L 355.2 154.068 
L 355.2 150.968 
L 352.1 150.968 
L 352.1 154.068 
L 349 154.068 
L 349 150.968 
L 352.1 150.968 
L 352.1 147.868 
L 349 147.868 
L 349 144.768 
L 352.1 144.768 
L 352.1 141.668 
L 355.2 141.668 
L 355.2 144.768 
L 355.2 144.768 
" clip-path="url(#p7cff1ad06b)" style="fill: none; stroke: #000000; stroke-width: 3; stroke-linecap: square"/>
   </g>
  </g>
 </g>
 <defs>
  <clipPath id="p7cff1ad06b">
   <rect x="57.6" y="65.408" width="357.12" height="218.24"/>
  </clipPath>
 </defs>
</svg>
