<?xml version="1.0" encoding="utf-8" standalone="no"?>
<!DOCTYPE svg PUBLIC "-//W3C//DTD SVG 1.1//EN"
  "http://www.w3.org/Graphics/SVG/1.1/DTD/svg11.dtd">
<svg xmlns:xlink="http://www.w3.org/1999/xlink" width="213.984pt" height="280.512pt" viewBox="0 0 213.984 280.512" xmlns="http://www.w3.org/2000/svg" version="1.1">
 <metadata>
  <rdf:RDF xmlns:dc="http://purl.org/dc/elements/1.1/" xmlns:cc="http://creativecommons.org/ns#" xmlns:rdf="http://www.w3.org/1999/02/22-rdf-syntax-ns#">
   <cc:Work>
    <dc:type rdf:resource="http://purl.org/dc/dcmitype/StillImage"/>
    <dc:date>2025-11-14T10:12:36.209767</dc:date>
    <dc:format>image/svg+xml</dc:format>
    <dc:creator>
     <cc:Agent>
      <dc:title>Matplotlib v3.9.1.post1, https://matplotlib.org/</dc:title>
     </cc:Agent>
    </dc:creator>
   </cc:Work>
  </rdf:RDF>
 </metadata>
 <defs>
  <style type="text/css">*{stroke-linejoin: round; stroke-linecap: butt}</style>
 </defs>
 <g id="figure_1">
  <g id="patch_1">
   <path d="M 0 280.512 
L 213.984 280.512 
L 213.984 0 
L 0 0 
z
" style="fill: #ffffff"/>
  </g>
  <g id="axes_1">
   <g id="line2d_1">
    <path d="M 23.832 106.992 
L 24.516444 106.992 
L 24.858667 106.399254 
L 24.858667 106.399254 
L 25.200889 106.992 
L 25.885333 106.992 
L 26.227556 106.399254 
L 25.885333 105.806507 
L 25.885333 105.806507 
L 26.569778 105.806507 
L 26.912 105.213761 
L 26.912 105.213761 
L 27.254222 105.806507 
L 27.938667 105.806507 
L 27.938667 105.806507 
L 27.596444 106.399254 
L 27.938667 106.992 
L 28.623111 106.992 
L 28.965333 106.399254 
L 28.965333 106.399254 
L 29.307556 106.992 
L 29.992 106.992 
L 30.334222 106.399254 
L 29.992 105.806507 
L 29.992 105.806507 
L 30.676444 105.806507 
L 31.018667 105.213761 
L 30.676444 104.621015 
L 29.992 104.621015 
L 29.992 104.621015 
L 30.334222 104.028269 
L 29.992 103.435522 
L 29.992 103.435522 
L 30.676444 103.435522 
L 31.018667 102.842776 
L 31.018667 102.842776 
L 31.360889 103.435522 
L 32.045333 103.435522 
L 32.387556 102.842776 
L 32.045333 102.25003 
L 32.045333 102.25003 
L 32.729778 102.25003 
L 33.072 101.657284 
L 33.072 101.657284 
L 33.414222 102.25003 
L 34.098667 102.25003 
L 34.098667 102.25003 
L 33.756444 102.842776 
L 34.098667 103.435522 
L 34.783111 103.435522 
L 35.125333 102.842776 
L 35.125333 102.842776 
L 35.467556 103.435522 
L 36.152 103.435522 
L 36.152 103.435522 
L 35.809778 104.028269 
L 36.152 104.621015 
L 36.152 104.621015 
L 35.467556 104.621015 
L 35.125333 105.213761 
L 35.467556 105.806507 
L 36.152 105.806507 
L 36.152 105.806507 
L 35.809778 106.399254 
L 36.152 106.992 
L 36.836444 106.992 
L 37.178667 106.399254 
L 37.178667 106.399254 
L 37.520889 106.992 
L 38.205333 106.992 
L 38.547556 106.399254 
L 38.205333 105.806507 
L 38.205333 105.806507 
L 38.889778 105.806507 
L 39.232 105.213761 
L 39.232 105.213761 
L 39.574222 105.806507 
L 40.258667 105.806507 
L 40.258667 105.806507 
L 39.916444 106.399254 
L 40.258667 106.992 
L 40.943111 106.992 
L 41.285333 106.399254 
L 41.285333 106.399254 
L 41.627556 106.992 
L 42.312 106.992 
L 42.654222 106.399254 
L 42.312 105.806507 
L 42.312 105.806507 
L 42.996444 105.806507 
L 43.338667 105.213761 
L 42.996444 104.621015 
L 42.312 104.621015 
L 42.312 104.621015 
L 42.654222 104.028269 
L 42.312 103.435522 
L 42.312 103.435522 
L 42.996444 103.435522 
L 43.338667 102.842776 
L 43.338667 102.842776 
L 43.680889 103.435522 
L 44.365333 103.435522 
L 44.707556 102.842776 
L 44.365333 102.25003 
L 44.365333 102.25003 
L 45.049778 102.25003 
L 45.392 101.657284 
L 45.049778 101.064537 
L 44.365333 101.064537 
L 44.365333 101.064537 
L 44.707556 100.471791 
L 44.365333 99.879045 
L 43.680889 99.879045 
L 43.338667 100.471791 
L 43.338667 100.471791 
L 42.996444 99.879045 
L 42.312 99.879045 
L 42.312 99.879045 
L 42.654222 99.286298 
L 42.312 98.693552 
L 42.312 98.693552 
L 42.996444 98.693552 
L 43.338667 98.100806 
L 42.996444 97.50806 
L 42.312 97.50806 
L 42.312 97.50806 
L 42.654222 96.915313 
L 42.312 96.322567 
L 42.312 96.322567 
L 42.996444 96.322567 
L 43.338667 95.729821 
L 43.338667 95.729821 
L 43.680889 96.322567 
L 44.365333 96.322567 
L 44.707556 95.729821 
L 44.365333 95.137074 
L 44.365333 95.137074 
L 45.049778 95.137074 
L 45.392 94.544328 
L 45.392 94.544328 
L 45.734222 95.137074 
L 46.418667 95.137074 
L 46.418667 95.137074 
L 46.076444 95.729821 
L 46.418667 96.322567 
L 47.103111 96.322567 
L 47.445333 95.729821 
L 47.445333 95.729821 
L 47.787556 96.322567 
L 48.472 96.322567 
L 48.814222 95.729821 
L 48.472 95.137074 
L 48.472 95.137074 
L 49.156444 95.137074 
L 49.498667 94.544328 
L 49.156444 93.951582 
L 48.472 93.951582 
L 48.472 93.951582 
L 48.814222 93.358836 
L 48.472 92.766089 
L 48.472 92.766089 
L 49.156444 92.766089 
L 49.498667 92.173343 
L 49.498667 92.173343 
L 49.840889 92.766089 
L 50.525333 92.766089 
L 50.867556 92.173343 
L 50.525333 91.580597 
L 50.525333 91.580597 
L 51.209778 91.580597 
L 51.552 90.987851 
L 51.552 90.987851 
L 51.894222 91.580597 
L 52.578667 91.580597 
L 52.578667 91.580597 
L 52.236444 92.173343 
L 52.578667 92.766089 
L 53.263111 92.766089 
L 53.605333 92.173343 
L 53.605333 92.173343 
L 53.947556 92.766089 
L 54.632 92.766089 
L 54.632 92.766089 
L 54.289778 93.358836 
L 54.632 93.951582 
L 54.632 93.951582 
L 53.947556 93.951582 
L 53.605333 94.544328 
L 53.947556 95.137074 
L 54.632 95.137074 
L 54.632 95.137074 
L 54.289778 95.729821 
L 54.632 96.322567 
L 55.316444 96.322567 
L 55.658667 95.729821 
L 55.658667 95.729821 
L 56.000889 96.322567 
L 56.685333 96.322567 
L 57.027556 95.729821 
L 56.685333 95.137074 
L 56.685333 95.137074 
L 57.369778 95.137074 
L 57.712 94.544328 
L 57.712 94.544328 
L 58.054222 95.137074 
L 58.738667 95.137074 
L 58.738667 95.137074 
L 58.396444 95.729821 
L 58.738667 96.322567 
L 59.423111 96.322567 
L 59.765333 95.729821 
L 59.765333 95.729821 
L 60.107556 96.322567 
L 60.792 96.322567 
L 60.792 96.322567 
L 60.449778 96.915313 
L 60.792 97.50806 
L 60.792 97.50806 
L 60.107556 97.50806 
L 59.765333 98.100806 
L 60.107556 98.693552 
L 60.792 98.693552 
L 60.792 98.693552 
L 60.449778 99.286298 
L 60.792 99.879045 
L 60.792 99.879045 
L 60.107556 99.879045 
L 59.765333 100.471791 
L 59.765333 100.471791 
L 59.423111 99.879045 
L 58.738667 99.879045 
L 58.396444 100.471791 
L 58.738667 101.064537 
L 58.738667 101.064537 
L 58.054222 101.064537 
L 57.712 101.657284 
L 58.054222 102.25003 
L 58.738667 102.25003 
L 58.738667 102.25003 
L 58.396444 102.842776 
L 58.738667 103.435522 
L 59.423111 103.435522 
L 59.765333 102.842776 
L 59.765333 102.842776 
L 60.107556 103.435522 
L 60.792 103.435522 
L 60.792 103.435522 
L 60.449778 104.028269 
L 60.792 104.621015 
L 60.792 104.621015 
L 60.107556 104.621015 
L 59.765333 105.213761 
L 60.107556 105.806507 
L 60.792 105.806507 
L 60.792 105.806507 
L 60.449778 106.399254 
L 60.792 106.992 
L 61.476444 106.992 
L 61.818667 106.399254 
L 61.818667 106.399254 
L 62.160889 106.992 
L 62.845333 106.992 
L 63.187556 106.399254 
L 62.845333 105.806507 
L 62.845333 105.806507 
L 63.529778 105.806507 
L 63.872 105.213761 
L 63.872 105.213761 
L 64.214222 105.806507 
L 64.898667 105.806507 
L 64.898667 105.806507 
L 64.556444 106.399254 
L 64.898667 106.992 
L 65.583111 106.992 
L 65.925333 106.399254 
L 65.925333 106.399254 
L 66.267556 106.992 
L 66.952 106.992 
L 67.294222 106.399254 
L 66.952 105.806507 
L 66.952 105.806507 
L 67.636444 105.806507 
L 67.978667 105.213761 
L 67.636444 104.621015 
L 66.952 104.621015 
L 66.952 104.621015 
L 67.294222 104.028269 
L 66.952 103.435522 
L 66.952 103.435522 
L 67.636444 103.435522 
L 67.978667 102.842776 
L 67.978667 102.842776 
L 68.320889 103.435522 
L 69.005333 103.435522 
L 69.347556 102.842776 
L 69.005333 102.25003 
L 69.005333 102.25003 
L 69.689778 102.25003 
L 70.032 101.657284 
L 70.032 101.657284 
L 70.374222 102.25003 
L 71.058667 102.25003 
L 71.058667 102.25003 
L 70.716444 102.842776 
L 71.058667 103.435522 
L 71.743111 103.435522 
L 72.085333 102.842776 
L 72.085333 102.842776 
L 72.427556 103.435522 
L 73.112 103.435522 
L 73.112 103.435522 
L 72.769778 104.028269 
L 73.112 104.621015 
L 73.112 104.621015 
L 72.427556 104.621015 
L 72.085333 105.213761 
L 72.427556 105.806507 
L 73.112 105.806507 
L 73.112 105.806507 
L 72.769778 106.399254 
L 73.112 106.992 
L 73.796444 106.992 
L 74.138667 106.399254 
L 74.138667 106.399254 
L 74.480889 106.992 
L 75.165333 106.992 
L 75.507556 106.399254 
L 75.165333 105.806507 
L 75.165333 105.806507 
L 75.849778 105.806507 
L 76.192 105.213761 
L 76.192 105.213761 
L 76.534222 105.806507 
L 77.218667 105.806507 
L 77.218667 105.806507 
L 76.876444 106.399254 
L 77.218667 106.992 
L 77.903111 106.992 
L 78.245333 106.399254 
L 78.245333 106.399254 
L 78.587556 106.992 
L 79.272 106.992 
L 79.614222 106.399254 
L 79.272 105.806507 
L 79.272 105.806507 
L 79.956444 105.806507 
L 80.298667 105.213761 
L 79.956444 104.621015 
L 79.272 104.621015 
L 79.272 104.621015 
L 79.614222 104.028269 
L 79.272 103.435522 
L 79.272 103.435522 
L 79.956444 103.435522 
L 80.298667 102.842776 
L 80.298667 102.842776 
L 80.640889 103.435522 
L 81.325333 103.435522 
L 81.667556 102.842776 
L 81.325333 102.25003 
L 81.325333 102.25003 
L 82.009778 102.25003 
L 82.352 101.657284 
L 82.009778 101.064537 
L 81.325333 101.064537 
L 81.325333 101.064537 
L 81.667556 100.471791 
L 81.325333 99.879045 
L 80.640889 99.879045 
L 80.298667 100.471791 
L 80.298667 100.471791 
L 79.956444 99.879045 
L 79.272 99.879045 
L 79.272 99.879045 
L 79.614222 99.286298 
L 79.272 98.693552 
L 79.272 98.693552 
L 79.956444 98.693552 
L 80.298667 98.100806 
L 79.956444 97.50806 
L 79.272 97.50806 
L 79.272 97.50806 
L 79.614222 96.915313 
L 79.272 96.322567 
L 79.272 96.322567 
L 79.956444 96.322567 
L 80.298667 95.729821 
L 80.298667 95.729821 
L 80.640889 96.322567 
L 81.325333 96.322567 
L 81.667556 95.729821 
L 81.325333 95.137074 
L 81.325333 95.137074 
L 82.009778 95.137074 
L 82.352 94.544328 
L 82.352 94.544328 
L 82.694222 95.137074 
L 83.378667 95.137074 
L 83.378667 95.137074 
L 83.036444 95.729821 
L 83.378667 96.322567 
L 84.063111 96.322567 
L 84.405333 95.729821 
L 84.405333 95.729821 
L 84.747556 96.322567 
L 85.432 96.322567 
L 85.774222 95.729821 
L 85.432 95.137074 
L 85.432 95.137074 
L 86.116444 95.137074 
L 86.458667 94.544328 
L 86.116444 93.951582 
L 85.432 93.951582 
L 85.432 93.951582 
L 85.774222 93.358836 
L 85.432 92.766089 
L 85.432 92.766089 
L 86.116444 92.766089 
L 86.458667 92.173343 
L 86.458667 92.173343 
L 86.800889 92.766089 
L 87.485333 92.766089 
L 87.827556 92.173343 
L 87.485333 91.580597 
L 87.485333 91.580597 
L 88.169778 91.580597 
L 88.512 90.987851 
L 88.169778 90.395104 
L 87.485333 90.395104 
L 87.485333 90.395104 
L 87.827556 89.802358 
L 87.485333 89.209612 
L 86.800889 89.209612 
L 86.458667 89.802358 
L 86.458667 89.802358 
L 86.116444 89.209612 
L 85.432 89.209612 
L 85.432 89.209612 
L 85.774222 88.616865 
L 85.432 88.024119 
L 85.432 88.024119 
L 86.116444 88.024119 
L 86.458667 87.431373 
L 86.116444 86.838627 
L 85.432 86.838627 
L 85.432 86.838627 
L 85.774222 86.24588 
L 85.432 85.653134 
L 84.747556 85.653134 
L 84.405333 86.24588 
L 84.405333 86.24588 
L 84.063111 85.653134 
L 83.378667 85.653134 
L 83.036444 86.24588 
L 83.378667 86.838627 
L 83.378667 86.838627 
L 82.694222 86.838627 
L 82.352 87.431373 
L 82.352 87.431373 
L 82.009778 86.838627 
L 81.325333 86.838627 
L 81.325333 86.838627 
L 81.667556 86.24588 
L 81.325333 85.653134 
L 80.640889 85.653134 
L 80.298667 86.24588 
L 80.298667 86.24588 
L 79.956444 85.653134 
L 79.272 85.653134 
L 79.272 85.653134 
L 79.614222 85.060388 
L 79.272 84.467641 
L 79.272 84.467641 
L 79.956444 84.467641 
L 80.298667 83.874895 
L 79.956444 83.282149 
L 79.272 83.282149 
L 79.272 83.282149 
L 79.614222 82.689403 
L 79.272 82.096656 
L 79.272 82.096656 
L 79.956444 82.096656 
L 80.298667 81.50391 
L 80.298667 81.50391 
L 80.640889 82.096656 
L 81.325333 82.096656 
L 81.667556 81.50391 
L 81.325333 80.911164 
L 81.325333 80.911164 
L 82.009778 80.911164 
L 82.352 80.318418 
L 82.009778 79.725671 
L 81.325333 79.725671 
L 81.325333 79.725671 
L 81.667556 79.132925 
L 81.325333 78.540179 
L 80.640889 78.540179 
L 80.298667 79.132925 
L 80.298667 79.132925 
L 79.956444 78.540179 
L 79.272 78.540179 
L 79.272 78.540179 
L 79.614222 77.947432 
L 79.272 77.354686 
L 79.272 77.354686 
L 79.956444 77.354686 
L 80.298667 76.76194 
L 79.956444 76.169194 
L 79.272 76.169194 
L 79.272 76.169194 
L 79.614222 75.576447 
L 79.272 74.983701 
L 79.272 74.983701 
L 79.956444 74.983701 
L 80.298667 74.390955 
L 80.298667 74.390955 
L 80.640889 74.983701 
L 81.325333 74.983701 
L 81.667556 74.390955 
L 81.325333 73.798209 
L 81.325333 73.798209 
L 82.009778 73.798209 
L 82.352 73.205462 
L 82.352 73.205462 
L 82.694222 73.798209 
L 83.378667 73.798209 
L 83.378667 73.798209 
L 83.036444 74.390955 
L 83.378667 74.983701 
L 84.063111 74.983701 
L 84.405333 74.390955 
L 84.405333 74.390955 
L 84.747556 74.983701 
L 85.432 74.983701 
L 85.774222 74.390955 
L 85.432 73.798209 
L 85.432 73.798209 
L 86.116444 73.798209 
L 86.458667 73.205462 
L 86.116444 72.612716 
L 85.432 72.612716 
L 85.432 72.612716 
L 85.774222 72.01997 
L 85.432 71.427223 
L 85.432 71.427223 
L 86.116444 71.427223 
L 86.458667 70.834477 
L 86.458667 70.834477 
L 86.800889 71.427223 
L 87.485333 71.427223 
L 87.827556 70.834477 
L 87.485333 70.241731 
L 87.485333 70.241731 
L 88.169778 70.241731 
L 88.512 69.648985 
L 88.512 69.648985 
L 88.854222 70.241731 
L 89.538667 70.241731 
L 89.538667 70.241731 
L 89.196444 70.834477 
L 89.538667 71.427223 
L 90.223111 71.427223 
L 90.565333 70.834477 
L 90.565333 70.834477 
L 90.907556 71.427223 
L 91.592 71.427223 
L 91.592 71.427223 
L 91.249778 72.01997 
L 91.592 72.612716 
L 91.592 72.612716 
L 90.907556 72.612716 
L 90.565333 73.205462 
L 90.907556 73.798209 
L 91.592 73.798209 
L 91.592 73.798209 
L 91.249778 74.390955 
L 91.592 74.983701 
L 92.276444 74.983701 
L 92.618667 74.390955 
L 92.618667 74.390955 
L 92.960889 74.983701 
L 93.645333 74.983701 
L 93.987556 74.390955 
L 93.645333 73.798209 
L 93.645333 73.798209 
L 94.329778 73.798209 
L 94.672 73.205462 
L 94.672 73.205462 
L 95.014222 73.798209 
L 95.698667 73.798209 
L 95.698667 73.798209 
L 95.356444 74.390955 
L 95.698667 74.983701 
L 96.383111 74.983701 
L 96.725333 74.390955 
L 96.725333 74.390955 
L 97.067556 74.983701 
L 97.752 74.983701 
L 98.094222 74.390955 
L 97.752 73.798209 
L 97.752 73.798209 
L 98.436444 73.798209 
L 98.778667 73.205462 
L 98.436444 72.612716 
L 97.752 72.612716 
L 97.752 72.612716 
L 98.094222 72.01997 
L 97.752 71.427223 
L 97.752 71.427223 
L 98.436444 71.427223 
L 98.778667 70.834477 
L 98.778667 70.834477 
L 99.120889 71.427223 
L 99.805333 71.427223 
L 100.147556 70.834477 
L 99.805333 70.241731 
L 99.805333 70.241731 
L 100.489778 70.241731 
L 100.832 69.648985 
L 100.489778 69.056238 
L 99.805333 69.056238 
L 99.805333 69.056238 
L 100.147556 68.463492 
L 99.805333 67.870746 
L 99.120889 67.870746 
L 98.778667 68.463492 
L 98.778667 68.463492 
L 98.436444 67.870746 
L 97.752 67.870746 
L 97.752 67.870746 
L 98.094222 67.277999 
L 97.752 66.685253 
L 97.752 66.685253 
L 98.436444 66.685253 
L 98.778667 66.092507 
L 98.436444 65.499761 
L 97.752 65.499761 
L 97.752 65.499761 
L 98.094222 64.907014 
L 97.752 64.314268 
L 97.752 64.314268 
L 98.436444 64.314268 
L 98.778667 63.721522 
L 98.778667 63.721522 
L 99.120889 64.314268 
L 99.805333 64.314268 
L 100.147556 63.721522 
L 99.805333 63.128776 
L 99.805333 63.128776 
L 100.489778 63.128776 
L 100.832 62.536029 
L 100.832 62.536029 
L 101.174222 63.128776 
L 101.858667 63.128776 
L 101.858667 63.128776 
L 101.516444 63.721522 
L 101.858667 64.314268 
L 102.543111 64.314268 
L 102.885333 63.721522 
L 102.885333 63.721522 
L 103.227556 64.314268 
L 103.912 64.314268 
L 104.254222 63.721522 
L 103.912 63.128776 
L 103.912 63.128776 
L 104.596444 63.128776 
L 104.938667 62.536029 
L 104.596444 61.943283 
L 103.912 61.943283 
L 103.912 61.943283 
L 104.254222 61.350537 
L 103.912 60.75779 
L 103.912 60.75779 
L 104.596444 60.75779 
L 104.938667 60.165044 
L 104.938667 60.165044 
L 105.280889 60.75779 
L 105.965333 60.75779 
L 106.307556 60.165044 
L 105.965333 59.572298 
L 105.965333 59.572298 
L 106.649778 59.572298 
L 106.992 58.979552 
L 106.992 58.979552 
L 107.334222 59.572298 
L 108.018667 59.572298 
L 108.018667 59.572298 
L 107.676444 60.165044 
L 108.018667 60.75779 
L 108.703111 60.75779 
L 109.045333 60.165044 
L 109.045333 60.165044 
L 109.387556 60.75779 
L 110.072 60.75779 
L 110.072 60.75779 
L 109.729778 61.350537 
L 110.072 61.943283 
L 110.072 61.943283 
L 109.387556 61.943283 
L 109.045333 62.536029 
L 109.387556 63.128776 
L 110.072 63.128776 
L 110.072 63.128776 
L 109.729778 63.721522 
L 110.072 64.314268 
L 110.756444 64.314268 
L 111.098667 63.721522 
L 111.098667 63.721522 
L 111.440889 64.314268 
L 112.125333 64.314268 
L 112.467556 63.721522 
L 112.125333 63.128776 
L 112.125333 63.128776 
L 112.809778 63.128776 
L 113.152 62.536029 
L 113.152 62.536029 
L 113.494222 63.128776 
L 114.178667 63.128776 
L 114.178667 63.128776 
L 113.836444 63.721522 
L 114.178667 64.314268 
L 114.863111 64.314268 
L 115.205333 63.721522 
L 115.205333 63.721522 
L 115.547556 64.314268 
L 116.232 64.314268 
L 116.232 64.314268 
L 115.889778 64.907014 
L 116.232 65.499761 
L 116.232 65.499761 
L 115.547556 65.499761 
L 115.205333 66.092507 
L 115.547556 66.685253 
L 116.232 66.685253 
L 116.232 66.685253 
L 115.889778 67.277999 
L 116.232 67.870746 
L 116.232 67.870746 
L 115.547556 67.870746 
L 115.205333 68.463492 
L 115.205333 68.463492 
L 114.863111 67.870746 
L 114.178667 67.870746 
L 113.836444 68.463492 
L 114.178667 69.056238 
L 114.178667 69.056238 
L 113.494222 69.056238 
L 113.152 69.648985 
L 113.494222 70.241731 
L 114.178667 70.241731 
L 114.178667 70.241731 
L 113.836444 70.834477 
L 114.178667 71.427223 
L 114.863111 71.427223 
L 115.205333 70.834477 
L 115.205333 70.834477 
L 115.547556 71.427223 
L 116.232 71.427223 
L 116.232 71.427223 
L 115.889778 72.01997 
L 116.232 72.612716 
L 116.232 72.612716 
L 115.547556 72.612716 
L 115.205333 73.205462 
L 115.547556 73.798209 
L 116.232 73.798209 
L 116.232 73.798209 
L 115.889778 74.390955 
L 116.232 74.983701 
L 116.916444 74.983701 
L 117.258667 74.390955 
L 117.258667 74.390955 
L 117.600889 74.983701 
L 118.285333 74.983701 
L 118.627556 74.390955 
L 118.285333 73.798209 
L 118.285333 73.798209 
L 118.969778 73.798209 
L 119.312 73.205462 
L 119.312 73.205462 
L 119.654222 73.798209 
L 120.338667 73.798209 
L 120.338667 73.798209 
L 119.996444 74.390955 
L 120.338667 74.983701 
L 121.023111 74.983701 
L 121.365333 74.390955 
L 121.365333 74.390955 
L 121.707556 74.983701 
L 122.392 74.983701 
L 122.734222 74.390955 
L 122.392 73.798209 
L 122.392 73.798209 
L 123.076444 73.798209 
L 123.418667 73.205462 
L 123.076444 72.612716 
L 122.392 72.612716 
L 122.392 72.612716 
L 122.734222 72.01997 
L 122.392 71.427223 
L 122.392 71.427223 
L 123.076444 71.427223 
L 123.418667 70.834477 
L 123.418667 70.834477 
L 123.760889 71.427223 
L 124.445333 71.427223 
L 124.787556 70.834477 
L 124.445333 70.241731 
L 124.445333 70.241731 
L 125.129778 70.241731 
L 125.472 69.648985 
L 125.472 69.648985 
L 125.814222 70.241731 
L 126.498667 70.241731 
L 126.498667 70.241731 
L 126.156444 70.834477 
L 126.498667 71.427223 
L 127.183111 71.427223 
L 127.525333 70.834477 
L 127.525333 70.834477 
L 127.867556 71.427223 
L 128.552 71.427223 
L 128.552 71.427223 
L 128.209778 72.01997 
L 128.552 72.612716 
L 128.552 72.612716 
L 127.867556 72.612716 
L 127.525333 73.205462 
L 127.867556 73.798209 
L 128.552 73.798209 
L 128.552 73.798209 
L 128.209778 74.390955 
L 128.552 74.983701 
L 129.236444 74.983701 
L 129.578667 74.390955 
L 129.578667 74.390955 
L 129.920889 74.983701 
L 130.605333 74.983701 
L 130.947556 74.390955 
L 130.605333 73.798209 
L 130.605333 73.798209 
L 131.289778 73.798209 
L 131.632 73.205462 
L 131.632 73.205462 
L 131.974222 73.798209 
L 132.658667 73.798209 
L 132.658667 73.798209 
L 132.316444 74.390955 
L 132.658667 74.983701 
L 133.343111 74.983701 
L 133.685333 74.390955 
L 133.685333 74.390955 
L 134.027556 74.983701 
L 134.712 74.983701 
L 134.712 74.983701 
L 134.369778 75.576447 
L 134.712 76.169194 
L 134.712 76.169194 
L 134.027556 76.169194 
L 133.685333 76.76194 
L 134.027556 77.354686 
L 134.712 77.354686 
L 134.712 77.354686 
L 134.369778 77.947432 
L 134.712 78.540179 
L 134.712 78.540179 
L 134.027556 78.540179 
L 133.685333 79.132925 
L 133.685333 79.132925 
L 133.343111 78.540179 
L 132.658667 78.540179 
L 132.316444 79.132925 
L 132.658667 79.725671 
L 132.658667 79.725671 
L 131.974222 79.725671 
L 131.632 80.318418 
L 131.974222 80.911164 
L 132.658667 80.911164 
L 132.658667 80.911164 
L 132.316444 81.50391 
L 132.658667 82.096656 
L 133.343111 82.096656 
L 133.685333 81.50391 
L 133.685333 81.50391 
L 134.027556 82.096656 
L 134.712 82.096656 
L 134.712 82.096656 
L 134.369778 82.689403 
L 134.712 83.282149 
L 134.712 83.282149 
L 134.027556 83.282149 
L 133.685333 83.874895 
L 134.027556 84.467641 
L 134.712 84.467641 
L 134.712 84.467641 
L 134.369778 85.060388 
L 134.712 85.653134 
L 134.712 85.653134 
L 134.027556 85.653134 
L 133.685333 86.24588 
L 133.685333 86.24588 
L 133.343111 85.653134 
L 132.658667 85.653134 
L 132.316444 86.24588 
L 132.658667 86.838627 
L 132.658667 86.838627 
L 131.974222 86.838627 
L 131.632 87.431373 
L 131.632 87.431373 
L 131.289778 86.838627 
L 130.605333 86.838627 
L 130.605333 86.838627 
L 130.947556 86.24588 
L 130.605333 85.653134 
L 129.920889 85.653134 
L 129.578667 86.24588 
L 129.578667 86.24588 
L 129.236444 85.653134 
L 128.552 85.653134 
L 128.209778 86.24588 
L 128.552 86.838627 
L 128.552 86.838627 
L 127.867556 86.838627 
L 127.525333 87.431373 
L 127.867556 88.024119 
L 128.552 88.024119 
L 128.552 88.024119 
L 128.209778 88.616865 
L 128.552 89.209612 
L 128.552 89.209612 
L 127.867556 89.209612 
L 127.525333 89.802358 
L 127.525333 89.802358 
L 127.183111 89.209612 
L 126.498667 89.209612 
L 126.156444 89.802358 
L 126.498667 90.395104 
L 126.498667 90.395104 
L 125.814222 90.395104 
L 125.472 90.987851 
L 125.814222 91.580597 
L 126.498667 91.580597 
L 126.498667 91.580597 
L 126.156444 92.173343 
L 126.498667 92.766089 
L 127.183111 92.766089 
L 127.525333 92.173343 
L 127.525333 92.173343 
L 127.867556 92.766089 
L 128.552 92.766089 
L 128.552 92.766089 
L 128.209778 93.358836 
L 128.552 93.951582 
L 128.552 93.951582 
L 127.867556 93.951582 
L 127.525333 94.544328 
L 127.867556 95.137074 
L 128.552 95.137074 
L 128.552 95.137074 
L 128.209778 95.729821 
L 128.552 96.322567 
L 129.236444 96.322567 
L 129.578667 95.729821 
L 129.578667 95.729821 
L 129.920889 96.322567 
L 130.605333 96.322567 
L 130.947556 95.729821 
L 130.605333 95.137074 
L 130.605333 95.137074 
L 131.289778 95.137074 
L 131.632 94.544328 
L 131.632 94.544328 
L 131.974222 95.137074 
L 132.658667 95.137074 
L 132.658667 95.137074 
L 132.316444 95.729821 
L 132.658667 96.322567 
L 133.343111 96.322567 
L 133.685333 95.729821 
L 133.685333 95.729821 
L 134.027556 96.322567 
L 134.712 96.322567 
L 134.712 96.322567 
L 134.369778 96.915313 
L 134.712 97.50806 
L 134.712 97.50806 
L 134.027556 97.50806 
L 133.685333 98.100806 
L 134.027556 98.693552 
L 134.712 98.693552 
L 134.712 98.693552 
L 134.369778 99.286298 
L 134.712 99.879045 
L 134.712 99.879045 
L 134.027556 99.879045 
L 133.685333 100.471791 
L 133.685333 100.471791 
L 133.343111 99.879045 
L 132.658667 99.879045 
L 132.316444 100.471791 
L 132.658667 101.064537 
L 132.658667 101.064537 
L 131.974222 101.064537 
L 131.632 101.657284 
L 131.974222 102.25003 
L 132.658667 102.25003 
L 132.658667 102.25003 
L 132.316444 102.842776 
L 132.658667 103.435522 
L 133.343111 103.435522 
L 133.685333 102.842776 
L 133.685333 102.842776 
L 134.027556 103.435522 
L 134.712 103.435522 
L 134.712 103.435522 
L 134.369778 104.028269 
L 134.712 104.621015 
L 134.712 104.621015 
L 134.027556 104.621015 
L 133.685333 105.213761 
L 134.027556 105.806507 
L 134.712 105.806507 
L 134.712 105.806507 
L 134.369778 106.399254 
L 134.712 106.992 
L 135.396444 106.992 
L 135.738667 106.399254 
L 135.738667 106.399254 
L 136.080889 106.992 
L 136.765333 106.992 
L 137.107556 106.399254 
L 136.765333 105.806507 
L 136.765333 105.806507 
L 137.449778 105.806507 
L 137.792 105.213761 
L 137.792 105.213761 
L 138.134222 105.806507 
L 138.818667 105.806507 
L 138.818667 105.806507 
L 138.476444 106.399254 
L 138.818667 106.992 
L 139.503111 106.992 
L 139.845333 106.399254 
L 139.845333 106.399254 
L 140.187556 106.992 
L 140.872 106.992 
L 141.214222 106.399254 
L 140.872 105.806507 
L 140.872 105.806507 
L 141.556444 105.806507 
L 141.898667 105.213761 
L 141.556444 104.621015 
L 140.872 104.621015 
L 140.872 104.621015 
L 141.214222 104.028269 
L 140.872 103.435522 
L 140.872 103.435522 
L 141.556444 103.435522 
L 141.898667 102.842776 
L 141.898667 102.842776 
L 142.240889 103.435522 
L 142.925333 103.435522 
L 143.267556 102.842776 
L 142.925333 102.25003 
L 142.925333 102.25003 
L 143.609778 102.25003 
L 143.952 101.657284 
L 143.952 101.657284 
L 144.294222 102.25003 
L 144.978667 102.25003 
L 144.978667 102.25003 
L 144.636444 102.842776 
L 144.978667 103.435522 
L 145.663111 103.435522 
L 146.005333 102.842776 
L 146.005333 102.842776 
L 146.347556 103.435522 
L 147.032 103.435522 
L 147.032 103.435522 
L 146.689778 104.028269 
L 147.032 104.621015 
L 147.032 104.621015 
L 146.347556 104.621015 
L 146.005333 105.213761 
L 146.347556 105.806507 
L 147.032 105.806507 
L 147.032 105.806507 
L 146.689778 106.399254 
L 147.032 106.992 
L 147.716444 106.992 
L 148.058667 106.399254 
L 148.058667 106.399254 
L 148.400889 106.992 
L 149.085333 106.992 
L 149.427556 106.399254 
L 149.085333 105.806507 
L 149.085333 105.806507 
L 149.769778 105.806507 
L 150.112 105.213761 
L 150.112 105.213761 
L 150.454222 105.806507 
L 151.138667 105.806507 
L 151.138667 105.806507 
L 150.796444 106.399254 
L 151.138667 106.992 
L 151.823111 106.992 
L 152.165333 106.399254 
L 152.165333 106.399254 
L 152.507556 106.992 
L 153.192 106.992 
L 153.534222 106.399254 
L 153.192 105.806507 
L 153.192 105.806507 
L 153.876444 105.806507 
L 154.218667 105.213761 
L 153.876444 104.621015 
L 153.192 104.621015 
L 153.192 104.621015 
L 153.534222 104.028269 
L 153.192 103.435522 
L 153.192 103.435522 
L 153.876444 103.435522 
L 154.218667 102.842776 
L 154.218667 102.842776 
L 154.560889 103.435522 
L 155.245333 103.435522 
L 155.587556 102.842776 
L 155.245333 102.25003 
L 155.245333 102.25003 
L 155.929778 102.25003 
L 156.272 101.657284 
L 155.929778 101.064537 
L 155.245333 101.064537 
L 155.245333 101.064537 
L 155.587556 100.471791 
L 155.245333 99.879045 
L 154.560889 99.879045 
L 154.218667 100.471791 
L 154.218667 100.471791 
L 153.876444 99.879045 
L 153.192 99.879045 
L 153.192 99.879045 
L 153.534222 99.286298 
L 153.192 98.693552 
L 153.192 98.693552 
L 153.876444 98.693552 
L 154.218667 98.100806 
L 153.876444 97.50806 
L 153.192 97.50806 
L 153.192 97.50806 
L 153.534222 96.915313 
L 153.192 96.322567 
L 153.192 96.322567 
L 153.876444 96.322567 
L 154.218667 95.729821 
L 154.218667 95.729821 
L 154.560889 96.322567 
L 155.245333 96.322567 
L 155.587556 95.729821 
L 155.245333 95.137074 
L 155.245333 95.137074 
L 155.929778 95.137074 
L 156.272 94.544328 
L 156.272 94.544328 
L 156.614222 95.137074 
L 157.298667 95.137074 
L 157.298667 95.137074 
L 156.956444 95.729821 
L 157.298667 96.322567 
L 157.983111 96.322567 
L 158.325333 95.729821 
L 158.325333 95.729821 
L 158.667556 96.322567 
L 159.352 96.322567 
L 159.694222 95.729821 
L 159.352 95.137074 
L 159.352 95.137074 
L 160.036444 95.137074 
L 160.378667 94.544328 
L 160.036444 93.951582 
L 159.352 93.951582 
L 159.352 93.951582 
L 159.694222 93.358836 
L 159.352 92.766089 
L 159.352 92.766089 
L 160.036444 92.766089 
L 160.378667 92.173343 
L 160.378667 92.173343 
L 160.720889 92.766089 
L 161.405333 92.766089 
L 161.747556 92.173343 
L 161.405333 91.580597 
L 161.405333 91.580597 
L 162.089778 91.580597 
L 162.432 90.987851 
L 162.432 90.987851 
L 162.774222 91.580597 
L 163.458667 91.580597 
L 163.458667 91.580597 
L 163.116444 92.173343 
L 163.458667 92.766089 
L 164.143111 92.766089 
L 164.485333 92.173343 
L 164.485333 92.173343 
L 164.827556 92.766089 
L 165.512 92.766089 
L 165.512 92.766089 
L 165.169778 93.358836 
L 165.512 93.951582 
L 165.512 93.951582 
L 164.827556 93.951582 
L 164.485333 94.544328 
L 164.827556 95.137074 
L 165.512 95.137074 
L 165.512 95.137074 
L 165.169778 95.729821 
L 165.512 96.322567 
L 166.196444 96.322567 
L 166.538667 95.729821 
L 166.538667 95.729821 
L 166.880889 96.322567 
L 167.565333 96.322567 
L 167.907556 95.729821 
L 167.565333 95.137074 
L 167.565333 95.137074 
L 168.249778 95.137074 
L 168.592 94.544328 
L 168.592 94.544328 
L 168.934222 95.137074 
L 169.618667 95.137074 
L 169.618667 95.137074 
L 169.276444 95.729821 
L 169.618667 96.322567 
L 170.303111 96.322567 
L 170.645333 95.729821 
L 170.645333 95.729821 
L 170.987556 96.322567 
L 171.672 96.322567 
L 171.672 96.322567 
L 171.329778 96.915313 
L 171.672 97.50806 
L 171.672 97.50806 
L 170.987556 97.50806 
L 170.645333 98.100806 
L 170.987556 98.693552 
L 171.672 98.693552 
L 171.672 98.693552 
L 171.329778 99.286298 
L 171.672 99.879045 
L 171.672 99.879045 
L 170.987556 99.879045 
L 170.645333 100.471791 
L 170.645333 100.471791 
L 170.303111 99.879045 
L 169.618667 99.879045 
L 169.276444 100.471791 
L 169.618667 101.064537 
L 169.618667 101.064537 
L 168.934222 101.064537 
L 168.592 101.657284 
L 168.934222 102.25003 
L 169.618667 102.25003 
L 169.618667 102.25003 
L 169.276444 102.842776 
L 169.618667 103.435522 
L 170.303111 103.435522 
L 170.645333 102.842776 
L 170.645333 102.842776 
L 170.987556 103.435522 
L 171.672 103.435522 
L 171.672 103.435522 
L 171.329778 104.028269 
L 171.672 104.621015 
L 171.672 104.621015 
L 170.987556 104.621015 
L 170.645333 105.213761 
L 170.987556 105.806507 
L 171.672 105.806507 
L 171.672 105.806507 
L 171.329778 106.399254 
L 171.672 106.992 
L 172.356444 106.992 
L 172.698667 106.399254 
L 172.698667 106.399254 
L 173.040889 106.992 
L 173.725333 106.992 
L 174.067556 106.399254 
L 173.725333 105.806507 
L 173.725333 105.806507 
L 174.409778 105.806507 
L 174.752 105.213761 
L 174.752 105.213761 
L 175.094222 105.806507 
L 175.778667 105.806507 
L 175.778667 105.806507 
L 175.436444 106.399254 
L 175.778667 106.992 
L 176.463111 106.992 
L 176.805333 106.399254 
L 176.805333 106.399254 
L 177.147556 106.992 
L 177.832 106.992 
L 178.174222 106.399254 
L 177.832 105.806507 
L 177.832 105.806507 
L 178.516444 105.806507 
L 178.858667 105.213761 
L 178.516444 104.621015 
L 177.832 104.621015 
L 177.832 104.621015 
L 178.174222 104.028269 
L 177.832 103.435522 
L 177.832 103.435522 
L 178.516444 103.435522 
L 178.858667 102.842776 
L 178.858667 102.842776 
L 179.200889 103.435522 
L 179.885333 103.435522 
L 180.227556 102.842776 
L 179.885333 102.25003 
L 179.885333 102.25003 
L 180.569778 102.25003 
L 180.912 101.657284 
L 180.912 101.657284 
L 181.254222 102.25003 
L 181.938667 102.25003 
L 181.938667 102.25003 
L 181.596444 102.842776 
L 181.938667 103.435522 
L 182.623111 103.435522 
L 182.965333 102.842776 
L 182.965333 102.842776 
L 183.307556 103.435522 
L 183.992 103.435522 
L 183.992 103.435522 
L 183.649778 104.028269 
L 183.992 104.621015 
L 183.992 104.621015 
L 183.307556 104.621015 
L 182.965333 105.213761 
L 183.307556 105.806507 
L 183.992 105.806507 
L 183.992 105.806507 
L 183.649778 106.399254 
L 183.992 106.992 
L 184.676444 106.992 
L 185.018667 106.399254 
L 185.018667 106.399254 
L 185.360889 106.992 
L 186.045333 106.992 
L 186.387556 106.399254 
L 186.045333 105.806507 
L 186.045333 105.806507 
L 186.729778 105.806507 
L 187.072 105.213761 
L 187.072 105.213761 
L 187.414222 105.806507 
L 188.098667 105.806507 
L 188.098667 105.806507 
L 187.756444 106.399254 
L 188.098667 106.992 
L 188.783111 106.992 
L 189.125333 106.399254 
L 189.125333 106.399254 
L 189.467556 106.992 
L 190.152 106.992 
L 190.152 106.992 
" clip-path="url(#p4d607780f1)" style="fill: none; stroke: #808080; stroke-linecap: square"/>
   </g>
   <g id="line2d_2">
    <path d="M 23.832 106.992 
L 24.174222 107.584746 
L 23.832 108.177493 
L 23.832 108.177493 
L 24.516444 108.177493 
L 24.858667 108.770239 
L 24.516444 109.362985 
L 23.832 109.362985 
L 23.832 109.362985 
L 24.174222 109.955731 
L 23.832 110.548478 
L 23.832 110.548478 
L 24.516444 110.548478 
L 24.858667 111.141224 
L 24.858667 111.141224 
L 25.200889 110.548478 
L 25.885333 110.548478 
L 26.227556 111.141224 
L 25.885333 111.73397 
L 25.885333 111.73397 
L 26.569778 111.73397 
L 26.912 112.326716 
L 26.569778 112.919463 
L 25.885333 112.919463 
L 25.885333 112.919463 
L 26.227556 113.512209 
L 25.885333 114.104955 
L 25.200889 114.104955 
L 24.858667 113.512209 
L 24.858667 113.512209 
L 24.516444 114.104955 
L 23.832 114.104955 
L 23.832 114.104955 
L 24.174222 114.697702 
L 23.832 115.290448 
L 23.832 115.290448 
L 24.516444 115.290448 
L 24.858667 115.883194 
L 24.516444 116.47594 
L 23.832 116.47594 
L 23.832 116.47594 
L 24.174222 117.068687 
L 23.832 117.661433 
L 23.832 117.661433 
L 24.516444 117.661433 
L 24.858667 118.254179 
L 24.858667 118.254179 
L 25.200889 117.661433 
L 25.885333 117.661433 
L 26.227556 118.254179 
L 25.885333 118.846926 
L 25.885333 118.846926 
L 26.569778 118.846926 
L 26.912 119.439672 
L 26.912 119.439672 
L 27.254222 118.846926 
L 27.938667 118.846926 
L 27.938667 118.846926 
L 27.596444 118.254179 
L 27.938667 117.661433 
L 28.623111 117.661433 
L 28.965333 118.254179 
L 28.965333 118.254179 
L 29.307556 117.661433 
L 29.992 117.661433 
L 30.334222 118.254179 
L 29.992 118.846926 
L 29.992 118.846926 
L 30.676444 118.846926 
L 31.018667 119.439672 
L 30.676444 120.032418 
L 29.992 120.032418 
L 29.992 120.032418 
L 30.334222 120.625164 
L 29.992 121.217911 
L 29.992 121.217911 
L 30.676444 121.217911 
L 31.018667 121.810657 
L 31.018667 121.810657 
L 31.360889 121.217911 
L 32.045333 121.217911 
L 32.387556 121.810657 
L 32.045333 122.403403 
L 32.045333 122.403403 
L 32.729778 122.403403 
L 33.072 122.996149 
L 32.729778 123.588896 
L 32.045333 123.588896 
L 32.045333 123.588896 
L 32.387556 124.181642 
L 32.045333 124.774388 
L 31.360889 124.774388 
L 31.018667 124.181642 
L 31.018667 124.181642 
L 30.676444 124.774388 
L 29.992 124.774388 
L 29.992 124.774388 
L 30.334222 125.367135 
L 29.992 125.959881 
L 29.992 125.959881 
L 30.676444 125.959881 
L 31.018667 126.552627 
L 30.676444 127.145373 
L 29.992 127.145373 
L 29.992 127.145373 
L 30.334222 127.73812 
L 29.992 128.330866 
L 29.307556 128.330866 
L 28.965333 127.73812 
L 28.965333 127.73812 
L 28.623111 128.330866 
L 27.938667 128.330866 
L 27.596444 127.73812 
L 27.938667 127.145373 
L 27.938667 127.145373 
L 27.254222 127.145373 
L 26.912 126.552627 
L 26.912 126.552627 
L 26.569778 127.145373 
L 25.885333 127.145373 
L 25.885333 127.145373 
L 26.227556 127.73812 
L 25.885333 128.330866 
L 25.200889 128.330866 
L 24.858667 127.73812 
L 24.858667 127.73812 
L 24.516444 128.330866 
L 23.832 128.330866 
L 23.832 128.330866 
L 24.174222 128.923612 
L 23.832 129.516359 
L 23.832 129.516359 
L 24.516444 129.516359 
L 24.858667 130.109105 
L 24.516444 130.701851 
L 23.832 130.701851 
L 23.832 130.701851 
L 24.174222 131.294597 
L 23.832 131.887344 
L 23.832 131.887344 
L 24.516444 131.887344 
L 24.858667 132.48009 
L 24.858667 132.48009 
L 25.200889 131.887344 
L 25.885333 131.887344 
L 26.227556 132.48009 
L 25.885333 133.072836 
L 25.885333 133.072836 
L 26.569778 133.072836 
L 26.912 133.665582 
L 26.569778 134.258329 
L 25.885333 134.258329 
L 25.885333 134.258329 
L 26.227556 134.851075 
L 25.885333 135.443821 
L 25.200889 135.443821 
L 24.858667 134.851075 
L 24.858667 134.851075 
L 24.516444 135.443821 
L 23.832 135.443821 
L 23.832 135.443821 
L 24.174222 136.036568 
L 23.832 136.629314 
L 23.832 136.629314 
L 24.516444 136.629314 
L 24.858667 137.22206 
L 24.516444 137.814806 
L 23.832 137.814806 
L 23.832 137.814806 
L 24.174222 138.407553 
L 23.832 139.000299 
L 23.832 139.000299 
L 24.516444 139.000299 
L 24.858667 139.593045 
L 25.200889 139.000299 
L 25.885333 139.000299 
L 26.227556 139.593045 
L 25.885333 140.185791 
L 25.885333 140.185791 
L 26.569778 140.185791 
L 26.912 140.778538 
L 26.912 140.778538 
L 27.254222 140.185791 
L 27.938667 140.185791 
L 27.938667 140.185791 
L 27.596444 139.593045 
L 27.938667 139.000299 
L 28.623111 139.000299 
L 28.965333 139.593045 
L 28.965333 139.593045 
L 29.307556 139.000299 
L 29.992 139.000299 
L 30.334222 139.593045 
L 29.992 140.185791 
L 29.992 140.185791 
L 30.676444 140.185791 
L 31.018667 140.778538 
L 30.676444 141.371284 
L 29.992 141.371284 
L 29.992 141.371284 
L 30.334222 141.96403 
L 29.992 142.556777 
L 29.992 142.556777 
L 30.676444 142.556777 
L 31.018667 143.149523 
L 31.018667 143.149523 
L 31.360889 142.556777 
L 32.045333 142.556777 
L 32.387556 143.149523 
L 32.045333 143.742269 
L 32.045333 143.742269 
L 32.729778 143.742269 
L 33.072 144.335015 
L 33.072 144.335015 
L 33.414222 143.742269 
L 34.098667 143.742269 
L 34.098667 143.742269 
L 33.756444 143.149523 
L 34.098667 142.556777 
L 34.783111 142.556777 
L 35.125333 143.149523 
L 35.125333 143.149523 
L 35.467556 142.556777 
L 36.152 142.556777 
L 36.152 142.556777 
L 35.809778 141.96403 
L 36.152 141.371284 
L 36.152 141.371284 
L 35.467556 141.371284 
L 35.125333 140.778538 
L 35.467556 140.185791 
L 36.152 140.185791 
L 36.152 140.185791 
L 35.809778 139.593045 
L 36.152 139.000299 
L 36.836444 139.000299 
L 37.178667 139.593045 
L 37.178667 139.593045 
L 37.520889 139.000299 
L 38.205333 139.000299 
L 38.547556 139.593045 
L 38.205333 140.185791 
L 38.205333 140.185791 
L 38.889778 140.185791 
L 39.232 140.778538 
L 39.232 140.778538 
L 39.574222 140.185791 
L 40.258667 140.185791 
L 40.258667 140.185791 
L 39.916444 139.593045 
L 40.258667 139.000299 
L 40.943111 139.000299 
L 41.285333 139.593045 
L 41.285333 139.593045 
L 41.627556 139.000299 
L 42.312 139.000299 
L 42.654222 139.593045 
L 42.312 140.185791 
L 42.312 140.185791 
L 42.996444 140.185791 
L 43.338667 140.778538 
L 42.996444 141.371284 
L 42.312 141.371284 
L 42.312 141.371284 
L 42.654222 141.96403 
L 42.312 142.556777 
L 42.312 142.556777 
L 42.996444 142.556777 
L 43.338667 143.149523 
L 43.338667 143.149523 
L 43.680889 142.556777 
L 44.365333 142.556777 
L 44.707556 143.149523 
L 44.365333 143.742269 
L 44.365333 143.742269 
L 45.049778 143.742269 
L 45.392 144.335015 
L 45.049778 144.927762 
L 44.365333 144.927762 
L 44.365333 144.927762 
L 44.707556 145.520508 
L 44.365333 146.113254 
L 43.680889 146.113254 
L 43.338667 145.520508 
L 43.338667 145.520508 
L 42.996444 146.113254 
L 42.312 146.113254 
L 42.312 146.113254 
L 42.654222 146.706001 
L 42.312 147.298747 
L 42.312 147.298747 
L 42.996444 147.298747 
L 43.338667 147.891493 
L 42.996444 148.484239 
L 42.312 148.484239 
L 42.312 148.484239 
L 42.654222 149.076986 
L 42.312 149.669732 
L 42.312 149.669732 
L 42.996444 149.669732 
L 43.338667 150.262478 
L 43.338667 150.262478 
L 43.680889 149.669732 
L 44.365333 149.669732 
L 44.707556 150.262478 
L 44.365333 150.855224 
L 44.365333 150.855224 
L 45.049778 150.855224 
L 45.392 151.447971 
L 45.392 151.447971 
L 45.734222 150.855224 
L 46.418667 150.855224 
L 46.418667 150.855224 
L 46.076444 150.262478 
L 46.418667 149.669732 
L 47.103111 149.669732 
L 47.445333 150.262478 
L 47.445333 150.262478 
L 47.787556 149.669732 
L 48.472 149.669732 
L 48.814222 150.262478 
L 48.472 150.855224 
L 48.472 150.855224 
L 49.156444 150.855224 
L 49.498667 151.447971 
L 49.156444 152.040717 
L 48.472 152.040717 
L 48.472 152.040717 
L 48.814222 152.633463 
L 48.472 153.22621 
L 48.472 153.22621 
L 49.156444 153.22621 
L 49.498667 153.818956 
L 49.498667 153.818956 
L 49.840889 153.22621 
L 50.525333 153.22621 
L 50.867556 153.818956 
L 50.525333 154.411702 
L 50.525333 154.411702 
L 51.209778 154.411702 
L 51.552 155.004448 
L 51.209778 155.597195 
L 50.525333 155.597195 
L 50.525333 155.597195 
L 50.867556 156.189941 
L 50.525333 156.782687 
L 49.840889 156.782687 
L 49.498667 156.189941 
L 49.498667 156.189941 
L 49.156444 156.782687 
L 48.472 156.782687 
L 48.472 156.782687 
L 48.814222 157.375433 
L 48.472 157.96818 
L 48.472 157.96818 
L 49.156444 157.96818 
L 49.498667 158.560926 
L 49.156444 159.153672 
L 48.472 159.153672 
L 48.472 159.153672 
L 48.814222 159.746419 
L 48.472 160.339165 
L 47.787556 160.339165 
L 47.445333 159.746419 
L 47.445333 159.746419 
L 47.103111 160.339165 
L 46.418667 160.339165 
L 46.076444 159.746419 
L 46.418667 159.153672 
L 46.418667 159.153672 
L 45.734222 159.153672 
L 45.392 158.560926 
L 45.392 158.560926 
L 45.049778 159.153672 
L 44.365333 159.153672 
L 44.365333 159.153672 
L 44.707556 159.746419 
L 44.365333 160.339165 
L 43.680889 160.339165 
L 43.338667 159.746419 
L 43.338667 159.746419 
L 42.996444 160.339165 
L 42.312 160.339165 
L 42.312 160.339165 
L 42.654222 160.931911 
L 42.312 161.524657 
L 42.312 161.524657 
L 42.996444 161.524657 
L 43.338667 162.117404 
L 42.996444 162.71015 
L 42.312 162.71015 
L 42.312 162.71015 
L 42.654222 163.302896 
L 42.312 163.895643 
L 42.312 163.895643 
L 42.996444 163.895643 
L 43.338667 164.488389 
L 43.338667 164.488389 
L 43.680889 163.895643 
L 44.365333 163.895643 
L 44.707556 164.488389 
L 44.365333 165.081135 
L 44.365333 165.081135 
L 45.049778 165.081135 
L 45.392 165.673881 
L 45.049778 166.266628 
L 44.365333 166.266628 
L 44.365333 166.266628 
L 44.707556 166.859374 
L 44.365333 167.45212 
L 43.680889 167.45212 
L 43.338667 166.859374 
L 43.338667 166.859374 
L 42.996444 167.45212 
L 42.312 167.45212 
L 42.312 167.45212 
L 42.654222 168.044866 
L 42.312 168.637613 
L 42.312 168.637613 
L 42.996444 168.637613 
L 43.338667 169.230359 
L 42.996444 169.823105 
L 42.312 169.823105 
L 42.312 169.823105 
L 42.654222 170.415852 
L 42.312 171.008598 
L 41.627556 171.008598 
L 41.285333 170.415852 
L 41.285333 170.415852 
L 40.943111 171.008598 
L 40.258667 171.008598 
L 39.916444 170.415852 
L 40.258667 169.823105 
L 40.258667 169.823105 
L 39.574222 169.823105 
L 39.232 169.230359 
L 39.232 169.230359 
L 38.889778 169.823105 
L 38.205333 169.823105 
L 38.205333 169.823105 
L 38.547556 170.415852 
L 38.205333 171.008598 
L 37.520889 171.008598 
L 37.178667 170.415852 
L 37.178667 170.415852 
L 36.836444 171.008598 
L 36.152 171.008598 
L 35.809778 170.415852 
L 36.152 169.823105 
L 36.152 169.823105 
L 35.467556 169.823105 
L 35.125333 169.230359 
L 35.467556 168.637613 
L 36.152 168.637613 
L 36.152 168.637613 
L 35.809778 168.044866 
L 36.152 167.45212 
L 36.152 167.45212 
L 35.467556 167.45212 
L 35.125333 166.859374 
L 35.125333 166.859374 
L 34.783111 167.45212 
L 34.098667 167.45212 
L 33.756444 166.859374 
L 34.098667 166.266628 
L 34.098667 166.266628 
L 33.414222 166.266628 
L 33.072 165.673881 
L 33.072 165.673881 
L 32.729778 166.266628 
L 32.045333 166.266628 
L 32.045333 166.266628 
L 32.387556 166.859374 
L 32.045333 167.45212 
L 31.360889 167.45212 
L 31.018667 166.859374 
L 31.018667 166.859374 
L 30.676444 167.45212 
L 29.992 167.45212 
L 29.992 167.45212 
L 30.334222 168.044866 
L 29.992 168.637613 
L 29.992 168.637613 
L 30.676444 168.637613 
L 31.018667 169.230359 
L 30.676444 169.823105 
L 29.992 169.823105 
L 29.992 169.823105 
L 30.334222 170.415852 
L 29.992 171.008598 
L 29.307556 171.008598 
L 28.965333 170.415852 
L 28.965333 170.415852 
L 28.623111 171.008598 
L 27.938667 171.008598 
L 27.596444 170.415852 
L 27.938667 169.823105 
L 27.938667 169.823105 
L 27.254222 169.823105 
L 26.912 169.230359 
L 26.912 169.230359 
L 26.569778 169.823105 
L 25.885333 169.823105 
L 25.885333 169.823105 
L 26.227556 170.415852 
L 25.885333 171.008598 
L 25.200889 171.008598 
L 24.858667 170.415852 
L 24.858667 170.415852 
L 24.516444 171.008598 
L 23.832 171.008598 
L 23.832 171.008598 
L 24.174222 171.601344 
L 23.832 172.19409 
L 23.832 172.19409 
L 24.516444 172.19409 
L 24.858667 172.786837 
L 24.516444 173.379583 
L 23.832 173.379583 
L 23.832 173.379583 
L 24.174222 173.972329 
L 23.832 174.565076 
L 24.516444 174.565076 
L 24.858667 175.157822 
L 24.858667 175.157822 
L 25.200889 174.565076 
L 25.885333 174.565076 
L 26.227556 175.157822 
L 25.885333 175.750568 
L 25.885333 175.750568 
L 26.569778 175.750568 
L 26.912 176.343314 
L 26.569778 176.936061 
L 25.885333 176.936061 
L 25.885333 176.936061 
L 26.227556 177.528807 
L 25.885333 178.121553 
L 25.200889 178.121553 
L 24.858667 177.528807 
L 24.858667 177.528807 
L 24.516444 178.121553 
L 23.832 178.121553 
L 23.832 178.121553 
L 24.174222 178.714299 
L 23.832 179.307046 
L 23.832 179.307046 
L 24.516444 179.307046 
L 24.858667 179.899792 
L 24.516444 180.492538 
L 23.832 180.492538 
L 23.832 180.492538 
L 24.174222 181.085285 
L 23.832 181.678031 
L 23.832 181.678031 
L 24.516444 181.678031 
L 24.858667 182.270777 
L 24.858667 182.270777 
L 25.200889 181.678031 
L 25.885333 181.678031 
L 26.227556 182.270777 
L 25.885333 182.863523 
L 25.885333 182.863523 
L 26.569778 182.863523 
L 26.912 183.45627 
L 26.912 183.45627 
L 27.254222 182.863523 
L 27.938667 182.863523 
L 27.938667 182.863523 
L 27.596444 182.270777 
L 27.938667 181.678031 
L 28.623111 181.678031 
L 28.965333 182.270777 
L 28.965333 182.270777 
L 29.307556 181.678031 
L 29.992 181.678031 
L 30.334222 182.270777 
L 29.992 182.863523 
L 29.992 182.863523 
L 30.676444 182.863523 
L 31.018667 183.45627 
L 30.676444 184.049016 
L 29.992 184.049016 
L 29.992 184.049016 
L 30.334222 184.641762 
L 29.992 185.234508 
L 29.992 185.234508 
L 30.676444 185.234508 
L 31.018667 185.827255 
L 31.018667 185.827255 
L 31.360889 185.234508 
L 32.045333 185.234508 
L 32.387556 185.827255 
L 32.045333 186.420001 
L 32.045333 186.420001 
L 32.729778 186.420001 
L 33.072 187.012747 
L 32.729778 187.605494 
L 32.045333 187.605494 
L 32.045333 187.605494 
L 32.387556 188.19824 
L 32.045333 188.790986 
L 31.360889 188.790986 
L 31.018667 188.19824 
L 31.018667 188.19824 
L 30.676444 188.790986 
L 29.992 188.790986 
L 29.992 188.790986 
L 30.334222 189.383732 
L 29.992 189.976479 
L 29.992 189.976479 
L 30.676444 189.976479 
L 31.018667 190.569225 
L 30.676444 191.161971 
L 29.992 191.161971 
L 29.992 191.161971 
L 30.334222 191.754718 
L 29.992 192.347464 
L 29.307556 192.347464 
L 28.965333 191.754718 
L 28.965333 191.754718 
L 28.623111 192.347464 
L 27.938667 192.347464 
L 27.596444 191.754718 
L 27.938667 191.161971 
L 27.938667 191.161971 
L 27.254222 191.161971 
L 26.912 190.569225 
L 26.912 190.569225 
L 26.569778 191.161971 
L 25.885333 191.161971 
L 25.885333 191.161971 
L 26.227556 191.754718 
L 25.885333 192.347464 
L 25.200889 192.347464 
L 24.858667 191.754718 
L 24.858667 191.754718 
L 24.516444 192.347464 
L 23.832 192.347464 
L 23.832 192.347464 
L 24.174222 192.94021 
L 23.832 193.532956 
L 23.832 193.532956 
L 24.516444 193.532956 
L 24.858667 194.125703 
L 24.516444 194.718449 
L 23.832 194.718449 
L 23.832 194.718449 
L 24.174222 195.311195 
L 23.832 195.903941 
L 24.516444 195.903941 
L 24.858667 196.496688 
L 24.858667 196.496688 
L 25.200889 195.903941 
L 25.885333 195.903941 
L 26.227556 196.496688 
L 25.885333 197.089434 
L 25.885333 197.089434 
L 26.569778 197.089434 
L 26.912 197.68218 
L 26.569778 198.274927 
L 25.885333 198.274927 
L 25.885333 198.274927 
L 26.227556 198.867673 
L 25.885333 199.460419 
L 25.200889 199.460419 
L 24.858667 198.867673 
L 24.858667 198.867673 
L 24.516444 199.460419 
L 23.832 199.460419 
L 23.832 199.460419 
L 24.174222 200.053165 
L 23.832 200.645912 
L 23.832 200.645912 
L 24.516444 200.645912 
L 24.858667 201.238658 
L 24.516444 201.831404 
L 23.832 201.831404 
L 23.832 201.831404 
L 24.174222 202.42415 
L 23.832 203.016897 
L 23.832 203.016897 
L 24.516444 203.016897 
L 24.858667 203.609643 
L 24.858667 203.609643 
L 25.200889 203.016897 
L 25.885333 203.016897 
L 26.227556 203.609643 
L 25.885333 204.202389 
L 25.885333 204.202389 
L 26.569778 204.202389 
L 26.912 204.795136 
L 26.912 204.795136 
L 27.254222 204.202389 
L 27.938667 204.202389 
L 27.938667 204.202389 
L 27.596444 203.609643 
L 27.938667 203.016897 
L 28.623111 203.016897 
L 28.965333 203.609643 
L 28.965333 203.609643 
L 29.307556 203.016897 
L 29.992 203.016897 
L 30.334222 203.609643 
L 29.992 204.202389 
L 29.992 204.202389 
L 30.676444 204.202389 
L 31.018667 204.795136 
L 30.676444 205.387882 
L 29.992 205.387882 
L 29.992 205.387882 
L 30.334222 205.980628 
L 29.992 206.573374 
L 29.992 206.573374 
L 30.676444 206.573374 
L 31.018667 207.166121 
L 31.018667 207.166121 
L 31.360889 206.573374 
L 32.045333 206.573374 
L 32.387556 207.166121 
L 32.045333 207.758867 
L 32.045333 207.758867 
L 32.729778 207.758867 
L 33.072 208.351613 
L 33.072 208.351613 
L 33.414222 207.758867 
L 34.098667 207.758867 
L 34.098667 207.758867 
L 33.756444 207.166121 
L 34.098667 206.573374 
L 34.783111 206.573374 
L 35.125333 207.166121 
L 35.125333 207.166121 
L 35.467556 206.573374 
L 36.152 206.573374 
L 36.152 206.573374 
L 35.809778 205.980628 
L 36.152 205.387882 
L 36.152 205.387882 
L 35.467556 205.387882 
L 35.125333 204.795136 
L 35.467556 204.202389 
L 36.152 204.202389 
L 36.152 204.202389 
L 35.809778 203.609643 
L 36.152 203.016897 
L 36.836444 203.016897 
L 37.178667 203.609643 
L 37.178667 203.609643 
L 37.520889 203.016897 
L 38.205333 203.016897 
L 38.547556 203.609643 
L 38.205333 204.202389 
L 38.205333 204.202389 
L 38.889778 204.202389 
L 39.232 204.795136 
L 39.232 204.795136 
L 39.574222 204.202389 
L 40.258667 204.202389 
L 40.258667 204.202389 
L 39.916444 203.609643 
L 40.258667 203.016897 
L 40.943111 203.016897 
L 41.285333 203.609643 
L 41.285333 203.609643 
L 41.627556 203.016897 
L 42.312 203.016897 
L 42.654222 203.609643 
L 42.312 204.202389 
L 42.312 204.202389 
L 42.996444 204.202389 
L 43.338667 204.795136 
L 42.996444 205.387882 
L 42.312 205.387882 
L 42.312 205.387882 
L 42.654222 205.980628 
L 42.312 206.573374 
L 42.312 206.573374 
L 42.996444 206.573374 
L 43.338667 207.166121 
L 43.338667 207.166121 
L 43.680889 206.573374 
L 44.365333 206.573374 
L 44.707556 207.166121 
L 44.365333 207.758867 
L 44.365333 207.758867 
L 45.049778 207.758867 
L 45.392 208.351613 
L 45.049778 208.94436 
L 44.365333 208.94436 
L 44.365333 208.94436 
L 44.707556 209.537106 
L 44.365333 210.129852 
L 43.680889 210.129852 
L 43.338667 209.537106 
L 43.338667 209.537106 
L 42.996444 210.129852 
L 42.312 210.129852 
L 42.312 210.129852 
L 42.654222 210.722598 
L 42.312 211.315345 
L 42.312 211.315345 
L 42.996444 211.315345 
L 43.338667 211.908091 
L 42.996444 212.500837 
L 42.312 212.500837 
L 42.312 212.500837 
L 42.654222 213.093583 
L 42.312 213.68633 
L 42.312 213.68633 
L 42.996444 213.68633 
L 43.338667 214.279076 
L 43.338667 214.279076 
L 43.680889 213.68633 
L 44.365333 213.68633 
L 44.707556 214.279076 
L 44.365333 214.871822 
L 44.365333 214.871822 
L 45.049778 214.871822 
L 45.392 215.464569 
L 45.392 215.464569 
L 45.734222 214.871822 
L 46.418667 214.871822 
L 46.418667 214.871822 
L 46.076444 214.279076 
L 46.418667 213.68633 
L 47.103111 213.68633 
L 47.445333 214.279076 
L 47.445333 214.279076 
L 47.787556 213.68633 
L 48.472 213.68633 
L 48.814222 214.279076 
L 48.472 214.871822 
L 48.472 214.871822 
L 49.156444 214.871822 
L 49.498667 215.464569 
L 49.156444 216.057315 
L 48.472 216.057315 
L 48.472 216.057315 
L 48.814222 216.650061 
L 48.472 217.242807 
L 48.472 217.242807 
L 49.156444 217.242807 
L 49.498667 217.835554 
L 49.498667 217.835554 
L 49.840889 217.242807 
L 50.525333 217.242807 
L 50.867556 217.835554 
L 50.525333 218.4283 
L 50.525333 218.4283 
L 51.209778 218.4283 
L 51.552 219.021046 
L 51.552 219.021046 
L 51.894222 218.4283 
L 52.578667 218.4283 
L 52.578667 218.4283 
L 52.236444 217.835554 
L 52.578667 217.242807 
L 53.263111 217.242807 
L 53.605333 217.835554 
L 53.605333 217.835554 
L 53.947556 217.242807 
L 54.632 217.242807 
L 54.632 217.242807 
L 54.289778 216.650061 
L 54.632 216.057315 
L 54.632 216.057315 
L 53.947556 216.057315 
L 53.605333 215.464569 
L 53.947556 214.871822 
L 54.632 214.871822 
L 54.632 214.871822 
L 54.289778 214.279076 
L 54.632 213.68633 
L 55.316444 213.68633 
L 55.658667 214.279076 
L 55.658667 214.279076 
L 56.000889 213.68633 
L 56.685333 213.68633 
L 57.027556 214.279076 
L 56.685333 214.871822 
L 56.685333 214.871822 
L 57.369778 214.871822 
L 57.712 215.464569 
L 57.712 215.464569 
L 58.054222 214.871822 
L 58.738667 214.871822 
L 58.738667 214.871822 
L 58.396444 214.279076 
L 58.738667 213.68633 
L 59.423111 213.68633 
L 59.765333 214.279076 
L 59.765333 214.279076 
L 60.107556 213.68633 
L 60.792 213.68633 
L 60.792 213.68633 
L 60.449778 213.093583 
L 60.792 212.500837 
L 60.792 212.500837 
L 60.107556 212.500837 
L 59.765333 211.908091 
L 60.107556 211.315345 
L 60.792 211.315345 
L 60.792 211.315345 
L 60.449778 210.722598 
L 60.792 210.129852 
L 60.792 210.129852 
L 60.107556 210.129852 
L 59.765333 209.537106 
L 59.765333 209.537106 
L 59.423111 210.129852 
L 58.738667 210.129852 
L 58.396444 209.537106 
L 58.738667 208.94436 
L 58.738667 208.94436 
L 58.054222 208.94436 
L 57.712 208.351613 
L 58.054222 207.758867 
L 58.738667 207.758867 
L 58.738667 207.758867 
L 58.396444 207.166121 
L 58.738667 206.573374 
L 59.423111 206.573374 
L 59.765333 207.166121 
L 59.765333 207.166121 
L 60.107556 206.573374 
L 60.792 206.573374 
L 60.792 206.573374 
L 60.449778 205.980628 
L 60.792 205.387882 
L 60.792 205.387882 
L 60.107556 205.387882 
L 59.765333 204.795136 
L 60.107556 204.202389 
L 60.792 204.202389 
L 60.792 204.202389 
L 60.449778 203.609643 
L 60.792 203.016897 
L 61.476444 203.016897 
L 61.818667 203.609643 
L 61.818667 203.609643 
L 62.160889 203.016897 
L 62.845333 203.016897 
L 63.187556 203.609643 
L 62.845333 204.202389 
L 62.845333 204.202389 
L 63.529778 204.202389 
L 63.872 204.795136 
L 63.872 204.795136 
L 64.214222 204.202389 
L 64.898667 204.202389 
L 64.898667 204.202389 
L 64.556444 203.609643 
L 64.898667 203.016897 
L 65.583111 203.016897 
L 65.925333 203.609643 
L 65.925333 203.609643 
L 66.267556 203.016897 
L 66.952 203.016897 
L 67.294222 203.609643 
L 66.952 204.202389 
L 66.952 204.202389 
L 67.636444 204.202389 
L 67.978667 204.795136 
L 67.636444 205.387882 
L 66.952 205.387882 
L 66.952 205.387882 
L 67.294222 205.980628 
L 66.952 206.573374 
L 66.952 206.573374 
L 67.636444 206.573374 
L 67.978667 207.166121 
L 67.978667 207.166121 
L 68.320889 206.573374 
L 69.005333 206.573374 
L 69.347556 207.166121 
L 69.005333 207.758867 
L 69.005333 207.758867 
L 69.689778 207.758867 
L 70.032 208.351613 
L 70.032 208.351613 
L 70.374222 207.758867 
L 71.058667 207.758867 
L 71.058667 207.758867 
L 70.716444 207.166121 
L 71.058667 206.573374 
L 71.743111 206.573374 
L 72.085333 207.166121 
L 72.085333 207.166121 
L 72.427556 206.573374 
L 73.112 206.573374 
L 73.112 206.573374 
L 72.769778 205.980628 
L 73.112 205.387882 
L 73.112 205.387882 
L 72.427556 205.387882 
L 72.085333 204.795136 
L 72.427556 204.202389 
L 73.112 204.202389 
L 73.112 204.202389 
L 72.769778 203.609643 
L 73.112 203.016897 
L 73.796444 203.016897 
L 74.138667 203.609643 
L 74.138667 203.609643 
L 74.480889 203.016897 
L 75.165333 203.016897 
L 75.507556 203.609643 
L 75.165333 204.202389 
L 75.165333 204.202389 
L 75.849778 204.202389 
L 76.192 204.795136 
L 76.192 204.795136 
L 76.534222 204.202389 
L 77.218667 204.202389 
L 77.218667 204.202389 
L 76.876444 203.609643 
L 77.218667 203.016897 
L 77.903111 203.016897 
L 78.245333 203.609643 
L 78.245333 203.609643 
L 78.587556 203.016897 
L 79.272 203.016897 
L 79.614222 203.609643 
L 79.272 204.202389 
L 79.272 204.202389 
L 79.956444 204.202389 
L 80.298667 204.795136 
L 79.956444 205.387882 
L 79.272 205.387882 
L 79.272 205.387882 
L 79.614222 205.980628 
L 79.272 206.573374 
L 79.272 206.573374 
L 79.956444 206.573374 
L 80.298667 207.166121 
L 80.298667 207.166121 
L 80.640889 206.573374 
L 81.325333 206.573374 
L 81.667556 207.166121 
L 81.325333 207.758867 
L 81.325333 207.758867 
L 82.009778 207.758867 
L 82.352 208.351613 
L 82.009778 208.94436 
L 81.325333 208.94436 
L 81.325333 208.94436 
L 81.667556 209.537106 
L 81.325333 210.129852 
L 80.640889 210.129852 
L 80.298667 209.537106 
L 80.298667 209.537106 
L 79.956444 210.129852 
L 79.272 210.129852 
L 79.272 210.129852 
L 79.614222 210.722598 
L 79.272 211.315345 
L 79.272 211.315345 
L 79.956444 211.315345 
L 80.298667 211.908091 
L 79.956444 212.500837 
L 79.272 212.500837 
L 79.272 212.500837 
L 79.614222 213.093583 
L 79.272 213.68633 
L 79.272 213.68633 
L 79.956444 213.68633 
L 80.298667 214.279076 
L 80.298667 214.279076 
L 80.640889 213.68633 
L 81.325333 213.68633 
L 81.667556 214.279076 
L 81.325333 214.871822 
L 81.325333 214.871822 
L 82.009778 214.871822 
L 82.352 215.464569 
L 82.352 215.464569 
L 82.694222 214.871822 
L 83.378667 214.871822 
L 83.378667 214.871822 
L 83.036444 214.279076 
L 83.378667 213.68633 
L 84.063111 213.68633 
L 84.405333 214.279076 
L 84.405333 214.279076 
L 84.747556 213.68633 
L 85.432 213.68633 
L 85.774222 214.279076 
L 85.432 214.871822 
L 85.432 214.871822 
L 86.116444 214.871822 
L 86.458667 215.464569 
L 86.116444 216.057315 
L 85.432 216.057315 
L 85.432 216.057315 
L 85.774222 216.650061 
L 85.432 217.242807 
L 85.432 217.242807 
L 86.116444 217.242807 
L 86.458667 217.835554 
L 86.458667 217.835554 
L 86.800889 217.242807 
L 87.485333 217.242807 
L 87.827556 217.835554 
L 87.485333 218.4283 
L 87.485333 218.4283 
L 88.169778 218.4283 
L 88.512 219.021046 
L 88.169778 219.613793 
L 87.485333 219.613793 
L 87.485333 219.613793 
L 87.827556 220.206539 
L 87.485333 220.799285 
L 86.800889 220.799285 
L 86.458667 220.206539 
L 86.458667 220.206539 
L 86.116444 220.799285 
L 85.432 220.799285 
L 85.432 220.799285 
L 85.774222 221.392031 
L 85.432 221.984778 
L 85.432 221.984778 
L 86.116444 221.984778 
L 86.458667 222.577524 
L 86.116444 223.17027 
L 85.432 223.17027 
L 85.432 223.17027 
L 85.774222 223.763016 
L 85.432 224.355763 
L 84.747556 224.355763 
L 84.405333 223.763016 
L 84.405333 223.763016 
L 84.063111 224.355763 
L 83.378667 224.355763 
L 83.036444 223.763016 
L 83.378667 223.17027 
L 83.378667 223.17027 
L 82.694222 223.17027 
L 82.352 222.577524 
L 82.352 222.577524 
L 82.009778 223.17027 
L 81.325333 223.17027 
L 81.325333 223.17027 
L 81.667556 223.763016 
L 81.325333 224.355763 
L 80.640889 224.355763 
L 80.298667 223.763016 
L 80.298667 223.763016 
L 79.956444 224.355763 
L 79.272 224.355763 
L 79.272 224.355763 
L 79.614222 224.948509 
L 79.272 225.541255 
L 79.272 225.541255 
L 79.956444 225.541255 
L 80.298667 226.134002 
L 79.956444 226.726748 
L 79.272 226.726748 
L 79.272 226.726748 
L 79.614222 227.319494 
L 79.272 227.91224 
L 79.272 227.91224 
L 79.956444 227.91224 
L 80.298667 228.504987 
L 80.298667 228.504987 
L 80.640889 227.91224 
L 81.325333 227.91224 
L 81.667556 228.504987 
L 81.325333 229.097733 
L 81.325333 229.097733 
L 82.009778 229.097733 
L 82.352 229.690479 
L 82.009778 230.283225 
L 81.325333 230.283225 
L 81.325333 230.283225 
L 81.667556 230.875972 
L 81.325333 231.468718 
L 80.640889 231.468718 
L 80.298667 230.875972 
L 80.298667 230.875972 
L 79.956444 231.468718 
L 79.272 231.468718 
L 79.272 231.468718 
L 79.614222 232.061464 
L 79.272 232.654211 
L 79.272 232.654211 
L 79.956444 232.654211 
L 80.298667 233.246957 
L 79.956444 233.839703 
L 79.272 233.839703 
L 79.272 233.839703 
L 79.614222 234.432449 
L 79.272 235.025196 
L 79.272 235.025196 
L 79.956444 235.025196 
L 80.298667 235.617942 
L 80.298667 235.617942 
L 80.640889 235.025196 
L 81.325333 235.025196 
L 81.667556 235.617942 
L 81.325333 236.210688 
L 81.325333 236.210688 
L 82.009778 236.210688 
L 82.352 236.803435 
L 82.352 236.803435 
L 82.694222 236.210688 
L 83.378667 236.210688 
L 83.378667 236.210688 
L 83.036444 235.617942 
L 83.378667 235.025196 
L 84.063111 235.025196 
L 84.405333 235.617942 
L 84.405333 235.617942 
L 84.747556 235.025196 
L 85.432 235.025196 
L 85.774222 235.617942 
L 85.432 236.210688 
L 85.432 236.210688 
L 86.116444 236.210688 
L 86.458667 236.803435 
L 86.116444 237.396181 
L 85.432 237.396181 
L 85.432 237.396181 
L 85.774222 237.988927 
L 85.432 238.581673 
L 85.432 238.581673 
L 86.116444 238.581673 
L 86.458667 239.17442 
L 86.458667 239.17442 
L 86.800889 238.581673 
L 87.485333 238.581673 
L 87.827556 239.17442 
L 87.485333 239.767166 
L 87.485333 239.767166 
L 88.169778 239.767166 
L 88.512 240.359912 
L 88.512 240.359912 
L 88.854222 239.767166 
L 89.538667 239.767166 
L 89.538667 239.767166 
L 89.196444 239.17442 
L 89.538667 238.581673 
L 90.223111 238.581673 
L 90.565333 239.17442 
L 90.565333 239.17442 
L 90.907556 238.581673 
L 91.592 238.581673 
L 91.592 238.581673 
L 91.249778 237.988927 
L 91.592 237.396181 
L 91.592 237.396181 
L 90.907556 237.396181 
L 90.565333 236.803435 
L 90.907556 236.210688 
L 91.592 236.210688 
L 91.592 236.210688 
L 91.249778 235.617942 
L 91.592 235.025196 
L 92.276444 235.025196 
L 92.618667 235.617942 
L 92.618667 235.617942 
L 92.960889 235.025196 
L 93.645333 235.025196 
L 93.987556 235.617942 
L 93.645333 236.210688 
L 93.645333 236.210688 
L 94.329778 236.210688 
L 94.672 236.803435 
L 94.672 236.803435 
L 95.014222 236.210688 
L 95.698667 236.210688 
L 95.698667 236.210688 
L 95.356444 235.617942 
L 95.698667 235.025196 
L 96.383111 235.025196 
L 96.725333 235.617942 
L 96.725333 235.617942 
L 97.067556 235.025196 
L 97.752 235.025196 
L 98.094222 235.617942 
L 97.752 236.210688 
L 97.752 236.210688 
L 98.436444 236.210688 
L 98.778667 236.803435 
L 98.436444 237.396181 
L 97.752 237.396181 
L 97.752 237.396181 
L 98.094222 237.988927 
L 97.752 238.581673 
L 97.752 238.581673 
L 98.436444 238.581673 
L 98.778667 239.17442 
L 98.778667 239.17442 
L 99.120889 238.581673 
L 99.805333 238.581673 
L 100.147556 239.17442 
L 99.805333 239.767166 
L 99.805333 239.767166 
L 100.489778 239.767166 
L 100.832 240.359912 
L 100.489778 240.952658 
L 99.805333 240.952658 
L 99.805333 240.952658 
L 100.147556 241.545405 
L 99.805333 242.138151 
L 99.120889 242.138151 
L 98.778667 241.545405 
L 98.778667 241.545405 
L 98.436444 242.138151 
L 97.752 242.138151 
L 97.752 242.138151 
L 98.094222 242.730897 
L 97.752 243.323644 
L 97.752 243.323644 
L 98.436444 243.323644 
L 98.778667 243.91639 
L 98.436444 244.509136 
L 97.752 244.509136 
L 97.752 244.509136 
L 98.094222 245.101882 
L 97.752 245.694629 
L 97.752 245.694629 
L 98.436444 245.694629 
L 98.778667 246.287375 
L 98.778667 246.287375 
L 99.120889 245.694629 
L 99.805333 245.694629 
L 100.147556 246.287375 
L 99.805333 246.880121 
L 99.805333 246.880121 
L 100.489778 246.880121 
L 100.832 247.472867 
L 100.832 247.472867 
L 101.174222 246.880121 
L 101.858667 246.880121 
L 101.858667 246.880121 
L 101.516444 246.287375 
L 101.858667 245.694629 
L 102.543111 245.694629 
L 102.885333 246.287375 
L 102.885333 246.287375 
L 103.227556 245.694629 
L 103.912 245.694629 
L 104.254222 246.287375 
L 103.912 246.880121 
L 103.912 246.880121 
L 104.596444 246.880121 
L 104.938667 247.472867 
L 104.596444 248.065614 
L 103.912 248.065614 
L 103.912 248.065614 
L 104.254222 248.65836 
L 103.912 249.251106 
L 103.912 249.251106 
L 104.596444 249.251106 
L 104.938667 249.843853 
L 104.938667 249.843853 
L 105.280889 249.251106 
L 105.965333 249.251106 
L 106.307556 249.843853 
L 105.965333 250.436599 
L 105.965333 250.436599 
L 106.649778 250.436599 
L 106.992 251.029345 
L 106.992 251.029345 
" clip-path="url(#p4d607780f1)" style="fill: none; stroke: #808080; stroke-linecap: square"/>
   </g>
   <g id="line2d_3">
    <path d="M 190.152 106.992 
L 189.809778 107.584746 
L 190.152 108.177493 
L 190.152 108.177493 
L 189.467556 108.177493 
L 189.125333 108.770239 
L 189.467556 109.362985 
L 190.152 109.362985 
L 190.152 109.362985 
L 189.809778 109.955731 
L 190.152 110.548478 
L 190.152 110.548478 
L 189.467556 110.548478 
L 189.125333 111.141224 
L 189.125333 111.141224 
L 188.783111 110.548478 
L 188.098667 110.548478 
L 187.756444 111.141224 
L 188.098667 111.73397 
L 188.098667 111.73397 
L 187.414222 111.73397 
L 187.072 112.326716 
L 187.414222 112.919463 
L 188.098667 112.919463 
L 188.098667 112.919463 
L 187.756444 113.512209 
L 188.098667 114.104955 
L 188.783111 114.104955 
L 189.125333 113.512209 
L 189.125333 113.512209 
L 189.467556 114.104955 
L 190.152 114.104955 
L 190.152 114.104955 
L 189.809778 114.697702 
L 190.152 115.290448 
L 190.152 115.290448 
L 189.467556 115.290448 
L 189.125333 115.883194 
L 189.467556 116.47594 
L 190.152 116.47594 
L 190.152 116.47594 
L 189.809778 117.068687 
L 190.152 117.661433 
L 190.152 117.661433 
L 189.467556 117.661433 
L 189.125333 118.254179 
L 189.125333 118.254179 
L 188.783111 117.661433 
L 188.098667 117.661433 
L 187.756444 118.254179 
L 188.098667 118.846926 
L 188.098667 118.846926 
L 187.414222 118.846926 
L 187.072 119.439672 
L 187.072 119.439672 
L 186.729778 118.846926 
L 186.045333 118.846926 
L 186.045333 118.846926 
L 186.387556 118.254179 
L 186.045333 117.661433 
L 185.360889 117.661433 
L 185.018667 118.254179 
L 185.018667 118.254179 
L 184.676444 117.661433 
L 183.992 117.661433 
L 183.649778 118.254179 
L 183.992 118.846926 
L 183.992 118.846926 
L 183.307556 118.846926 
L 182.965333 119.439672 
L 183.307556 120.032418 
L 183.992 120.032418 
L 183.992 120.032418 
L 183.649778 120.625164 
L 183.992 121.217911 
L 183.992 121.217911 
L 183.307556 121.217911 
L 182.965333 121.810657 
L 182.965333 121.810657 
L 182.623111 121.217911 
L 181.938667 121.217911 
L 181.596444 121.810657 
L 181.938667 122.403403 
L 181.938667 122.403403 
L 181.254222 122.403403 
L 180.912 122.996149 
L 181.254222 123.588896 
L 181.938667 123.588896 
L 181.938667 123.588896 
L 181.596444 124.181642 
L 181.938667 124.774388 
L 182.623111 124.774388 
L 182.965333 124.181642 
L 182.965333 124.181642 
L 183.307556 124.774388 
L 183.992 124.774388 
L 183.992 124.774388 
L 183.649778 125.367135 
L 183.992 125.959881 
L 183.992 125.959881 
L 183.307556 125.959881 
L 182.965333 126.552627 
L 183.307556 127.145373 
L 183.992 127.145373 
L 183.992 127.145373 
L 183.649778 127.73812 
L 183.992 128.330866 
L 184.676444 128.330866 
L 185.018667 127.73812 
L 185.018667 127.73812 
L 185.360889 128.330866 
L 186.045333 128.330866 
L 186.387556 127.73812 
L 186.045333 127.145373 
L 186.045333 127.145373 
L 186.729778 127.145373 
L 187.072 126.552627 
L 187.072 126.552627 
L 187.414222 127.145373 
L 188.098667 127.145373 
L 188.098667 127.145373 
L 187.756444 127.73812 
L 188.098667 128.330866 
L 188.783111 128.330866 
L 189.125333 127.73812 
L 189.125333 127.73812 
L 189.467556 128.330866 
L 190.152 128.330866 
L 190.152 128.330866 
L 189.809778 128.923612 
L 190.152 129.516359 
L 190.152 129.516359 
L 189.467556 129.516359 
L 189.125333 130.109105 
L 189.467556 130.701851 
L 190.152 130.701851 
L 190.152 130.701851 
L 189.809778 131.294597 
L 190.152 131.887344 
L 190.152 131.887344 
L 189.467556 131.887344 
L 189.125333 132.48009 
L 189.125333 132.48009 
L 188.783111 131.887344 
L 188.098667 131.887344 
L 187.756444 132.48009 
L 188.098667 133.072836 
L 188.098667 133.072836 
L 187.414222 133.072836 
L 187.072 133.665582 
L 187.414222 134.258329 
L 188.098667 134.258329 
L 188.098667 134.258329 
L 187.756444 134.851075 
L 188.098667 135.443821 
L 188.783111 135.443821 
L 189.125333 134.851075 
L 189.125333 134.851075 
L 189.467556 135.443821 
L 190.152 135.443821 
L 190.152 135.443821 
L 189.809778 136.036568 
L 190.152 136.629314 
L 190.152 136.629314 
L 189.467556 136.629314 
L 189.125333 137.22206 
L 189.467556 137.814806 
L 190.152 137.814806 
L 190.152 137.814806 
L 189.809778 138.407553 
L 190.152 139.000299 
L 190.152 139.000299 
L 189.467556 139.000299 
L 189.125333 139.593045 
L 189.125333 139.593045 
L 188.783111 139.000299 
L 188.098667 139.000299 
L 187.756444 139.593045 
L 188.098667 140.185791 
L 188.098667 140.185791 
L 187.414222 140.185791 
L 187.072 140.778538 
L 187.072 140.778538 
L 186.729778 140.185791 
L 186.045333 140.185791 
L 186.045333 140.185791 
L 186.387556 139.593045 
L 186.045333 139.000299 
L 185.360889 139.000299 
L 185.018667 139.593045 
L 185.018667 139.593045 
L 184.676444 139.000299 
L 183.992 139.000299 
L 183.649778 139.593045 
L 183.992 140.185791 
L 183.992 140.185791 
L 183.307556 140.185791 
L 182.965333 140.778538 
L 183.307556 141.371284 
L 183.992 141.371284 
L 183.992 141.371284 
L 183.649778 141.96403 
L 183.992 142.556777 
L 183.992 142.556777 
L 183.307556 142.556777 
L 182.965333 143.149523 
L 182.965333 143.149523 
L 182.623111 142.556777 
L 181.938667 142.556777 
L 181.596444 143.149523 
L 181.938667 143.742269 
L 181.938667 143.742269 
L 181.254222 143.742269 
L 180.912 144.335015 
L 180.912 144.335015 
L 180.569778 143.742269 
L 179.885333 143.742269 
L 179.885333 143.742269 
L 180.227556 143.149523 
L 179.885333 142.556777 
L 179.200889 142.556777 
L 178.858667 143.149523 
L 178.858667 143.149523 
L 178.516444 142.556777 
L 177.832 142.556777 
L 177.832 142.556777 
L 178.174222 141.96403 
L 177.832 141.371284 
L 177.832 141.371284 
L 178.516444 141.371284 
L 178.858667 140.778538 
L 178.516444 140.185791 
L 177.832 140.185791 
L 177.832 140.185791 
L 178.174222 139.593045 
L 177.832 139.000299 
L 177.147556 139.000299 
L 176.805333 139.593045 
L 176.805333 139.593045 
L 176.463111 139.000299 
L 175.778667 139.000299 
L 175.436444 139.593045 
L 175.778667 140.185791 
L 175.778667 140.185791 
L 175.094222 140.185791 
L 174.752 140.778538 
L 174.752 140.778538 
L 174.409778 140.185791 
L 173.725333 140.185791 
L 173.725333 140.185791 
L 174.067556 139.593045 
L 173.725333 139.000299 
L 173.040889 139.000299 
L 172.698667 139.593045 
L 172.698667 139.593045 
L 172.356444 139.000299 
L 171.672 139.000299 
L 171.329778 139.593045 
L 171.672 140.185791 
L 171.672 140.185791 
L 170.987556 140.185791 
L 170.645333 140.778538 
L 170.987556 141.371284 
L 171.672 141.371284 
L 171.672 141.371284 
L 171.329778 141.96403 
L 171.672 142.556777 
L 171.672 142.556777 
L 170.987556 142.556777 
L 170.645333 143.149523 
L 170.645333 143.149523 
L 170.303111 142.556777 
L 169.618667 142.556777 
L 169.276444 143.149523 
L 169.618667 143.742269 
L 169.618667 143.742269 
L 168.934222 143.742269 
L 168.592 144.335015 
L 168.934222 144.927762 
L 169.618667 144.927762 
L 169.618667 144.927762 
L 169.276444 145.520508 
L 169.618667 146.113254 
L 170.303111 146.113254 
L 170.645333 145.520508 
L 170.645333 145.520508 
L 170.987556 146.113254 
L 171.672 146.113254 
L 171.672 146.113254 
L 171.329778 146.706001 
L 171.672 147.298747 
L 171.672 147.298747 
L 170.987556 147.298747 
L 170.645333 147.891493 
L 170.987556 148.484239 
L 171.672 148.484239 
L 171.672 148.484239 
L 171.329778 149.076986 
L 171.672 149.669732 
L 171.672 149.669732 
L 170.987556 149.669732 
L 170.645333 150.262478 
L 170.645333 150.262478 
L 170.303111 149.669732 
L 169.618667 149.669732 
L 169.276444 150.262478 
L 169.618667 150.855224 
L 169.618667 150.855224 
L 168.934222 150.855224 
L 168.592 151.447971 
L 168.592 151.447971 
L 168.249778 150.855224 
L 167.565333 150.855224 
L 167.565333 150.855224 
L 167.907556 150.262478 
L 167.565333 149.669732 
L 166.880889 149.669732 
L 166.538667 150.262478 
L 166.538667 150.262478 
L 166.196444 149.669732 
L 165.512 149.669732 
L 165.169778 150.262478 
L 165.512 150.855224 
L 165.512 150.855224 
L 164.827556 150.855224 
L 164.485333 151.447971 
L 164.827556 152.040717 
L 165.512 152.040717 
L 165.512 152.040717 
L 165.169778 152.633463 
L 165.512 153.22621 
L 165.512 153.22621 
L 164.827556 153.22621 
L 164.485333 153.818956 
L 164.485333 153.818956 
L 164.143111 153.22621 
L 163.458667 153.22621 
L 163.116444 153.818956 
L 163.458667 154.411702 
L 163.458667 154.411702 
L 162.774222 154.411702 
L 162.432 155.004448 
L 162.774222 155.597195 
L 163.458667 155.597195 
L 163.458667 155.597195 
L 163.116444 156.189941 
L 163.458667 156.782687 
L 164.143111 156.782687 
L 164.485333 156.189941 
L 164.485333 156.189941 
L 164.827556 156.782687 
L 165.512 156.782687 
L 165.512 156.782687 
L 165.169778 157.375433 
L 165.512 157.96818 
L 165.512 157.96818 
L 164.827556 157.96818 
L 164.485333 158.560926 
L 164.827556 159.153672 
L 165.512 159.153672 
L 165.512 159.153672 
L 165.169778 159.746419 
L 165.512 160.339165 
L 166.196444 160.339165 
L 166.538667 159.746419 
L 166.538667 159.746419 
L 166.880889 160.339165 
L 167.565333 160.339165 
L 167.907556 159.746419 
L 167.565333 159.153672 
L 167.565333 159.153672 
L 168.249778 159.153672 
L 168.592 158.560926 
L 168.592 158.560926 
L 168.934222 159.153672 
L 169.618667 159.153672 
L 169.618667 159.153672 
L 169.276444 159.746419 
L 169.618667 160.339165 
L 170.303111 160.339165 
L 170.645333 159.746419 
L 170.645333 159.746419 
L 170.987556 160.339165 
L 171.672 160.339165 
L 171.672 160.339165 
L 171.329778 160.931911 
L 171.672 161.524657 
L 171.672 161.524657 
L 170.987556 161.524657 
L 170.645333 162.117404 
L 170.987556 162.71015 
L 171.672 162.71015 
L 171.672 162.71015 
L 171.329778 163.302896 
L 171.672 163.895643 
L 171.672 163.895643 
L 170.987556 163.895643 
L 170.645333 164.488389 
L 170.645333 164.488389 
L 170.303111 163.895643 
L 169.618667 163.895643 
L 169.276444 164.488389 
L 169.618667 165.081135 
L 169.618667 165.081135 
L 168.934222 165.081135 
L 168.592 165.673881 
L 168.934222 166.266628 
L 169.618667 166.266628 
L 169.618667 166.266628 
L 169.276444 166.859374 
L 169.618667 167.45212 
L 170.303111 167.45212 
L 170.645333 166.859374 
L 170.645333 166.859374 
L 170.987556 167.45212 
L 171.672 167.45212 
L 171.672 167.45212 
L 171.329778 168.044866 
L 171.672 168.637613 
L 171.672 168.637613 
L 170.987556 168.637613 
L 170.645333 169.230359 
L 170.987556 169.823105 
L 171.672 169.823105 
L 171.672 169.823105 
L 171.329778 170.415852 
L 171.672 171.008598 
L 172.356444 171.008598 
L 172.698667 170.415852 
L 172.698667 170.415852 
L 173.040889 171.008598 
L 173.725333 171.008598 
L 174.067556 170.415852 
L 173.725333 169.823105 
L 173.725333 169.823105 
L 174.409778 169.823105 
L 174.752 169.230359 
L 174.752 169.230359 
L 175.094222 169.823105 
L 175.778667 169.823105 
L 175.778667 169.823105 
L 175.436444 170.415852 
L 175.778667 171.008598 
L 176.463111 171.008598 
L 176.805333 170.415852 
L 176.805333 170.415852 
L 177.147556 171.008598 
L 177.832 171.008598 
L 178.174222 170.415852 
L 177.832 169.823105 
L 177.832 169.823105 
L 178.516444 169.823105 
L 178.858667 169.230359 
L 178.516444 168.637613 
L 177.832 168.637613 
L 177.832 168.637613 
L 178.174222 168.044866 
L 177.832 167.45212 
L 177.832 167.45212 
L 178.516444 167.45212 
L 178.858667 166.859374 
L 178.858667 166.859374 
L 179.200889 167.45212 
L 179.885333 167.45212 
L 180.227556 166.859374 
L 179.885333 166.266628 
L 179.885333 166.266628 
L 180.569778 166.266628 
L 180.912 165.673881 
L 180.912 165.673881 
L 181.254222 166.266628 
L 181.938667 166.266628 
L 181.938667 166.266628 
L 181.596444 166.859374 
L 181.938667 167.45212 
L 182.623111 167.45212 
L 182.965333 166.859374 
L 182.965333 166.859374 
L 183.307556 167.45212 
L 183.992 167.45212 
L 183.992 167.45212 
L 183.649778 168.044866 
L 183.992 168.637613 
L 183.992 168.637613 
L 183.307556 168.637613 
L 182.965333 169.230359 
L 183.307556 169.823105 
L 183.992 169.823105 
L 183.992 169.823105 
L 183.649778 170.415852 
L 183.992 171.008598 
L 184.676444 171.008598 
L 185.018667 170.415852 
L 185.018667 170.415852 
L 185.360889 171.008598 
L 186.045333 171.008598 
L 186.387556 170.415852 
L 186.045333 169.823105 
L 186.045333 169.823105 
L 186.729778 169.823105 
L 187.072 169.230359 
L 187.072 169.230359 
L 187.414222 169.823105 
L 188.098667 169.823105 
L 188.098667 169.823105 
L 187.756444 170.415852 
L 188.098667 171.008598 
L 188.783111 171.008598 
L 189.125333 170.415852 
L 189.125333 170.415852 
L 189.467556 171.008598 
L 190.152 171.008598 
L 190.152 171.008598 
L 189.809778 171.601344 
L 190.152 172.19409 
L 190.152 172.19409 
L 189.467556 172.19409 
L 189.125333 172.786837 
L 189.467556 173.379583 
L 190.152 173.379583 
L 190.152 173.379583 
L 189.809778 173.972329 
L 190.152 174.565076 
L 190.152 174.565076 
L 189.467556 174.565076 
L 189.125333 175.157822 
L 189.125333 175.157822 
L 188.783111 174.565076 
L 188.098667 174.565076 
L 187.756444 175.157822 
L 188.098667 175.750568 
L 188.098667 175.750568 
L 187.414222 175.750568 
L 187.072 176.343314 
L 187.414222 176.936061 
L 188.098667 176.936061 
L 188.098667 176.936061 
L 187.756444 177.528807 
L 188.098667 178.121553 
L 188.783111 178.121553 
L 189.125333 177.528807 
L 189.125333 177.528807 
L 189.467556 178.121553 
L 190.152 178.121553 
L 190.152 178.121553 
L 189.809778 178.714299 
L 190.152 179.307046 
L 190.152 179.307046 
L 189.467556 179.307046 
L 189.125333 179.899792 
L 189.467556 180.492538 
L 190.152 180.492538 
L 190.152 180.492538 
L 189.809778 181.085285 
L 190.152 181.678031 
L 190.152 181.678031 
L 189.467556 181.678031 
L 189.125333 182.270777 
L 189.125333 182.270777 
L 188.783111 181.678031 
L 188.098667 181.678031 
L 187.756444 182.270777 
L 188.098667 182.863523 
L 188.098667 182.863523 
L 187.414222 182.863523 
L 187.072 183.45627 
L 187.072 183.45627 
L 186.729778 182.863523 
L 186.045333 182.863523 
L 186.045333 182.863523 
L 186.387556 182.270777 
L 186.045333 181.678031 
L 185.360889 181.678031 
L 185.018667 182.270777 
L 185.018667 182.270777 
L 184.676444 181.678031 
L 183.992 181.678031 
L 183.649778 182.270777 
L 183.992 182.863523 
L 183.992 182.863523 
L 183.307556 182.863523 
L 182.965333 183.45627 
L 183.307556 184.049016 
L 183.992 184.049016 
L 183.992 184.049016 
L 183.649778 184.641762 
L 183.992 185.234508 
L 183.992 185.234508 
L 183.307556 185.234508 
L 182.965333 185.827255 
L 182.965333 185.827255 
L 182.623111 185.234508 
L 181.938667 185.234508 
L 181.596444 185.827255 
L 181.938667 186.420001 
L 181.938667 186.420001 
L 181.254222 186.420001 
L 180.912 187.012747 
L 181.254222 187.605494 
L 181.938667 187.605494 
L 181.938667 187.605494 
L 181.596444 188.19824 
L 181.938667 188.790986 
L 182.623111 188.790986 
L 182.965333 188.19824 
L 182.965333 188.19824 
L 183.307556 188.790986 
L 183.992 188.790986 
L 183.992 188.790986 
L 183.649778 189.383732 
L 183.992 189.976479 
L 183.992 189.976479 
L 183.307556 189.976479 
L 182.965333 190.569225 
L 183.307556 191.161971 
L 183.992 191.161971 
L 183.992 191.161971 
L 183.649778 191.754718 
L 183.992 192.347464 
L 184.676444 192.347464 
L 185.018667 191.754718 
L 185.018667 191.754718 
L 185.360889 192.347464 
L 186.045333 192.347464 
L 186.387556 191.754718 
L 186.045333 191.161971 
L 186.045333 191.161971 
L 186.729778 191.161971 
L 187.072 190.569225 
L 187.072 190.569225 
L 187.414222 191.161971 
L 188.098667 191.161971 
L 188.098667 191.161971 
L 187.756444 191.754718 
L 188.098667 192.347464 
L 188.783111 192.347464 
L 189.125333 191.754718 
L 189.125333 191.754718 
L 189.467556 192.347464 
L 190.152 192.347464 
L 190.152 192.347464 
L 189.809778 192.94021 
L 190.152 193.532956 
L 190.152 193.532956 
L 189.467556 193.532956 
L 189.125333 194.125703 
L 189.467556 194.718449 
L 190.152 194.718449 
L 190.152 194.718449 
L 189.809778 195.311195 
L 190.152 195.903941 
L 190.152 195.903941 
L 189.467556 195.903941 
L 189.125333 196.496688 
L 189.125333 196.496688 
L 188.783111 195.903941 
L 188.098667 195.903941 
L 187.756444 196.496688 
L 188.098667 197.089434 
L 188.098667 197.089434 
L 187.414222 197.089434 
L 187.072 197.68218 
L 187.414222 198.274927 
L 188.098667 198.274927 
L 188.098667 198.274927 
L 187.756444 198.867673 
L 188.098667 199.460419 
L 188.783111 199.460419 
L 189.125333 198.867673 
L 189.125333 198.867673 
L 189.467556 199.460419 
L 190.152 199.460419 
L 190.152 199.460419 
L 189.809778 200.053165 
L 190.152 200.645912 
L 190.152 200.645912 
L 189.467556 200.645912 
L 189.125333 201.238658 
L 189.467556 201.831404 
L 190.152 201.831404 
L 190.152 201.831404 
L 189.809778 202.42415 
L 190.152 203.016897 
L 190.152 203.016897 
L 189.467556 203.016897 
L 189.125333 203.609643 
L 189.125333 203.609643 
L 188.783111 203.016897 
L 188.098667 203.016897 
L 187.756444 203.609643 
L 188.098667 204.202389 
L 188.098667 204.202389 
L 187.414222 204.202389 
L 187.072 204.795136 
L 187.072 204.795136 
L 186.729778 204.202389 
L 186.045333 204.202389 
L 186.045333 204.202389 
L 186.387556 203.609643 
L 186.045333 203.016897 
L 185.360889 203.016897 
L 185.018667 203.609643 
L 185.018667 203.609643 
L 184.676444 203.016897 
L 183.992 203.016897 
L 183.649778 203.609643 
L 183.992 204.202389 
L 183.992 204.202389 
L 183.307556 204.202389 
L 182.965333 204.795136 
L 183.307556 205.387882 
L 183.992 205.387882 
L 183.992 205.387882 
L 183.649778 205.980628 
L 183.992 206.573374 
L 183.992 206.573374 
L 183.307556 206.573374 
L 182.965333 207.166121 
L 182.965333 207.166121 
L 182.623111 206.573374 
L 181.938667 206.573374 
L 181.596444 207.166121 
L 181.938667 207.758867 
L 181.938667 207.758867 
L 181.254222 207.758867 
L 180.912 208.351613 
L 180.912 208.351613 
L 180.569778 207.758867 
L 179.885333 207.758867 
L 179.885333 207.758867 
L 180.227556 207.166121 
L 179.885333 206.573374 
L 179.200889 206.573374 
L 178.858667 207.166121 
L 178.858667 207.166121 
L 178.516444 206.573374 
L 177.832 206.573374 
L 177.832 206.573374 
L 178.174222 205.980628 
L 177.832 205.387882 
L 177.832 205.387882 
L 178.516444 205.387882 
L 178.858667 204.795136 
L 178.516444 204.202389 
L 177.832 204.202389 
L 177.832 204.202389 
L 178.174222 203.609643 
L 177.832 203.016897 
L 177.147556 203.016897 
L 176.805333 203.609643 
L 176.805333 203.609643 
L 176.463111 203.016897 
L 175.778667 203.016897 
L 175.436444 203.609643 
L 175.778667 204.202389 
L 175.778667 204.202389 
L 175.094222 204.202389 
L 174.752 204.795136 
L 174.752 204.795136 
L 174.409778 204.202389 
L 173.725333 204.202389 
L 173.725333 204.202389 
L 174.067556 203.609643 
L 173.725333 203.016897 
L 173.040889 203.016897 
L 172.698667 203.609643 
L 172.698667 203.609643 
L 172.356444 203.016897 
L 171.672 203.016897 
L 171.329778 203.609643 
L 171.672 204.202389 
L 171.672 204.202389 
L 170.987556 204.202389 
L 170.645333 204.795136 
L 170.987556 205.387882 
L 171.672 205.387882 
L 171.672 205.387882 
L 171.329778 205.980628 
L 171.672 206.573374 
L 171.672 206.573374 
L 170.987556 206.573374 
L 170.645333 207.166121 
L 170.645333 207.166121 
L 170.303111 206.573374 
L 169.618667 206.573374 
L 169.276444 207.166121 
L 169.618667 207.758867 
L 169.618667 207.758867 
L 168.934222 207.758867 
L 168.592 208.351613 
L 168.934222 208.94436 
L 169.618667 208.94436 
L 169.618667 208.94436 
L 169.276444 209.537106 
L 169.618667 210.129852 
L 170.303111 210.129852 
L 170.645333 209.537106 
L 170.645333 209.537106 
L 170.987556 210.129852 
L 171.672 210.129852 
L 171.672 210.129852 
L 171.329778 210.722598 
L 171.672 211.315345 
L 171.672 211.315345 
L 170.987556 211.315345 
L 170.645333 211.908091 
L 170.987556 212.500837 
L 171.672 212.500837 
L 171.672 212.500837 
L 171.329778 213.093583 
L 171.672 213.68633 
L 171.672 213.68633 
L 170.987556 213.68633 
L 170.645333 214.279076 
L 170.645333 214.279076 
L 170.303111 213.68633 
L 169.618667 213.68633 
L 169.276444 214.279076 
L 169.618667 214.871822 
L 169.618667 214.871822 
L 168.934222 214.871822 
L 168.592 215.464569 
L 168.592 215.464569 
L 168.249778 214.871822 
L 167.565333 214.871822 
L 167.565333 214.871822 
L 167.907556 214.279076 
L 167.565333 213.68633 
L 166.880889 213.68633 
L 166.538667 214.279076 
L 166.538667 214.279076 
L 166.196444 213.68633 
L 165.512 213.68633 
L 165.169778 214.279076 
L 165.512 214.871822 
L 165.512 214.871822 
L 164.827556 214.871822 
L 164.485333 215.464569 
L 164.827556 216.057315 
L 165.512 216.057315 
L 165.512 216.057315 
L 165.169778 216.650061 
L 165.512 217.242807 
L 165.512 217.242807 
L 164.827556 217.242807 
L 164.485333 217.835554 
L 164.485333 217.835554 
L 164.143111 217.242807 
L 163.458667 217.242807 
L 163.116444 217.835554 
L 163.458667 218.4283 
L 163.458667 218.4283 
L 162.774222 218.4283 
L 162.432 219.021046 
L 162.432 219.021046 
L 162.089778 218.4283 
L 161.405333 218.4283 
L 161.405333 218.4283 
L 161.747556 217.835554 
L 161.405333 217.242807 
L 160.720889 217.242807 
L 160.378667 217.835554 
L 160.378667 217.835554 
L 160.036444 217.242807 
L 159.352 217.242807 
L 159.352 217.242807 
L 159.694222 216.650061 
L 159.352 216.057315 
L 159.352 216.057315 
L 160.036444 216.057315 
L 160.378667 215.464569 
L 160.036444 214.871822 
L 159.352 214.871822 
L 159.352 214.871822 
L 159.694222 214.279076 
L 159.352 213.68633 
L 158.667556 213.68633 
L 158.325333 214.279076 
L 158.325333 214.279076 
L 157.983111 213.68633 
L 157.298667 213.68633 
L 156.956444 214.279076 
L 157.298667 214.871822 
L 157.298667 214.871822 
L 156.614222 214.871822 
L 156.272 215.464569 
L 156.272 215.464569 
L 155.929778 214.871822 
L 155.245333 214.871822 
L 155.245333 214.871822 
L 155.587556 214.279076 
L 155.245333 213.68633 
L 154.560889 213.68633 
L 154.218667 214.279076 
L 154.218667 214.279076 
L 153.876444 213.68633 
L 153.192 213.68633 
L 153.192 213.68633 
L 153.534222 213.093583 
L 153.192 212.500837 
L 153.192 212.500837 
L 153.876444 212.500837 
L 154.218667 211.908091 
L 153.876444 211.315345 
L 153.192 211.315345 
L 153.192 211.315345 
L 153.534222 210.722598 
L 153.192 210.129852 
L 153.192 210.129852 
L 153.876444 210.129852 
L 154.218667 209.537106 
L 154.218667 209.537106 
L 154.560889 210.129852 
L 155.245333 210.129852 
L 155.587556 209.537106 
L 155.245333 208.94436 
L 155.245333 208.94436 
L 155.929778 208.94436 
L 156.272 208.351613 
L 155.929778 207.758867 
L 155.245333 207.758867 
L 155.245333 207.758867 
L 155.587556 207.166121 
L 155.245333 206.573374 
L 154.560889 206.573374 
L 154.218667 207.166121 
L 154.218667 207.166121 
L 153.876444 206.573374 
L 153.192 206.573374 
L 153.192 206.573374 
L 153.534222 205.980628 
L 153.192 205.387882 
L 153.192 205.387882 
L 153.876444 205.387882 
L 154.218667 204.795136 
L 153.876444 204.202389 
L 153.192 204.202389 
L 153.192 204.202389 
L 153.534222 203.609643 
L 153.192 203.016897 
L 152.507556 203.016897 
L 152.165333 203.609643 
L 152.165333 203.609643 
L 151.823111 203.016897 
L 151.138667 203.016897 
L 150.796444 203.609643 
L 151.138667 204.202389 
L 151.138667 204.202389 
L 150.454222 204.202389 
L 150.112 204.795136 
L 150.112 204.795136 
L 149.769778 204.202389 
L 149.085333 204.202389 
L 149.085333 204.202389 
L 149.427556 203.609643 
L 149.085333 203.016897 
L 148.400889 203.016897 
L 148.058667 203.609643 
L 148.058667 203.609643 
L 147.716444 203.016897 
L 147.032 203.016897 
L 146.689778 203.609643 
L 147.032 204.202389 
L 147.032 204.202389 
L 146.347556 204.202389 
L 146.005333 204.795136 
L 146.347556 205.387882 
L 147.032 205.387882 
L 147.032 205.387882 
L 146.689778 205.980628 
L 147.032 206.573374 
L 147.032 206.573374 
L 146.347556 206.573374 
L 146.005333 207.166121 
L 146.005333 207.166121 
L 145.663111 206.573374 
L 144.978667 206.573374 
L 144.636444 207.166121 
L 144.978667 207.758867 
L 144.978667 207.758867 
L 144.294222 207.758867 
L 143.952 208.351613 
L 143.952 208.351613 
L 143.609778 207.758867 
L 142.925333 207.758867 
L 142.925333 207.758867 
L 143.267556 207.166121 
L 142.925333 206.573374 
L 142.240889 206.573374 
L 141.898667 207.166121 
L 141.898667 207.166121 
L 141.556444 206.573374 
L 140.872 206.573374 
L 140.872 206.573374 
L 141.214222 205.980628 
L 140.872 205.387882 
L 140.872 205.387882 
L 141.556444 205.387882 
L 141.898667 204.795136 
L 141.556444 204.202389 
L 140.872 204.202389 
L 140.872 204.202389 
L 141.214222 203.609643 
L 140.872 203.016897 
L 140.187556 203.016897 
L 139.845333 203.609643 
L 139.845333 203.609643 
L 139.503111 203.016897 
L 138.818667 203.016897 
L 138.476444 203.609643 
L 138.818667 204.202389 
L 138.818667 204.202389 
L 138.134222 204.202389 
L 137.792 204.795136 
L 137.792 204.795136 
L 137.449778 204.202389 
L 136.765333 204.202389 
L 136.765333 204.202389 
L 137.107556 203.609643 
L 136.765333 203.016897 
L 136.080889 203.016897 
L 135.738667 203.609643 
L 135.738667 203.609643 
L 135.396444 203.016897 
L 134.712 203.016897 
L 134.369778 203.609643 
L 134.712 204.202389 
L 134.712 204.202389 
L 134.027556 204.202389 
L 133.685333 204.795136 
L 134.027556 205.387882 
L 134.712 205.387882 
L 134.712 205.387882 
L 134.369778 205.980628 
L 134.712 206.573374 
L 134.712 206.573374 
L 134.027556 206.573374 
L 133.685333 207.166121 
L 133.685333 207.166121 
L 133.343111 206.573374 
L 132.658667 206.573374 
L 132.316444 207.166121 
L 132.658667 207.758867 
L 132.658667 207.758867 
L 131.974222 207.758867 
L 131.632 208.351613 
L 131.974222 208.94436 
L 132.658667 208.94436 
L 132.658667 208.94436 
L 132.316444 209.537106 
L 132.658667 210.129852 
L 133.343111 210.129852 
L 133.685333 209.537106 
L 133.685333 209.537106 
L 134.027556 210.129852 
L 134.712 210.129852 
L 134.712 210.129852 
L 134.369778 210.722598 
L 134.712 211.315345 
L 134.712 211.315345 
L 134.027556 211.315345 
L 133.685333 211.908091 
L 134.027556 212.500837 
L 134.712 212.500837 
L 134.712 212.500837 
L 134.369778 213.093583 
L 134.712 213.68633 
L 134.712 213.68633 
L 134.027556 213.68633 
L 133.685333 214.279076 
L 133.685333 214.279076 
L 133.343111 213.68633 
L 132.658667 213.68633 
L 132.316444 214.279076 
L 132.658667 214.871822 
L 132.658667 214.871822 
L 131.974222 214.871822 
L 131.632 215.464569 
L 131.632 215.464569 
L 131.289778 214.871822 
L 130.605333 214.871822 
L 130.605333 214.871822 
L 130.947556 214.279076 
L 130.605333 213.68633 
L 129.920889 213.68633 
L 129.578667 214.279076 
L 129.578667 214.279076 
L 129.236444 213.68633 
L 128.552 213.68633 
L 128.209778 214.279076 
L 128.552 214.871822 
L 128.552 214.871822 
L 127.867556 214.871822 
L 127.525333 215.464569 
L 127.867556 216.057315 
L 128.552 216.057315 
L 128.552 216.057315 
L 128.209778 216.650061 
L 128.552 217.242807 
L 128.552 217.242807 
L 127.867556 217.242807 
L 127.525333 217.835554 
L 127.525333 217.835554 
L 127.183111 217.242807 
L 126.498667 217.242807 
L 126.156444 217.835554 
L 126.498667 218.4283 
L 126.498667 218.4283 
L 125.814222 218.4283 
L 125.472 219.021046 
L 125.814222 219.613793 
L 126.498667 219.613793 
L 126.498667 219.613793 
L 126.156444 220.206539 
L 126.498667 220.799285 
L 127.183111 220.799285 
L 127.525333 220.206539 
L 127.525333 220.206539 
L 127.867556 220.799285 
L 128.552 220.799285 
L 128.552 220.799285 
L 128.209778 221.392031 
L 128.552 221.984778 
L 128.552 221.984778 
L 127.867556 221.984778 
L 127.525333 222.577524 
L 127.867556 223.17027 
L 128.552 223.17027 
L 128.552 223.17027 
L 128.209778 223.763016 
L 128.552 224.355763 
L 129.236444 224.355763 
L 129.578667 223.763016 
L 129.578667 223.763016 
L 129.920889 224.355763 
L 130.605333 224.355763 
L 130.947556 223.763016 
L 130.605333 223.17027 
L 130.605333 223.17027 
L 131.289778 223.17027 
L 131.632 222.577524 
L 131.632 222.577524 
L 131.974222 223.17027 
L 132.658667 223.17027 
L 132.658667 223.17027 
L 132.316444 223.763016 
L 132.658667 224.355763 
L 133.343111 224.355763 
L 133.685333 223.763016 
L 133.685333 223.763016 
L 134.027556 224.355763 
L 134.712 224.355763 
L 134.712 224.355763 
L 134.369778 224.948509 
L 134.712 225.541255 
L 134.712 225.541255 
L 134.027556 225.541255 
L 133.685333 226.134002 
L 134.027556 226.726748 
L 134.712 226.726748 
L 134.712 226.726748 
L 134.369778 227.319494 
L 134.712 227.91224 
L 134.712 227.91224 
L 134.027556 227.91224 
L 133.685333 228.504987 
L 133.685333 228.504987 
L 133.343111 227.91224 
L 132.658667 227.91224 
L 132.316444 228.504987 
L 132.658667 229.097733 
L 132.658667 229.097733 
L 131.974222 229.097733 
L 131.632 229.690479 
L 131.974222 230.283225 
L 132.658667 230.283225 
L 132.658667 230.283225 
L 132.316444 230.875972 
L 132.658667 231.468718 
L 133.343111 231.468718 
L 133.685333 230.875972 
L 133.685333 230.875972 
L 134.027556 231.468718 
L 134.712 231.468718 
L 134.712 231.468718 
L 134.369778 232.061464 
L 134.712 232.654211 
L 134.712 232.654211 
L 134.027556 232.654211 
L 133.685333 233.246957 
L 134.027556 233.839703 
L 134.712 233.839703 
L 134.712 233.839703 
L 134.369778 234.432449 
L 134.712 235.025196 
L 134.712 235.025196 
L 134.027556 235.025196 
L 133.685333 235.617942 
L 133.685333 235.617942 
L 133.343111 235.025196 
L 132.658667 235.025196 
L 132.316444 235.617942 
L 132.658667 236.210688 
L 132.658667 236.210688 
L 131.974222 236.210688 
L 131.632 236.803435 
L 131.632 236.803435 
L 131.289778 236.210688 
L 130.605333 236.210688 
L 130.605333 236.210688 
L 130.947556 235.617942 
L 130.605333 235.025196 
L 129.920889 235.025196 
L 129.578667 235.617942 
L 129.578667 235.617942 
L 129.236444 235.025196 
L 128.552 235.025196 
L 128.209778 235.617942 
L 128.552 236.210688 
L 128.552 236.210688 
L 127.867556 236.210688 
L 127.525333 236.803435 
L 127.867556 237.396181 
L 128.552 237.396181 
L 128.552 237.396181 
L 128.209778 237.988927 
L 128.552 238.581673 
L 128.552 238.581673 
L 127.867556 238.581673 
L 127.525333 239.17442 
L 127.525333 239.17442 
L 127.183111 238.581673 
L 126.498667 238.581673 
L 126.156444 239.17442 
L 126.498667 239.767166 
L 126.498667 239.767166 
L 125.814222 239.767166 
L 125.472 240.359912 
L 125.472 240.359912 
L 125.129778 239.767166 
L 124.445333 239.767166 
L 124.445333 239.767166 
L 124.787556 239.17442 
L 124.445333 238.581673 
L 123.760889 238.581673 
L 123.418667 239.17442 
L 123.418667 239.17442 
L 123.076444 238.581673 
L 122.392 238.581673 
L 122.392 238.581673 
L 122.734222 237.988927 
L 122.392 237.396181 
L 122.392 237.396181 
L 123.076444 237.396181 
L 123.418667 236.803435 
L 123.076444 236.210688 
L 122.392 236.210688 
L 122.392 236.210688 
L 122.734222 235.617942 
L 122.392 235.025196 
L 121.707556 235.025196 
L 121.365333 235.617942 
L 121.365333 235.617942 
L 121.023111 235.025196 
L 120.338667 235.025196 
L 119.996444 235.617942 
L 120.338667 236.210688 
L 120.338667 236.210688 
L 119.654222 236.210688 
L 119.312 236.803435 
L 119.312 236.803435 
L 118.969778 236.210688 
L 118.285333 236.210688 
L 118.285333 236.210688 
L 118.627556 235.617942 
L 118.285333 235.025196 
L 117.600889 235.025196 
L 117.258667 235.617942 
L 117.258667 235.617942 
L 116.916444 235.025196 
L 116.232 235.025196 
L 115.889778 235.617942 
L 116.232 236.210688 
L 116.232 236.210688 
L 115.547556 236.210688 
L 115.205333 236.803435 
L 115.547556 237.396181 
L 116.232 237.396181 
L 116.232 237.396181 
L 115.889778 237.988927 
L 116.232 238.581673 
L 116.232 238.581673 
L 115.547556 238.581673 
L 115.205333 239.17442 
L 115.205333 239.17442 
L 114.863111 238.581673 
L 114.178667 238.581673 
L 113.836444 239.17442 
L 114.178667 239.767166 
L 114.178667 239.767166 
L 113.494222 239.767166 
L 113.152 240.359912 
L 113.494222 240.952658 
L 114.178667 240.952658 
L 114.178667 240.952658 
L 113.836444 241.545405 
L 114.178667 242.138151 
L 114.863111 242.138151 
L 115.205333 241.545405 
L 115.205333 241.545405 
L 115.547556 242.138151 
L 116.232 242.138151 
L 116.232 242.138151 
L 115.889778 242.730897 
L 116.232 243.323644 
L 116.232 243.323644 
L 115.547556 243.323644 
L 115.205333 243.91639 
L 115.547556 244.509136 
L 116.232 244.509136 
L 116.232 244.509136 
L 115.889778 245.101882 
L 116.232 245.694629 
L 116.232 245.694629 
L 115.547556 245.694629 
L 115.205333 246.287375 
L 115.205333 246.287375 
L 114.863111 245.694629 
L 114.178667 245.694629 
L 113.836444 246.287375 
L 114.178667 246.880121 
L 114.178667 246.880121 
L 113.494222 246.880121 
L 113.152 247.472867 
L 113.152 247.472867 
L 112.809778 246.880121 
L 112.125333 246.880121 
L 112.125333 246.880121 
L 112.467556 246.287375 
L 112.125333 245.694629 
L 111.440889 245.694629 
L 111.098667 246.287375 
L 111.098667 246.287375 
L 110.756444 245.694629 
L 110.072 245.694629 
L 109.729778 246.287375 
L 110.072 246.880121 
L 110.072 246.880121 
L 109.387556 246.880121 
L 109.045333 247.472867 
L 109.387556 248.065614 
L 110.072 248.065614 
L 110.072 248.065614 
L 109.729778 248.65836 
L 110.072 249.251106 
L 110.072 249.251106 
L 109.387556 249.251106 
L 109.045333 249.843853 
L 109.045333 249.843853 
L 108.703111 249.251106 
L 108.018667 249.251106 
L 107.676444 249.843853 
L 108.018667 250.436599 
L 108.018667 250.436599 
L 107.334222 250.436599 
L 106.992 251.029345 
L 106.992 251.029345 
" clip-path="url(#p4d607780f1)" style="fill: none; stroke: #808080; stroke-linecap: square"/>
   </g>
  </g>
 </g>
 <defs>
  <clipPath id="p4d607780f1">
   <rect x="7.2" y="7.2" width="199.584" height="266.112"/>
  </clipPath>
 </defs>
</svg>
