<?xml version="1.0" encoding="utf-8" standalone="no"?>
<!DOCTYPE svg PUBLIC "-//W3C//DTD SVG 1.1//EN"
  "http://www.w3.org/Graphics/SVG/1.1/DTD/svg11.dtd">
<svg xmlns:xlink="http://www.w3.org/1999/xlink" width="213.984pt" height="280.512pt" viewBox="0 0 213.984 280.512" xmlns="http://www.w3.org/2000/svg" version="1.1">
 <metadata>
  <rdf:RDF xmlns:dc="http://purl.org/dc/elements/1.1/" xmlns:cc="http://creativecommons.org/ns#" xmlns:rdf="http://www.w3.org/1999/02/22-rdf-syntax-ns#">
   <cc:Work>
    <dc:type rdf:resource="http://purl.org/dc/dcmitype/StillImage"/>
    <dc:date>2025-11-14T10:12:35.973335</dc:date>
    <dc:format>image/svg+xml</dc:format>
    <dc:creator>
     <cc:Agent>
      <dc:title>Matplotlib v3.9.1.post1, https://matplotlib.org/</dc:title>
     </cc:Agent>
    </dc:creator>
   </cc:Work>
  </rdf:RDF>
 </metadata>
 <defs>
  <style type="text/css">*{stroke-linejoin: round; stroke-linecap: butt}</style>
 </defs>
 <g id="figure_1">
  <g id="patch_1">
   <path d="M 0 280.512 
L 213.984 280.512 
L 213.984 0 
L 0 0 
z
" style="fill: #ffffff"/>
  </g>
  <g id="axes_1">
   <g id="line2d_1">
    <path d="M 23.832 106.992 
L 42.312 106.992 
L 51.552 90.987851 
L 51.552 90.987851 
L 60.792 106.992 
L 79.272 106.992 
L 88.512 90.987851 
L 79.272 74.983701 
L 79.272 74.983701 
L 97.752 74.983701 
L 106.992 58.979552 
L 106.992 58.979552 
L 116.232 74.983701 
L 134.712 74.983701 
L 134.712 74.983701 
L 125.472 90.987851 
L 134.712 106.992 
L 153.192 106.992 
L 162.432 90.987851 
L 162.432 90.987851 
L 171.672 106.992 
L 190.152 106.992 
" clip-path="url(#pcae975777c)" style="fill: none; stroke: #808080; stroke-linecap: square"/>
   </g>
   <g id="line2d_2">
    <path d="M 23.832 106.992 
L 33.072 122.996149 
L 23.832 139.000299 
L 23.832 139.000299 
L 42.312 139.000299 
L 51.552 155.004448 
L 42.312 171.008598 
L 23.832 171.008598 
L 23.832 171.008598 
L 33.072 187.012747 
L 23.832 203.016897 
L 23.832 203.016897 
L 42.312 203.016897 
L 51.552 219.021046 
L 51.552 219.021046 
L 60.792 203.016897 
L 79.272 203.016897 
L 88.512 219.021046 
L 79.272 235.025196 
L 79.272 235.025196 
L 97.752 235.025196 
L 106.992 251.029345 
" clip-path="url(#pcae975777c)" style="fill: none; stroke: #808080; stroke-linecap: square"/>
   </g>
   <g id="line2d_3">
    <path d="M 190.152 106.992 
L 180.912 122.996149 
L 190.152 139.000299 
L 190.152 139.000299 
L 171.672 139.000299 
L 162.432 155.004448 
L 171.672 171.008598 
L 190.152 171.008598 
L 190.152 171.008598 
L 180.912 187.012747 
L 190.152 203.016897 
L 190.152 203.016897 
L 171.672 203.016897 
L 162.432 219.021046 
L 162.432 219.021046 
L 153.192 203.016897 
L 134.712 203.016897 
L 125.472 219.021046 
L 134.712 235.025196 
L 134.712 235.025196 
L 116.232 235.025196 
L 106.992 251.029345 
" clip-path="url(#pcae975777c)" style="fill: none; stroke: #808080; stroke-linecap: square"/>
   </g>
  </g>
 </g>
 <defs>
  <clipPath id="pcae975777c">
   <rect x="7.2" y="7.2" width="199.584" height="266.112"/>
  </clipPath>
 </defs>
</svg>
