<?xml version="1.0" encoding="utf-8" standalone="no"?>
<!DOCTYPE svg PUBLIC "-//W3C//DTD SVG 1.1//EN"
  "http://www.w3.org/Graphics/SVG/1.1/DTD/svg11.dtd">
<svg xmlns:xlink="http://www.w3.org/1999/xlink" width="213.984pt" height="280.512pt" viewBox="0 0 213.984 280.512" xmlns="http://www.w3.org/2000/svg" version="1.1">
 <metadata>
  <rdf:RDF xmlns:dc="http://purl.org/dc/elements/1.1/" xmlns:cc="http://creativecommons.org/ns#" xmlns:rdf="http://www.w3.org/1999/02/22-rdf-syntax-ns#">
   <cc:Work>
    <dc:type rdf:resource="http://purl.org/dc/dcmitype/StillImage"/>
    <dc:date>2025-11-14T10:12:36.130940</dc:date>
    <dc:format>image/svg+xml</dc:format>
    <dc:creator>
     <cc:Agent>
      <dc:title>Matplotlib v3.9.1.post1, https://matplotlib.org/</dc:title>
     </cc:Agent>
    </dc:creator>
   </cc:Work>
  </rdf:RDF>
 </metadata>
 <defs>
  <style type="text/css">*{stroke-linejoin: round; stroke-linecap: butt}</style>
 </defs>
 <g id="figure_1">
  <g id="patch_1">
   <path d="M 0 280.512 
L 213.984 280.512 
L 213.984 0 
L 0 0 
z
" style="fill: #ffffff"/>
  </g>
  <g id="axes_1">
   <g id="line2d_1">
    <path d="M 23.832 106.992 
L 25.885333 106.992 
L 26.912 105.213761 
L 26.912 105.213761 
L 27.938667 106.992 
L 29.992 106.992 
L 31.018667 105.213761 
L 29.992 103.435522 
L 29.992 103.435522 
L 32.045333 103.435522 
L 33.072 101.657284 
L 33.072 101.657284 
L 34.098667 103.435522 
L 36.152 103.435522 
L 36.152 103.435522 
L 35.125333 105.213761 
L 36.152 106.992 
L 38.205333 106.992 
L 39.232 105.213761 
L 39.232 105.213761 
L 40.258667 106.992 
L 42.312 106.992 
L 43.338667 105.213761 
L 42.312 103.435522 
L 42.312 103.435522 
L 44.365333 103.435522 
L 45.392 101.657284 
L 44.365333 99.879045 
L 42.312 99.879045 
L 42.312 99.879045 
L 43.338667 98.100806 
L 42.312 96.322567 
L 42.312 96.322567 
L 44.365333 96.322567 
L 45.392 94.544328 
L 45.392 94.544328 
L 46.418667 96.322567 
L 48.472 96.322567 
L 49.498667 94.544328 
L 48.472 92.766089 
L 48.472 92.766089 
L 50.525333 92.766089 
L 51.552 90.987851 
L 51.552 90.987851 
L 52.578667 92.766089 
L 54.632 92.766089 
L 54.632 92.766089 
L 53.605333 94.544328 
L 54.632 96.322567 
L 56.685333 96.322567 
L 57.712 94.544328 
L 57.712 94.544328 
L 58.738667 96.322567 
L 60.792 96.322567 
L 60.792 96.322567 
L 59.765333 98.100806 
L 60.792 99.879045 
L 60.792 99.879045 
L 58.738667 99.879045 
L 57.712 101.657284 
L 58.738667 103.435522 
L 60.792 103.435522 
L 60.792 103.435522 
L 59.765333 105.213761 
L 60.792 106.992 
L 62.845333 106.992 
L 63.872 105.213761 
L 63.872 105.213761 
L 64.898667 106.992 
L 66.952 106.992 
L 67.978667 105.213761 
L 66.952 103.435522 
L 66.952 103.435522 
L 69.005333 103.435522 
L 70.032 101.657284 
L 70.032 101.657284 
L 71.058667 103.435522 
L 73.112 103.435522 
L 73.112 103.435522 
L 72.085333 105.213761 
L 73.112 106.992 
L 75.165333 106.992 
L 76.192 105.213761 
L 76.192 105.213761 
L 77.218667 106.992 
L 79.272 106.992 
L 80.298667 105.213761 
L 79.272 103.435522 
L 79.272 103.435522 
L 81.325333 103.435522 
L 82.352 101.657284 
L 81.325333 99.879045 
L 79.272 99.879045 
L 79.272 99.879045 
L 80.298667 98.100806 
L 79.272 96.322567 
L 79.272 96.322567 
L 81.325333 96.322567 
L 82.352 94.544328 
L 82.352 94.544328 
L 83.378667 96.322567 
L 85.432 96.322567 
L 86.458667 94.544328 
L 85.432 92.766089 
L 85.432 92.766089 
L 87.485333 92.766089 
L 88.512 90.987851 
L 87.485333 89.209612 
L 85.432 89.209612 
L 85.432 89.209612 
L 86.458667 87.431373 
L 85.432 85.653134 
L 83.378667 85.653134 
L 82.352 87.431373 
L 82.352 87.431373 
L 81.325333 85.653134 
L 79.272 85.653134 
L 79.272 85.653134 
L 80.298667 83.874895 
L 79.272 82.096656 
L 79.272 82.096656 
L 81.325333 82.096656 
L 82.352 80.318418 
L 81.325333 78.540179 
L 79.272 78.540179 
L 79.272 78.540179 
L 80.298667 76.76194 
L 79.272 74.983701 
L 79.272 74.983701 
L 81.325333 74.983701 
L 82.352 73.205462 
L 82.352 73.205462 
L 83.378667 74.983701 
L 85.432 74.983701 
L 86.458667 73.205462 
L 85.432 71.427223 
L 85.432 71.427223 
L 87.485333 71.427223 
L 88.512 69.648985 
L 88.512 69.648985 
L 89.538667 71.427223 
L 91.592 71.427223 
L 91.592 71.427223 
L 90.565333 73.205462 
L 91.592 74.983701 
L 93.645333 74.983701 
L 94.672 73.205462 
L 94.672 73.205462 
L 95.698667 74.983701 
L 97.752 74.983701 
L 98.778667 73.205462 
L 97.752 71.427223 
L 97.752 71.427223 
L 99.805333 71.427223 
L 100.832 69.648985 
L 99.805333 67.870746 
L 97.752 67.870746 
L 97.752 67.870746 
L 98.778667 66.092507 
L 97.752 64.314268 
L 97.752 64.314268 
L 99.805333 64.314268 
L 100.832 62.536029 
L 100.832 62.536029 
L 101.858667 64.314268 
L 103.912 64.314268 
L 104.938667 62.536029 
L 103.912 60.75779 
L 103.912 60.75779 
L 105.965333 60.75779 
L 106.992 58.979552 
L 106.992 58.979552 
L 108.018667 60.75779 
L 110.072 60.75779 
L 110.072 60.75779 
L 109.045333 62.536029 
L 110.072 64.314268 
L 112.125333 64.314268 
L 113.152 62.536029 
L 113.152 62.536029 
L 114.178667 64.314268 
L 116.232 64.314268 
L 116.232 64.314268 
L 115.205333 66.092507 
L 116.232 67.870746 
L 116.232 67.870746 
L 114.178667 67.870746 
L 113.152 69.648985 
L 114.178667 71.427223 
L 116.232 71.427223 
L 116.232 71.427223 
L 115.205333 73.205462 
L 116.232 74.983701 
L 118.285333 74.983701 
L 119.312 73.205462 
L 119.312 73.205462 
L 120.338667 74.983701 
L 122.392 74.983701 
L 123.418667 73.205462 
L 122.392 71.427223 
L 122.392 71.427223 
L 124.445333 71.427223 
L 125.472 69.648985 
L 125.472 69.648985 
L 126.498667 71.427223 
L 128.552 71.427223 
L 128.552 71.427223 
L 127.525333 73.205462 
L 128.552 74.983701 
L 130.605333 74.983701 
L 131.632 73.205462 
L 131.632 73.205462 
L 132.658667 74.983701 
L 134.712 74.983701 
L 134.712 74.983701 
L 133.685333 76.76194 
L 134.712 78.540179 
L 134.712 78.540179 
L 132.658667 78.540179 
L 131.632 80.318418 
L 132.658667 82.096656 
L 134.712 82.096656 
L 134.712 82.096656 
L 133.685333 83.874895 
L 134.712 85.653134 
L 134.712 85.653134 
L 132.658667 85.653134 
L 131.632 87.431373 
L 131.632 87.431373 
L 130.605333 85.653134 
L 128.552 85.653134 
L 127.525333 87.431373 
L 128.552 89.209612 
L 128.552 89.209612 
L 126.498667 89.209612 
L 125.472 90.987851 
L 126.498667 92.766089 
L 128.552 92.766089 
L 128.552 92.766089 
L 127.525333 94.544328 
L 128.552 96.322567 
L 130.605333 96.322567 
L 131.632 94.544328 
L 131.632 94.544328 
L 132.658667 96.322567 
L 134.712 96.322567 
L 134.712 96.322567 
L 133.685333 98.100806 
L 134.712 99.879045 
L 134.712 99.879045 
L 132.658667 99.879045 
L 131.632 101.657284 
L 132.658667 103.435522 
L 134.712 103.435522 
L 134.712 103.435522 
L 133.685333 105.213761 
L 134.712 106.992 
L 136.765333 106.992 
L 137.792 105.213761 
L 137.792 105.213761 
L 138.818667 106.992 
L 140.872 106.992 
L 141.898667 105.213761 
L 140.872 103.435522 
L 140.872 103.435522 
L 142.925333 103.435522 
L 143.952 101.657284 
L 143.952 101.657284 
L 144.978667 103.435522 
L 147.032 103.435522 
L 147.032 103.435522 
L 146.005333 105.213761 
L 147.032 106.992 
L 149.085333 106.992 
L 150.112 105.213761 
L 150.112 105.213761 
L 151.138667 106.992 
L 153.192 106.992 
L 154.218667 105.213761 
L 153.192 103.435522 
L 153.192 103.435522 
L 155.245333 103.435522 
L 156.272 101.657284 
L 155.245333 99.879045 
L 153.192 99.879045 
L 153.192 99.879045 
L 154.218667 98.100806 
L 153.192 96.322567 
L 153.192 96.322567 
L 155.245333 96.322567 
L 156.272 94.544328 
L 156.272 94.544328 
L 157.298667 96.322567 
L 159.352 96.322567 
L 160.378667 94.544328 
L 159.352 92.766089 
L 159.352 92.766089 
L 161.405333 92.766089 
L 162.432 90.987851 
L 162.432 90.987851 
L 163.458667 92.766089 
L 165.512 92.766089 
L 165.512 92.766089 
L 164.485333 94.544328 
L 165.512 96.322567 
L 167.565333 96.322567 
L 168.592 94.544328 
L 168.592 94.544328 
L 169.618667 96.322567 
L 171.672 96.322567 
L 171.672 96.322567 
L 170.645333 98.100806 
L 171.672 99.879045 
L 171.672 99.879045 
L 169.618667 99.879045 
L 168.592 101.657284 
L 169.618667 103.435522 
L 171.672 103.435522 
L 171.672 103.435522 
L 170.645333 105.213761 
L 171.672 106.992 
L 173.725333 106.992 
L 174.752 105.213761 
L 174.752 105.213761 
L 175.778667 106.992 
L 177.832 106.992 
L 178.858667 105.213761 
L 177.832 103.435522 
L 177.832 103.435522 
L 179.885333 103.435522 
L 180.912 101.657284 
L 180.912 101.657284 
L 181.938667 103.435522 
L 183.992 103.435522 
L 183.992 103.435522 
L 182.965333 105.213761 
L 183.992 106.992 
L 186.045333 106.992 
L 187.072 105.213761 
L 187.072 105.213761 
L 188.098667 106.992 
L 190.152 106.992 
L 190.152 106.992 
" clip-path="url(#p4132198f91)" style="fill: none; stroke: #808080; stroke-linecap: square"/>
   </g>
   <g id="line2d_2">
    <path d="M 23.832 106.992 
L 24.858667 108.770239 
L 23.832 110.548478 
L 23.832 110.548478 
L 25.885333 110.548478 
L 26.912 112.326716 
L 25.885333 114.104955 
L 23.832 114.104955 
L 23.832 114.104955 
L 24.858667 115.883194 
L 23.832 117.661433 
L 23.832 117.661433 
L 25.885333 117.661433 
L 26.912 119.439672 
L 26.912 119.439672 
L 27.938667 117.661433 
L 29.992 117.661433 
L 31.018667 119.439672 
L 29.992 121.217911 
L 29.992 121.217911 
L 32.045333 121.217911 
L 33.072 122.996149 
L 32.045333 124.774388 
L 29.992 124.774388 
L 29.992 124.774388 
L 31.018667 126.552627 
L 29.992 128.330866 
L 27.938667 128.330866 
L 26.912 126.552627 
L 26.912 126.552627 
L 25.885333 128.330866 
L 23.832 128.330866 
L 23.832 128.330866 
L 24.858667 130.109105 
L 23.832 131.887344 
L 23.832 131.887344 
L 25.885333 131.887344 
L 26.912 133.665582 
L 25.885333 135.443821 
L 23.832 135.443821 
L 23.832 135.443821 
L 24.858667 137.22206 
L 23.832 139.000299 
L 23.832 139.000299 
L 25.885333 139.000299 
L 26.912 140.778538 
L 26.912 140.778538 
L 27.938667 139.000299 
L 29.992 139.000299 
L 31.018667 140.778538 
L 29.992 142.556777 
L 29.992 142.556777 
L 32.045333 142.556777 
L 33.072 144.335015 
L 33.072 144.335015 
L 34.098667 142.556777 
L 36.152 142.556777 
L 36.152 142.556777 
L 35.125333 140.778538 
L 36.152 139.000299 
L 38.205333 139.000299 
L 39.232 140.778538 
L 39.232 140.778538 
L 40.258667 139.000299 
L 42.312 139.000299 
L 43.338667 140.778538 
L 42.312 142.556777 
L 42.312 142.556777 
L 44.365333 142.556777 
L 45.392 144.335015 
L 44.365333 146.113254 
L 42.312 146.113254 
L 42.312 146.113254 
L 43.338667 147.891493 
L 42.312 149.669732 
L 42.312 149.669732 
L 44.365333 149.669732 
L 45.392 151.447971 
L 45.392 151.447971 
L 46.418667 149.669732 
L 48.472 149.669732 
L 49.498667 151.447971 
L 48.472 153.22621 
L 48.472 153.22621 
L 50.525333 153.22621 
L 51.552 155.004448 
L 50.525333 156.782687 
L 48.472 156.782687 
L 48.472 156.782687 
L 49.498667 158.560926 
L 48.472 160.339165 
L 46.418667 160.339165 
L 45.392 158.560926 
L 45.392 158.560926 
L 44.365333 160.339165 
L 42.312 160.339165 
L 42.312 160.339165 
L 43.338667 162.117404 
L 42.312 163.895643 
L 42.312 163.895643 
L 44.365333 163.895643 
L 45.392 165.673881 
L 44.365333 167.45212 
L 42.312 167.45212 
L 42.312 167.45212 
L 43.338667 169.230359 
L 42.312 171.008598 
L 40.258667 171.008598 
L 39.232 169.230359 
L 39.232 169.230359 
L 38.205333 171.008598 
L 36.152 171.008598 
L 35.125333 169.230359 
L 36.152 167.45212 
L 36.152 167.45212 
L 34.098667 167.45212 
L 33.072 165.673881 
L 33.072 165.673881 
L 32.045333 167.45212 
L 29.992 167.45212 
L 29.992 167.45212 
L 31.018667 169.230359 
L 29.992 171.008598 
L 27.938667 171.008598 
L 26.912 169.230359 
L 26.912 169.230359 
L 25.885333 171.008598 
L 23.832 171.008598 
L 23.832 171.008598 
L 24.858667 172.786837 
L 23.832 174.565076 
L 23.832 174.565076 
L 25.885333 174.565076 
L 26.912 176.343314 
L 25.885333 178.121553 
L 23.832 178.121553 
L 23.832 178.121553 
L 24.858667 179.899792 
L 23.832 181.678031 
L 23.832 181.678031 
L 25.885333 181.678031 
L 26.912 183.45627 
L 26.912 183.45627 
L 27.938667 181.678031 
L 29.992 181.678031 
L 31.018667 183.45627 
L 29.992 185.234508 
L 29.992 185.234508 
L 32.045333 185.234508 
L 33.072 187.012747 
L 32.045333 188.790986 
L 29.992 188.790986 
L 29.992 188.790986 
L 31.018667 190.569225 
L 29.992 192.347464 
L 27.938667 192.347464 
L 26.912 190.569225 
L 26.912 190.569225 
L 25.885333 192.347464 
L 23.832 192.347464 
L 23.832 192.347464 
L 24.858667 194.125703 
L 23.832 195.903941 
L 23.832 195.903941 
L 25.885333 195.903941 
L 26.912 197.68218 
L 25.885333 199.460419 
L 23.832 199.460419 
L 23.832 199.460419 
L 24.858667 201.238658 
L 23.832 203.016897 
L 23.832 203.016897 
L 25.885333 203.016897 
L 26.912 204.795136 
L 26.912 204.795136 
L 27.938667 203.016897 
L 29.992 203.016897 
L 31.018667 204.795136 
L 29.992 206.573374 
L 29.992 206.573374 
L 32.045333 206.573374 
L 33.072 208.351613 
L 33.072 208.351613 
L 34.098667 206.573374 
L 36.152 206.573374 
L 36.152 206.573374 
L 35.125333 204.795136 
L 36.152 203.016897 
L 38.205333 203.016897 
L 39.232 204.795136 
L 39.232 204.795136 
L 40.258667 203.016897 
L 42.312 203.016897 
L 43.338667 204.795136 
L 42.312 206.573374 
L 42.312 206.573374 
L 44.365333 206.573374 
L 45.392 208.351613 
L 44.365333 210.129852 
L 42.312 210.129852 
L 42.312 210.129852 
L 43.338667 211.908091 
L 42.312 213.68633 
L 42.312 213.68633 
L 44.365333 213.68633 
L 45.392 215.464569 
L 45.392 215.464569 
L 46.418667 213.68633 
L 48.472 213.68633 
L 49.498667 215.464569 
L 48.472 217.242807 
L 48.472 217.242807 
L 50.525333 217.242807 
L 51.552 219.021046 
L 51.552 219.021046 
L 52.578667 217.242807 
L 54.632 217.242807 
L 54.632 217.242807 
L 53.605333 215.464569 
L 54.632 213.68633 
L 56.685333 213.68633 
L 57.712 215.464569 
L 57.712 215.464569 
L 58.738667 213.68633 
L 60.792 213.68633 
L 60.792 213.68633 
L 59.765333 211.908091 
L 60.792 210.129852 
L 60.792 210.129852 
L 58.738667 210.129852 
L 57.712 208.351613 
L 58.738667 206.573374 
L 60.792 206.573374 
L 60.792 206.573374 
L 59.765333 204.795136 
L 60.792 203.016897 
L 62.845333 203.016897 
L 63.872 204.795136 
L 63.872 204.795136 
L 64.898667 203.016897 
L 66.952 203.016897 
L 67.978667 204.795136 
L 66.952 206.573374 
L 66.952 206.573374 
L 69.005333 206.573374 
L 70.032 208.351613 
L 70.032 208.351613 
L 71.058667 206.573374 
L 73.112 206.573374 
L 73.112 206.573374 
L 72.085333 204.795136 
L 73.112 203.016897 
L 75.165333 203.016897 
L 76.192 204.795136 
L 76.192 204.795136 
L 77.218667 203.016897 
L 79.272 203.016897 
L 80.298667 204.795136 
L 79.272 206.573374 
L 79.272 206.573374 
L 81.325333 206.573374 
L 82.352 208.351613 
L 81.325333 210.129852 
L 79.272 210.129852 
L 79.272 210.129852 
L 80.298667 211.908091 
L 79.272 213.68633 
L 79.272 213.68633 
L 81.325333 213.68633 
L 82.352 215.464569 
L 82.352 215.464569 
L 83.378667 213.68633 
L 85.432 213.68633 
L 86.458667 215.464569 
L 85.432 217.242807 
L 85.432 217.242807 
L 87.485333 217.242807 
L 88.512 219.021046 
L 87.485333 220.799285 
L 85.432 220.799285 
L 85.432 220.799285 
L 86.458667 222.577524 
L 85.432 224.355763 
L 83.378667 224.355763 
L 82.352 222.577524 
L 82.352 222.577524 
L 81.325333 224.355763 
L 79.272 224.355763 
L 79.272 224.355763 
L 80.298667 226.134002 
L 79.272 227.91224 
L 79.272 227.91224 
L 81.325333 227.91224 
L 82.352 229.690479 
L 81.325333 231.468718 
L 79.272 231.468718 
L 79.272 231.468718 
L 80.298667 233.246957 
L 79.272 235.025196 
L 79.272 235.025196 
L 81.325333 235.025196 
L 82.352 236.803435 
L 82.352 236.803435 
L 83.378667 235.025196 
L 85.432 235.025196 
L 86.458667 236.803435 
L 85.432 238.581673 
L 85.432 238.581673 
L 87.485333 238.581673 
L 88.512 240.359912 
L 88.512 240.359912 
L 89.538667 238.581673 
L 91.592 238.581673 
L 91.592 238.581673 
L 90.565333 236.803435 
L 91.592 235.025196 
L 93.645333 235.025196 
L 94.672 236.803435 
L 94.672 236.803435 
L 95.698667 235.025196 
L 97.752 235.025196 
L 98.778667 236.803435 
L 97.752 238.581673 
L 97.752 238.581673 
L 99.805333 238.581673 
L 100.832 240.359912 
L 99.805333 242.138151 
L 97.752 242.138151 
L 97.752 242.138151 
L 98.778667 243.91639 
L 97.752 245.694629 
L 97.752 245.694629 
L 99.805333 245.694629 
L 100.832 247.472867 
L 100.832 247.472867 
L 101.858667 245.694629 
L 103.912 245.694629 
L 104.938667 247.472867 
L 103.912 249.251106 
L 103.912 249.251106 
L 105.965333 249.251106 
L 106.992 251.029345 
L 106.992 251.029345 
" clip-path="url(#p4132198f91)" style="fill: none; stroke: #808080; stroke-linecap: square"/>
   </g>
   <g id="line2d_3">
    <path d="M 190.152 106.992 
L 189.125333 108.770239 
L 190.152 110.548478 
L 190.152 110.548478 
L 188.098667 110.548478 
L 187.072 112.326716 
L 188.098667 114.104955 
L 190.152 114.104955 
L 190.152 114.104955 
L 189.125333 115.883194 
L 190.152 117.661433 
L 190.152 117.661433 
L 188.098667 117.661433 
L 187.072 119.439672 
L 187.072 119.439672 
L 186.045333 117.661433 
L 183.992 117.661433 
L 182.965333 119.439672 
L 183.992 121.217911 
L 183.992 121.217911 
L 181.938667 121.217911 
L 180.912 122.996149 
L 181.938667 124.774388 
L 183.992 124.774388 
L 183.992 124.774388 
L 182.965333 126.552627 
L 183.992 128.330866 
L 186.045333 128.330866 
L 187.072 126.552627 
L 187.072 126.552627 
L 188.098667 128.330866 
L 190.152 128.330866 
L 190.152 128.330866 
L 189.125333 130.109105 
L 190.152 131.887344 
L 190.152 131.887344 
L 188.098667 131.887344 
L 187.072 133.665582 
L 188.098667 135.443821 
L 190.152 135.443821 
L 190.152 135.443821 
L 189.125333 137.22206 
L 190.152 139.000299 
L 190.152 139.000299 
L 188.098667 139.000299 
L 187.072 140.778538 
L 187.072 140.778538 
L 186.045333 139.000299 
L 183.992 139.000299 
L 182.965333 140.778538 
L 183.992 142.556777 
L 183.992 142.556777 
L 181.938667 142.556777 
L 180.912 144.335015 
L 180.912 144.335015 
L 179.885333 142.556777 
L 177.832 142.556777 
L 177.832 142.556777 
L 178.858667 140.778538 
L 177.832 139.000299 
L 175.778667 139.000299 
L 174.752 140.778538 
L 174.752 140.778538 
L 173.725333 139.000299 
L 171.672 139.000299 
L 170.645333 140.778538 
L 171.672 142.556777 
L 171.672 142.556777 
L 169.618667 142.556777 
L 168.592 144.335015 
L 169.618667 146.113254 
L 171.672 146.113254 
L 171.672 146.113254 
L 170.645333 147.891493 
L 171.672 149.669732 
L 171.672 149.669732 
L 169.618667 149.669732 
L 168.592 151.447971 
L 168.592 151.447971 
L 167.565333 149.669732 
L 165.512 149.669732 
L 164.485333 151.447971 
L 165.512 153.22621 
L 165.512 153.22621 
L 163.458667 153.22621 
L 162.432 155.004448 
L 163.458667 156.782687 
L 165.512 156.782687 
L 165.512 156.782687 
L 164.485333 158.560926 
L 165.512 160.339165 
L 167.565333 160.339165 
L 168.592 158.560926 
L 168.592 158.560926 
L 169.618667 160.339165 
L 171.672 160.339165 
L 171.672 160.339165 
L 170.645333 162.117404 
L 171.672 163.895643 
L 171.672 163.895643 
L 169.618667 163.895643 
L 168.592 165.673881 
L 169.618667 167.45212 
L 171.672 167.45212 
L 171.672 167.45212 
L 170.645333 169.230359 
L 171.672 171.008598 
L 173.725333 171.008598 
L 174.752 169.230359 
L 174.752 169.230359 
L 175.778667 171.008598 
L 177.832 171.008598 
L 178.858667 169.230359 
L 177.832 167.45212 
L 177.832 167.45212 
L 179.885333 167.45212 
L 180.912 165.673881 
L 180.912 165.673881 
L 181.938667 167.45212 
L 183.992 167.45212 
L 183.992 167.45212 
L 182.965333 169.230359 
L 183.992 171.008598 
L 186.045333 171.008598 
L 187.072 169.230359 
L 187.072 169.230359 
L 188.098667 171.008598 
L 190.152 171.008598 
L 190.152 171.008598 
L 189.125333 172.786837 
L 190.152 174.565076 
L 190.152 174.565076 
L 188.098667 174.565076 
L 187.072 176.343314 
L 188.098667 178.121553 
L 190.152 178.121553 
L 190.152 178.121553 
L 189.125333 179.899792 
L 190.152 181.678031 
L 190.152 181.678031 
L 188.098667 181.678031 
L 187.072 183.45627 
L 187.072 183.45627 
L 186.045333 181.678031 
L 183.992 181.678031 
L 182.965333 183.45627 
L 183.992 185.234508 
L 183.992 185.234508 
L 181.938667 185.234508 
L 180.912 187.012747 
L 181.938667 188.790986 
L 183.992 188.790986 
L 183.992 188.790986 
L 182.965333 190.569225 
L 183.992 192.347464 
L 186.045333 192.347464 
L 187.072 190.569225 
L 187.072 190.569225 
L 188.098667 192.347464 
L 190.152 192.347464 
L 190.152 192.347464 
L 189.125333 194.125703 
L 190.152 195.903941 
L 190.152 195.903941 
L 188.098667 195.903941 
L 187.072 197.68218 
L 188.098667 199.460419 
L 190.152 199.460419 
L 190.152 199.460419 
L 189.125333 201.238658 
L 190.152 203.016897 
L 190.152 203.016897 
L 188.098667 203.016897 
L 187.072 204.795136 
L 187.072 204.795136 
L 186.045333 203.016897 
L 183.992 203.016897 
L 182.965333 204.795136 
L 183.992 206.573374 
L 183.992 206.573374 
L 181.938667 206.573374 
L 180.912 208.351613 
L 180.912 208.351613 
L 179.885333 206.573374 
L 177.832 206.573374 
L 177.832 206.573374 
L 178.858667 204.795136 
L 177.832 203.016897 
L 175.778667 203.016897 
L 174.752 204.795136 
L 174.752 204.795136 
L 173.725333 203.016897 
L 171.672 203.016897 
L 170.645333 204.795136 
L 171.672 206.573374 
L 171.672 206.573374 
L 169.618667 206.573374 
L 168.592 208.351613 
L 169.618667 210.129852 
L 171.672 210.129852 
L 171.672 210.129852 
L 170.645333 211.908091 
L 171.672 213.68633 
L 171.672 213.68633 
L 169.618667 213.68633 
L 168.592 215.464569 
L 168.592 215.464569 
L 167.565333 213.68633 
L 165.512 213.68633 
L 164.485333 215.464569 
L 165.512 217.242807 
L 165.512 217.242807 
L 163.458667 217.242807 
L 162.432 219.021046 
L 162.432 219.021046 
L 161.405333 217.242807 
L 159.352 217.242807 
L 159.352 217.242807 
L 160.378667 215.464569 
L 159.352 213.68633 
L 157.298667 213.68633 
L 156.272 215.464569 
L 156.272 215.464569 
L 155.245333 213.68633 
L 153.192 213.68633 
L 153.192 213.68633 
L 154.218667 211.908091 
L 153.192 210.129852 
L 153.192 210.129852 
L 155.245333 210.129852 
L 156.272 208.351613 
L 155.245333 206.573374 
L 153.192 206.573374 
L 153.192 206.573374 
L 154.218667 204.795136 
L 153.192 203.016897 
L 151.138667 203.016897 
L 150.112 204.795136 
L 150.112 204.795136 
L 149.085333 203.016897 
L 147.032 203.016897 
L 146.005333 204.795136 
L 147.032 206.573374 
L 147.032 206.573374 
L 144.978667 206.573374 
L 143.952 208.351613 
L 143.952 208.351613 
L 142.925333 206.573374 
L 140.872 206.573374 
L 140.872 206.573374 
L 141.898667 204.795136 
L 140.872 203.016897 
L 138.818667 203.016897 
L 137.792 204.795136 
L 137.792 204.795136 
L 136.765333 203.016897 
L 134.712 203.016897 
L 133.685333 204.795136 
L 134.712 206.573374 
L 134.712 206.573374 
L 132.658667 206.573374 
L 131.632 208.351613 
L 132.658667 210.129852 
L 134.712 210.129852 
L 134.712 210.129852 
L 133.685333 211.908091 
L 134.712 213.68633 
L 134.712 213.68633 
L 132.658667 213.68633 
L 131.632 215.464569 
L 131.632 215.464569 
L 130.605333 213.68633 
L 128.552 213.68633 
L 127.525333 215.464569 
L 128.552 217.242807 
L 128.552 217.242807 
L 126.498667 217.242807 
L 125.472 219.021046 
L 126.498667 220.799285 
L 128.552 220.799285 
L 128.552 220.799285 
L 127.525333 222.577524 
L 128.552 224.355763 
L 130.605333 224.355763 
L 131.632 222.577524 
L 131.632 222.577524 
L 132.658667 224.355763 
L 134.712 224.355763 
L 134.712 224.355763 
L 133.685333 226.134002 
L 134.712 227.91224 
L 134.712 227.91224 
L 132.658667 227.91224 
L 131.632 229.690479 
L 132.658667 231.468718 
L 134.712 231.468718 
L 134.712 231.468718 
L 133.685333 233.246957 
L 134.712 235.025196 
L 134.712 235.025196 
L 132.658667 235.025196 
L 131.632 236.803435 
L 131.632 236.803435 
L 130.605333 235.025196 
L 128.552 235.025196 
L 127.525333 236.803435 
L 128.552 238.581673 
L 128.552 238.581673 
L 126.498667 238.581673 
L 125.472 240.359912 
L 125.472 240.359912 
L 124.445333 238.581673 
L 122.392 238.581673 
L 122.392 238.581673 
L 123.418667 236.803435 
L 122.392 235.025196 
L 120.338667 235.025196 
L 119.312 236.803435 
L 119.312 236.803435 
L 118.285333 235.025196 
L 116.232 235.025196 
L 115.205333 236.803435 
L 116.232 238.581673 
L 116.232 238.581673 
L 114.178667 238.581673 
L 113.152 240.359912 
L 114.178667 242.138151 
L 116.232 242.138151 
L 116.232 242.138151 
L 115.205333 243.91639 
L 116.232 245.694629 
L 116.232 245.694629 
L 114.178667 245.694629 
L 113.152 247.472867 
L 113.152 247.472867 
L 112.125333 245.694629 
L 110.072 245.694629 
L 109.045333 247.472867 
L 110.072 249.251106 
L 110.072 249.251106 
L 108.018667 249.251106 
L 106.992 251.029345 
L 106.992 251.029345 
" clip-path="url(#p4132198f91)" style="fill: none; stroke: #808080; stroke-linecap: square"/>
   </g>
  </g>
 </g>
 <defs>
  <clipPath id="p4132198f91">
   <rect x="7.2" y="7.2" width="199.584" height="266.112"/>
  </clipPath>
 </defs>
</svg>
