<?xml version="1.0" encoding="utf-8" standalone="no"?>
<!DOCTYPE svg PUBLIC "-//W3C//DTD SVG 1.1//EN"
  "http://www.w3.org/Graphics/SVG/1.1/DTD/svg11.dtd">
<svg xmlns:xlink="http://www.w3.org/1999/xlink" width="213.984pt" height="280.512pt" viewBox="0 0 213.984 280.512" xmlns="http://www.w3.org/2000/svg" version="1.1">
 <metadata>
  <rdf:RDF xmlns:dc="http://purl.org/dc/elements/1.1/" xmlns:cc="http://creativecommons.org/ns#" xmlns:rdf="http://www.w3.org/1999/02/22-rdf-syntax-ns#">
   <cc:Work>
    <dc:type rdf:resource="http://purl.org/dc/dcmitype/StillImage"/>
    <dc:date>2025-11-14T10:12:36.051737</dc:date>
    <dc:format>image/svg+xml</dc:format>
    <dc:creator>
     <cc:Agent>
      <dc:title>Matplotlib v3.9.1.post1, https://matplotlib.org/</dc:title>
     </cc:Agent>
    </dc:creator>
   </cc:Work>
  </rdf:RDF>
 </metadata>
 <defs>
  <style type="text/css">*{stroke-linejoin: round; stroke-linecap: butt}</style>
 </defs>
 <g id="figure_1">
  <g id="patch_1">
   <path d="M 0 280.512 
L 213.984 280.512 
L 213.984 0 
L 0 0 
z
" style="fill: #ffffff"/>
  </g>
  <g id="axes_1">
   <g id="line2d_1">
    <path d="M 23.832 106.992 
L 29.992 106.992 
L 33.072 101.657284 
L 33.072 101.657284 
L 36.152 106.992 
L 42.312 106.992 
L 45.392 101.657284 
L 42.312 96.322567 
L 42.312 96.322567 
L 48.472 96.322567 
L 51.552 90.987851 
L 51.552 90.987851 
L 54.632 96.322567 
L 60.792 96.322567 
L 60.792 96.322567 
L 57.712 101.657284 
L 60.792 106.992 
L 66.952 106.992 
L 70.032 101.657284 
L 70.032 101.657284 
L 73.112 106.992 
L 79.272 106.992 
L 82.352 101.657284 
L 79.272 96.322567 
L 79.272 96.322567 
L 85.432 96.322567 
L 88.512 90.987851 
L 85.432 85.653134 
L 79.272 85.653134 
L 79.272 85.653134 
L 82.352 80.318418 
L 79.272 74.983701 
L 79.272 74.983701 
L 85.432 74.983701 
L 88.512 69.648985 
L 88.512 69.648985 
L 91.592 74.983701 
L 97.752 74.983701 
L 100.832 69.648985 
L 97.752 64.314268 
L 97.752 64.314268 
L 103.912 64.314268 
L 106.992 58.979552 
L 106.992 58.979552 
L 110.072 64.314268 
L 116.232 64.314268 
L 116.232 64.314268 
L 113.152 69.648985 
L 116.232 74.983701 
L 122.392 74.983701 
L 125.472 69.648985 
L 125.472 69.648985 
L 128.552 74.983701 
L 134.712 74.983701 
L 134.712 74.983701 
L 131.632 80.318418 
L 134.712 85.653134 
L 134.712 85.653134 
L 128.552 85.653134 
L 125.472 90.987851 
L 128.552 96.322567 
L 134.712 96.322567 
L 134.712 96.322567 
L 131.632 101.657284 
L 134.712 106.992 
L 140.872 106.992 
L 143.952 101.657284 
L 143.952 101.657284 
L 147.032 106.992 
L 153.192 106.992 
L 156.272 101.657284 
L 153.192 96.322567 
L 153.192 96.322567 
L 159.352 96.322567 
L 162.432 90.987851 
L 162.432 90.987851 
L 165.512 96.322567 
L 171.672 96.322567 
L 171.672 96.322567 
L 168.592 101.657284 
L 171.672 106.992 
L 177.832 106.992 
L 180.912 101.657284 
L 180.912 101.657284 
L 183.992 106.992 
L 190.152 106.992 
" clip-path="url(#p202cb9ab32)" style="fill: none; stroke: #808080; stroke-linecap: square"/>
   </g>
   <g id="line2d_2">
    <path d="M 23.832 106.992 
L 26.912 112.326716 
L 23.832 117.661433 
L 23.832 117.661433 
L 29.992 117.661433 
L 33.072 122.996149 
L 29.992 128.330866 
L 23.832 128.330866 
L 23.832 128.330866 
L 26.912 133.665582 
L 23.832 139.000299 
L 23.832 139.000299 
L 29.992 139.000299 
L 33.072 144.335015 
L 33.072 144.335015 
L 36.152 139.000299 
L 42.312 139.000299 
L 45.392 144.335015 
L 42.312 149.669732 
L 42.312 149.669732 
L 48.472 149.669732 
L 51.552 155.004448 
L 48.472 160.339165 
L 42.312 160.339165 
L 42.312 160.339165 
L 45.392 165.673881 
L 42.312 171.008598 
L 36.152 171.008598 
L 33.072 165.673881 
L 33.072 165.673881 
L 29.992 171.008598 
L 23.832 171.008598 
L 23.832 171.008598 
L 26.912 176.343314 
L 23.832 181.678031 
L 23.832 181.678031 
L 29.992 181.678031 
L 33.072 187.012747 
L 29.992 192.347464 
L 23.832 192.347464 
L 23.832 192.347464 
L 26.912 197.68218 
L 23.832 203.016897 
L 23.832 203.016897 
L 29.992 203.016897 
L 33.072 208.351613 
L 33.072 208.351613 
L 36.152 203.016897 
L 42.312 203.016897 
L 45.392 208.351613 
L 42.312 213.68633 
L 42.312 213.68633 
L 48.472 213.68633 
L 51.552 219.021046 
L 51.552 219.021046 
L 54.632 213.68633 
L 60.792 213.68633 
L 60.792 213.68633 
L 57.712 208.351613 
L 60.792 203.016897 
L 66.952 203.016897 
L 70.032 208.351613 
L 70.032 208.351613 
L 73.112 203.016897 
L 79.272 203.016897 
L 82.352 208.351613 
L 79.272 213.68633 
L 79.272 213.68633 
L 85.432 213.68633 
L 88.512 219.021046 
L 85.432 224.355763 
L 79.272 224.355763 
L 79.272 224.355763 
L 82.352 229.690479 
L 79.272 235.025196 
L 79.272 235.025196 
L 85.432 235.025196 
L 88.512 240.359912 
L 88.512 240.359912 
L 91.592 235.025196 
L 97.752 235.025196 
L 100.832 240.359912 
L 97.752 245.694629 
L 97.752 245.694629 
L 103.912 245.694629 
L 106.992 251.029345 
" clip-path="url(#p202cb9ab32)" style="fill: none; stroke: #808080; stroke-linecap: square"/>
   </g>
   <g id="line2d_3">
    <path d="M 190.152 106.992 
L 187.072 112.326716 
L 190.152 117.661433 
L 190.152 117.661433 
L 183.992 117.661433 
L 180.912 122.996149 
L 183.992 128.330866 
L 190.152 128.330866 
L 190.152 128.330866 
L 187.072 133.665582 
L 190.152 139.000299 
L 190.152 139.000299 
L 183.992 139.000299 
L 180.912 144.335015 
L 180.912 144.335015 
L 177.832 139.000299 
L 171.672 139.000299 
L 168.592 144.335015 
L 171.672 149.669732 
L 171.672 149.669732 
L 165.512 149.669732 
L 162.432 155.004448 
L 165.512 160.339165 
L 171.672 160.339165 
L 171.672 160.339165 
L 168.592 165.673881 
L 171.672 171.008598 
L 177.832 171.008598 
L 180.912 165.673881 
L 180.912 165.673881 
L 183.992 171.008598 
L 190.152 171.008598 
L 190.152 171.008598 
L 187.072 176.343314 
L 190.152 181.678031 
L 190.152 181.678031 
L 183.992 181.678031 
L 180.912 187.012747 
L 183.992 192.347464 
L 190.152 192.347464 
L 190.152 192.347464 
L 187.072 197.68218 
L 190.152 203.016897 
L 190.152 203.016897 
L 183.992 203.016897 
L 180.912 208.351613 
L 180.912 208.351613 
L 177.832 203.016897 
L 171.672 203.016897 
L 168.592 208.351613 
L 171.672 213.68633 
L 171.672 213.68633 
L 165.512 213.68633 
L 162.432 219.021046 
L 162.432 219.021046 
L 159.352 213.68633 
L 153.192 213.68633 
L 153.192 213.68633 
L 156.272 208.351613 
L 153.192 203.016897 
L 147.032 203.016897 
L 143.952 208.351613 
L 143.952 208.351613 
L 140.872 203.016897 
L 134.712 203.016897 
L 131.632 208.351613 
L 134.712 213.68633 
L 134.712 213.68633 
L 128.552 213.68633 
L 125.472 219.021046 
L 128.552 224.355763 
L 134.712 224.355763 
L 134.712 224.355763 
L 131.632 229.690479 
L 134.712 235.025196 
L 134.712 235.025196 
L 128.552 235.025196 
L 125.472 240.359912 
L 125.472 240.359912 
L 122.392 235.025196 
L 116.232 235.025196 
L 113.152 240.359912 
L 116.232 245.694629 
L 116.232 245.694629 
L 110.072 245.694629 
L 106.992 251.029345 
" clip-path="url(#p202cb9ab32)" style="fill: none; stroke: #808080; stroke-linecap: square"/>
   </g>
  </g>
 </g>
 <defs>
  <clipPath id="p202cb9ab32">
   <rect x="7.2" y="7.2" width="199.584" height="266.112"/>
  </clipPath>
 </defs>
</svg>
