<?xml version="1.0" encoding="utf-8" standalone="no"?>
<!DOCTYPE svg PUBLIC "-//W3C//DTD SVG 1.1//EN"
  "http://www.w3.org/Graphics/SVG/1.1/DTD/svg11.dtd">
<svg xmlns:xlink="http://www.w3.org/1999/xlink" width="371.52pt" height="163.2pt" viewBox="0 0 371.52 163.2" xmlns="http://www.w3.org/2000/svg" version="1.1">
 <metadata>
  <rdf:RDF xmlns:dc="http://purl.org/dc/elements/1.1/" xmlns:cc="http://creativecommons.org/ns#" xmlns:rdf="http://www.w3.org/1999/02/22-rdf-syntax-ns#">
   <cc:Work>
    <dc:type rdf:resource="http://purl.org/dc/dcmitype/StillImage"/>
    <dc:date>2025-11-14T10:12:45.221563</dc:date>
    <dc:format>image/svg+xml</dc:format>
    <dc:creator>
     <cc:Agent>
      <dc:title>Matplotlib v3.9.1.post1, https://matplotlib.org/</dc:title>
     </cc:Agent>
    </dc:creator>
   </cc:Work>
  </rdf:RDF>
 </metadata>
 <defs>
  <style type="text/css">*{stroke-linejoin: round; stroke-linecap: butt}</style>
 </defs>
 <g id="figure_1">
  <g id="patch_1">
   <path d="M 0 163.2 
L 371.52 163.2 
L 371.52 0 
L 0 0 
z
" style="fill: #ffffff"/>
  </g>
  <g id="axes_1">
   <g id="line2d_1">
    <path d="M 36.96 126.24 
L 38.184691 126.24 
L 38.797037 125.179386 
L 38.797037 125.179386 
L 39.409383 126.24 
L 40.634074 126.24 
L 41.24642 125.179386 
L 40.634074 124.118772 
L 40.634074 124.118772 
L 41.858765 124.118772 
L 42.471111 123.058159 
L 42.471111 123.058159 
L 43.083457 124.118772 
L 44.308148 124.118772 
L 44.308148 124.118772 
L 43.695802 125.179386 
L 44.308148 126.24 
L 45.53284 126.24 
L 46.145185 125.179386 
L 46.145185 125.179386 
L 46.757531 126.24 
L 47.982222 126.24 
L 48.594568 125.179386 
L 47.982222 124.118772 
L 47.982222 124.118772 
L 49.206914 124.118772 
L 49.819259 123.058159 
L 49.206914 121.997545 
L 47.982222 121.997545 
L 47.982222 121.997545 
L 48.594568 120.936931 
L 47.982222 119.876317 
L 47.982222 119.876317 
L 49.206914 119.876317 
L 49.819259 118.815703 
L 49.819259 118.815703 
L 50.431605 119.876317 
L 51.656296 119.876317 
L 52.268642 118.815703 
L 51.656296 117.755089 
L 51.656296 117.755089 
L 52.880988 117.755089 
L 53.493333 116.694476 
L 53.493333 116.694476 
L 54.105679 117.755089 
L 55.33037 117.755089 
L 55.33037 117.755089 
L 54.718025 118.815703 
L 55.33037 119.876317 
L 56.555062 119.876317 
L 57.167407 118.815703 
L 57.167407 118.815703 
L 57.779753 119.876317 
L 59.004444 119.876317 
L 59.004444 119.876317 
L 58.392099 120.936931 
L 59.004444 121.997545 
L 59.004444 121.997545 
L 57.779753 121.997545 
L 57.167407 123.058159 
L 57.779753 124.118772 
L 59.004444 124.118772 
L 59.004444 124.118772 
L 58.392099 125.179386 
L 59.004444 126.24 
L 60.229136 126.24 
L 60.841481 125.179386 
L 60.841481 125.179386 
L 61.453827 126.24 
L 62.678519 126.24 
L 63.290864 125.179386 
L 62.678519 124.118772 
L 62.678519 124.118772 
L 63.90321 124.118772 
L 64.515556 123.058159 
L 64.515556 123.058159 
L 65.127901 124.118772 
L 66.352593 124.118772 
L 66.352593 124.118772 
L 65.740247 125.179386 
L 66.352593 126.24 
L 67.577284 126.24 
L 68.18963 125.179386 
L 68.18963 125.179386 
L 68.801975 126.24 
L 70.026667 126.24 
L 70.639012 125.179386 
L 70.026667 124.118772 
L 70.026667 124.118772 
L 71.251358 124.118772 
L 71.863704 123.058159 
L 71.251358 121.997545 
L 70.026667 121.997545 
L 70.026667 121.997545 
L 70.639012 120.936931 
L 70.026667 119.876317 
L 70.026667 119.876317 
L 71.251358 119.876317 
L 71.863704 118.815703 
L 71.863704 118.815703 
L 72.476049 119.876317 
L 73.700741 119.876317 
L 74.313086 118.815703 
L 73.700741 117.755089 
L 73.700741 117.755089 
L 74.925432 117.755089 
L 75.537778 116.694476 
L 74.925432 115.633862 
L 73.700741 115.633862 
L 73.700741 115.633862 
L 74.313086 114.573248 
L 73.700741 113.512634 
L 72.476049 113.512634 
L 71.863704 114.573248 
L 71.863704 114.573248 
L 71.251358 113.512634 
L 70.026667 113.512634 
L 70.026667 113.512634 
L 70.639012 112.45202 
L 70.026667 111.391406 
L 70.026667 111.391406 
L 71.251358 111.391406 
L 71.863704 110.330793 
L 71.251358 109.270179 
L 70.026667 109.270179 
L 70.026667 109.270179 
L 70.639012 108.209565 
L 70.026667 107.148951 
L 70.026667 107.148951 
L 71.251358 107.148951 
L 71.863704 106.088337 
L 71.863704 106.088337 
L 72.476049 107.148951 
L 73.700741 107.148951 
L 74.313086 106.088337 
L 73.700741 105.027723 
L 73.700741 105.027723 
L 74.925432 105.027723 
L 75.537778 103.96711 
L 75.537778 103.96711 
L 76.150123 105.027723 
L 77.374815 105.027723 
L 77.374815 105.027723 
L 76.762469 106.088337 
L 77.374815 107.148951 
L 78.599506 107.148951 
L 79.211852 106.088337 
L 79.211852 106.088337 
L 79.824198 107.148951 
L 81.048889 107.148951 
L 81.661235 106.088337 
L 81.048889 105.027723 
L 81.048889 105.027723 
L 82.27358 105.027723 
L 82.885926 103.96711 
L 82.27358 102.906496 
L 81.048889 102.906496 
L 81.048889 102.906496 
L 81.661235 101.845882 
L 81.048889 100.785268 
L 81.048889 100.785268 
L 82.27358 100.785268 
L 82.885926 99.724654 
L 82.885926 99.724654 
L 83.498272 100.785268 
L 84.722963 100.785268 
L 85.335309 99.724654 
L 84.722963 98.66404 
L 84.722963 98.66404 
L 85.947654 98.66404 
L 86.56 97.603427 
L 86.56 97.603427 
L 87.172346 98.66404 
L 88.397037 98.66404 
L 88.397037 98.66404 
L 87.784691 99.724654 
L 88.397037 100.785268 
L 89.621728 100.785268 
L 90.234074 99.724654 
L 90.234074 99.724654 
L 90.84642 100.785268 
L 92.071111 100.785268 
L 92.071111 100.785268 
L 91.458765 101.845882 
L 92.071111 102.906496 
L 92.071111 102.906496 
L 90.84642 102.906496 
L 90.234074 103.96711 
L 90.84642 105.027723 
L 92.071111 105.027723 
L 92.071111 105.027723 
L 91.458765 106.088337 
L 92.071111 107.148951 
L 93.295802 107.148951 
L 93.908148 106.088337 
L 93.908148 106.088337 
L 94.520494 107.148951 
L 95.745185 107.148951 
L 96.357531 106.088337 
L 95.745185 105.027723 
L 95.745185 105.027723 
L 96.969877 105.027723 
L 97.582222 103.96711 
L 97.582222 103.96711 
L 98.194568 105.027723 
L 99.419259 105.027723 
L 99.419259 105.027723 
L 98.806914 106.088337 
L 99.419259 107.148951 
L 100.643951 107.148951 
L 101.256296 106.088337 
L 101.256296 106.088337 
L 101.868642 107.148951 
L 103.093333 107.148951 
L 103.093333 107.148951 
L 102.480988 108.209565 
L 103.093333 109.270179 
L 103.093333 109.270179 
L 101.868642 109.270179 
L 101.256296 110.330793 
L 101.868642 111.391406 
L 103.093333 111.391406 
L 103.093333 111.391406 
L 102.480988 112.45202 
L 103.093333 113.512634 
L 103.093333 113.512634 
L 101.868642 113.512634 
L 101.256296 114.573248 
L 101.256296 114.573248 
L 100.643951 113.512634 
L 99.419259 113.512634 
L 98.806914 114.573248 
L 99.419259 115.633862 
L 99.419259 115.633862 
L 98.194568 115.633862 
L 97.582222 116.694476 
L 98.194568 117.755089 
L 99.419259 117.755089 
L 99.419259 117.755089 
L 98.806914 118.815703 
L 99.419259 119.876317 
L 100.643951 119.876317 
L 101.256296 118.815703 
L 101.256296 118.815703 
L 101.868642 119.876317 
L 103.093333 119.876317 
L 103.093333 119.876317 
L 102.480988 120.936931 
L 103.093333 121.997545 
L 103.093333 121.997545 
L 101.868642 121.997545 
L 101.256296 123.058159 
L 101.868642 124.118772 
L 103.093333 124.118772 
L 103.093333 124.118772 
L 102.480988 125.179386 
L 103.093333 126.24 
L 104.318025 126.24 
L 104.93037 125.179386 
L 104.93037 125.179386 
L 105.542716 126.24 
L 106.767407 126.24 
L 107.379753 125.179386 
L 106.767407 124.118772 
L 106.767407 124.118772 
L 107.992099 124.118772 
L 108.604444 123.058159 
L 108.604444 123.058159 
L 109.21679 124.118772 
L 110.441481 124.118772 
L 110.441481 124.118772 
L 109.829136 125.179386 
L 110.441481 126.24 
L 111.666173 126.24 
L 112.278519 125.179386 
L 112.278519 125.179386 
L 112.890864 126.24 
L 114.115556 126.24 
L 114.727901 125.179386 
L 114.115556 124.118772 
L 114.115556 124.118772 
L 115.340247 124.118772 
L 115.952593 123.058159 
L 115.340247 121.997545 
L 114.115556 121.997545 
L 114.115556 121.997545 
L 114.727901 120.936931 
L 114.115556 119.876317 
L 114.115556 119.876317 
L 115.340247 119.876317 
L 115.952593 118.815703 
L 115.952593 118.815703 
L 116.564938 119.876317 
L 117.78963 119.876317 
L 118.401975 118.815703 
L 117.78963 117.755089 
L 117.78963 117.755089 
L 119.014321 117.755089 
L 119.626667 116.694476 
L 119.626667 116.694476 
L 120.239012 117.755089 
L 121.463704 117.755089 
L 121.463704 117.755089 
L 120.851358 118.815703 
L 121.463704 119.876317 
L 122.688395 119.876317 
L 123.300741 118.815703 
L 123.300741 118.815703 
L 123.913086 119.876317 
L 125.137778 119.876317 
L 125.137778 119.876317 
L 124.525432 120.936931 
L 125.137778 121.997545 
L 125.137778 121.997545 
L 123.913086 121.997545 
L 123.300741 123.058159 
L 123.913086 124.118772 
L 125.137778 124.118772 
L 125.137778 124.118772 
L 124.525432 125.179386 
L 125.137778 126.24 
L 126.362469 126.24 
L 126.974815 125.179386 
L 126.974815 125.179386 
L 127.58716 126.24 
L 128.811852 126.24 
L 129.424198 125.179386 
L 128.811852 124.118772 
L 128.811852 124.118772 
L 130.036543 124.118772 
L 130.648889 123.058159 
L 130.648889 123.058159 
L 131.261235 124.118772 
L 132.485926 124.118772 
L 132.485926 124.118772 
L 131.87358 125.179386 
L 132.485926 126.24 
L 133.710617 126.24 
L 134.322963 125.179386 
L 134.322963 125.179386 
L 134.935309 126.24 
L 136.16 126.24 
L 136.772346 125.179386 
L 136.16 124.118772 
L 136.16 124.118772 
L 137.384691 124.118772 
L 137.997037 123.058159 
L 137.384691 121.997545 
L 136.16 121.997545 
L 136.16 121.997545 
L 136.772346 120.936931 
L 136.16 119.876317 
L 136.16 119.876317 
L 137.384691 119.876317 
L 137.997037 118.815703 
L 137.997037 118.815703 
L 138.609383 119.876317 
L 139.834074 119.876317 
L 140.44642 118.815703 
L 139.834074 117.755089 
L 139.834074 117.755089 
L 141.058765 117.755089 
L 141.671111 116.694476 
L 141.058765 115.633862 
L 139.834074 115.633862 
L 139.834074 115.633862 
L 140.44642 114.573248 
L 139.834074 113.512634 
L 138.609383 113.512634 
L 137.997037 114.573248 
L 137.997037 114.573248 
L 137.384691 113.512634 
L 136.16 113.512634 
L 136.16 113.512634 
L 136.772346 112.45202 
L 136.16 111.391406 
L 136.16 111.391406 
L 137.384691 111.391406 
L 137.997037 110.330793 
L 137.384691 109.270179 
L 136.16 109.270179 
L 136.16 109.270179 
L 136.772346 108.209565 
L 136.16 107.148951 
L 136.16 107.148951 
L 137.384691 107.148951 
L 137.997037 106.088337 
L 137.997037 106.088337 
L 138.609383 107.148951 
L 139.834074 107.148951 
L 140.44642 106.088337 
L 139.834074 105.027723 
L 139.834074 105.027723 
L 141.058765 105.027723 
L 141.671111 103.96711 
L 141.671111 103.96711 
L 142.283457 105.027723 
L 143.508148 105.027723 
L 143.508148 105.027723 
L 142.895802 106.088337 
L 143.508148 107.148951 
L 144.73284 107.148951 
L 145.345185 106.088337 
L 145.345185 106.088337 
L 145.957531 107.148951 
L 147.182222 107.148951 
L 147.794568 106.088337 
L 147.182222 105.027723 
L 147.182222 105.027723 
L 148.406914 105.027723 
L 149.019259 103.96711 
L 148.406914 102.906496 
L 147.182222 102.906496 
L 147.182222 102.906496 
L 147.794568 101.845882 
L 147.182222 100.785268 
L 147.182222 100.785268 
L 148.406914 100.785268 
L 149.019259 99.724654 
L 149.019259 99.724654 
L 149.631605 100.785268 
L 150.856296 100.785268 
L 151.468642 99.724654 
L 150.856296 98.66404 
L 150.856296 98.66404 
L 152.080988 98.66404 
L 152.693333 97.603427 
L 152.080988 96.542813 
L 150.856296 96.542813 
L 150.856296 96.542813 
L 151.468642 95.482199 
L 150.856296 94.421585 
L 149.631605 94.421585 
L 149.019259 95.482199 
L 149.019259 95.482199 
L 148.406914 94.421585 
L 147.182222 94.421585 
L 147.182222 94.421585 
L 147.794568 93.360971 
L 147.182222 92.300358 
L 147.182222 92.300358 
L 148.406914 92.300358 
L 149.019259 91.239744 
L 148.406914 90.17913 
L 147.182222 90.17913 
L 147.182222 90.17913 
L 147.794568 89.118516 
L 147.182222 88.057902 
L 145.957531 88.057902 
L 145.345185 89.118516 
L 145.345185 89.118516 
L 144.73284 88.057902 
L 143.508148 88.057902 
L 142.895802 89.118516 
L 143.508148 90.17913 
L 143.508148 90.17913 
L 142.283457 90.17913 
L 141.671111 91.239744 
L 141.671111 91.239744 
L 141.058765 90.17913 
L 139.834074 90.17913 
L 139.834074 90.17913 
L 140.44642 89.118516 
L 139.834074 88.057902 
L 138.609383 88.057902 
L 137.997037 89.118516 
L 137.997037 89.118516 
L 137.384691 88.057902 
L 136.16 88.057902 
L 136.16 88.057902 
L 136.772346 86.997288 
L 136.16 85.936675 
L 136.16 85.936675 
L 137.384691 85.936675 
L 137.997037 84.876061 
L 137.384691 83.815447 
L 136.16 83.815447 
L 136.16 83.815447 
L 136.772346 82.754833 
L 136.16 81.694219 
L 136.16 81.694219 
L 137.384691 81.694219 
L 137.997037 80.633605 
L 137.997037 80.633605 
L 138.609383 81.694219 
L 139.834074 81.694219 
L 140.44642 80.633605 
L 139.834074 79.572992 
L 139.834074 79.572992 
L 141.058765 79.572992 
L 141.671111 78.512378 
L 141.058765 77.451764 
L 139.834074 77.451764 
L 139.834074 77.451764 
L 140.44642 76.39115 
L 139.834074 75.330536 
L 138.609383 75.330536 
L 137.997037 76.39115 
L 137.997037 76.39115 
L 137.384691 75.330536 
L 136.16 75.330536 
L 136.16 75.330536 
L 136.772346 74.269922 
L 136.16 73.209309 
L 136.16 73.209309 
L 137.384691 73.209309 
L 137.997037 72.148695 
L 137.384691 71.088081 
L 136.16 71.088081 
L 136.16 71.088081 
L 136.772346 70.027467 
L 136.16 68.966853 
L 136.16 68.966853 
L 137.384691 68.966853 
L 137.997037 67.906239 
L 137.997037 67.906239 
L 138.609383 68.966853 
L 139.834074 68.966853 
L 140.44642 67.906239 
L 139.834074 66.845626 
L 139.834074 66.845626 
L 141.058765 66.845626 
L 141.671111 65.785012 
L 141.671111 65.785012 
L 142.283457 66.845626 
L 143.508148 66.845626 
L 143.508148 66.845626 
L 142.895802 67.906239 
L 143.508148 68.966853 
L 144.73284 68.966853 
L 145.345185 67.906239 
L 145.345185 67.906239 
L 145.957531 68.966853 
L 147.182222 68.966853 
L 147.794568 67.906239 
L 147.182222 66.845626 
L 147.182222 66.845626 
L 148.406914 66.845626 
L 149.019259 65.785012 
L 148.406914 64.724398 
L 147.182222 64.724398 
L 147.182222 64.724398 
L 147.794568 63.663784 
L 147.182222 62.60317 
L 147.182222 62.60317 
L 148.406914 62.60317 
L 149.019259 61.542557 
L 149.019259 61.542557 
L 149.631605 62.60317 
L 150.856296 62.60317 
L 151.468642 61.542557 
L 150.856296 60.481943 
L 150.856296 60.481943 
L 152.080988 60.481943 
L 152.693333 59.421329 
L 152.693333 59.421329 
L 153.305679 60.481943 
L 154.53037 60.481943 
L 154.53037 60.481943 
L 153.918025 61.542557 
L 154.53037 62.60317 
L 155.755062 62.60317 
L 156.367407 61.542557 
L 156.367407 61.542557 
L 156.979753 62.60317 
L 158.204444 62.60317 
L 158.204444 62.60317 
L 157.592099 63.663784 
L 158.204444 64.724398 
L 158.204444 64.724398 
L 156.979753 64.724398 
L 156.367407 65.785012 
L 156.979753 66.845626 
L 158.204444 66.845626 
L 158.204444 66.845626 
L 157.592099 67.906239 
L 158.204444 68.966853 
L 159.429136 68.966853 
L 160.041481 67.906239 
L 160.041481 67.906239 
L 160.653827 68.966853 
L 161.878519 68.966853 
L 162.490864 67.906239 
L 161.878519 66.845626 
L 161.878519 66.845626 
L 163.10321 66.845626 
L 163.715556 65.785012 
L 163.715556 65.785012 
L 164.327901 66.845626 
L 165.552593 66.845626 
L 165.552593 66.845626 
L 164.940247 67.906239 
L 165.552593 68.966853 
L 166.777284 68.966853 
L 167.38963 67.906239 
L 167.38963 67.906239 
L 168.001975 68.966853 
L 169.226667 68.966853 
L 169.839012 67.906239 
L 169.226667 66.845626 
L 169.226667 66.845626 
L 170.451358 66.845626 
L 171.063704 65.785012 
L 170.451358 64.724398 
L 169.226667 64.724398 
L 169.226667 64.724398 
L 169.839012 63.663784 
L 169.226667 62.60317 
L 169.226667 62.60317 
L 170.451358 62.60317 
L 171.063704 61.542557 
L 171.063704 61.542557 
L 171.676049 62.60317 
L 172.900741 62.60317 
L 173.513086 61.542557 
L 172.900741 60.481943 
L 172.900741 60.481943 
L 174.125432 60.481943 
L 174.737778 59.421329 
L 174.125432 58.360715 
L 172.900741 58.360715 
L 172.900741 58.360715 
L 173.513086 57.300101 
L 172.900741 56.239487 
L 171.676049 56.239487 
L 171.063704 57.300101 
L 171.063704 57.300101 
L 170.451358 56.239487 
L 169.226667 56.239487 
L 169.226667 56.239487 
L 169.839012 55.178874 
L 169.226667 54.11826 
L 169.226667 54.11826 
L 170.451358 54.11826 
L 171.063704 53.057646 
L 170.451358 51.997032 
L 169.226667 51.997032 
L 169.226667 51.997032 
L 169.839012 50.936418 
L 169.226667 49.875804 
L 169.226667 49.875804 
L 170.451358 49.875804 
L 171.063704 48.815191 
L 171.063704 48.815191 
L 171.676049 49.875804 
L 172.900741 49.875804 
L 173.513086 48.815191 
L 172.900741 47.754577 
L 172.900741 47.754577 
L 174.125432 47.754577 
L 174.737778 46.693963 
L 174.737778 46.693963 
L 175.350123 47.754577 
L 176.574815 47.754577 
L 176.574815 47.754577 
L 175.962469 48.815191 
L 176.574815 49.875804 
L 177.799506 49.875804 
L 178.411852 48.815191 
L 178.411852 48.815191 
L 179.024198 49.875804 
L 180.248889 49.875804 
L 180.861235 48.815191 
L 180.248889 47.754577 
L 180.248889 47.754577 
L 181.47358 47.754577 
L 182.085926 46.693963 
L 181.47358 45.633349 
L 180.248889 45.633349 
L 180.248889 45.633349 
L 180.861235 44.572735 
L 180.248889 43.512121 
L 180.248889 43.512121 
L 181.47358 43.512121 
L 182.085926 42.451508 
L 182.085926 42.451508 
L 182.698272 43.512121 
L 183.922963 43.512121 
L 184.535309 42.451508 
L 183.922963 41.390894 
L 183.922963 41.390894 
L 185.147654 41.390894 
L 185.76 40.33028 
L 185.76 40.33028 
L 186.372346 41.390894 
L 187.597037 41.390894 
L 187.597037 41.390894 
L 186.984691 42.451508 
L 187.597037 43.512121 
L 188.821728 43.512121 
L 189.434074 42.451508 
L 189.434074 42.451508 
L 190.04642 43.512121 
L 191.271111 43.512121 
L 191.271111 43.512121 
L 190.658765 44.572735 
L 191.271111 45.633349 
L 191.271111 45.633349 
L 190.04642 45.633349 
L 189.434074 46.693963 
L 190.04642 47.754577 
L 191.271111 47.754577 
L 191.271111 47.754577 
L 190.658765 48.815191 
L 191.271111 49.875804 
L 192.495802 49.875804 
L 193.108148 48.815191 
L 193.108148 48.815191 
L 193.720494 49.875804 
L 194.945185 49.875804 
L 195.557531 48.815191 
L 194.945185 47.754577 
L 194.945185 47.754577 
L 196.169877 47.754577 
L 196.782222 46.693963 
L 196.782222 46.693963 
L 197.394568 47.754577 
L 198.619259 47.754577 
L 198.619259 47.754577 
L 198.006914 48.815191 
L 198.619259 49.875804 
L 199.843951 49.875804 
L 200.456296 48.815191 
L 200.456296 48.815191 
L 201.068642 49.875804 
L 202.293333 49.875804 
L 202.293333 49.875804 
L 201.680988 50.936418 
L 202.293333 51.997032 
L 202.293333 51.997032 
L 201.068642 51.997032 
L 200.456296 53.057646 
L 201.068642 54.11826 
L 202.293333 54.11826 
L 202.293333 54.11826 
L 201.680988 55.178874 
L 202.293333 56.239487 
L 202.293333 56.239487 
L 201.068642 56.239487 
L 200.456296 57.300101 
L 200.456296 57.300101 
L 199.843951 56.239487 
L 198.619259 56.239487 
L 198.006914 57.300101 
L 198.619259 58.360715 
L 198.619259 58.360715 
L 197.394568 58.360715 
L 196.782222 59.421329 
L 197.394568 60.481943 
L 198.619259 60.481943 
L 198.619259 60.481943 
L 198.006914 61.542557 
L 198.619259 62.60317 
L 199.843951 62.60317 
L 200.456296 61.542557 
L 200.456296 61.542557 
L 201.068642 62.60317 
L 202.293333 62.60317 
L 202.293333 62.60317 
L 201.680988 63.663784 
L 202.293333 64.724398 
L 202.293333 64.724398 
L 201.068642 64.724398 
L 200.456296 65.785012 
L 201.068642 66.845626 
L 202.293333 66.845626 
L 202.293333 66.845626 
L 201.680988 67.906239 
L 202.293333 68.966853 
L 203.518025 68.966853 
L 204.13037 67.906239 
L 204.13037 67.906239 
L 204.742716 68.966853 
L 205.967407 68.966853 
L 206.579753 67.906239 
L 205.967407 66.845626 
L 205.967407 66.845626 
L 207.192099 66.845626 
L 207.804444 65.785012 
L 207.804444 65.785012 
L 208.41679 66.845626 
L 209.641481 66.845626 
L 209.641481 66.845626 
L 209.029136 67.906239 
L 209.641481 68.966853 
L 210.866173 68.966853 
L 211.478519 67.906239 
L 211.478519 67.906239 
L 212.090864 68.966853 
L 213.315556 68.966853 
L 213.927901 67.906239 
L 213.315556 66.845626 
L 213.315556 66.845626 
L 214.540247 66.845626 
L 215.152593 65.785012 
L 214.540247 64.724398 
L 213.315556 64.724398 
L 213.315556 64.724398 
L 213.927901 63.663784 
L 213.315556 62.60317 
L 213.315556 62.60317 
L 214.540247 62.60317 
L 215.152593 61.542557 
L 215.152593 61.542557 
L 215.764938 62.60317 
L 216.98963 62.60317 
L 217.601975 61.542557 
L 216.98963 60.481943 
L 216.98963 60.481943 
L 218.214321 60.481943 
L 218.826667 59.421329 
L 218.826667 59.421329 
L 219.439012 60.481943 
L 220.663704 60.481943 
L 220.663704 60.481943 
L 220.051358 61.542557 
L 220.663704 62.60317 
L 221.888395 62.60317 
L 222.500741 61.542557 
L 222.500741 61.542557 
L 223.113086 62.60317 
L 224.337778 62.60317 
L 224.337778 62.60317 
L 223.725432 63.663784 
L 224.337778 64.724398 
L 224.337778 64.724398 
L 223.113086 64.724398 
L 222.500741 65.785012 
L 223.113086 66.845626 
L 224.337778 66.845626 
L 224.337778 66.845626 
L 223.725432 67.906239 
L 224.337778 68.966853 
L 225.562469 68.966853 
L 226.174815 67.906239 
L 226.174815 67.906239 
L 226.78716 68.966853 
L 228.011852 68.966853 
L 228.624198 67.906239 
L 228.011852 66.845626 
L 228.011852 66.845626 
L 229.236543 66.845626 
L 229.848889 65.785012 
L 229.848889 65.785012 
L 230.461235 66.845626 
L 231.685926 66.845626 
L 231.685926 66.845626 
L 231.07358 67.906239 
L 231.685926 68.966853 
L 232.910617 68.966853 
L 233.522963 67.906239 
L 233.522963 67.906239 
L 234.135309 68.966853 
L 235.36 68.966853 
L 235.36 68.966853 
L 234.747654 70.027467 
L 235.36 71.088081 
L 235.36 71.088081 
L 234.135309 71.088081 
L 233.522963 72.148695 
L 234.135309 73.209309 
L 235.36 73.209309 
L 235.36 73.209309 
L 234.747654 74.269922 
L 235.36 75.330536 
L 235.36 75.330536 
L 234.135309 75.330536 
L 233.522963 76.39115 
L 233.522963 76.39115 
L 232.910617 75.330536 
L 231.685926 75.330536 
L 231.07358 76.39115 
L 231.685926 77.451764 
L 231.685926 77.451764 
L 230.461235 77.451764 
L 229.848889 78.512378 
L 230.461235 79.572992 
L 231.685926 79.572992 
L 231.685926 79.572992 
L 231.07358 80.633605 
L 231.685926 81.694219 
L 232.910617 81.694219 
L 233.522963 80.633605 
L 233.522963 80.633605 
L 234.135309 81.694219 
L 235.36 81.694219 
L 235.36 81.694219 
L 234.747654 82.754833 
L 235.36 83.815447 
L 235.36 83.815447 
L 234.135309 83.815447 
L 233.522963 84.876061 
L 234.135309 85.936675 
L 235.36 85.936675 
L 235.36 85.936675 
L 234.747654 86.997288 
L 235.36 88.057902 
L 235.36 88.057902 
L 234.135309 88.057902 
L 233.522963 89.118516 
L 233.522963 89.118516 
L 232.910617 88.057902 
L 231.685926 88.057902 
L 231.07358 89.118516 
L 231.685926 90.17913 
L 231.685926 90.17913 
L 230.461235 90.17913 
L 229.848889 91.239744 
L 229.848889 91.239744 
L 229.236543 90.17913 
L 228.011852 90.17913 
L 228.011852 90.17913 
L 228.624198 89.118516 
L 228.011852 88.057902 
L 226.78716 88.057902 
L 226.174815 89.118516 
L 226.174815 89.118516 
L 225.562469 88.057902 
L 224.337778 88.057902 
L 223.725432 89.118516 
L 224.337778 90.17913 
L 224.337778 90.17913 
L 223.113086 90.17913 
L 222.500741 91.239744 
L 223.113086 92.300358 
L 224.337778 92.300358 
L 224.337778 92.300358 
L 223.725432 93.360971 
L 224.337778 94.421585 
L 224.337778 94.421585 
L 223.113086 94.421585 
L 222.500741 95.482199 
L 222.500741 95.482199 
L 221.888395 94.421585 
L 220.663704 94.421585 
L 220.051358 95.482199 
L 220.663704 96.542813 
L 220.663704 96.542813 
L 219.439012 96.542813 
L 218.826667 97.603427 
L 219.439012 98.66404 
L 220.663704 98.66404 
L 220.663704 98.66404 
L 220.051358 99.724654 
L 220.663704 100.785268 
L 221.888395 100.785268 
L 222.500741 99.724654 
L 222.500741 99.724654 
L 223.113086 100.785268 
L 224.337778 100.785268 
L 224.337778 100.785268 
L 223.725432 101.845882 
L 224.337778 102.906496 
L 224.337778 102.906496 
L 223.113086 102.906496 
L 222.500741 103.96711 
L 223.113086 105.027723 
L 224.337778 105.027723 
L 224.337778 105.027723 
L 223.725432 106.088337 
L 224.337778 107.148951 
L 225.562469 107.148951 
L 226.174815 106.088337 
L 226.174815 106.088337 
L 226.78716 107.148951 
L 228.011852 107.148951 
L 228.624198 106.088337 
L 228.011852 105.027723 
L 228.011852 105.027723 
L 229.236543 105.027723 
L 229.848889 103.96711 
L 229.848889 103.96711 
L 230.461235 105.027723 
L 231.685926 105.027723 
L 231.685926 105.027723 
L 231.07358 106.088337 
L 231.685926 107.148951 
L 232.910617 107.148951 
L 233.522963 106.088337 
L 233.522963 106.088337 
L 234.135309 107.148951 
L 235.36 107.148951 
L 235.36 107.148951 
L 234.747654 108.209565 
L 235.36 109.270179 
L 235.36 109.270179 
L 234.135309 109.270179 
L 233.522963 110.330793 
L 234.135309 111.391406 
L 235.36 111.391406 
L 235.36 111.391406 
L 234.747654 112.45202 
L 235.36 113.512634 
L 235.36 113.512634 
L 234.135309 113.512634 
L 233.522963 114.573248 
L 233.522963 114.573248 
L 232.910617 113.512634 
L 231.685926 113.512634 
L 231.07358 114.573248 
L 231.685926 115.633862 
L 231.685926 115.633862 
L 230.461235 115.633862 
L 229.848889 116.694476 
L 230.461235 117.755089 
L 231.685926 117.755089 
L 231.685926 117.755089 
L 231.07358 118.815703 
L 231.685926 119.876317 
L 232.910617 119.876317 
L 233.522963 118.815703 
L 233.522963 118.815703 
L 234.135309 119.876317 
L 235.36 119.876317 
L 235.36 119.876317 
L 234.747654 120.936931 
L 235.36 121.997545 
L 235.36 121.997545 
L 234.135309 121.997545 
L 233.522963 123.058159 
L 234.135309 124.118772 
L 235.36 124.118772 
L 235.36 124.118772 
L 234.747654 125.179386 
L 235.36 126.24 
L 236.584691 126.24 
L 237.197037 125.179386 
L 237.197037 125.179386 
L 237.809383 126.24 
L 239.034074 126.24 
L 239.64642 125.179386 
L 239.034074 124.118772 
L 239.034074 124.118772 
L 240.258765 124.118772 
L 240.871111 123.058159 
L 240.871111 123.058159 
L 241.483457 124.118772 
L 242.708148 124.118772 
L 242.708148 124.118772 
L 242.095802 125.179386 
L 242.708148 126.24 
L 243.93284 126.24 
L 244.545185 125.179386 
L 244.545185 125.179386 
L 245.157531 126.24 
L 246.382222 126.24 
L 246.994568 125.179386 
L 246.382222 124.118772 
L 246.382222 124.118772 
L 247.606914 124.118772 
L 248.219259 123.058159 
L 247.606914 121.997545 
L 246.382222 121.997545 
L 246.382222 121.997545 
L 246.994568 120.936931 
L 246.382222 119.876317 
L 246.382222 119.876317 
L 247.606914 119.876317 
L 248.219259 118.815703 
L 248.219259 118.815703 
L 248.831605 119.876317 
L 250.056296 119.876317 
L 250.668642 118.815703 
L 250.056296 117.755089 
L 250.056296 117.755089 
L 251.280988 117.755089 
L 251.893333 116.694476 
L 251.893333 116.694476 
L 252.505679 117.755089 
L 253.73037 117.755089 
L 253.73037 117.755089 
L 253.118025 118.815703 
L 253.73037 119.876317 
L 254.955062 119.876317 
L 255.567407 118.815703 
L 255.567407 118.815703 
L 256.179753 119.876317 
L 257.404444 119.876317 
L 257.404444 119.876317 
L 256.792099 120.936931 
L 257.404444 121.997545 
L 257.404444 121.997545 
L 256.179753 121.997545 
L 255.567407 123.058159 
L 256.179753 124.118772 
L 257.404444 124.118772 
L 257.404444 124.118772 
L 256.792099 125.179386 
L 257.404444 126.24 
L 258.629136 126.24 
L 259.241481 125.179386 
L 259.241481 125.179386 
L 259.853827 126.24 
L 261.078519 126.24 
L 261.690864 125.179386 
L 261.078519 124.118772 
L 261.078519 124.118772 
L 262.30321 124.118772 
L 262.915556 123.058159 
L 262.915556 123.058159 
L 263.527901 124.118772 
L 264.752593 124.118772 
L 264.752593 124.118772 
L 264.140247 125.179386 
L 264.752593 126.24 
L 265.977284 126.24 
L 266.58963 125.179386 
L 266.58963 125.179386 
L 267.201975 126.24 
L 268.426667 126.24 
L 269.039012 125.179386 
L 268.426667 124.118772 
L 268.426667 124.118772 
L 269.651358 124.118772 
L 270.263704 123.058159 
L 269.651358 121.997545 
L 268.426667 121.997545 
L 268.426667 121.997545 
L 269.039012 120.936931 
L 268.426667 119.876317 
L 268.426667 119.876317 
L 269.651358 119.876317 
L 270.263704 118.815703 
L 270.263704 118.815703 
L 270.876049 119.876317 
L 272.100741 119.876317 
L 272.713086 118.815703 
L 272.100741 117.755089 
L 272.100741 117.755089 
L 273.325432 117.755089 
L 273.937778 116.694476 
L 273.325432 115.633862 
L 272.100741 115.633862 
L 272.100741 115.633862 
L 272.713086 114.573248 
L 272.100741 113.512634 
L 270.876049 113.512634 
L 270.263704 114.573248 
L 270.263704 114.573248 
L 269.651358 113.512634 
L 268.426667 113.512634 
L 268.426667 113.512634 
L 269.039012 112.45202 
L 268.426667 111.391406 
L 268.426667 111.391406 
L 269.651358 111.391406 
L 270.263704 110.330793 
L 269.651358 109.270179 
L 268.426667 109.270179 
L 268.426667 109.270179 
L 269.039012 108.209565 
L 268.426667 107.148951 
L 268.426667 107.148951 
L 269.651358 107.148951 
L 270.263704 106.088337 
L 270.263704 106.088337 
L 270.876049 107.148951 
L 272.100741 107.148951 
L 272.713086 106.088337 
L 272.100741 105.027723 
L 272.100741 105.027723 
L 273.325432 105.027723 
L 273.937778 103.96711 
L 273.937778 103.96711 
L 274.550123 105.027723 
L 275.774815 105.027723 
L 275.774815 105.027723 
L 275.162469 106.088337 
L 275.774815 107.148951 
L 276.999506 107.148951 
L 277.611852 106.088337 
L 277.611852 106.088337 
L 278.224198 107.148951 
L 279.448889 107.148951 
L 280.061235 106.088337 
L 279.448889 105.027723 
L 279.448889 105.027723 
L 280.67358 105.027723 
L 281.285926 103.96711 
L 280.67358 102.906496 
L 279.448889 102.906496 
L 279.448889 102.906496 
L 280.061235 101.845882 
L 279.448889 100.785268 
L 279.448889 100.785268 
L 280.67358 100.785268 
L 281.285926 99.724654 
L 281.285926 99.724654 
L 281.898272 100.785268 
L 283.122963 100.785268 
L 283.735309 99.724654 
L 283.122963 98.66404 
L 283.122963 98.66404 
L 284.347654 98.66404 
L 284.96 97.603427 
L 284.96 97.603427 
L 285.572346 98.66404 
L 286.797037 98.66404 
L 286.797037 98.66404 
L 286.184691 99.724654 
L 286.797037 100.785268 
L 288.021728 100.785268 
L 288.634074 99.724654 
L 288.634074 99.724654 
L 289.24642 100.785268 
L 290.471111 100.785268 
L 290.471111 100.785268 
L 289.858765 101.845882 
L 290.471111 102.906496 
L 290.471111 102.906496 
L 289.24642 102.906496 
L 288.634074 103.96711 
L 289.24642 105.027723 
L 290.471111 105.027723 
L 290.471111 105.027723 
L 289.858765 106.088337 
L 290.471111 107.148951 
L 291.695802 107.148951 
L 292.308148 106.088337 
L 292.308148 106.088337 
L 292.920494 107.148951 
L 294.145185 107.148951 
L 294.757531 106.088337 
L 294.145185 105.027723 
L 294.145185 105.027723 
L 295.369877 105.027723 
L 295.982222 103.96711 
L 295.982222 103.96711 
L 296.594568 105.027723 
L 297.819259 105.027723 
L 297.819259 105.027723 
L 297.206914 106.088337 
L 297.819259 107.148951 
L 299.043951 107.148951 
L 299.656296 106.088337 
L 299.656296 106.088337 
L 300.268642 107.148951 
L 301.493333 107.148951 
L 301.493333 107.148951 
L 300.880988 108.209565 
L 301.493333 109.270179 
L 301.493333 109.270179 
L 300.268642 109.270179 
L 299.656296 110.330793 
L 300.268642 111.391406 
L 301.493333 111.391406 
L 301.493333 111.391406 
L 300.880988 112.45202 
L 301.493333 113.512634 
L 301.493333 113.512634 
L 300.268642 113.512634 
L 299.656296 114.573248 
L 299.656296 114.573248 
L 299.043951 113.512634 
L 297.819259 113.512634 
L 297.206914 114.573248 
L 297.819259 115.633862 
L 297.819259 115.633862 
L 296.594568 115.633862 
L 295.982222 116.694476 
L 296.594568 117.755089 
L 297.819259 117.755089 
L 297.819259 117.755089 
L 297.206914 118.815703 
L 297.819259 119.876317 
L 299.043951 119.876317 
L 299.656296 118.815703 
L 299.656296 118.815703 
L 300.268642 119.876317 
L 301.493333 119.876317 
L 301.493333 119.876317 
L 300.880988 120.936931 
L 301.493333 121.997545 
L 301.493333 121.997545 
L 300.268642 121.997545 
L 299.656296 123.058159 
L 300.268642 124.118772 
L 301.493333 124.118772 
L 301.493333 124.118772 
L 300.880988 125.179386 
L 301.493333 126.24 
L 302.718025 126.24 
L 303.33037 125.179386 
L 303.33037 125.179386 
L 303.942716 126.24 
L 305.167407 126.24 
L 305.779753 125.179386 
L 305.167407 124.118772 
L 305.167407 124.118772 
L 306.392099 124.118772 
L 307.004444 123.058159 
L 307.004444 123.058159 
L 307.61679 124.118772 
L 308.841481 124.118772 
L 308.841481 124.118772 
L 308.229136 125.179386 
L 308.841481 126.24 
L 310.066173 126.24 
L 310.678519 125.179386 
L 310.678519 125.179386 
L 311.290864 126.24 
L 312.515556 126.24 
L 313.127901 125.179386 
L 312.515556 124.118772 
L 312.515556 124.118772 
L 313.740247 124.118772 
L 314.352593 123.058159 
L 313.740247 121.997545 
L 312.515556 121.997545 
L 312.515556 121.997545 
L 313.127901 120.936931 
L 312.515556 119.876317 
L 312.515556 119.876317 
L 313.740247 119.876317 
L 314.352593 118.815703 
L 314.352593 118.815703 
L 314.964938 119.876317 
L 316.18963 119.876317 
L 316.801975 118.815703 
L 316.18963 117.755089 
L 316.18963 117.755089 
L 317.414321 117.755089 
L 318.026667 116.694476 
L 318.026667 116.694476 
L 318.639012 117.755089 
L 319.863704 117.755089 
L 319.863704 117.755089 
L 319.251358 118.815703 
L 319.863704 119.876317 
L 321.088395 119.876317 
L 321.700741 118.815703 
L 321.700741 118.815703 
L 322.313086 119.876317 
L 323.537778 119.876317 
L 323.537778 119.876317 
L 322.925432 120.936931 
L 323.537778 121.997545 
L 323.537778 121.997545 
L 322.313086 121.997545 
L 321.700741 123.058159 
L 322.313086 124.118772 
L 323.537778 124.118772 
L 323.537778 124.118772 
L 322.925432 125.179386 
L 323.537778 126.24 
L 324.762469 126.24 
L 325.374815 125.179386 
L 325.374815 125.179386 
L 325.98716 126.24 
L 327.211852 126.24 
L 327.824198 125.179386 
L 327.211852 124.118772 
L 327.211852 124.118772 
L 328.436543 124.118772 
L 329.048889 123.058159 
L 329.048889 123.058159 
L 329.661235 124.118772 
L 330.885926 124.118772 
L 330.885926 124.118772 
L 330.27358 125.179386 
L 330.885926 126.24 
L 332.110617 126.24 
L 332.722963 125.179386 
L 332.722963 125.179386 
L 333.335309 126.24 
L 334.56 126.24 
L 334.56 126.24 
" clip-path="url(#p48a52ca9bd)" style="fill: none; stroke: #808080; stroke-linecap: square"/>
   </g>
  </g>
 </g>
 <defs>
  <clipPath id="p48a52ca9bd">
   <rect x="7.2" y="7.2" width="357.12" height="148.8"/>
  </clipPath>
 </defs>
</svg>
