<?xml version="1.0" encoding="utf-8" standalone="no"?>
<!DOCTYPE svg PUBLIC "-//W3C//DTD SVG 1.1//EN"
  "http://www.w3.org/Graphics/SVG/1.1/DTD/svg11.dtd">
<svg xmlns:xlink="http://www.w3.org/1999/xlink" width="371.52pt" height="163.2pt" viewBox="0 0 371.52 163.2" xmlns="http://www.w3.org/2000/svg" version="1.1">
 <metadata>
  <rdf:RDF xmlns:dc="http://purl.org/dc/elements/1.1/" xmlns:cc="http://creativecommons.org/ns#" xmlns:rdf="http://www.w3.org/1999/02/22-rdf-syntax-ns#">
   <cc:Work>
    <dc:type rdf:resource="http://purl.org/dc/dcmitype/StillImage"/>
    <dc:date>2025-11-14T10:12:45.071158</dc:date>
    <dc:format>image/svg+xml</dc:format>
    <dc:creator>
     <cc:Agent>
      <dc:title>Matplotlib v3.9.1.post1, https://matplotlib.org/</dc:title>
     </cc:Agent>
    </dc:creator>
   </cc:Work>
  </rdf:RDF>
 </metadata>
 <defs>
  <style type="text/css">*{stroke-linejoin: round; stroke-linecap: butt}</style>
 </defs>
 <g id="figure_1">
  <g id="patch_1">
   <path d="M 0 163.2 
L 371.52 163.2 
L 371.52 0 
L 0 0 
z
" style="fill: #ffffff"/>
  </g>
  <g id="axes_1">
   <g id="line2d_1">
    <path d="M 36.96 126.24 
L 47.982222 126.24 
L 53.493333 116.694476 
L 53.493333 116.694476 
L 59.004444 126.24 
L 70.026667 126.24 
L 75.537778 116.694476 
L 70.026667 107.148951 
L 70.026667 107.148951 
L 81.048889 107.148951 
L 86.56 97.603427 
L 86.56 97.603427 
L 92.071111 107.148951 
L 103.093333 107.148951 
L 103.093333 107.148951 
L 97.582222 116.694476 
L 103.093333 126.24 
L 114.115556 126.24 
L 119.626667 116.694476 
L 119.626667 116.694476 
L 125.137778 126.24 
L 136.16 126.24 
L 141.671111 116.694476 
L 136.16 107.148951 
L 136.16 107.148951 
L 147.182222 107.148951 
L 152.693333 97.603427 
L 147.182222 88.057902 
L 136.16 88.057902 
L 136.16 88.057902 
L 141.671111 78.512378 
L 136.16 68.966853 
L 136.16 68.966853 
L 147.182222 68.966853 
L 152.693333 59.421329 
L 152.693333 59.421329 
L 158.204444 68.966853 
L 169.226667 68.966853 
L 174.737778 59.421329 
L 169.226667 49.875804 
L 169.226667 49.875804 
L 180.248889 49.875804 
L 185.76 40.33028 
L 185.76 40.33028 
L 191.271111 49.875804 
L 202.293333 49.875804 
L 202.293333 49.875804 
L 196.782222 59.421329 
L 202.293333 68.966853 
L 213.315556 68.966853 
L 218.826667 59.421329 
L 218.826667 59.421329 
L 224.337778 68.966853 
L 235.36 68.966853 
L 235.36 68.966853 
L 229.848889 78.512378 
L 235.36 88.057902 
L 235.36 88.057902 
L 224.337778 88.057902 
L 218.826667 97.603427 
L 224.337778 107.148951 
L 235.36 107.148951 
L 235.36 107.148951 
L 229.848889 116.694476 
L 235.36 126.24 
L 246.382222 126.24 
L 251.893333 116.694476 
L 251.893333 116.694476 
L 257.404444 126.24 
L 268.426667 126.24 
L 273.937778 116.694476 
L 268.426667 107.148951 
L 268.426667 107.148951 
L 279.448889 107.148951 
L 284.96 97.603427 
L 284.96 97.603427 
L 290.471111 107.148951 
L 301.493333 107.148951 
L 301.493333 107.148951 
L 295.982222 116.694476 
L 301.493333 126.24 
L 312.515556 126.24 
L 318.026667 116.694476 
L 318.026667 116.694476 
L 323.537778 126.24 
L 334.56 126.24 
" clip-path="url(#p74761f04d3)" style="fill: none; stroke: #808080; stroke-linecap: square"/>
   </g>
  </g>
 </g>
 <defs>
  <clipPath id="p74761f04d3">
   <rect x="7.2" y="7.2" width="357.12" height="148.8"/>
  </clipPath>
 </defs>
</svg>
