<?xml version="1.0" encoding="utf-8" standalone="no"?>
<!DOCTYPE svg PUBLIC "-//W3C//DTD SVG 1.1//EN"
  "http://www.w3.org/Graphics/SVG/1.1/DTD/svg11.dtd">
<svg xmlns:xlink="http://www.w3.org/1999/xlink" width="371.52pt" height="163.2pt" viewBox="0 0 371.52 163.2" xmlns="http://www.w3.org/2000/svg" version="1.1">
 <metadata>
  <rdf:RDF xmlns:dc="http://purl.org/dc/elements/1.1/" xmlns:cc="http://creativecommons.org/ns#" xmlns:rdf="http://www.w3.org/1999/02/22-rdf-syntax-ns#">
   <cc:Work>
    <dc:type rdf:resource="http://purl.org/dc/dcmitype/StillImage"/>
    <dc:date>2025-11-14T10:12:45.146226</dc:date>
    <dc:format>image/svg+xml</dc:format>
    <dc:creator>
     <cc:Agent>
      <dc:title>Matplotlib v3.9.1.post1, https://matplotlib.org/</dc:title>
     </cc:Agent>
    </dc:creator>
   </cc:Work>
  </rdf:RDF>
 </metadata>
 <defs>
  <style type="text/css">*{stroke-linejoin: round; stroke-linecap: butt}</style>
 </defs>
 <g id="figure_1">
  <g id="patch_1">
   <path d="M 0 163.2 
L 371.52 163.2 
L 371.52 0 
L 0 0 
z
" style="fill: #ffffff"/>
  </g>
  <g id="axes_1">
   <g id="line2d_1">
    <path d="M 36.96 126.24 
L 40.634074 126.24 
L 42.471111 123.058159 
L 42.471111 123.058159 
L 44.308148 126.24 
L 47.982222 126.24 
L 49.819259 123.058159 
L 47.982222 119.876317 
L 47.982222 119.876317 
L 51.656296 119.876317 
L 53.493333 116.694476 
L 53.493333 116.694476 
L 55.33037 119.876317 
L 59.004444 119.876317 
L 59.004444 119.876317 
L 57.167407 123.058159 
L 59.004444 126.24 
L 62.678519 126.24 
L 64.515556 123.058159 
L 64.515556 123.058159 
L 66.352593 126.24 
L 70.026667 126.24 
L 71.863704 123.058159 
L 70.026667 119.876317 
L 73.700741 119.876317 
L 75.537778 116.694476 
L 73.700741 113.512634 
L 70.026667 113.512634 
L 71.863704 110.330793 
L 70.026667 107.148951 
L 70.026667 107.148951 
L 73.700741 107.148951 
L 75.537778 103.96711 
L 77.374815 107.148951 
L 81.048889 107.148951 
L 82.885926 103.96711 
L 81.048889 100.785268 
L 81.048889 100.785268 
L 84.722963 100.785268 
L 86.56 97.603427 
L 86.56 97.603427 
L 88.397037 100.785268 
L 92.071111 100.785268 
L 90.234074 103.96711 
L 92.071111 107.148951 
L 95.745185 107.148951 
L 97.582222 103.96711 
L 99.419259 107.148951 
L 103.093333 107.148951 
L 101.256296 110.330793 
L 103.093333 113.512634 
L 103.093333 113.512634 
L 99.419259 113.512634 
L 97.582222 116.694476 
L 99.419259 119.876317 
L 103.093333 119.876317 
L 101.256296 123.058159 
L 103.093333 126.24 
L 106.767407 126.24 
L 108.604444 123.058159 
L 108.604444 123.058159 
L 110.441481 126.24 
L 114.115556 126.24 
L 115.952593 123.058159 
L 114.115556 119.876317 
L 117.78963 119.876317 
L 119.626667 116.694476 
L 119.626667 116.694476 
L 121.463704 119.876317 
L 125.137778 119.876317 
L 123.300741 123.058159 
L 125.137778 126.24 
L 128.811852 126.24 
L 130.648889 123.058159 
L 130.648889 123.058159 
L 132.485926 126.24 
L 136.16 126.24 
L 137.997037 123.058159 
L 136.16 119.876317 
L 136.16 119.876317 
L 139.834074 119.876317 
L 141.671111 116.694476 
L 139.834074 113.512634 
L 136.16 113.512634 
L 136.16 113.512634 
L 137.997037 110.330793 
L 136.16 107.148951 
L 136.16 107.148951 
L 139.834074 107.148951 
L 141.671111 103.96711 
L 141.671111 103.96711 
L 143.508148 107.148951 
L 147.182222 107.148951 
L 149.019259 103.96711 
L 147.182222 100.785268 
L 150.856296 100.785268 
L 152.693333 97.603427 
L 150.856296 94.421585 
L 147.182222 94.421585 
L 149.019259 91.239744 
L 147.182222 88.057902 
L 143.508148 88.057902 
L 141.671111 91.239744 
L 141.671111 91.239744 
L 139.834074 88.057902 
L 136.16 88.057902 
L 136.16 88.057902 
L 137.997037 84.876061 
L 136.16 81.694219 
L 136.16 81.694219 
L 139.834074 81.694219 
L 141.671111 78.512378 
L 139.834074 75.330536 
L 136.16 75.330536 
L 137.997037 72.148695 
L 136.16 68.966853 
L 136.16 68.966853 
L 139.834074 68.966853 
L 141.671111 65.785012 
L 141.671111 65.785012 
L 143.508148 68.966853 
L 147.182222 68.966853 
L 149.019259 65.785012 
L 147.182222 62.60317 
L 147.182222 62.60317 
L 150.856296 62.60317 
L 152.693333 59.421329 
L 152.693333 59.421329 
L 154.53037 62.60317 
L 158.204444 62.60317 
L 158.204444 62.60317 
L 156.367407 65.785012 
L 158.204444 68.966853 
L 161.878519 68.966853 
L 163.715556 65.785012 
L 163.715556 65.785012 
L 165.552593 68.966853 
L 169.226667 68.966853 
L 171.063704 65.785012 
L 169.226667 62.60317 
L 169.226667 62.60317 
L 172.900741 62.60317 
L 174.737778 59.421329 
L 172.900741 56.239487 
L 169.226667 56.239487 
L 171.063704 53.057646 
L 169.226667 49.875804 
L 169.226667 49.875804 
L 172.900741 49.875804 
L 174.737778 46.693963 
L 174.737778 46.693963 
L 176.574815 49.875804 
L 180.248889 49.875804 
L 182.085926 46.693963 
L 180.248889 43.512121 
L 180.248889 43.512121 
L 183.922963 43.512121 
L 185.76 40.33028 
L 187.597037 43.512121 
L 191.271111 43.512121 
L 191.271111 43.512121 
L 189.434074 46.693963 
L 191.271111 49.875804 
L 194.945185 49.875804 
L 196.782222 46.693963 
L 196.782222 46.693963 
L 198.619259 49.875804 
L 202.293333 49.875804 
L 200.456296 53.057646 
L 202.293333 56.239487 
L 202.293333 56.239487 
L 198.619259 56.239487 
L 196.782222 59.421329 
L 198.619259 62.60317 
L 202.293333 62.60317 
L 200.456296 65.785012 
L 202.293333 68.966853 
L 205.967407 68.966853 
L 207.804444 65.785012 
L 207.804444 65.785012 
L 209.641481 68.966853 
L 213.315556 68.966853 
L 215.152593 65.785012 
L 213.315556 62.60317 
L 213.315556 62.60317 
L 216.98963 62.60317 
L 218.826667 59.421329 
L 218.826667 59.421329 
L 220.663704 62.60317 
L 224.337778 62.60317 
L 222.500741 65.785012 
L 224.337778 68.966853 
L 228.011852 68.966853 
L 229.848889 65.785012 
L 229.848889 65.785012 
L 231.685926 68.966853 
L 235.36 68.966853 
L 235.36 68.966853 
L 233.522963 72.148695 
L 235.36 75.330536 
L 235.36 75.330536 
L 231.685926 75.330536 
L 229.848889 78.512378 
L 231.685926 81.694219 
L 235.36 81.694219 
L 235.36 81.694219 
L 233.522963 84.876061 
L 235.36 88.057902 
L 235.36 88.057902 
L 231.685926 88.057902 
L 229.848889 91.239744 
L 229.848889 91.239744 
L 228.011852 88.057902 
L 224.337778 88.057902 
L 222.500741 91.239744 
L 224.337778 94.421585 
L 220.663704 94.421585 
L 218.826667 97.603427 
L 220.663704 100.785268 
L 224.337778 100.785268 
L 224.337778 100.785268 
L 222.500741 103.96711 
L 224.337778 107.148951 
L 228.011852 107.148951 
L 229.848889 103.96711 
L 231.685926 107.148951 
L 235.36 107.148951 
L 235.36 107.148951 
L 233.522963 110.330793 
L 235.36 113.512634 
L 235.36 113.512634 
L 231.685926 113.512634 
L 229.848889 116.694476 
L 231.685926 119.876317 
L 235.36 119.876317 
L 235.36 119.876317 
L 233.522963 123.058159 
L 235.36 126.24 
L 239.034074 126.24 
L 240.871111 123.058159 
L 240.871111 123.058159 
L 242.708148 126.24 
L 246.382222 126.24 
L 248.219259 123.058159 
L 246.382222 119.876317 
L 250.056296 119.876317 
L 251.893333 116.694476 
L 251.893333 116.694476 
L 253.73037 119.876317 
L 257.404444 119.876317 
L 257.404444 119.876317 
L 255.567407 123.058159 
L 257.404444 126.24 
L 261.078519 126.24 
L 262.915556 123.058159 
L 262.915556 123.058159 
L 264.752593 126.24 
L 268.426667 126.24 
L 270.263704 123.058159 
L 268.426667 119.876317 
L 268.426667 119.876317 
L 272.100741 119.876317 
L 273.937778 116.694476 
L 272.100741 113.512634 
L 268.426667 113.512634 
L 268.426667 113.512634 
L 270.263704 110.330793 
L 268.426667 107.148951 
L 268.426667 107.148951 
L 272.100741 107.148951 
L 273.937778 103.96711 
L 273.937778 103.96711 
L 275.774815 107.148951 
L 279.448889 107.148951 
L 281.285926 103.96711 
L 279.448889 100.785268 
L 279.448889 100.785268 
L 283.122963 100.785268 
L 284.96 97.603427 
L 284.96 97.603427 
L 286.797037 100.785268 
L 290.471111 100.785268 
L 290.471111 100.785268 
L 288.634074 103.96711 
L 290.471111 107.148951 
L 294.145185 107.148951 
L 295.982222 103.96711 
L 295.982222 103.96711 
L 297.819259 107.148951 
L 301.493333 107.148951 
L 301.493333 107.148951 
L 299.656296 110.330793 
L 301.493333 113.512634 
L 301.493333 113.512634 
L 297.819259 113.512634 
L 295.982222 116.694476 
L 297.819259 119.876317 
L 301.493333 119.876317 
L 301.493333 119.876317 
L 299.656296 123.058159 
L 301.493333 126.24 
L 305.167407 126.24 
L 307.004444 123.058159 
L 307.004444 123.058159 
L 308.841481 126.24 
L 312.515556 126.24 
L 314.352593 123.058159 
L 312.515556 119.876317 
L 312.515556 119.876317 
L 316.18963 119.876317 
L 318.026667 116.694476 
L 318.026667 116.694476 
L 319.863704 119.876317 
L 323.537778 119.876317 
L 323.537778 119.876317 
L 321.700741 123.058159 
L 323.537778 126.24 
L 327.211852 126.24 
L 329.048889 123.058159 
L 329.048889 123.058159 
L 330.885926 126.24 
L 334.56 126.24 
L 334.56 126.24 
" clip-path="url(#p3e4f4b6db5)" style="fill: none; stroke: #808080; stroke-linecap: square"/>
   </g>
  </g>
 </g>
 <defs>
  <clipPath id="p3e4f4b6db5">
   <rect x="7.2" y="7.2" width="357.12" height="148.8"/>
  </clipPath>
 </defs>
</svg>
